<svg id="Livello_1" data-name="Livello 1" xmlns="http://www.w3.org/2000/svg" viewBox="0 0 1366 768"><defs><style>.cls-1{fill:#6d6964;}.cls-1,.cls-2,.cls-3{isolation:isolate;}.cls-2{fill:#b08e5b;}.cls-3{fill:#fbb03b;opacity:0.89;}.cls-11,.cls-12,.cls-13,.cls-4,.cls-5,.cls-6,.cls-7,.cls-8,.cls-9{fill:none;}.cls-4{stroke:#6d6964;}.cls-11,.cls-12,.cls-13,.cls-4,.cls-6,.cls-7,.cls-8,.cls-9{stroke-miterlimit:10;}.cls-6{stroke:#fbb03b;}.cls-7{stroke:#d8ce6c;}.cls-8{stroke:#fff;}.cls-9{stroke:#efefef;}.cls-10{fill:#efefef;}.cls-11{stroke:#000;}.cls-12{stroke:#d1cdc7;}.cls-13{stroke:#a08055;}</style></defs><polyline class="cls-1" points="-443 52 158 -163 158 313"/><rect x="159.54" y="-786.45" width="1490.07" height="1490.07" transform="translate(52.62 -348.23) rotate(22.43)"/><polyline class="cls-2" points="764 509 1365 294 1365 770"/><polyline class="cls-3" points="1366 768 0 768 0 177"/><path class="cls-4" d="M163,229.64a19,19,0,0,1-7-11.9,23.42,23.42,0,0,1,3.73-17.26c1.85-2.68,4.48-5.07,7.69-5.58a10.35,10.35,0,0,1,9.12,3.74,19.74,19.74,0,0,1,4.11,9.31,22.56,22.56,0,0,1-.49,12.15c-1.42,3.86-4.55,7.23-8.54,8.19-5.34,1.28-11.08-2.16-13.49-7.1s-1.9-10.9.2-16c2.21-5.32,7.07-10.34,12.81-9.79,6.13.58,10,7.2,10.59,13.32.64,6.44-1.43,13.43-6.51,17.43s-13.35,4-17.54-.94c-2.29-2.7-3.12-6.37-3.21-9.91a28.59,28.59,0,0,1,9.17-21.48c2.38-2.18,5.48-4,8.68-3.55,4.68.7,7.2,5.8,8.53,10.34,2,6.81,3,14.35.19,20.85s-10.77,11.14-17.27,8.3c-3.28-1.44-5.64-4.45-7.15-7.7a24.77,24.77,0,0,1,12-32.88,6.39,6.39,0,0,1,3.63-.78,6.71,6.71,0,0,1,3.67,2.56,27.64,27.64,0,0,1,6.55,12.78c3.32,17.95-20.21,26.54-18.18,4.06,2.06-22.84,19.64-4.58,13.12,10.88-1.48,3.51-4.7,6.48-8.5,6.8-5.83.49-10.66-5.68-10.34-11.52s4.46-10.86,9.33-14.1c2.81-1.87,6.46-3.31,9.5-1.83,2.09,1,3.34,3.19,4.34,5.28,2.31,4.87,3.93,10.25,3.36,15.61s-3.7,10.66-8.69,12.71c-9.1,3.73-17.46-4-27,2.37l6.6-2.88a15.64,15.64,0,0,0-9.87,1.88l6.95-2.38a45.54,45.54,0,0,0-11.1,8.41l13.79-7.32-23,20.22a178.15,178.15,0,0,0,15.88-15.45l-14.87,17,10.5-12.61a63.15,63.15,0,0,0-1.86,36c-3.77-10.3-7.57-21.46-4.52-32a185.66,185.66,0,0,0,3,43.26c-6.62-8.81-6.51-21.39-2-31.42s12.89-17.86,21.82-24.32c-9.35,1.86-16.92,9.16-21.24,17.65s-5.84,18.1-6.83,27.58c-.45,4.27-.76,8.78,1,12.7s6.4,6.87,10.42,5.33c-6.84-1.23-11.29-8.48-11.55-15.42s2.7-13.57,5.87-19.75c3.88-7.6,8.34-15.18,15.08-20.41,7.08-5.5,16.26-8.07,22.61-14.4,5-5,7.79-12.49,6-19.3s-9-12.16-15.89-10.86c-5.13,1-9.24,5.22-11.06,10.12s-1.66,10.34-.67,15.47a51.65,51.65,0,0,0,10.25,22.34A40.06,40.06,0,0,0,156,230.31a62.64,62.64,0,0,0,21.58,21.56A35.83,35.83,0,0,0,161.84,231a112.09,112.09,0,0,0,20.22,19.25,104.69,104.69,0,0,1-17.81-9.6A54.17,54.17,0,0,1,187.2,289.6c-.35,3.69-2.13,8.26-5.83,8.22a20.28,20.28,0,0,1,1.44-18.77c2.51,8.07-5.28,16.56-13.68,17.46s-16.47-3.68-22.85-9.22l26.8,7.06L140.77,288a65.82,65.82,0,0,1,25.5,8.05l-27.74-7.9c7.06-.46,14.13,1.8,21.17,1.07s14.6-6.44,13.27-13.4c-4.16,13-20.85,20.24-33.19,14.39A29.15,29.15,0,0,0,179.43,260a67.52,67.52,0,0,1-9.49,35.08,55,55,0,0,1,9.8-31.73,57,57,0,0,1-1.91,31.12,60.92,60.92,0,0,1,2.62-19.58A43.74,43.74,0,0,1,174.59,300"/><path class="cls-4" d="M42.37,29.54l-.69-.69"/><path class="cls-4" d="M160,209.09a2,2,0,0,0-2.69-1.34"/><path class="cls-4" d="M177.66,200.08c-11.24-20.72-27.18-5.16-28,12.25-.52,11.4,9.29,17,19,16.06C185.31,226.75,184.36,212.41,177.66,200.08Z"/><path class="cls-4" d="M173.82,290.27a53.1,53.1,0,0,0,.61-36.75c-1.12,8.22-.51,16.58.11,24.85a162.58,162.58,0,0,1-1.95-27.88,40.45,40.45,0,0,1-8,29.76C156,291.47,150,285,139.45,279.12a178.45,178.45,0,0,0,25.42,11.66"/><path class="cls-4" d="M149.65,235.17a1.74,1.74,0,0,0-.59,2.08"/><path class="cls-4" d="M141.1,258.53a40.58,40.58,0,0,0,4.79,22c2.76,5.07,7,9.76,12.54,11.25-8.22-8.57-16.81-17.84-19-29.51l10.28,25.6c-2.71-.31-4.83-2.43-6.61-4.49-5.82-6.71-11-15.51-8.58-24.07,1.19-4.28,4.15-7.86,7.44-10.85,6.64-6,15.62-10.29,24.47-8.8-8.6-1-17.86.86-24.34,6.61s-9.43,15.76-5.63,23.54c4,8.12,13.43,11.76,19.62,18.33a37.71,37.71,0,0,1-14.53-14.29,59.94,59.94,0,0,0,14.74,16.86q-6.57-4.56-13.53-8.52a27.08,27.08,0,0,0,14.86,14.22l-11.21-2.71,11.49,4.73-14.59-5.5,13.91,7.79-11.31-7.12c4.4,4.64,11.4,8.06,17.12,5.19,5.09-2.55,6.87-8.79,10.21-13.42A50.18,50.18,0,0,0,163.37,296a38,38,0,0,1,9-11.79l-4.68,10c3.23-8.54,6.47-17.12,8.45-26,.61-2.72,1.09-5.55.42-8.25-1-3.94-4.18-6.86-7-9.82a62.53,62.53,0,0,1-16.32-34.44,117.4,117.4,0,0,0,14.41,31c-2.28-5.6-5.5-10.75-8.69-15.88l14.22,22.61A105.36,105.36,0,0,1,153,212.85a124.11,124.11,0,0,1,16.22,35.36,184.38,184.38,0,0,1-10.92-36.05c5.11,15.32,10.24,30.7,17.56,45.1a361.59,361.59,0,0,1-16.11-36.9A184.64,184.64,0,0,0,178,257.5c-6.71-11.1-13.49-22.37-17-34.85q6.95,15,13.11,30.26A146.07,146.07,0,0,1,161.88,223a124.34,124.34,0,0,0,13.55,32.68l.85-1.76"/><path class="cls-4" d="M259.49,259.66a143.2,143.2,0,0,0-25.83,54.2c1.32-18.49,10.84-35.31,21-50.85A78.68,78.68,0,0,0,242,312.42c-4.57-23.05,5.74-48.36,25.12-61.65-11.74,8-20.29,19.81-28.59,31.35A147.9,147.9,0,0,1,255,261.62c3-3.09,6.54-6.26,10.84-6.29,3.87,0,7.36,2.62,9.41,5.9s2.92,7.14,3.76,10.92A26.8,26.8,0,0,1,268.8,257c9,6.62,14,17.16,18.72,27.27A58,58,0,0,1,269.74,259a52.05,52.05,0,0,1,11.94,18.21,65.53,65.53,0,0,1-2.71-16,222.42,222.42,0,0,1,8.59,35,25.77,25.77,0,0,1,.32,9.09c-1.46,7.3-8.52,12.1-15.48,14.74-3.26,1.23-6.77,2.18-10.21,1.64-3.72-.59-7-2.87-9.64-5.54-10.11-10.08-13-26.73-6.76-39.6-1.85,9.3-3.7,18.69-3.59,28.18s2.35,19.2,8,26.83a180,180,0,0,0-9.56-29.9,64.73,64.73,0,0,0,17.07,29,89.07,89.07,0,0,0-16.86-19.67,22.28,22.28,0,0,0,19.43,16.18,60.9,60.9,0,0,0-15.12-1.25,56.36,56.36,0,0,0,22.64,5.64,15.54,15.54,0,0,0,6.15-.73c5.12-2,7.28-7.94,8.61-13.27,3.6-14.51,5.47-29.75,2.57-44.42-1.05-5.35-2.82-10.71-6.35-14.86s-9.12-6.85-14.46-5.77c-5,1-8.87,5.06-11.73,9.3-12.91,19.14-11.15,46.9,4.07,64.25a9.88,9.88,0,0,0,4.29,3.25,8.56,8.56,0,0,0,5.3-.43c9.06-3.25,14.22-12.77,17.12-21.94a95.27,95.27,0,0,0,4.31-33.62c-.38-7.5-2.23-15.87-8.58-19.88-3-1.88-6.53-2.52-10-2.9s-6.95-.49-10,1c-3.37,1.69-5.5,5.12-7.1,8.54a57.38,57.38,0,0,0-2.23,42.79c2.43,7,6.48,13.74,12.76,17.66a3.64,3.64,0,0,0,2.36.74,3.88,3.88,0,0,0,2.39-2,95.2,95.2,0,0,0,15.51-45.55c.26-3.58.27-7.36-1.38-10.55-3-5.79-10.83-7.77-17-5.75s-10.93,7.09-14.56,12.5a61.2,61.2,0,0,0,13.69-13.71,152.1,152.1,0,0,1-17.65,10.95c4.12-4.57,8.42-9.28,14-11.77s13-2.15,17.09,2.47c2.44,2.75,3.34,6.53,3.76,10.19,1.38,11.76-1.29,23.77-6.32,34.49-2,4.32-4.52,8.57-8.28,11.5s-9,4.32-13.41,2.47c-5.69-2.4-8.14-9.12-9-15.24-1.33-9.63-.16-19.79,4.5-28.32s13-15.24,22.64-16.71a12.28,12.28,0,0,1,5.53.17c3.82,1.16,6.19,4.94,7.87,8.57,4.95,10.68,6.94,22.89,4.54,34.41s-9.41,22.22-19.6,28.12c-3.92,2.27-8.49,3.84-13,3.05-6.21-1.1-10.74-6.44-14-11.86-5.26-8.81-8.61-19.27-6.72-29.35,1.8-9.69,8.17-17.91,15.22-24.79,6.51-6.35,15.49-12.29,24.12-9.42,7.2,2.39,11.2,10.12,12.92,17.5a55.6,55.6,0,0,1-5.69,39.49c-3.08,5.43-7.23,10.46-12.76,13.37s-12.59,3.37-17.91.1c-5.57-3.42-8.26-10.12-9.31-16.57-3.18-19.37,6.18-40.21,22.75-50.71,4.11-2.6,9.66-4.52,13.59-1.67,1.83,1.33,2.89,3.45,3.8,5.52,4.41,10.1,6.75,21.38,4.77,32.22s-8.72,21.11-18.76,25.66c-3.57,1.62-7.68,2.49-11.41,1.29-4.89-1.56-8.09-6.29-9.91-11.08-6.21-16.37-.11-35.31,10.78-49a49.68,49.68,0,0,0-1.59,64.43,135.54,135.54,0,0,1-14.55-34.42,154.72,154.72,0,0,1,15.47,34.63Q252.68,311,247,296.58a190.84,190.84,0,0,1,17.9,29.86,132.42,132.42,0,0,1-18.14-23.05"/><path class="cls-4" d="M388.53,316.68a554.85,554.85,0,0,0-31,47.31,276.23,276.23,0,0,1,31.33-45.25q-12.39,24-26.71,46.92A144.37,144.37,0,0,1,392,311.76l-30.5,53.49c5.84-21.76,17.8-41.29,29.6-60.48L358,360.15a394.28,394.28,0,0,1,44.3-76.63q6.48,44.1,14.81,87.91a278.84,278.84,0,0,1-13.21-76.91,799.37,799.37,0,0,1,19.3,78.38,336.05,336.05,0,0,1-17.74-87.08l17.66,85.28a727.56,727.56,0,0,1-20.3-86.85,691.36,691.36,0,0,0,31.33,112.28A654.91,654.91,0,0,1,367.83,373a120,120,0,0,1,43.8,6.67q-26.43-3-53.06-3.55a538.62,538.62,0,0,1,63.77-1.83q-28.39-2.79-57-2.94,35.06,2.88,69.79,8.68l-59.29,6.45a303.85,303.85,0,0,1,62.81,4.35c-14.3-2.65-29-.69-43.53-.5s-30-1.78-41.34-10.89a99.54,99.54,0,0,1,20.07-41.89l-21.1,40.6a147.18,147.18,0,0,1,18.87-37.08,149.33,149.33,0,0,1-7.49,45.4,204.83,204.83,0,0,1,9.28-57.82,215.14,215.14,0,0,1-10.51,42.12A54,54,0,0,1,370,342.33,121.09,121.09,0,0,1,354,379.87l50.54,2.44L358.63,382a181.71,181.71,0,0,1,54.7,3.31A6.43,6.43,0,0,1,417,387c.9,1,.83,3-.45,3.51"/><path class="cls-5" d="M312.39,337.17c-.2-.93-1.79.14-1.29.95s1.66.76,2.6.63l38.51-5.63a237.05,237.05,0,0,0-41.79,6.51l37.08-4.32a244.87,244.87,0,0,0-43.33,13.88l44.37-12.34-49.42,13.21,48.23-7.34a216.19,216.19,0,0,0-52.53,12,329.32,329.32,0,0,1,38.67-14.6l-45,17.75A207.44,207.44,0,0,1,351.59,338q.35,46.23-2.29,92.42c-6.61-29.08-2-59.4,2.63-88.87q-4.1,52.91-12,105.41c-4.07-30.05,2-60.54,9.95-89.8a396.35,396.35,0,0,1-8.52,86.76,223.9,223.9,0,0,1,2.87-61.15,716.7,716.7,0,0,1-7.58,79.71c3.16-34.77,6.44-70.09,19.28-102.55,3.34-8.47,7.32-18.12,3.21-26.24q-1.75,22-5.57,43.72l-4.18-32.13c-.13-1-.47-2.2-1.45-2.36s-1,2-.15,1.45"/><path class="cls-6" d="M359.22,402.3a143.42,143.42,0,0,0-32.71-2.16,322.63,322.63,0,0,1,46.62,1.58,130.17,130.17,0,0,1-40.73-5.31,130.05,130.05,0,0,1,37.22-2.8,240.28,240.28,0,0,1-39.14-1.31,164.45,164.45,0,0,1,29.93.66L329,394.86a61.31,61.31,0,0,1,42.11,3c-8.19,4.27-19.88,4.92-28.74,3.49C346.09,399.63,354.45,401.43,359.22,402.3Z"/><path class="cls-6" d="M367.05,424.6c-1.35.54-2.9-.58-3.35-2a8,8,0,0,1,.19-4.29q3-13.07,6-26.14a539.75,539.75,0,0,1-15.42,59.64c3.24-27.38,6.49-54.8,11.75-81.87-1.85,26.32-9.2,51.9-16.51,77.25a619.4,619.4,0,0,1,9.7-65.59c-2,19.74-11.73,51.62-3,69.58a223.05,223.05,0,0,0,6.81-74.86,581.64,581.64,0,0,1-18.67,78.79c-1.3-11.46,2.31-22.87,6.25-33.71a497.84,497.84,0,0,1,21.54-50.38,103.44,103.44,0,0,0-50.14,6.74l40.05-.45c-15.78-4.49-31.69-9-48-10.24l45.25,3a50.81,50.81,0,0,0-36.8,9.3q22.15,1,44.35.21A343.44,343.44,0,0,0,326.73,377c-.66,0-1.49.11-1.68.74s1.18.87.94.25"/><path class="cls-6" d="M336.94,405.12q21,7,41.68,15.13l-44.95-15c3.66-.83,7.45.4,11,1.66q18.27,6.51,36,14.45a105.72,105.72,0,0,1-38.26-20.5c17.24,1.17,32.26,11.63,46.29,21.71"/><path class="cls-6" d="M507.37,350.46q15.48.26,30.93-.93a100.26,100.26,0,0,0-37.13,8.67l49.74-11.08q-21.35,3.81-42.36,9.2L554,346.71q-23.46,3.12-46.58,8.36a163.83,163.83,0,0,1,54.77-14.46,495.86,495.86,0,0,0-56,5.53,137.3,137.3,0,0,1,41.4-7.8,171.86,171.86,0,0,0-42.07,12.16l55.84-10.06A549.08,549.08,0,0,0,502.82,354l19.76,22.47a55.91,55.91,0,0,1-24.69-13.55,121.14,121.14,0,0,1,25,12.58,276.25,276.25,0,0,1-34.4-20.68,67.46,67.46,0,0,1,28.82,17.93,37.51,37.51,0,0,1-14.51-19.15,126.71,126.71,0,0,1,34.61-5.13,306.2,306.2,0,0,0-43,10.5q11,11.37,22.88,21.81l-33.63,20.33q13.89-7.89,28.37-14.66l-25.67,27.68a73,73,0,0,1,22.28-23.23,170.87,170.87,0,0,1-21.15,27,240.46,240.46,0,0,1,19.91-25.83l-23.76,18.36q11.89-11.9,24.89-22.59a343.52,343.52,0,0,1-31,40.65,157.64,157.64,0,0,1,27.17-32.61A271.92,271.92,0,0,1,479.35,426a118.51,118.51,0,0,1,24.47-31.31l-34.24,31q32.35,2.91,64.37,8.66a142.92,142.92,0,0,1-44.9-2.76,299.8,299.8,0,0,1,66.8,4.83,376.81,376.81,0,0,1-57.08,3l60.51.2q-32.19-8.38-64.91-14.5l60.18.56q-39.22-.63-78.46,1.06a346.36,346.36,0,0,1,80.77-.24,664,664,0,0,1-76,10.13l68.35.55a495.87,495.87,0,0,1-83.88-2.32,64.82,64.82,0,0,1,23-31.88"/><path class="cls-7" d="M884.69,502.77a172.83,172.83,0,0,0-19.79-61.34,541.48,541.48,0,0,1,20.74,62.42l-23.8-72.3A252.53,252.53,0,0,0,876,487.45l-9-35.35"/><path class="cls-7" d="M894.89,447.86a147,147,0,0,0,17.35,48.06,509.48,509.48,0,0,1-21.34-66.38l18.42,43.92L892.2,431.64l17,49.39a288,288,0,0,1-19.48-44L904,479A201.25,201.25,0,0,0,893,440.44,96,96,0,0,0,907,480.07c1.72,2.72,3.68,5.46,6.52,7,4.85,2.59,11.1.86,15.28-2.71s6.76-8.62,9.23-13.53c-8.16,5.82-16.85,11.83-26.84,12.72s-21.36-5.56-22-15.56c16.43,1.41,22.38,24.68,38.07,29.75a129.17,129.17,0,0,0,.63-32C925.1,470.89,929.19,478,926,483c-3.37,5.13-11.64,3.29-16.09-.94-6.41-6.09-9-15.22-9.83-24s-.27-17.73-1.68-26.45a56.72,56.72,0,0,0,12,39.23c3.92,4.93,9,9.38,15.26,10.41s13.46-2.52,14.73-8.69"/><path class="cls-7" d="M830.7,440.9h0c-1.09.56-9.12,2.39-10.21,3A890.91,890.91,0,0,1,910,422.19a292.3,292.3,0,0,0-66.15,16.44q35.26-15.47,71.4-28.87c-27.66,9.87-54.35,22.26-81,34.63a169.85,169.85,0,0,1,85.62-27.09,429,429,0,0,0-80.71,11.1,901.45,901.45,0,0,1,87.59-30.15L856.29,421c-11.6,3.73-23.24,7.49-34.23,12.74q44.54-16.14,90.38-28.27c3.09-.82,6.88-1.43,9,.93"/><path class="cls-8" d="M1201.85,217.56a32.55,32.55,0,0,0,5.91,11.69l-6.88-13.1a43.28,43.28,0,0,0,5.24,12.6l-3.36-5.4a17.82,17.82,0,0,0,2.7,7.73,36.38,36.38,0,0,0-16.23-21.84,42.6,42.6,0,0,1,10.61,9.83l-6.45-2.19,9.26,16.56-4.75-10.88a100.35,100.35,0,0,0,4.79,15.81l-1-12.37a31.86,31.86,0,0,1,.82,11.67l-4.34,1.16c3,0,4.88,4.45,2.78,6.64,8.34-14.48,3.29-35.13-10.8-44.11-3.61-2.3-10.09-2.6-10.52,1.65,6.72-1.15,13.87,4,14.9,10.74a48,48,0,0,0-11.8-16.17A86.65,86.65,0,0,0,1169.59,246a150.88,150.88,0,0,0,6.61-39.5,155.69,155.69,0,0,0-11.66,45.07,189.42,189.42,0,0,1,11.71-44.21,157.43,157.43,0,0,0,5.38,81.89,473.53,473.53,0,0,0-8.74-55,313.9,313.9,0,0,0,22.5,89.46q-8.28-39.88-19.07-79.19c3.88,37.74,15.32,74.25,26.7,110.45l-15.4-61q7.73,41.49,19,82.23l-18.87-83.72c5,32.78,10,65.68,19.38,97.49l-20.5-87.16,37.69,125.72c6.25,20.86,12.56,42.79,8.1,64.11-2,9.57-8.17,20.09-17.94,20.35-3.86.1-7.57-1.5-10.86-3.53a41.4,41.4,0,0,1-17.48-22.52l20.52,19.72-17.32-35.16a199.07,199.07,0,0,1,16.41,25.11,75.17,75.17,0,0,1-18.07-25.15,23.4,23.4,0,0,1,10.61,13.21,14.83,14.83,0,0,1-14.32-10.83c3.17-1.5,6.95-2.35,10.16-.94s5.18,5.8,3.12,8.64c-2.75,3.79-9.9.18-9.25-4.46s7-6.87,11-4.48,5.47,7.81,4.36,12.36c-1,4-4.54,7.92-8.61,7.25-2.91-.47-5-3.05-6.45-5.61-2.19-3.8-3.51-9.16-.32-12.17s8.94-1.09,11.29,2.65,2.31,8.46,2.19,12.88c-4.88.81-9.67-2.62-12-7s-2.84-9.43-3.27-14.35c-5.37,15.13,3.27,33.78,18.3,39.45a83.09,83.09,0,0,0-12.79-21.09,79.7,79.7,0,0,0,20.78,20.65,19,19,0,0,0-12.29-5.59c2.66,5,8.62,7.62,14.24,7.26,10.94-.71,19.06-11.45,20.63-22.3s-1.83-21.72-5.18-32.16l2.89,40.16c1.22-62.16-32.9-118.66-52.84-177.55l29,78q-16.55-56.72-29.72-114.34a322.38,322.38,0,0,0,9,46.2,364.56,364.56,0,0,0-14.63-74.46,564.21,564.21,0,0,0,15.2,95.36l-2.24-50.46a1018.13,1018.13,0,0,0,43.78,160L1203,364.11a579,579,0,0,0,20.83,96.29c-3.5-65.3-36.41-125.21-50-189.17-3.94-18.56-6-38.75,2.26-55.79,2.42-5,6.28-9.9,11.73-10.71,6.6-1,12.4,4.45,16,10.08a55.78,55.78,0,0,1,8.66,31.63c-.19,5.84-4.66,13.51-9.81,10.76a8.27,8.27,0,0,1-3.08-3.53,33.6,33.6,0,0,1-.45-30.88,37.93,37.93,0,0,1,7.48,37.26c-7.86-3.78-11.86-14.05-8.64-22.15-.51,1.29,9.88,9.36,5.94,16.52-9.17-1.76-12.55-14.29-6.09-20.67,4.16-4.12,16.21-3.28,8.53-12.53,1.4,2.51,2.61,5.14,3.86,7.71C1207.35,225.19,1204.61,221.36,1201.85,217.56Z"/><path class="cls-8" d="M1242.64,476.82l.1-.95a1.19,1.19,0,0,1-.63,1.86V476a1.1,1.1,0,0,1,.78,0,1.5,1.5,0,0,1-1.32,2,1.94,1.94,0,0,1,.31-2.26,2,2,0,0,1,2.26-.35,1.1,1.1,0,0,1-1.45,1.34l0-1.46a1,1,0,0,1,.17,1.18.67.67,0,0,1-.83-.54c1.32-.25,2.55.69,3.48,1.67A19.5,19.5,0,0,1,1250,485a34.7,34.7,0,0,1-7.93-7.17,46.55,46.55,0,0,1,9.74,9.93q-4.47-5-8.82-10.21a45.91,45.91,0,0,1,13.16,14.2l-10.87-12.32a42.54,42.54,0,0,1,9.88,10.76l-4.74-5.11a20.25,20.25,0,0,0,6.2,6.23c.24-5.64.21-11.29-.09-16.92a158.13,158.13,0,0,1,.44,16.86,27.92,27.92,0,0,1-.71-17.94,37.66,37.66,0,0,1,.9,17.43,29.59,29.59,0,0,1-2.25-19.72c2.06,5,2.14,10.64,2.2,16.09a80.31,80.31,0,0,1-1.66-15.15,25.7,25.7,0,0,1,1,8.5"/><path class="cls-8" d="M1265.26,473.1a7.24,7.24,0,0,0-2.08,3,17.66,17.66,0,0,1,1.28-5l-2.2,4.43a4.15,4.15,0,0,1,1.08-3,7.45,7.45,0,0,1,3.35-3.09c1.46-.49,3.46.36,3.51,1.9a27.56,27.56,0,0,0-4.56-1.64,1.49,1.49,0,0,0-1.08,0,1.47,1.47,0,0,0-.57.76,14.77,14.77,0,0,0-.86,8.66l0-4.44a20.17,20.17,0,0,0,3.64,8.57,37.22,37.22,0,0,0-4.28-8,51.75,51.75,0,0,0,6.69,10.94,86.58,86.58,0,0,0-6.74-6.67,12.51,12.51,0,0,0,3.19,5.27c1.12,1.1,2.65,2,4.18,1.68s2.62-2.09,3.08-3.72a13.49,13.49,0,0,0-2.18-11.55,54.6,54.6,0,0,1,1,10.36,13.42,13.42,0,0,1-.63-7.55,17.64,17.64,0,0,1,1.37,10c-.69-2-.33-4.13-.53-6.2a11.48,11.48,0,0,0-3-6.68,4,4,0,0,1,2.54-.08,1.86,1.86,0,0,1,1.26,2c-.29,1.25-2.17,1.46-3.15.64a5.76,5.76,0,0,1-1.55-3.45,2.71,2.71,0,0,1,3,2.77,1.81,1.81,0,0,1-1.3-2.49c2.48,3.44,3.78,7.57,5,11.61a40.75,40.75,0,0,1-4.5-13,83.05,83.05,0,0,1,6.34,14,56,56,0,0,1-7-13,117.11,117.11,0,0,1,6.16,11.06q-1.74-2.52-3.72-4.88a14.34,14.34,0,0,0,4.23,7.44c.42.39,1.11.74,1.48.3a11.7,11.7,0,0,0-3.13-2.82,2.1,2.1,0,0,0-.08,1.5,4.6,4.6,0,0,0,4.32-1.59,13.62,13.62,0,0,0,2.3-4.22,26.41,26.41,0,0,1-2.1,4.31,3.81,3.81,0,0,1,.23-3.7,2.85,2.85,0,0,1-.66,2.88,2.89,2.89,0,0,1-2.88.68"/><path class="cls-8" d="M1278.14,461.53a97.18,97.18,0,0,0,4.85,12.83,24,24,0,0,0-1.49-4.94L1277,457.75l8,18.34A84.78,84.78,0,0,1,1279.4,461a71,71,0,0,1,7.17,17.07,53,53,0,0,1-7-17.1l4.7,12.78a95.38,95.38,0,0,1-6.61-15.34c-.53-1.62-.83-3.79.63-4.66a10.88,10.88,0,0,1,1.06,5.47l-.91-5.16a41.44,41.44,0,0,0,7.91,22.07,4.74,4.74,0,0,0-2-3.51,3.75,3.75,0,0,0,3.32,3.94"/><path class="cls-8" d="M1286.76,458.88a91.8,91.8,0,0,0,5.87,12.3,160.09,160.09,0,0,1-6.91-16l7.87,17.36c-2.25-4.95-4.51-9.91-6.46-15a124.52,124.52,0,0,0,5.45,14.57c-2.63-5.68-5.3-11.54-5.59-17.79,0-.68.11-1.56.78-1.71s1.2.67,1.45,1.36.41,1.63-.23,2a1.06,1.06,0,0,1-1.35-.52,3.07,3.07,0,0,1-.26-1.56,5.88,5.88,0,0,1,1.2,2c-.5-.65-.32-1.56-.32-2.37s-.46-1.83-1.28-1.77-1.11,1.1-1.16,1.91a28.2,28.2,0,0,0,4.81,17.44,21.64,21.64,0,0,0-3.11-11,26.77,26.77,0,0,0,6.71,14.7,45.88,45.88,0,0,0-3.8-5.07c-.25,1.38.66,2.69,1.59,3.74s2,2,3.29,1.91a3.19,3.19,0,0,0,2.5-1.81,9.53,9.53,0,0,0,.81-3.11l-.8,3.23c-.16.65-.57,1.46-1.22,1.33a1.31,1.31,0,0,1-.74-.67,15.69,15.69,0,0,1-2.2-5.95l.36,5.25a3.83,3.83,0,0,1-3.86-1.61,10.56,10.56,0,0,1-1.58-4.12"/><path class="cls-8" d="M1300.76,463.37a13.83,13.83,0,0,0,3.24,7.86q-2.4-5.64-5.11-11.14a23.68,23.68,0,0,0,4.42,9.37q-2.25-6.1-4.79-12.09l4.49,9.87a33.91,33.91,0,0,1-4.81-9.9,1.15,1.15,0,0,1,0-.91,1.12,1.12,0,0,1,.72-.43,10.93,10.93,0,0,1,2.9-.36,5,5,0,0,1,3.21,1,2.45,2.45,0,0,1,.67,3,3.72,3.72,0,0,1-1.38,1.13l-4.44,2.57a21.79,21.79,0,0,0,5.39-3.11,2.06,2.06,0,0,0,.67-.77c.32-.82-.45-1.64-1.19-2.11a13,13,0,0,0-4.41-1.8,1.71,1.71,0,0,0-2.34,2,14.72,14.72,0,0,0,3.83,10.5,8,8,0,0,0,4.71,2.74,3.38,3.38,0,0,0,2.64-.64c1.71-1.44.74-4.19,1.08-6.4.14.77.64,1.44.73,2.21s-.6,1.72-1.31,1.4a1.32,1.32,0,0,1-.59-.68,8.7,8.7,0,0,1-1-3.27c0-.35,0-.77.3-1,.47-.27,1,.34,1.14.86a8.67,8.67,0,0,1,.3,4.14,2.23,2.23,0,0,1-1.84-1.94,6.72,6.72,0,0,1,.35-2.83,4.78,4.78,0,0,1,.26,5.7,2.7,2.7,0,0,1-1.2,1,1.87,1.87,0,1,1-1.2-3.54,6.38,6.38,0,0,1-4.55,6.08"/><path class="cls-8" d="M1222.86,231.51l-1.07-1.71,4.12,9.22a38.45,38.45,0,0,1-4-8.05l4.42,10.34q-2.53-6.28-5.46-12.4l4.42,8.64-2.94-8a14.29,14.29,0,0,1,1.81,3.7l3.32,8.79-3.37-7.93q2.31,4.1,4.22,8.4c-1-2.07-2.08-4.1-3.22-6.1a16.93,16.93,0,0,0,3.46,6.95c.21.26.49.53.82.47s.51-.51.59-.87a44.79,44.79,0,0,0,.7-13,59.5,59.5,0,0,0-1.72,10.52,34.8,34.8,0,0,1,1.72-11.81l-.65,12.72-.18-13.08a59,59,0,0,1-.34,11l-.07-.89"/><path class="cls-8" d="M1236.69,231.3a8.71,8.71,0,0,0,1.51,6.87,34.09,34.09,0,0,0-2.52-9.14,28.14,28.14,0,0,0,3,9.11,15.28,15.28,0,0,1-2.44-4.81,5.17,5.17,0,0,1,.19-4.26,4.36,4.36,0,0,1,1.53-1.36,7.68,7.68,0,0,1,4.81-.94c1,1.23.25,3.15-1,4a8.63,8.63,0,0,1-4.46,1.12,7.88,7.88,0,0,0,3.22-.53,2.8,2.8,0,0,0,1.32-.89,2,2,0,0,0-.51-2.7,2.74,2.74,0,0,0-2.88-.12,4.32,4.32,0,0,0-1.9,2.3,7,7,0,0,0,.91,6.43A9.36,9.36,0,0,0,1243,240a25.9,25.9,0,0,0-6.35-4.86c2.32,2.22,5.92,2.25,9.13,2.09a16.59,16.59,0,0,0-8.09.64A12.36,12.36,0,0,0,1247,235a19.77,19.77,0,0,0-3.61,4l2.57-4.69a4.48,4.48,0,0,1-.54,3,21.54,21.54,0,0,1-.15-4.25,12.44,12.44,0,0,1-1.33,6.54c-.13.27-.5.56-.67.31a3.06,3.06,0,0,1,1.35-3.31,4.08,4.08,0,0,1-6.34,3.29"/><path class="cls-8" d="M1256,230c-.13-.08-.13.24,0,.23s.21-.2.24-.34l.68-3.32a5.42,5.42,0,0,1,0,4.93,8.77,8.77,0,0,1-3.58,3.56,3.4,3.4,0,0,0,3.53-2.19,10,10,0,0,0,.45-4.43c.69,1.52.27,3.29-.16,4.9a2.34,2.34,0,0,1-.55,1.14,1.54,1.54,0,0,1-1.81.06,4,4,0,0,1-1.27-1.45,22.79,22.79,0,0,1-2-4.31,8.75,8.75,0,0,1,2.29,2.08,3,3,0,0,1,.36,2.94c-.09.17-.22.34-.41.35s-.38-.24-.47-.44a67.58,67.58,0,0,1-3.56-10.62l-2.62-9.56a97.36,97.36,0,0,0,4,12.26l-3.31-11.88a53.74,53.74,0,0,0,4,13.65,63.34,63.34,0,0,0-3.93-13.55c.69,5.53,2.62,10.82,4.53,16a90.45,90.45,0,0,0-4.52-14,155,155,0,0,0,4.27,15.27l-4.14-12.75,3.93,13c-1.76-4.44-3.13-9-4.49-13.61l.2.76a39.81,39.81,0,0,0,5.67-.27,24.9,24.9,0,0,0-9,1.31q5-1.51,9.94-3.15-4.29,1.82-8.73,3.24a37.36,37.36,0,0,1,8.71-2.55,56.36,56.36,0,0,1-7.86,2.24l-.14-.79"/><path class="cls-8" d="M1261.53,213.21a45.38,45.38,0,0,0,2.25,8.79,84.12,84.12,0,0,0-3.31-9.67l4.3,12.49-2.38-7.45a42,42,0,0,1-2.13-8.73,68.74,68.74,0,0,1,4.5,17.09,107.83,107.83,0,0,1-4.2-17.31l3.9,16q-1-4.5-2.32-8.9a50.59,50.59,0,0,0,3.58,15.48q-2.1-5.69-4.43-11.29a29.7,29.7,0,0,0,2.35,7.59,9.9,9.9,0,0,0,3,4.05,4.33,4.33,0,0,0,4.79.33,5.69,5.69,0,0,0,2-3.82,19.14,19.14,0,0,0,.29-4.34c-.06-1.23-.35-2.62-1.42-3.23a4.07,4.07,0,0,0,0,3.89,6.8,6.8,0,0,0-1.44-3.58,12.8,12.8,0,0,1,1.44,4.29,3.55,3.55,0,0,1-1.11-3.08,5.86,5.86,0,0,1,1.9,5.65,6.45,6.45,0,0,1-1.17-4.66,4.19,4.19,0,0,1,.33,4.51"/><path class="cls-8" d="M1258.34,216.67a34.52,34.52,0,0,0,8-1.2,24.47,24.47,0,0,0-7,.82l8.68-3-9.93,2.76a65.37,65.37,0,0,1,11.54-2.71"/><path class="cls-8" d="M1285.37,230.27c-1,0-2.28-.07-2.79-1a2.26,2.26,0,0,1-.14-1.52,5.29,5.29,0,0,1,2.24-3.39c.34.7.55,1.77-.16,2.08a1.32,1.32,0,0,1-.59.07,6.17,6.17,0,0,1-3.8-1.56,23.62,23.62,0,0,1,4.37,3.74,18.35,18.35,0,0,1-5.94-2.69,5,5,0,0,0,9.31-2.87,4.82,4.82,0,0,1-2.34,4.62,6.75,6.75,0,0,1-5.3.56,4.24,4.24,0,0,1-2.77-2.05,2.18,2.18,0,0,1,1.06-3,4.72,4.72,0,0,1,2.25.22c8,1.52,2.84-10.75-2.15-6.37a8.85,8.85,0,0,1,3.87-2.23,3.79,3.79,0,0,1,4,1.45l-1.85-1.17a8.7,8.7,0,0,1,2.55,4.91,25.75,25.75,0,0,1,.24,5.62,35.19,35.19,0,0,1-.81-6.79,36.79,36.79,0,0,0,.17,6.88,48.31,48.31,0,0,0-.49-6.9l1,7.42a25.43,25.43,0,0,0,.21-3.7,5.24,5.24,0,0,0-.08,2.19,1.74,1.74,0,0,0,1.53,1.37,1.32,1.32,0,0,0,1.16-1.75"/><path class="cls-9" d="M140.66,246.92a47.75,47.75,0,0,1,10.74-8.12,77.38,77.38,0,0,1-26,11.27l15.47,7.36a56.51,56.51,0,0,1-15.31-1.94c6.28,2.37,12.41,5.08,18.54,7.8l-21.24-7.86c4.49-3.44,10-5,15.29-6.61C144,247,145,244,150,240.85,147.26,243.05,143.05,244.52,140.66,246.92Z"/><path class="cls-9" d="M171.31,244.51A63.62,63.62,0,0,1,190.39,263a126.33,126.33,0,0,1-16.6-12.9c4.21,4.84,9.41,8.71,14.56,12.53a40.76,40.76,0,0,1-11.58-13.94"/><path class="cls-9" d="M148.76,290.48h-.45"/><path class="cls-9" d="M144,295.39c.13.32.5-.34.17-.42s-.59.29-.75.59A35.51,35.51,0,0,1,134,307.25a13,13,0,0,1,7.58-10.87,21.39,21.39,0,0,1-6.58,9.7,13.39,13.39,0,0,1,6.58-10.6,45.41,45.41,0,0,1-8.45,12.22,33.73,33.73,0,0,1,6.6-10.24,36.46,36.46,0,0,1-8,10"/><path class="cls-9" d="M170.47,300.66l7.24,19.43a51.33,51.33,0,0,1-5.53-20.32,40.38,40.38,0,0,0,6.41,15.42,109.63,109.63,0,0,1-3.43-19.52,39.54,39.54,0,0,1,3,15.79,11.45,11.45,0,0,1-3.22-5.31,33.32,33.32,0,0,1-1,9,23.48,23.48,0,0,1,5.39-5.9,5.49,5.49,0,0,1-5,1.16,3.58,3.58,0,0,1-2.4-4.23c2.75,1.64,3.11,5.41,3.06,8.61a4,4,0,0,1-.51,2.32,2.77,2.77,0,0,1-3.67.43,7,7,0,0,1-2.4-3.24c-.74-1.66-1.38-3.53-.82-5.26s2.84-2.93,4.27-1.82a4.11,4.11,0,0,1,1.12,1.68c.72,1.61,1.17,3.88-.32,4.82-1.2.75-2.9-.11-3.53-1.38a7.78,7.78,0,0,1-.37-4.21l7.51-.92a1.43,1.43,0,0,1,.87.07,1.46,1.46,0,0,1,.57.83,53.26,53.26,0,0,1,2.28,8,.7.7,0,0,1-.84,1l-6.84-.05a31.38,31.38,0,0,0,10.46-5.2c.92-.7,2.06-1.5,3.14-1.07,1.49.59,1.27,2.79.56,4.23a15.93,15.93,0,0,1-3.77,5c-1.87,1.67-5,2.79-6.69,1-1.22-1.3-.94-3.51.19-4.89a9.13,9.13,0,0,1,4.59-2.6,9.57,9.57,0,0,1,5.15-.41,4.09,4.09,0,0,1,3.2,3.66c0,1.93-1.75,3.37-3.43,4.32a26.38,26.38,0,0,1-15.95,3.2A8.05,8.05,0,0,1,174,318.5"/><path class="cls-9" d="M122.12,302.84l1.43-3.47a7.09,7.09,0,0,1,5.22,4.05,20.81,20.81,0,0,1,1.69,6.64c.19,1.35.23,3-1,3.72s-2.87-.41-3.6-1.7a7.68,7.68,0,0,1-.78-5.38,12.52,12.52,0,0,1,5.58,12.3,7.9,7.9,0,0,1-4.74-7,56.73,56.73,0,0,1,11,7.22l-9-10.29a12.85,12.85,0,0,0,8.28-.42l-8.55-.18a7.61,7.61,0,0,1,.39-4.4,6.16,6.16,0,0,1-3.4,6.21,2,2,0,0,1,1.58-2.65c.44,6.23,3.76,12.95,9.79,14.58a2,2,0,0,0,1.28,0,1.92,1.92,0,0,0,.92-1.09,9.14,9.14,0,0,0,.79-4.32,37.66,37.66,0,0,0-7.19.59,32.25,32.25,0,0,1,15-2.81,5.73,5.73,0,0,1-6.44,3c.2-2.13,2.76-3,4.85-3.42a8.94,8.94,0,0,1,3.37-.21,3.06,3.06,0,0,1,2.47,2.05,3.88,3.88,0,0,1-1.26,3.34,12.63,12.63,0,0,1-5.73,3.62,4.11,4.11,0,0,1-3.84-.35c-1.29-1.09-1-3.35.29-4.45a5.24,5.24,0,0,1,4.82-.72,2.43,2.43,0,0,1-.72,2.77,6,6,0,0,1-2.8,1.22,26.94,26.94,0,0,1-4.9.63,6.16,6.16,0,0,1-4-.88c-1.11-.84-1.55-2.67-.54-3.63"/><path class="cls-9" d="M74.49,140.51l.92,1.83"/><path class="cls-9" d="M250.52,315.62q-6.53,4.47-13.47,8.26a19.87,19.87,0,0,1,10.41-8.67,14.87,14.87,0,0,1-7.15,8.76,24.2,24.2,0,0,1,11.63-11.1c.25,1.57-.79,3-1.85,4.2a37.1,37.1,0,0,1-12,8.79c1-5.15,5.39-8.87,9.48-12.15l-14.87,10a2.84,2.84,0,0,0-1.08,1c-.59,1.21.67,2.47,1.78,3.24l12.95,8.94a37.78,37.78,0,0,1-10.72-5.58,42.45,42.45,0,0,0,11.08,11,25,25,0,0,1-10.56-13.49,19.19,19.19,0,0,1,10.68,5.55l.06-12.23a9.84,9.84,0,0,1-2.36,6.94c-.6.69-1.52,1.34-2.36,1a2.2,2.2,0,0,1-.92-.94,8.8,8.8,0,0,1,1.07-10.22"/><path class="cls-9" d="M270.9,325.75a13.25,13.25,0,0,0,4.83,7.28,28.41,28.41,0,0,0,.25-10.48,66.63,66.63,0,0,0-.56,14.11c-1.32-4.76-2.44-9.58-3.36-14.43l3.3,12.73c.28,1.07.69,2.31,1.74,2.69,1.44.53,2.77-.9,3.73-2.1a28.89,28.89,0,0,1,7.69-6.67,42.38,42.38,0,0,1-10.69,4.49,4.66,4.66,0,0,1-1.92.21,3.32,3.32,0,0,1-2.42-2.37,9.71,9.71,0,0,1-.23-3.53"/><path class="cls-9" d="M291.39,270.27a91.29,91.29,0,0,1-12.47-12.78c-2.8-3.49-5.42-7.39-5.9-11.83a116.06,116.06,0,0,0,19.12,23.75,38.69,38.69,0,0,0-22.53-16.59C278,263.67,290.4,270.47,302.47,277a71.87,71.87,0,0,1-20.55-8.72c-2.8-1.75-5.55-3.76-7.33-6.54a21.75,21.75,0,0,1-2.69-7.54,59.9,59.9,0,0,1-1.16-11.25,24.41,24.41,0,0,1,7.35-3.07,9.69,9.69,0,0,1,7.63,1.44c3.9,3,3.72,9.37.59,13.14s-8.25,5.31-13.14,5.63a54.74,54.74,0,0,0,10.53-15.82l-.21,13.16a19.74,19.74,0,0,1-2.21-13.52,8.94,8.94,0,0,1,3.21,7.42c0,.46-.18,1-.63,1.14a1.13,1.13,0,0,1-.81-.19,8.21,8.21,0,0,1-3.84-9.39c3.58,1.37-1,6.14-.46,9.1C279.61,256.64,287.76,267.21,291.39,270.27Z"/><path class="cls-9" d="M341.38,438.15a28.62,28.62,0,0,1-.19,4.35c-.34,1.42-1.58,2.8-3,2.59-1.87-.28-2.38-2.74-2.25-4.62a5,5,0,0,1,4.7,1.81,3.83,3.83,0,0,1-.23,4.85,4.93,4.93,0,0,1-3.42,1.2,9.86,9.86,0,0,1-9.69-9.3,2.38,2.38,0,0,1,.21-1.15,2.27,2.27,0,0,1,2.14-.84,8.79,8.79,0,0,1,8,6.61,4.45,4.45,0,0,1-.56,3.77,4.62,4.62,0,0,1-3.61,1.47,10.31,10.31,0,0,1-10.18-9.47,12.13,12.13,0,0,1,12.91,14,16.29,16.29,0,0,1-9.51-9.46,71.2,71.2,0,0,0,15.58-.36,10.68,10.68,0,0,0,4.45-1.34,4,4,0,0,0,2-4,21.94,21.94,0,0,1-4.47,5.4,2.85,2.85,0,0,1-2,.94,2.07,2.07,0,0,1-1.73-1.79,5.58,5.58,0,0,1,.38-2.64,4,4,0,0,1-2.79,5.93,2.1,2.1,0,0,1-2.06-.81c-.39-.68.14-1.77.91-1.64"/><path class="cls-9" d="M370.38,445.48c-.58,2.25-1.5,4.86-3.74,5.48-1.79.49-3.65-.57-5-1.87a13.22,13.22,0,0,1-3.9-8.77,12.81,12.81,0,0,1,9.31,7.62,13.74,13.74,0,0,1-9.22-12.75,14.38,14.38,0,0,1,5.29,2.91,6,6,0,0,1,2.27,3.64c.15,1.46-.87,3.1-2.33,3.15a3.87,3.87,0,0,1-2.8-1.62,20.63,20.63,0,0,1-5.16-12.62c4.48,2.41,5.61,8.22,6.11,13.28.15,1.59.4,3.38,1.68,4.34s3.14.69,4.58,0,2.68-1.82,4.15-2.47,3.71-.53,4.16,1-1.76,3-3.55,2.89a7.23,7.23,0,0,1-6.27-5.1,6.78,6.78,0,0,1,8.48,3.64,3.25,3.25,0,0,1,.18,2.31c-.5,1.41-2.38,1.91-3.78,1.37a7.12,7.12,0,0,1-3.19-3,5.63,5.63,0,0,1-1.18-3.42c.11-1.22,1.28-2.41,2.46-2.1a3.14,3.14,0,0,1,1.39,1,5.44,5.44,0,0,1,1.36,2c1.48,4.66-5.37,5.11-7.61,2.39,2.39,1,5.09,2.1,7.85,1.75A5.07,5.07,0,0,0,370.38,445.48Z"/><path class="cls-9" d="M363,418.81a1.81,1.81,0,0,1,1.31,1.46"/><path class="cls-9" d="M347.94,394.66l1.27-2.35c-1.14.46-2.3,1-3.44,1.41a13.52,13.52,0,0,1,2.64-4.64,5.28,5.28,0,0,1,4.86-1.69c3.11.76,4.1,4.79,3.58,7.95a5.85,5.85,0,0,1-7.57-7.07,5.81,5.81,0,0,1,6.84,4.18,1.62,1.62,0,0,1-.18,1.44,1.79,1.79,0,0,1-1.05.5,14.87,14.87,0,0,1-8.84-.83c-.48-.2-1-.52-1.05-1-.06-.69.8-1.08,1.49-1.16a7.62,7.62,0,0,1,6.3,2.34,1.94,1.94,0,0,1,.58,1c.11,1.16-1.46,1.62-2.62,1.64a7.69,7.69,0,0,1-4.28-.79c-1.24-.8-1.91-2.65-1-3.78a3.59,3.59,0,0,1,2.72-1c2.26-.09,5.16.89,5.15,3.15a2.9,2.9,0,0,1-3,2.64,4.45,4.45,0,0,1-3.55-2.36,2,2,0,0,1-.07-2.35,2,2,0,0,1,1.1-.51,6.14,6.14,0,0,1,3.71.45,2.29,2.29,0,0,1,1.1.86c.73,1.21-.85,2.8-2.22,2.47a3.46,3.46,0,0,1-2.27-3.25,3.87,3.87,0,0,1,3.21.44C351,392.67,348.38,394.73,347.94,394.66Z"/><path class="cls-9" d="M362.55,392a5.83,5.83,0,0,0-5.54,1.45c1.64-1.63,6.9-1.43,8.39-1.45.94,0,.61-1.37,2.76-.71,1.91.59,3.17,3.28,3.11,5.11a1.82,1.82,0,0,1-.29,1.06,1.62,1.62,0,0,1-1.06.57c-2.31.36-4.16-2.7-3.1-4.78s4.09-2.64,6.11-1.46a6.79,6.79,0,0,1,3,6,4.23,4.23,0,0,1-1,2.92,4,4,0,0,1-3.35.94,7.51,7.51,0,0,1-6.37-7.95,3.6,3.6,0,0,1,.67-1.88c.77-1,2.12-1.14,3.33-1.27,3-.31,6.5-.42,8.45,1.87a3.53,3.53,0,0,1,.88,2c.14,2-2.06,3.61-4.09,3.52s-3.81-1.36-5.31-2.73c-1.27-1.17-2.53-2.69-2.31-4.4.34-2.67,3.84-3.58,6.49-3.1a8.37,8.37,0,0,1,4.74,2.33,4.13,4.13,0,0,1-1.6,7c-3.53,1.3-7.71-1.21-8.93-4.78a4.9,4.9,0,0,1,.24-4.22,4.2,4.2,0,0,1,1.86-1.49,5.46,5.46,0,0,1,6.93,2.6,5.1,5.1,0,0,1-2.9,6.68,4.79,4.79,0,0,1-6-3.91,2.7,2.7,0,0,1,1.11-2.59c1.19-.68,2.78.19,3.36,1.43a7.52,7.52,0,0,1,.3,4A3.87,3.87,0,0,0,372,392a7.92,7.92,0,0,1-4,1.24"/><path class="cls-9" d="M369.71,399.27c-5.28-4.75-6.16-6.49-11.7-2.77-4,2.69-10.22,4.45-11.54-2.53a4.6,4.6,0,0,1,.3-2.93c1-1.94,3.67-2.54,5.63-1.61a7.23,7.23,0,0,1,3.63,5.11c.36,1.65.12,3.74-1.4,4.49a3,3,0,0,1-3.41-.85,6.74,6.74,0,0,1-1.47-3.4,3.94,3.94,0,0,1,.2-2.63,1.59,1.59,0,0,1,2.27-.61,2.13,2.13,0,1,1-3.92,1.65"/><path class="cls-9" d="M373,331.75a5.14,5.14,0,0,1,1,2.13,24.22,24.22,0,0,0-17.8-6.35,5.31,5.31,0,0,0-5.68,4.42c-1.35,4.19-1.58,8.92.3,12.91s6.18,7,10.55,6.46A5.35,5.35,0,0,1,359,350a1.85,1.85,0,0,1,0-2.52c1-.82,2.51.15,3.06,1.31a5.22,5.22,0,0,1-.26,4.83c-.28.45-.86.89-1.27.56a1,1,0,0,1-.27-.76,7.15,7.15,0,0,1,.52-3.67,3.12,3.12,0,0,1,3-1.84c1.14,3-1.67,6.66-4.84,6.35a3.71,3.71,0,0,1,3.76-4.48,18.91,18.91,0,0,1-9.05,8.76,5.06,5.06,0,0,1,.7-3.83"/><path class="cls-9" d="M416.13,329.93c.27-3,4-4.32,6.95-3.76a13.68,13.68,0,0,1,8.28,5.69,25.79,25.79,0,0,1,3.86,9.47,23.22,23.22,0,0,1,.3,10.22,15.76,15.76,0,0,1-12.46,11.66,5.67,5.67,0,0,1-2.56,0c-2-.62-3-2.86-3.63-4.85a11.94,11.94,0,0,1-.85-4.43,4.24,4.24,0,0,1,2.25-3.69c1.71-.77,3.8.19,4.93,1.68a12.7,12.7,0,0,1,1.92,5.25,2.65,2.65,0,0,1-.14,2,2,2,0,0,1-2.06.6c-2.42-.48-3.88-3-4.33-5.44a1.62,1.62,0,0,1,.08-1.11c.45-.76,1.65-.38,2.28.24a5.42,5.42,0,0,1,1.62,3.83l-.13-1.53c.79,3-2.44,6.15-5.39,5.34"/><path class="cls-9" d="M474.24,443.23c-.37-1.61,1.43-3.13,3.07-2.89a4.38,4.38,0,0,1,3.28,3.33,13,13,0,0,1,0,4.93c-1.25.36-2.48-.59-3.36-1.55a22,22,0,0,1-5.7-14.17,10.81,10.81,0,0,1,7.94,9.19,6,6,0,0,1-.74,3.86,4.94,4.94,0,0,1-4.8,1.94,7.64,7.64,0,0,1-4.57-2.76,10.72,10.72,0,0,1-2.24-9.13,11.9,11.9,0,0,1,14.18,13.12,2.56,2.56,0,0,1-.77,1.77,2.61,2.61,0,0,1-1.83.32,14,14,0,0,1-12.15-12.35,1.8,1.8,0,0,1,2.3-2.17,11.75,11.75,0,0,1,11.07,10.5,3.75,3.75,0,0,1-1.06,3.33,3.48,3.48,0,0,1-1.81.59c-5.18.5-10.13-4.54-9.55-9.7a9.46,9.46,0,0,1,8.09,3,16.1,16.1,0,0,1,3.86,8,13.66,13.66,0,0,1-8.73-8.15c6.75,2.4,13.62,4.83,20.78,5.2,1.36.08,3,.2,3.65,1.37a2.59,2.59,0,0,1-.59,3.05,5.86,5.86,0,0,1-3,1.39A17.94,17.94,0,0,1,472.85,447a64.94,64.94,0,0,1,26.62,3.61,72.59,72.59,0,0,0-16.76-4.49,164.92,164.92,0,0,1,19.58,2.31,21.86,21.86,0,0,1-19.41-.13c-1.61-.82-3.3-2.79-2.14-4.18a3,3,0,0,1,1.52-.84,23.4,23.4,0,0,1,15.49.61,3.42,3.42,0,0,1,1.8,1.3,2.36,2.36,0,0,1-.52,2.66,5.54,5.54,0,0,1-2.55,1.33,17.52,17.52,0,0,1-14.4-2.39c-.86-.59-1.76-1.58-1.35-2.54a2.17,2.17,0,0,1,1.26-1,9.28,9.28,0,0,1,9.92,2,1.63,1.63,0,0,1,.6,1.24,1.71,1.71,0,0,1-.95,1.08A17.81,17.81,0,0,1,480.82,450c-1.1-.11-2.46-.6-2.52-1.7a2.28,2.28,0,0,1,.73-1.54,9.81,9.81,0,0,1,4.05-2.66"/><path class="cls-9" d="M541.8,448.67a9.29,9.29,0,0,1-2.54-6.29c0-1.89,1.3-4.21,3.13-3.77a3.73,3.73,0,0,1,1.77,1.33,8.5,8.5,0,0,1,2.16,3.53,3.07,3.07,0,0,1-1.5,3.54c-1.4.56-3-.39-3.92-1.54a9,9,0,0,1-2-6,3.61,3.61,0,0,1,.9-2.56,3.72,3.72,0,0,1,2.82-.79,8.66,8.66,0,0,1,6.68,3.52,6.74,6.74,0,0,1,.24,7.36c-1.77,2.66-5.29,3.43-8.46,3.78-3.34.38-6.91.51-9.81-1.18a11.53,11.53,0,0,1-3.83-3.9c-1.61-2.59-2.44-6.05-.81-8.63,2.25-3.54,7.67-3.28,11.32-1.21a10,10,0,0,1,3.8,3.49c2.17,3.75-.31,9.3-4.56,10.17s-8.71-3.24-8.2-7.54a3,3,0,0,1,3.57-3,7,7,0,0,1,6.45,4.79,5.75,5.75,0,0,1-3.62,6.87c-2.76.8-6.05-1.41-6.1-4.28a2.77,2.77,0,0,1,1.7-2.77,3.56,3.56,0,0,1,2,.14,20.47,20.47,0,0,1,9,5.33,11.78,11.78,0,0,1-7.62-4.25l10.29-2.79a19.51,19.51,0,0,1,6.45-1,6.61,6.61,0,0,1,5.44,3.13c1.68,3.22-.9,7.36-4.32,8.56s-7.2.26-10.62-.93c-1.63-.57-3.53-1.57-3.55-3.29s1.86-2.8,3.49-3.41c7-2.61,14.89-4.15,21.94-1.62a19.44,19.44,0,0,1-15.21-1.7,33.57,33.57,0,0,1,22.16-.77c1.15.36,2.5,1.09,2.44,2.3s-1.29,1.73-2.36,2.08a41.89,41.89,0,0,1-18.34,1.62c-1.73-.24-3.73-.82-4.31-2.46-.73-2,1.26-4,3.2-4.93a17.22,17.22,0,0,1,12-1.08c1.62.45,3.42,1.49,3.44,3.17a3.77,3.77,0,0,1-1.28,2.5c-2.63,2.69-6.42,3.91-10.14,4.39-1.93.25-4,.3-5.65-.76s-2.39-3.58-1-5a4.81,4.81,0,0,1,3.48-1.06,31.9,31.9,0,0,1,7.16.75c.93.21,2,.58,2.3,1.47.51,1.45-1.26,2.62-2.74,3a20.09,20.09,0,0,1-20.54-7.38c5.12-.58,10.89.41,14.14,4.41a3.07,3.07,0,0,1,.86,2c0,1.52-1.87,2.29-3.39,2.46a15.81,15.81,0,0,1-14.58-6.77,15.86,15.86,0,0,1,12.45,5.73,27.54,27.54,0,0,1-9.58-.33,5.49,5.49,0,0,1-2.72-1.18,2.19,2.19,0,0,1-.49-2.72"/><path class="cls-8" d="M811.9,417.74v-.92"/><path class="cls-8" d="M881.5,499.85a18,18,0,0,1-2.78,6.4,10,10,0,0,1,2.39-7.07,12,12,0,0,1-2.83,9.12,10.85,10.85,0,0,1,1.46-8.16,9.17,9.17,0,0,1,.79,8.59,12.82,12.82,0,0,1,1.58-11.12,14.18,14.18,0,0,1-.18,12.53c-.68-3.53-1.23-7.58,1-10.37a10.76,10.76,0,0,1-.41,9.5,16.69,16.69,0,0,1-1.08-8.56,24.46,24.46,0,0,1-5.7,10.45A113.49,113.49,0,0,1,893.05,521a106.7,106.7,0,0,1-12.89-10.12,61.81,61.81,0,0,0,19.4,9.2,46.67,46.67,0,0,0-16.21-11.92c-1-.44-2.28-.78-3,0,4.45,3,10.15,3.41,15.53,3.68,2.56.13,5.77-.14,6.7-2.52a62.19,62.19,0,0,0-1.66,11.19l-19.24-11c6.37,3.36,13.56,4.77,20.64,6.14-6.77.32-13.27-3.18-20-2.88a74.11,74.11,0,0,0,21.14,4.69A36.17,36.17,0,0,1,882.73,514c-1-.51-2.19-1.38-2-2.51.26-1.44,2.27-1.53,3.7-1.24a156.9,156.9,0,0,1,17.34,4.59,69,69,0,0,1-13.33-4.5l13.91.94a1.89,1.89,0,0,1,.88.2c.62.38.6,1.29.38,2a6,6,0,0,1-3.45,3.72,2,2,0,0,1-1.49.12,2.27,2.27,0,0,1-1.06-1.4,8.35,8.35,0,0,1-.8-4.2,3.22,3.22,0,0,1,2.79-2.86,3.12,3.12,0,0,1,2.85,2.51,6.8,6.8,0,0,1-.56,4c-.6,1.51-1.88,3.16-3.47,2.82a3.42,3.42,0,0,1-1.59-1,7.49,7.49,0,0,1-2.2-3.72,4.31,4.31,0,0,1,1.13-4c2-1.79,5.36-.68,6.84,1.52a7,7,0,0,1-.1,7.74,2.29,2.29,0,0,1-3.4.91,7.66,7.66,0,0,1-4-6.23,2.71,2.71,0,0,1,.68-2.23,3.13,3.13,0,0,1,2.46-.44,8.06,8.06,0,0,1,4,1.34,3.36,3.36,0,0,1,1.27,3.78,4.37,4.37,0,0,1-2.25,2,15.1,15.1,0,0,1-7.77,1.51,6.86,6.86,0,0,1-3.64-1.16,3.31,3.31,0,0,1-1.33-3.4"/><path class="cls-8" d="M930.9,498.22h.46"/><path class="cls-8" d="M931,491.67a30.76,30.76,0,0,0,8.76-11.15A109.64,109.64,0,0,1,929.64,493a7.34,7.34,0,0,1,2.22-6.42,18.92,18.92,0,0,1-.92,4.27A69.28,69.28,0,0,0,946.62,468a15.24,15.24,0,0,1,1.91,16.75,20.19,20.19,0,0,1-8.54,7.95c-3,1.6-6.42,2.71-9.77,2.15,2.91-4.12,7.13-7.08,11-10.27s7.7-6.9,9.22-11.71q-6.16,10-13.16,19.51a54.48,54.48,0,0,1,4.57-10l6.39-11.77a53.65,53.65,0,0,1-5.88,20.69,27.59,27.59,0,0,1,4.7-17.77c.31-.45.8-.94,1.3-.72a1.21,1.21,0,0,1,.52,1,23.4,23.4,0,0,1-5.47,19.08,21.14,21.14,0,0,1,.07-9.43c.55-2.3,1.81-4.79,4.12-5.31.1,5.5-2.91,10.58-6.39,14.84-1.35,1.66-3.2,3.39-5.3,3"/><path class="cls-9" d="M27.24,356.29l-8.39,27.47"/><path class="cls-9" d="M14.15,371.53l19.26,2.14"/><path class="cls-9" d="M49.93,365.92a42.2,42.2,0,0,1-2.66,16.54"/><path class="cls-9" d="M41,374.85a48.49,48.49,0,0,1,12.42,1.25"/><path class="cls-9" d="M72.83,332.9l-1.39,40.59"/><path class="cls-9" d="M61.65,354.32a94.14,94.14,0,0,1,27.59-.05"/><path class="cls-9" d="M77.34,378.3q-.42,15.17-2,30.26"/><path class="cls-9" d="M67.15,393.58a57.54,57.54,0,0,1,25.53,3"/><path class="cls-9" d="M103.48,390a58.71,58.71,0,0,1-1,19.29"/><path class="cls-9" d="M96.71,396.89l28.2,1.48"/><path class="cls-9" d="M18.3,434.08a47.39,47.39,0,0,1,15.17-.37"/><path class="cls-9" d="M22.42,458.09a116.85,116.85,0,0,1,24.76,2.09"/><path class="cls-9" d="M43.75,429.94a99.79,99.79,0,0,1,17.11.58l.13,2.81"/><path class="cls-9" d="M49.94,447.81l8.38-.09c1.37,0,3.32,1,2.47,2.1"/><path class="cls-9" d="M80.85,471.34l19.78,4.57c2.16.5,4.94,2.09,4.07,4.13"/><path class="cls-9" d="M57.5,490.51a88,88,0,0,1,20,2.51"/><path class="cls-9" d="M25.87,497.28,41,500.8"/><path class="cls-9" d="M83,445.75a62.37,62.37,0,0,1,18.58,1.3"/><path class="cls-9" d="M116.67,464.34l23.18-2.49a4.84,4.84,0,0,1,2.62.2,1.66,1.66,0,0,1,.89,2.2"/><path class="cls-9" d="M118.72,488.37l19.9,0c.82,0,2,.83,1.31,1.31"/><path class="cls-9" d="M84.33,504.91A76.76,76.76,0,0,1,103,506.68"/><path class="cls-9" d="M18.29,507.62h11"/><path class="cls-9" d="M23.11,480.15a23.84,23.84,0,0,1,16.52,4.06"/><path class="cls-9" d="M49.94,527.58a74.21,74.21,0,0,0,32.77,2.66c4.13-.6,8.9-1.38,12,1.42"/><path class="cls-9" d="M53.5,554.79a30.74,30.74,0,0,0,29-3.58"/><path class="cls-9" d="M34.63,310.89l.75,25.45"/><path class="cls-9" d="M25.86,327.46a128,128,0,0,1,20,.45"/><path class="cls-9" d="M22.77,297.77l-2,15.24"/><path class="cls-9" d="M17,306.25a40,40,0,0,1,27.5,5.29"/><path class="cls-9" d="M123.74,339.78a201.52,201.52,0,0,1-5.36,42.57"/><path class="cls-9" d="M100.16,360.36l43.34,4.24c7.9.77,15.85,1.55,23.5,3.69"/><path class="cls-9" d="M129.06,411.32a33.38,33.38,0,0,0,1.39,18.56"/><path class="cls-10" d="M121.49,417.43A57.06,57.06,0,0,1,144.75,424c-3.86-1.22-7.68-2.47-11.55-3.54S125.43,418.39,121.49,417.43Z"/><path class="cls-9" d="M65.76,465a50.36,50.36,0,0,1,23.43,3.26"/><path class="cls-9" d="M120.06,481.32a63.56,63.56,0,0,0,26.47-14.65"/><path class="cls-11" d="M280.15,776.25,325,640.93c3.68-11.11,7.36-22.23,11.9-33l-12.23,5.79a78.82,78.82,0,0,0,14.53-6.88,26.84,26.84,0,0,1,3.12,22.09"/><path class="cls-11" d="M271.8,742.67Q349.44,758.38,425.44,781c2.83.85,6.31,2.65,5.86,5.58"/><path class="cls-11" d="M312,679.66c-.29-.34-.92.29-.57.58"/><path class="cls-11" d="M249.47,721.79c36.76,3.59,73.71,15.35,109.94,8.19,12.15-2.4,23.79-6.88,35.18-11.75a511.58,511.58,0,0,0,124.79-76.11"/><path class="cls-11" d="M520.4,636.89l3.44-3.44c1.4-1.39,5-7.36,6.12-9"/><path class="cls-11" d="M262.52,720.87l-.08-15L252,713.73C254.11,715,260.39,719.6,262.52,720.87Z"/><path class="cls-11" d="M246,722.89l-2.6.59a192.51,192.51,0,0,1,15.75-18.24c.55,6.93,2.82,11.22-4.89,12.1"/><path class="cls-11" d="M224.32,726.62c48.8,17,102.09,11.74,153.59,15.87,37,3,73.44,10.84,110.24,15.75s74.66,6.77,110.7-2.18c4.19-1,8.34-2.22,12.5-3.41"/><path class="cls-11" d="M528,752.52l0-5.3a21.89,21.89,0,0,0,1.54,7.8l-3.86-16.71a3.15,3.15,0,0,1,.09-2.38,3,3,0,0,1,1.52-1,10.74,10.74,0,0,1,5.16-1.2c1.78.19,3.57,1.62,3.47,3.41a5,5,0,0,1-2.08,3.27,47,47,0,0,1-7,5.17A41.29,41.29,0,0,1,541,741.36c1.06,3.79-2.08,7.43-5.33,9.63a33.92,33.92,0,0,1-13.85,5.42"/><path class="cls-11" d="M782.59,501.41a16.64,16.64,0,0,0,11,8.3c2.17,4.59,14.17,13.14,19.25,13.22"/><path class="cls-11" d="M822.57,528.58l14.83,5"/><path class="cls-11" d="M854.09,534.44a35.33,35.33,0,0,1,20.73,5.37"/><path class="cls-11" d="M895.36,544a17.26,17.26,0,0,1,17.94,12.43"/><path class="cls-11" d="M927,559.26a19.29,19.29,0,0,1,12.55,10.9"/><path class="cls-11" d="M954.52,577.12a41.14,41.14,0,0,1,22.3,6.42"/><path class="cls-11" d="M989,585.29l17.77,8.49"/><path class="cls-11" d="M1020.62,604.44l19.31,6.73"/><path class="cls-11" d="M1061.83,615.61a48.37,48.37,0,0,1,17.94,2.62"/><path class="cls-11" d="M1101.73,622.53a53.12,53.12,0,0,1,22,2.71"/><path class="cls-11" d="M1151.28,625.31a82.67,82.67,0,0,1,23.36-4.31"/><path class="cls-11" d="M1203.47,611.36a95.59,95.59,0,0,1,31.71-9.55"/><path class="cls-11" d="M1264.31,591.68a16.65,16.65,0,0,1,19.75,22.9"/><path class="cls-11" d="M1290.27,624.86l45.27,6.45"/><path class="cls-11" d="M1337,619.85l26.15-4.08"/><path class="cls-12" d="M180.17,505.66a235.49,235.49,0,0,0-14.5,42.43"/><path class="cls-12" d="M156.58,520.5a161.9,161.9,0,0,1,48.23,13.75"/><path class="cls-13" d="M813.25,527.43C807.34,509.26,788.09,498.78,779,482a318.24,318.24,0,0,0,31.08,27c-26.19-17.2-54.68-47.05-84.52-57.08a467.2,467.2,0,0,1,82.15,36.76l-72-40.14A534.35,534.35,0,0,0,802.1,489.2a496.71,496.71,0,0,0-81.3-58.1,259.83,259.83,0,0,0,52,42.36A104.06,104.06,0,0,0,715,458.59L721.14,448,694,464.81"/><path class="cls-13" d="M635.34,472.54l3.48-7.43a347.77,347.77,0,0,1-19.27,67.55,522.45,522.45,0,0,1,15.16-69.44,727.37,727.37,0,0,0-10.53,85.89l14.34-113.29q-14.34,62.3-23.33,125.68c22-27.94,53.71-46.4,85.27-62.84,11.12-5.8,22.72-11.74,30.33-21.71a548.23,548.23,0,0,0-89.72,50.75,395.13,395.13,0,0,1,82.06-73.35,530.72,530.72,0,0,1-77,67.19,297,297,0,0,1,82.18-57.21L622.11,528.87a440,440,0,0,1,98.48-53.82Q679.26,510,634.65,540.81a382.24,382.24,0,0,1,92-75.44,659.15,659.15,0,0,1-66.08,50.79,205.13,205.13,0,0,1,63.8-48.55"/><path class="cls-13" d="M694.22,495.36a149.18,149.18,0,0,0,50.46-40.18l32.18,28c9.29,8.08,18.65,16.23,26.06,26.06a325.85,325.85,0,0,1-43.51-41.91L821,523.11a6.27,6.27,0,0,1,1.64,2c1.64,3.73-4.17,6-8.24,6"/><path class="cls-13" d="M682.18,540.15l21.14-7-16.79,8.07,30.84-7.09-22.61,5.21,24.07-10.79a99.72,99.72,0,0,0-22.47,7.23L723.09,525a282.92,282.92,0,0,0-28.25,37.64q8.7-12.85,16.79-26.12a74.62,74.62,0,0,0-23.4,34L713.59,539A291.83,291.83,0,0,0,679.1,583.7l18.19-27a88.34,88.34,0,0,0-24.92,22.53l10.09,6.66q14.29-20.34,27.15-41.63A137.59,137.59,0,0,0,689,567.32l5.48-15"/><path class="cls-13" d="M467.49,30.91h1.38"/><path class="cls-13" d="M726.11,588.09a72.11,72.11,0,0,1-9,13.69A256.6,256.6,0,0,0,733,566.53,114.22,114.22,0,0,0,717.45,610a147,147,0,0,0,22.43-36.73,167.61,167.61,0,0,0-15.74,32.1,168,168,0,0,0,19.43-35.26c-7.24,8.49-15.45,16.69-24.7,22.92,4-13,28-10.41,36.73-4.28-12.73,3-28.88-.4-41.58-3.59a198.81,198.81,0,0,0,52,8.52,365.53,365.53,0,0,1-38.39-11,265,265,0,0,1,44.19,4"/><path class="cls-13" d="M766,540h-2.75c.6-.9-7-8.61-6.36-9.51q-25.51,13.78-51,27.56a232.39,232.39,0,0,1,59.78-32.15q-28.56,18.38-55.78,38.72a376.12,376.12,0,0,1,57.58-36.34c-20.32,15.35-40.77,30.82-57.76,49.77a412.35,412.35,0,0,1,50.59-33.83,577.87,577.87,0,0,1-53,38.05c12.3,5.38,28.12.7,38.82,8.82a50.16,50.16,0,0,1-27-14.89A45.74,45.74,0,0,1,751.85,600"/><path class="cls-8" d="M747.27,430.25a70.17,70.17,0,0,0,28.21,33.64c-13.3-12.24-26.88-24.86-34.94-41a226.5,226.5,0,0,0,41.88,37.05,405.69,405.69,0,0,1-31-31c11.87,13.85,10.91,5.11,26.49,2.56,6.7-1.1,14.42,1,17.91,6.86,3.86,6.42,1.26,15.15-4,20.5s-12.51,8.12-19.54,10.72l10.17-19.84c1.34-2.63,2.63-6,.8-8.3a6.25,6.25,0,0,0-3.77-1.95A16.25,16.25,0,0,0,765,443.73a44,44,0,0,0,21.54-5.19,12.44,12.44,0,0,1-8,11.94l-.21-12a19,19,0,0,1,1.2,11.44c-.38,1.8-1.72,3.94-3.48,3.42-1-.3-1.58-1.41-2-2.42a68,68,0,0,1-2.67-8.38,26.27,26.27,0,0,1-4.8,12.53"/><path class="cls-8" d="M607.09,553.17c2.94-2.25,8,.58,7.66,4.26s-4.39,5.5-7.9,6.35c-3.24.78-6.91,1.19-9.7-.64-3.91-2.55-4.1-8.78-1.06-12.33s8.25-4.6,12.83-3.71a14.61,14.61,0,0,1,10,6.65c2,3.6,1.86,8.55-1,11.54a13.56,13.56,0,0,1-5.13,3.05c-5.56,2.11-12.21,2.7-17.14-.62s-6.44-11.56-1.73-15.18a11.86,11.86,0,0,1,7.29-2c3.56,0,7.44.94,9.6,3.77,2.81,3.68,1,9.87-3.27,11.53s-9.77-1.78-10.14-6.39c3-.78,6.53-.33,8.71,1.89s2.3,6.41-.25,8.2-6.94-.64-6.22-3.67l37.57,17.77L611.91,557c13.82.9,26.22,12.38,28.19,26.09a30.93,30.93,0,0,1-26.62-22.58,22.5,22.5,0,0,1,16.87,8.61c-4.74,4-11.88,3.84-17.53,1.34s-10.14-7-14.5-11.36"/><path class="cls-8" d="M632.68,471a2.67,2.67,0,0,1-1.21-3.53c3.19-.69,6.61-1.36,9.64-.16s5.21,5.11,3.42,7.85a20.32,20.32,0,0,0-24.76-5.5c-.33-3.74.63-7.46.71-11.21s-1-7.92-4.19-9.89c-3.72-2.28-8.57-.65-12.41,1.44a61.31,61.31,0,0,0-30,39.48c-1.24,5.35-1.5,11.63,2.26,15.62,4.31,4.57,12,3.89,17.49.94,14.92-8,19.46-27,21.11-43.82.44-4.44.47-9.68-3-12.45-4.91-3.9-12.11.36-16.07,5.22-6.07,7.44-9.91,16.5-12.32,25.79-.93,3.57-1.65,7.37-.65,10.92s4.25,6.72,7.93,6.46c2.76-.2,5-2.18,6.94-4.2a54.16,54.16,0,0,0,14.16-42c-3.43-1-6.69,1.93-8.86,4.78a69.45,69.45,0,0,0-13.94,39.65A66.91,66.91,0,0,0,607.4,462l-12.15,19.45L608,466.18,603.59,489l13.27-20.39a50.31,50.31,0,0,1-9.58,39.29,42.38,42.38,0,0,1,9.35-43.58,56.31,56.31,0,0,1-2.08,36.83,70.94,70.94,0,0,1,9.53-32.82,71,71,0,0,1-4.79,34.21c-.84,2.05-1.85,4.16-3.65,5.44a12.09,12.09,0,0,1-6,1.71,98.38,98.38,0,0,1-32.08-2.42l1.24-5.82"/><path class="cls-8" d="M672.73,588.73c-.83.19.06-1.46.66-.86s.19,1.61-.13,2.4c-1.73,4.19.38,9.18,3.79,12.16s7.88,4.42,12.21,5.78c2,.62,4.45,1.11,5.83-.43a5.24,5.24,0,0,0,.89-3.72c-.08-2.7-.41-5.54-2-7.75s-4.69-3.52-7.07-2.24c-1.26.68-2.12,1.95-3.35,2.67-2.37,1.38-5.55.35-7.45-1.63s-2.81-4.67-3.67-7.28A29.36,29.36,0,0,1,690,609.07a46.6,46.6,0,0,1-23.72-21.16,72.22,72.22,0,0,1,17,15.17c-4.36-1.43-8.83-2.91-12.42-5.78s-6.18-7.44-5.39-12"/><path class="cls-8" d="M724.76,615.62l2.76-1.37c5.23-2.62,14.49-5.87,18.33-1.45a3.1,3.1,0,0,1,.92,2c0,1.11-1.09,1.9-2.09,2.39-7.35,3.59-17.4-.53-20.11-8.25a63.31,63.31,0,0,1,21.82-1.32c4.46.52,10.08,3.22,9.14,7.6-.69,3.21-4.5,4.49-7.72,5.13-3.52.71-7.2,1.33-10.68.42s-6.71-3.79-6.87-7.38c-.17-3.74,3-7,6.59-8.08s7.41-.67,11.12-.19a6.31,6.31,0,0,1-6.33,6.08c-.12-2.53-3.91-2.24-6.35-1.56C730,611.08,729.47,618.54,724.76,615.62Z"/><path class="cls-8" d="M1250.47,18.61l-1.4,2.74"/><path class="cls-8" d="M1098.76,424.16,1096,426.9"/><path class="cls-8" d="M1076.87,587.63a15.57,15.57,0,0,1-16.88-8.44,20.11,20.11,0,0,1,15.56,1.26c2.83,1.49,5.5,4.14,5.39,7.34-.13,3.7-4.11,6.33-7.81,6.3s-7.1-2-10.22-4a37,37,0,0,1,25.84,5.07,149.83,149.83,0,0,1-22.66-7.83,135,135,0,0,1,19.07-.74,4.26,4.26,0,0,0-5.48-3.46,29.16,29.16,0,0,0,17.64,6.71,134.23,134.23,0,0,1-19.13,5c-3,.56-7.78-1.07-6.32-3.81"/><path class="cls-8" d="M1122.38,573.09a93.31,93.31,0,0,1,20.59.69,76.86,76.86,0,0,1-36.21,2.36,32.79,32.79,0,0,1,35-6.56,58.45,58.45,0,0,1-27.66,1.23,29,29,0,0,1,30.57,1.51,50,50,0,0,1-26,.86,38,38,0,0,1,21.31-.24,49.08,49.08,0,0,1-19.57,4.54,8.17,8.17,0,0,1-5-1.05c-1.41-1-2.06-3.23-.88-4.49"/><path class="cls-8" d="M1288.84,579.85l-2.51-3.1A22.61,22.61,0,0,1,1297.1,591a14.65,14.65,0,0,1-13.16-8.57,37.9,37.9,0,0,1,12.84,19.8,28.59,28.59,0,0,1-14.72-21,36.57,36.57,0,0,1,17.3,14.46,24.58,24.58,0,0,1-13.38-13"/><path class="cls-8" d="M1320.33,578.35c1.61-2.54,5.14-2.9,8.15-2.79s6.39.31,8.62-1.72,1-7-1.94-6.41c1.53,7.06,2.09,16.31-4.35,19.58-4.4,2.22-10.53-.57-11.73-5.35a43.83,43.83,0,0,1,20.44-3.09c1.23.11,2.68.44,3.12,1.59.66,1.69-1.42,3.11-3.14,3.68a59.7,59.7,0,0,1-18.64,3.08,29,29,0,0,0,8.53-4.44,43.85,43.85,0,0,1-30.92-6.76"/><path class="cls-8" d="M1125.49,779.23l2.14,7.09q-31.17-53.9-59-109.63c-6.51-13.05-11.6-31.21-23.08-40.86-10-8.44-27-12.86-39-17.43l20.48,5.31c-10-2.59-18.54-6-29.16-4.5,44.8,14,55.12,52.59,76,91.84,11.7,22,23.61,44.29,40.74,62.39q-35.23-57.86-70.48-115.71l45.42,95a611.58,611.58,0,0,1-54.06-91.34l42,87.71a900.07,900.07,0,0,0-62.87-117.19,6.46,6.46,0,0,0,.93,7.54L993.64,623l90.42,151.13-68.83-125.21,67.71,116.83q-34.56-64.65-65.94-130.92a1189.7,1189.7,0,0,1,61.7,111l-44.88-100.19c20.26,42.39,40.66,85,67.9,123.29q-29.62-58-54.28-118.28a463.88,463.88,0,0,0,63.69,106.21l-78.45-120.48c38.6,48.44,77.35,97,122.22,139.75L1047.15,664.92q63.48,55.2,122.62,115.15a871.53,871.53,0,0,1-87.49-85,565.54,565.54,0,0,0,62.13,82.11l-33.58-47.55a563.79,563.79,0,0,0,41.79,46q-29.47-34.25-61-66.68a282.69,282.69,0,0,0,21.39,38A1430.28,1430.28,0,0,0,990.84,611.17l26.63,7.45-13.42-5.83,50.73,15.32a266.56,266.56,0,0,1-69.14-25.82q49.71,96.9,106.42,190c-27.55-42.94-55.47-86.66-69.56-135.69l58.42,121.09-27.54-71.19"/><path class="cls-8" d="M1035,634.32c5.3,5.82,2.19,16.86-5.39,19s-16.08-5.5-14.69-13.25,12.05-12,18.39-7.31l121.32,145.39c-47.15-52.31-94.37-104.68-137.21-160.56a303.08,303.08,0,0,1,33,45l-39-40.37,21.12,32.66-23.84-27a441.53,441.53,0,0,0,24.21,38.68l-23.29-32.74a208.28,208.28,0,0,0,16.17,28q-14.91-24.72-31.48-48.4,18.38,28.25,38.91,55l-28.39-43.7a356.76,356.76,0,0,0,32.47,37.53,495.89,495.89,0,0,0-32.13-47.6l43.3,54.61a273.4,273.4,0,0,0-16-35.86l23.59,34.46-19.94-40.27,9.53,20.62a119.65,119.65,0,0,0-17.78-22.51c20.7,8.21,27.91,33.31,32.47,55.11l-18.51-43.73q17.4,30.39,36.53,59.77l-40.14-55.48a305,305,0,0,0,17.35,39.5,150.23,150.23,0,0,0-18-30.47,46.5,46.5,0,0,0,2.21,24.94"/><path class="cls-8" d="M1008.13,630.79l-7.77-8.79c11.56,21.22,23.17,42.55,31.46,65.25,14.34,39.3,18.62,82.4,38.7,119.1a864.73,864.73,0,0,0-35.87-124.72L1075,783.42a1115.15,1115.15,0,0,0-66.14-151.67c-1.15,13.29,3.62,26.32,8.65,38.68,17.25,42.39,38.58,83,61.61,122.59a1089.7,1089.7,0,0,1-53.58-137.67l40.53,77.88c9,17.3,18.34,35,33,47.83q-22-58.89-49.66-115.49l27.61,58.09c3.87,8.13,9,17.26,17.84,18.86"/><path class="cls-4" d="M110,632.05a18.14,18.14,0,0,1-.23-13.36L101,649.56a261.72,261.72,0,0,1,8.93-41q-2.61,25.42-7.56,50.56a472.36,472.36,0,0,1,10.08-49.25,248.54,248.54,0,0,1-12.62,51.41,253.72,253.72,0,0,1,5-43.88,235.75,235.75,0,0,1-9.08,46.39q3.17-32.3,9-64.27-6.47,30.83-14.39,61.31c3.19-21.35,7.26-42.57,12.48-63.52a483.46,483.46,0,0,1-16,75.93,335,335,0,0,0,40.74-14.85,149.3,149.3,0,0,0-36.76,3.23l49.05-15.1A542.42,542.42,0,0,0,83.6,667.7,292.05,292.05,0,0,0,144,655.09a178.32,178.32,0,0,0-52.17,15.13l13.91-2"/><path class="cls-4" d="M107,683l21.73-7.1A167.83,167.83,0,0,0,88.57,686.6q27.08-6.87,53.8-15a308.84,308.84,0,0,1-37.93,19.87,184.75,184.75,0,0,0,44.79-14.22l-48.62,9.66a252.44,252.44,0,0,1,40.56-13.11,191.5,191.5,0,0,1-50.63,13.52"/><path class="cls-4" d="M731.64,698.17V694"/><path class="cls-4" d="M21.85,191.65c9.27-28.94,30.76-52,50.09-75.43C103.18,78.3,130.05,37,156.84-4.16"/><path class="cls-4" d="M49.25,196v1.37c7.12-8,12.53-12.25,19.65-20.29"/><path class="cls-4" d="M78,157.42A35.77,35.77,0,0,1,91.65,142"/><path class="cls-4" d="M108.54,116.27a63.74,63.74,0,0,1,18.71-24"/><path class="cls-4" d="M142.58,73.35,157.87,57"/><path class="cls-4" d="M184.26,40.72A309,309,0,0,1,222.57,8.85"/><path class="cls-4" d="M1272.3,63.94l-6.81-16.16a193.86,193.86,0,0,1,20,28.67,120.55,120.55,0,0,1-19-38.13,127.32,127.32,0,0,1,31.82,53,132.82,132.82,0,0,1-29.21-58.46,353.61,353.61,0,0,1,32.29,55.62c-16-19.3-27.43-41.83-38.76-64.17L1292,85.57A184.37,184.37,0,0,1,1264,36.44"/><path class="cls-4" d="M1310.28,127.21c.69-3.6,5.75-4.74,8.91-2.91s4.81,5.42,6.27,8.77a4.42,4.42,0,0,1,.47,3.32,4,4,0,0,1-2.49,1.91c-7.73,2.88-18.74-.67-19.4-8.89-.46-5.7,5-10.91,10.67-11s10.94,4.39,12.61,9.86c.9,3,.76,6.55-1.39,8.81s-5.42,2.55-8.45,2.76c-5.41.4-11.78.38-15.08-3.93-3.07-4-1.5-10.45,2.67-13.33s10.06-2.45,14.37.21,7.17,7.24,8.76,12a11.61,11.61,0,0,1-14.86-16.17,17.77,17.77,0,0,1,3.63,18.66,24.55,24.55,0,0,1-15.38-15.77"/><path class="cls-5" d="M1078.46,416.08c-1.69-2.1-5.1-2-7.34-.54s-3.55,4-4.59,6.5a61.17,61.17,0,0,0-3.62,35.51c1,4.93,2.64,9.88,5.89,13.73s8.29,6.44,13.28,5.72c6.85-1,11.48-7.69,13.37-14.35,2.83-10,1.18-21.34-5.26-29.45s-17.81-12.31-27.74-9.36c-2.68,3.47-1,8.89,2.44,11.57s8.1,3.24,12.48,3.3a72.27,72.27,0,0,0,45.24-15.39"/><path class="cls-11" d="M1067.08,433.05c-15-9.82-18.74,39.53-17.32,47.74,1.31,7.58,7.25,35.39,16.4,38.21,7.38,2.28,10.36-22,11.92-29.34,4.1-19.32-1.61-40.48-18.68-51.79-2.09-1.38-4.43-2.63-6.93-2.53-3.8.13-6.91,3.47-7.92,7.14-1.89,6.91,2.66,14.49,9.15,17.52s14.25,2.19,20.84-.62,12.24-7.38,17.8-11.89"/><path class="cls-11" d="M1085.27,519.31a11.81,11.81,0,0,1,1.16-7.2c4.74-1.17,9.74,4.06,8.36,8.74a10,10,0,0,1-10.28-17.12"/><path class="cls-11" d="M1114,383.12a119.42,119.42,0,0,1-1.19,26,42.37,42.37,0,0,0,16.52-7.94"/><path class="cls-11" d="M1141.34,376.59c5.06,4.12,4.88,14.27,11.37,15,4.58.49,7.8-4.77,12.32-5.65"/><path class="cls-11" d="M1242.38,333.63l-3.33,25.76a22.23,22.23,0,0,0,18.16-3.76"/><path class="cls-11" d="M1288,317.27a175.08,175.08,0,0,0-6,27.35A43.07,43.07,0,0,0,1303.9,339"/><path class="cls-11" d="M1326.58,304.58,1325,320.87a27.06,27.06,0,0,0,16.54-1.66"/><path class="cls-8" d="M1113.61,380.4a163,163,0,0,0-2.86-38.44"/><path class="cls-8" d="M1140.77,374l-27-41.62"/><path class="cls-8" d="M1113.76,334.91a1.12,1.12,0,1,1-.1-1.89c1.22,3.15-2.06,6.73-5.44,6.65-5.63-.14-8.32-8.61-4.35-12.6s11.53-2.46,14.53,2.3a6.58,6.58,0,0,1,1.14,3.54c-.06,3.26-3.66,5.54-6.93,5.4s-6.17-2-8.9-3.79c-3.11-2-6.54-4.66-6.72-8.38-.23-4.64,5.37-7.95,9.87-6.81s7.66,5.28,9.4,9.59a7.59,7.59,0,0,1,.72,3.9c-.45,3.06-3.93,4.72-7,4.9-5.34.3-10.88-2.56-13.25-7.37s-1-11.29,3.37-14.36c5.12-3.58,13.32-1.14,15.57,4.68s-2.25,13.19-8.46,13.77-12-5.94-10.66-12,9.49-9.5,14.75-6.14c2.37,1.52,3.9,5.21,1.76,7-1.42,1.22-3.62.82-5.29,0a12.64,12.64,0,0,1-6.76-10.5c3.3-2.8,9.14-.06,9.81,4.21s-3,8.43-7.3,9.13-8.64-1.48-11.5-4.72c-1.79-2-3.14-4.63-2.86-7.31.39-3.88,4.25-6.75,8.13-7.08s7.69,1.36,10.91,3.56a14.71,14.71,0,0,1,5.35,5.7c3.25,7.06-5,15.64-12.57,14.06s-12.11-10.56-10.51-18.16a6.28,6.28,0,0,1,1.76-3.56,6.35,6.35,0,0,1,3.73-1.24c5.74-.41,12.1,2.5,13.88,8s-3.39,12.42-8.94,10.9c-4.51-1.23-6.41-7.55-3.73-11.38s8.66-4.52,12.5-1.84,5.35,8,4.12,12.51c-2.19,8-13.22,12.14-20,7.29a15.68,15.68,0,0,1-4.94-6.27c-3.07-6.7-2.08-15.19,2.81-20.7s13.55-7.46,20.14-4.15,10.19,11.8,7.59,18.69-11.33,10.89-18.09,8c-4.57-2-7.64-6.44-9.44-11.08-2-5.08-2.66-10.9-.59-15.93s7.43-8.91,12.82-8.1c4,.6,7.26,3.56,9.19,7.06a19.19,19.19,0,0,1-4.53,23.36c-4,3.28-11.42,3.86-13.26-1"/><path class="cls-8" d="M1244.22,341.77a412.22,412.22,0,0,1,8.92-48.06"/><path class="cls-8" d="M1277.47,328a282.57,282.57,0,0,0,6.63-52.22"/><path class="cls-8" d="M1253.83,284.23q13.62-6.81,27.81-12.41a162,162,0,0,0-41.41,15.71q4.38-14,9.21-27.86,13.95-4.41,28.25-7.55a23.37,23.37,0,0,1-8.21,16.51,117.63,117.63,0,0,1-1.92-17.65,86.2,86.2,0,0,1-10.14,21.1,10.89,10.89,0,0,1-1.78-10.07"/><path class="cls-8" d="M1328.74,295.06l0-36.74c.87,2.57-1.74,5.24-4.44,5.5s-5.27-1.09-7.64-2.4c3.51-3.48,9-3.69,13.78-4.81s10.14-4.67,9.52-9.58a10.93,10.93,0,0,0-2.71-5.24A59,59,0,0,0,1325,230.34a32.6,32.6,0,0,0,.68,14.86,50.1,50.1,0,0,1,5.62-24,60,60,0,0,1-7.78,39.15l14.27-39.95c.51-1.43,1-3.06.29-4.39a5.46,5.46,0,0,0-2.59-2.05l-13-6.48a56.45,56.45,0,0,1,15.58,47.25,4.94,4.94,0,0,0-5.52-4.34q16.65,17.31,34.72,33.15a148.07,148.07,0,0,1-15.55-14.18"/><path class="cls-8" d="M1332.8,223.51a5.18,5.18,0,0,0-1.11-4.27,49.34,49.34,0,0,1-5.71,24.92"/><path class="cls-8" d="M1323.32,176.44c-6.66-2.52-15.5.84-17.3,7.73s6.38,14.58,12.64,11.18,5.34-12.76,2.86-19.51c.9,11.7,1.74,23.89-2.64,34.79s-15.64,20-27.17,17.79"/></svg>