<svg xmlns="http://www.w3.org/2000/svg" viewBox="0 0 592.35 713.84"><defs><style>.cls-1{fill:#fefefe;}.cls-2{fill:#fbb03b;}.cls-2,.cls-54{opacity:0.89;}.cls-3{fill:#5d809b;}.cls-4{fill:#2f3436;}.cls-5{fill:#292f30;}.cls-6{fill:#2d3234;}.cls-7{fill:#2e3437;}.cls-8{fill:#232a2e;}.cls-9{fill:#333a3d;}.cls-10{fill:#31373a;}.cls-11{fill:#282e30;}.cls-12{fill:#202729;}.cls-13{fill:#2c3335;}.cls-14{fill:#222729;}.cls-15{fill:#4c5154;}.cls-16{fill:#161b1d;}.cls-17{fill:#252a2d;}.cls-18{fill:#363c3e;}.cls-19{fill:#3c4244;}.cls-20{fill:#404649;}.cls-21{fill:#4b5153;}.cls-22{fill:#12181a;}.cls-23{fill:#15191c;}.cls-24{fill:#565b5e;}.cls-25{fill:#50565a;}.cls-26{fill:#424747;}.cls-27{fill:#373e40;}.cls-28{fill:#1c2021;}.cls-29{fill:#555b5d;}.cls-30{fill:#3f4546;}.cls-31{fill:#0c1013;}.cls-32{fill:#1d2021;}.cls-33{fill:#3a3f41;}.cls-34{fill:#2b3132;}.cls-35{fill:#272a2b;}.cls-36{fill:#363d3f;}.cls-37{fill:#1d2122;}.cls-38{fill:#1c5cae;}.cls-39{fill:#b1b2b2;}.cls-40{fill:#353c3e;}.cls-41{fill:#343b3f;}.cls-42{fill:#18222e;}.cls-43{fill:#4b5154;}.cls-44{fill:#12181c;}.cls-45{fill:#333434;}.cls-46{fill:#2d3031;}.cls-47{fill:#232b33;}.cls-48{fill:#171c1d;}.cls-49{fill:#1f2123;}.cls-50{fill:#4d5357;}.cls-51{fill:#292d2f;}.cls-52{fill:#f8edb4;}.cls-53{fill:#262d32;}.cls-54{fill:#b08e5b;}.cls-55{fill:#313738;}.cls-56{fill:#38672d;}.cls-57{fill:#2d3034;}.cls-58{fill:#135cbf;}.cls-59{fill:#e6cd3a;}.cls-60{fill:#151803;}.cls-61{fill:#f4d92d;}.cls-62{fill:#353a3b;}.cls-63{fill:#272e2f;}.cls-64{fill:#2e3232;}.cls-65{fill:#2d3336;}.cls-66{fill:#2a3132;}.cls-67{fill:#216abc;}.cls-68{fill:#2f6fb6;}.cls-69{fill:#1057ad;}.cls-70{fill:#1c5fb0;}.cls-71{fill:#226cbb;}.cls-72{fill:#2a2f31;}.cls-73{fill:#0f171d;}.cls-74{fill:#fdfbf6;}.cls-75{fill:#131a1e;}.cls-76{fill:#262c2d;}.cls-77{fill:#24292b;}.cls-78{fill:#0b1216;}.cls-79{fill:#2d3335;}.cls-80{fill:#0d1419;}.cls-81{fill:#181e21;}.cls-82{fill:#1c2325;}.cls-83{fill:#22292b;}.cls-84{fill:#595e63;}.cls-85{fill:#4b5155;}.cls-86{fill:#182024;}.cls-87{fill:#384044;}.cls-88{fill:#424a4d;}.cls-89{fill:#555c61;}.cls-90{fill:#444b4f;}.cls-91{fill:#282f33;}.cls-92{fill:#13171b;}.cls-93{fill:#070b0f;}.cls-94{fill:#2a3033;}.cls-95{fill:#43494b;}.cls-96{fill:#373d3f;}.cls-97{fill:#454b4d;}.cls-98{fill:#484e4f;}.cls-99{fill:#474e50;}.cls-100{fill:#181e20;}.cls-101{fill:#3f4648;}.cls-102{fill:#454a4c;}.cls-103{fill:#9da09f;}.cls-104{fill:#414649;}.cls-105{fill:#e5e5e3;}.cls-106{fill:#fefcf6;}.cls-107{fill:#2e3436;}.cls-108{fill:#282f30;}.cls-109{fill:#262c29;}.cls-110{fill:#38672e;}.cls-111{fill:#1a3118;}.cls-112{fill:#202627;}.cls-113{fill:#2a312d;}.cls-114{fill:#010409;}.cls-115{fill:#10181d;}.cls-116{fill:#222a2d;}.cls-117{fill:#1d2529;}.cls-118{fill:#2a3235;}.cls-119{fill:#091116;}.cls-120{fill:#091218;}.cls-121{fill:#2d3334;}.cls-122{fill:#1d2223;}.cls-123{fill:#1d2324;}.cls-124{fill:#dededd;}.cls-125{fill:#10181c;}.cls-126{fill:#495155;}.cls-127{fill:#4d5458;}.cls-128{fill:#1a2022;}.cls-129{fill:#22282a;}.cls-130{fill:#1c2123;}.cls-131{fill:#373c3e;}.cls-132{fill:#464e52;}.cls-133{fill:#21282c;}.cls-134{fill:#3f464a;}.cls-135{fill:#373e42;}.cls-136{fill:#484f53;}.cls-137{fill:#363d40;}.cls-138{fill:#53595e;}.cls-139{fill:#13191d;}.cls-140{fill:#2d3437;}.cls-141{fill:#7f8489;}.cls-142{fill:#353c40;}.cls-143{fill:#21292c;}.cls-144{fill:#31383b;}.cls-145{fill:#262d30;}.cls-146{fill:#091016;}.cls-147{fill:#121a1e;}.cls-148{fill:#373d42;}.cls-149{fill:#696e73;}.cls-150{fill:#3b4146;}.cls-151{fill:#0c1114;}.cls-152{fill:#262d31;}.cls-153{fill:#282e2f;}.cls-154{fill:#23292a;}.cls-155{fill:#252b2c;}.cls-156{fill:#181d1e;}.cls-157{fill:#353b3c;}.cls-158{fill:#32393a;}.cls-159{fill:#161d1f;}.cls-160{fill:#151d21;}.cls-161{fill:#383e3f;}.cls-162{fill:#2b3235;}.cls-163{fill:#06090c;}.cls-164{fill:#30373a;}.cls-165{fill:#283033;}.cls-166{fill:#242b2f;}.cls-167{fill:#575e63;}.cls-168{fill:#090e12;}.cls-169{fill:#272e33;}.cls-170{fill:#070a0d;}.cls-171{fill:#141b20;}.cls-172{fill:#3d4346;}.cls-173{fill:#272e31;}.cls-174{fill:#5c6268;}</style></defs><g id="base_zaino" data-name="base zaino"><path class="cls-1" d="M1.51,776.55H585c7.69,0,7.69,0,7.69-7.73V64.1c.33.23,1.11-.54,1.08.53,0,1.42,0,2.84,0,4.26q0,352,.1,703.94c0,4-.89,4.89-4.89,4.89q-291.33-.18-582.67-.17C4.75,777.55,2.69,778.78,1.51,776.55Z" transform="translate(-1.51 -64.05)"/><path class="cls-2" d="M424.9,246.48c3,14.23,8.3,27.81,12.13,41.8,1.77,6.44,3.75,12.82,5.63,19.23-1.92,1.95-3.39,0-4.84-.71-19.58-10-34.94-3.65-41.41,17.11a6.15,6.15,0,0,1-1.73,3.24c-3.19,4.3-3,10.58.49,14,2.63,8.41,2.93,17.23,4.57,25.81a15.21,15.21,0,0,1,.55,3.07c2.89,14.37,5,28.87,7.39,43.32.2,2.36.09,4.76.94,7.05a15.63,15.63,0,0,1-.18,7.89c-.9,1.39-2.21,2.65-1.65,4.58.52-.92-.81-3.16,1.85-2.56,2.6,5.25,2.45,11,3.16,16.63,1,22.69,2,45.37,5.37,67.86a11,11,0,0,1,.51,2.05A63.8,63.8,0,0,0,420,530.63c.1,2.94,1.48,5.62,1.69,8.54-1.28,3.24-4.4,3.61-7.13,4.53-15.92,5.36-32.25,9.38-48.25,14.5-21,6.71-42.32,12.27-63.78,17.33-2,.47-4.05,1.18-6.2.73a3.18,3.18,0,0,1-1.63-1.08c-.93-2.4.1-4.49,1-6.6,3.17-5.23,3.13-11.31,4.52-17a22,22,0,0,0,.87-6.5,17.15,17.15,0,0,1,.42-2.86c.86-3.14.54-6.43,1.22-9.59a17.68,17.68,0,0,0,.68-6.78,29.9,29.9,0,0,1,.54-6.12c1.26-3.73.59-7.59.74-11.4a38.68,38.68,0,0,1,.48-7.6,110.88,110.88,0,0,0,0-28.43,30.36,30.36,0,0,1-.51-6.52c-.21-4.55.59-9.14-.68-13.63a21.55,21.55,0,0,1-.53-5.13c-.1-3,.32-6-.69-8.85a15.31,15.31,0,0,1-.48-2.93c-.21-2.91.26-5.89-1-8.69a30.61,30.61,0,0,1-1.65-10.69c0-2.16.24-4.36-.68-6.44-.46-1.15-.92-2.3-1.27-3.48a30.5,30.5,0,0,1-.54-7.26,6.61,6.61,0,0,0-1.51-4.71,9.53,9.53,0,0,1-.67-1.62,62.71,62.71,0,0,0-2.37-6.79c-.63-3.42-.59-6.95-1.69-10.3-2.36-12.93-7.16-25.09-11.83-37.29-1-2.26-2.06-4.47-3.22-6.64C269.1,319,261.2,307.54,248.81,300c-4.91-3-10.05-5.22-16.05-3.45a5.16,5.16,0,0,1-4.24-.59,14,14,0,0,1-3.39-5.53,2.84,2.84,0,0,1,.69-2.61c-2.21-9.75-8.37-17.45-13.38-25.75,2.72-5,8.13-6.27,12.55-8.58,16.09-8.41,32.51-16.19,50.59-19.54,5.27,1.11,9.79-2.89,15-2.18-.24-.67-1-1.26-.3-2.09,10.84-4.57,22.47-6.16,33.78-8.93,8.9-2.18,18.06-3.27,27.15-4.5a15.32,15.32,0,0,1,2.94-.5c2.51-.21,5.08.13,7.53-.73a18.76,18.76,0,0,1,3.73-.55c.62-.05,1.24-.06,1.86-.06a17.37,17.37,0,0,0,6.4-.79,17.39,17.39,0,0,1,3.87-.5c3.34-.12,6.74.29,10-.9a34.81,34.81,0,0,1,6.45-.44c4.52,0,9-.05,13.54,0,2,.14,4,.19,5,2.31,4.7,9,6.39,19.05,9.93,28.45C423.8,243.55,423.79,245.37,424.9,246.48Z" transform="translate(-1.51 -64.05)"/><path class="cls-3" d="M295.49,576.17c14.63-2.64,29-6.41,43.28-10.42,25.53-7.17,50.91-14.88,76.34-22.4,2.27-.67,4.77-1.07,6.16-3.41-1.37-2.5-1.79-5.27-2.4-8a31.13,31.13,0,0,1-2.61-13.46c1.3-2,.05-4.36.71-6.46-.52,1.76.52,3.8-.86,5.41-2.82-10.52-3.53-21.31-4.16-32.1-.74-12.48-1.3-25-1.94-37.45,1.35-8.2-1.34-16.09-1.86-24.15-.19-2.89-.71-5.8-1.15-8.68-1.89-14.51-4.42-28.91-7.39-43.23a7.9,7.9,0,0,1-.4-2.9,3.08,3.08,0,0,1,.2-1.72c-.53.39-.33,1.24-1,1.55l-4.68-27.13c-2.39-4.37-2.23-8.77-.11-13.18,1.63-4.92,2.43-10.13,5.32-14.6,7.9-12.26,24.64-15.88,38.34-8.26,1.8,1,3.58,2.07,5.37,3.11a46.6,46.6,0,0,1,2.91,4.81c15.69,34.16,25.22,70,30,107.27,2.71,21.29,4.67,42.58,2.4,64a37.15,37.15,0,0,1-1.13,4.83c-.9-1-.62-2.18-.73-3.31.05,1.14-.25,2.36.74,3.29-.59,9.09-3,17.83-7.89,25.36-3.41,5.22-4.3,10-2.68,15.75.94,3.38,1.16,6.95,1.71,10.44-1.35,2-.82,4-.13,6,2.06,5.7,1.75,11.73,2.2,17.62-.31-2.57-.82-5.1.59-7.58,3.5,17.06,2.29,34.22.84,51.35a197.72,197.72,0,0,1-7.4,37.61c-5.75,20.17-15.78,37.85-33.57,49.51-12.61,8.26-26.68,14-42,15.71-5.15-.83-10,1.29-15,1.66a26.91,26.91,0,0,0-10.08,0c-.39.12-1,0-1.17.14-.49.66-1.27.06-.45.25-.11.16.05-.14.52-.18,2.55-.22,5.27-1.79,7.54.77-12.05,2.23-24.17,1.19-36.24.59-5.38-.27-10.91-.06-16.17-1.78a4.07,4.07,0,0,1,3.78-.82c-3.09.2-7.32-.37-11.57-.72-1.92-.26-3.68-1.09-5.55-1.5a60.17,60.17,0,0,1-16.46-17.11c-3.31-5.94-4.29-12.83-7.57-18.79-.35-6.3-1.88-12.48-1.89-18.81-1.88-6.23.1-12.43.52-18.59.31-4.53.72-9.1,1-13.65a10.24,10.24,0,0,1,.37-1.91c.79-2,.89-4.17,1.46-6.23a20.88,20.88,0,0,1,.94-2.42c1.09-1.9.87-4.47,2.93-5.88,2.66-2.93,2.8-6.46,2.43-10.12a8.25,8.25,0,0,1,.17-2.76C290.5,587.72,290.56,580.89,295.49,576.17Z" transform="translate(-1.51 -64.05)"/><path class="cls-3" d="M352.21,217.5c-18.35,3.08-36.56,6.82-54.61,11.35-2.61.66-5.19,1.46-7.78,2.2a40.69,40.69,0,0,1-13.54,4c-19.45,4.7-37.61,12.56-55,22.36-2.91,1.64-5.9,3.12-8.85,4.68-14.28-24.71-19.3-51.34-13.35-79.12,5.35-25,18.85-44.52,43.19-55.52,21.65-9.78,44.39-13.14,67.8-13.64l1,.11q11.81.21,23.6,0l1-.1c24.12.6,42.21,10.68,52.74,33.07,3.35,7.1,8.49,13.35,10,21.33a14.66,14.66,0,0,0,1.62,7.47c1.46.3,1.87,1.5,2.23,2.7Q407.16,194.71,412,211c-1.11,1.19-2.58,1.28-4,1.23-14.36-.47-28.57,1.34-42.79,2.81a16.83,16.83,0,0,1-5.87.24c.85.49,2.37-.25,3,1l-7.94,1a3.08,3.08,0,0,0-2.25-.59,6.73,6.73,0,0,1-1.79-.13C350.91,217,351.86,216.67,352.21,217.5Z" transform="translate(-1.51 -64.05)"/><path class="cls-4" d="M283.82,611.84l-1.05,1.31c-1.92,1.79-1.27,4.14-1.36,6.33v-.06c-2,8.94-1.69,18.14-3.27,27.12-6.08,2.65-10.66,6.46-12.31,13.41-.89,3.72-5.19,5-7.29,8.61-4.9,8.39-5.67,8-4.61,16.45,0,0-.15.07-.46.33-.64.54-1.41-.17-.57-.14-.16.62,0,.35.59.33,6.7-.3,13.36-1.7,20.11-1,1.48,1.89.58,4,.58,6,0,6.33-.62,7-6.76,6.31-3.78-.42-7.8,1.89-11.41-.81,2.66,2,6.16,2,9,3.53,1.46.78,3.46,1.49,2.7,3.55s-2.62,1.44-4.21.75c-16.78-4.24-31.84-11.24-41.8-26.32a3.59,3.59,0,0,1,1.79-2.21,10,10,0,0,1,4.65-.79c7,1.89,12.21,5.65,13.17,11.94a33.53,33.53,0,0,1-3.91-22.74c1.34-4.55,5.33-5.63,9.14-6.77,3.27-1,5.79-2.35,5.92-6.28s3.2-4.43,6.09-5.12c-4.06-7.27-2.65-11.76,5.11-13.74,2.78-.71,3.3-3.62,6-4,1.13-.16-.37-.6-.57-.8-1.92-1.85-3.25-4.07-.06-5.45,5.22-2.25,6.92-6.49,7.53-11.47.51-4.1,1.91-6.43,6.46-4.53C284.54,607.54,283.07,609.82,283.82,611.84Z" transform="translate(-1.51 -64.05)"/><path class="cls-5" d="M189.2,576.39c4.92-.79,9.81-1.77,14.76-2.29,3-.32,4.62-1,2.39-4-10.44-13.82-13.84-30.82-21-46.1-1.95-4.21-4.78-8.19-3.61-13.26.31-4.58-1.89-9.35,1.07-13.72,4.73,4,5.67,9.52,5.77,15.31C191.24,521,197,527.89,202,535.21c1.24,1.84,3.49,3.1,3.09,5.8,1.79,8.55,3.82,17,9.27,24.15,1.67,2.19,2.41,4.1,1.7,6.85-1.34,5.21,2.75,9.38,2.51,14,4.72-3.37,10.51-5.69,11.17-12.31.72-1.71,1.24-3.62,3.64-3.67.32.26.81.59.77.91-1.22,11,7.25,16.66,12.87,23.91,1.2,3,.25,4.48-2.95,3.35a23.42,23.42,0,0,1-7.24-4.31c-5.19-3.91-6.07-3.81-6.8,2.09a14.83,14.83,0,0,1-5.53,9.89c-4.46-1.5-4.68-5.94-6.46-9.29-1.11-3.6-3.14-6.77-4.69-10.17-.82-1.76-1.65-3.52-2.62-5.2-.68-1.29-1.55-2.14-3.16-1.47-2.53.32-5,.82-7.6.94a17.71,17.71,0,0,1-4.7-.48C193.2,579,189.52,580.34,189.2,576.39Z" transform="translate(-1.51 -64.05)"/><path class="cls-6" d="M263.53,703.89c1-.21,2.56-.12,2.88-.71,1.06-1.93-1-1.72-1.94-2.11-4.64-1.88-10.1-2.48-12.3-8.72,4.88,6.12,11.41,1.67,17,3.44,3.13,1,4.26-.24,3.52-3.55a9.71,9.71,0,0,1,1.09-7.29c7-5.27,9.63-4.67,12.7,2.91.53,1.33.74,2.91,2.64,3,3.76,6.76,10.08,11.14,15.34,16.51-2.65,3.1-6.29.27-9.25,1.54C284.44,708.39,273.84,707.08,263.53,703.89Z" transform="translate(-1.51 -64.05)"/><path class="cls-7" d="M133.94,691c1.37,2.11,3.31,3.91,3.6,6.61-1.57,2.26-3.19,4.45-6.36,4.38-3.14-1.2-7.37.17-9.37-4.29-1.11,2.12.16,4.87-2.45,6.3-2.57-.91-.34-3.83-1.89-5.14-4.14-10-12.15-17.77-16.45-27.71-.41-3.26.93-6.33,1.09-9.56.09-1.71,1.85-2.63,3.8-1.67a10.75,10.75,0,0,1,2.16,1.51c1,1,2.41,1.76,1.94,3.54a6,6,0,0,1-2.14,1.26c-2.31,1.61-1,3.66,0,4.88A71,71,0,0,0,133.94,691Z" transform="translate(-1.51 -64.05)"/><path class="cls-8" d="M223.31,676.15l-1.58,1.42c-3,.6-6,1.62-9.15,1.26-8.81-.42-17.47,1.9-26,1.68.68.65,3.43-.68,2.94,2.16v0c-13.27-1.58-26.74,2.55-40-1.58-3.54-1.11-7.44.15-11.19.16a6.57,6.57,0,0,1-3.09-.54c-1.31-.84-2.1-1.93-1.68-3.59a5.14,5.14,0,0,1,3.47-2.38,171.83,171.83,0,0,1,26.24.59c10.06,1,20.34-1.14,30.55-1.49,7.71-.26,15.3-2.25,23.1-1.38,2.37.27,4.6.5,6,2.73C223.06,675.47,223.19,675.81,223.31,676.15Z" transform="translate(-1.51 -64.05)"/><path class="cls-9" d="M95.91,653.47c-3.4-.78-4.59-3.84-6.42-6.24a7.21,7.21,0,0,1,.8-2.16,19.31,19.31,0,0,0,1.23-2.93,51.73,51.73,0,0,1,3.07-9.46c1.65-3.5,4.12-6,8.21-5.29,3.7.61,6-2.73,9.36-2.76a4.1,4.1,0,0,1,2.61.68c.92,1.2.33,2.31-.17,3.43a17.32,17.32,0,0,1-4.35,5.24c-2.51,2-3.25,4.32-2.81,7.65C108.3,648.15,102.36,654,95.91,653.47Z" transform="translate(-1.51 -64.05)"/><path class="cls-10" d="M95.91,653.47c7.39-2.08,10.38-6.29,9.77-13.59-.22-2.58.13-5.17,2.74-6.44,2.41-1.18,3.37-3.63,5.26-5.23l.68.76c1.55,5.11-1.45,9.65-2,14.51-.25,2.44-.91,4.86-.82,7.35a24.13,24.13,0,0,1-.48,6c-.85,2.45-2.83,3.54-5.15,4.19-1.83-1.1-3.3.16-3,1.49.83,3.37-.75,5.88-2,8.61-2.49-3-1.86-6.72-2.49-10.15C98,658.32,98.16,655.49,95.91,653.47Z" transform="translate(-1.51 -64.05)"/><path class="cls-11" d="M135.07,679.9h2.52c1.21.75,3.87-.32,3.6,2.08-.21,1.77-2.34.75-3.6,1.06-1.62.4-3.65-1-4.9,1.07l1.25,6.84c-.83,4-4.34.74-4.4.68-6.51-6.24-15-9.95-21.11-16.74a12.47,12.47,0,0,1-3.5-9.51c.08-1.63,1.49-.79,2.41-.6,5.9,9.64,14.46,13.54,25.61,11.84C133.33,677.93,133.25,679.53,135.07,679.9Z" transform="translate(-1.51 -64.05)"/><path class="cls-12" d="M113.53,605.31l1.2-2.38c1.14-1.64,1.86,2.35,3,.2,9.17-8,19.22-14.29,31.37-16.64,5.64-.66,10.78-5,16.87-2.25a3.58,3.58,0,0,1,1.13,1.4c-.62,3.71-3.16,5.36-6.55,5a16.81,16.81,0,0,0-11.8,3.11c-3.66,2.62-8.13,2.43-12.06,4.48a51.77,51.77,0,0,0-15.63,11.83,7,7,0,0,1-3.75.64c-2.16-.31-3.84-1.22-4.4-3.52A3,3,0,0,1,113.53,605.31Z" transform="translate(-1.51 -64.05)"/><path class="cls-13" d="M132.69,684.12c1.78-3.19,5-.86,7.56-2l-2.66-2.16c5.65-.79,11.27-2.44,16.88.66,1.5.83,3.67.55,5.54.57,9.85.15,19.78-1.43,29.48,1.48-14.65,3.17-29.45,2.8-44.28,2C141,684.35,136.86,684.27,132.69,684.12Z" transform="translate(-1.51 -64.05)"/><path class="cls-14" d="M163.86,452.19c-3-6.15-8.74-10.8-9.49-18.16-.32-3.09-1.94-5.61.54-9.18,1.73-2.49.28-7.19.25-10.9,3.66.3,2.75,3.56,3.5,5.63,1.43,3.94,2.62,8,2.28,12.26a1.83,1.83,0,0,0,.07,1,1.7,1.7,0,0,1,.87-1.52c4.27,3.38,3.86,8.38,4.51,13C165.48,446.94,166.47,450.15,163.86,452.19Z" transform="translate(-1.51 -64.05)"/><path class="cls-15" d="M172.85,325.64c.16-1.24,1.08-1.33,2-1.34,1.54-.37,3-1.3,4.69-.69,2.81,3.58-.69,5.24-2.52,6.77a75.45,75.45,0,0,0-15.75,17.37c-2.06,2.4-3.94,3.49-5.06-.71a52.35,52.35,0,0,1,12.8-18.8C170.28,327.31,171.94,327,172.85,325.64Z" transform="translate(-1.51 -64.05)"/><path class="cls-16" d="M163.86,452.19c.83-2.59-.91-5.65,1.44-8,3.85,2.86,3.46,7.57,5,11.44.73,5.43,3.26,10.38,4.26,15.74-.17,2.25,1,4.51,0,6.76a3,3,0,0,1-1.69,1c-3.71.43-2.55-3.1-3.8-4.67A157.63,157.63,0,0,1,163.86,452.19Z" transform="translate(-1.51 -64.05)"/><path class="cls-17" d="M91,645.78l-1.53,1.45c-4.16-9.63-.84-19,1.32-28.29.52-2.24,2.48-4.15,3.78-6.22a4.92,4.92,0,0,1,1.78,3.8A18,18,0,0,1,96,621.8c-1.4,5.59-2.18,11.32-3.66,16.9A22.18,22.18,0,0,1,91,645.78Z" transform="translate(-1.51 -64.05)"/><path class="cls-18" d="M117.47,698.82c1.6.74.78,2.71,1.89,3.77,1-1.05.5-2.27.45-3.39-.07-1.49-1.84-3.33.7-4.25s2.6,1.53,3.1,2.87c1.42,3.86,6.39-.48,7.66,3.46-2.54,4.89-7.49,7.11-11.48,10.39C115.77,708,118.93,703,117.47,698.82Z" transform="translate(-1.51 -64.05)"/><path class="cls-19" d="M156.25,347c1.3,1.32,2.62,2.27,4,.13,2.14,2.55.48,5-.25,7.41-1.68,2.4-2,5.25-2.5,8-.94,5.06-.4,10.55-4.3,14.75a1.36,1.36,0,0,1-1.8.07,25,25,0,0,1,0-10.08c1.69-2.39-.19-5.33,1.23-7.76C152.29,355,154.31,351,156.25,347Z" transform="translate(-1.51 -64.05)"/><path class="cls-20" d="M118.28,597.84c5.76-8,13.06-13.62,23.07-15.13a3.17,3.17,0,0,1,2,3,4.37,4.37,0,0,1-3.43,3.32c-6.72,1.18-11.64,5.39-16.59,9.57C121.54,598.89,119.8,599.13,118.28,597.84Z" transform="translate(-1.51 -64.05)"/><path class="cls-21" d="M151.44,377.42h1.27a5.33,5.33,0,0,1,1.87,3.44c1.41,3.42.66,7.24,1.93,10.69.93,8.44,4.63,16.3,5.16,24.82-.32,1.39-.73,2.71-2.46,2.89A47.89,47.89,0,0,1,154,405.39c-1.17-4.41-2.5-8.78-2.88-13.36-.21-2.77-.64-5.51-.81-8.29Z" transform="translate(-1.51 -64.05)"/><path class="cls-22" d="M172.89,478.24h1.18a4,4,0,0,1,1.35,1.52c1.94,8.22,3.82,16.46,5.4,24.76a9.42,9.42,0,0,1-.66,4.2,2.82,2.82,0,0,1-3.68,1.45c-2.61-1.92-1.77-4.46-1.26-6.95-.67-2.08.26-4.73-2.22-6.16a1.26,1.26,0,0,1-.47-1.44c1.64-2.73.13-5.29-.44-7.91a7.67,7.67,0,0,1-.37-1.71,50.44,50.44,0,0,1,0-5.36A3.85,3.85,0,0,1,172.89,478.24Z" transform="translate(-1.51 -64.05)"/><path class="cls-23" d="M119.79,711.67c2.25-5.2,7.38-7.22,11.48-10.39l6.27-3.71C135.48,704.5,124.88,712.92,119.79,711.67Z" transform="translate(-1.51 -64.05)"/><path class="cls-13" d="M189.51,682.67c-1.13-2-3.41-1.08-5.06-1.89,13.43-3.95,15.13-4.07,28.12-1.95a7.38,7.38,0,0,1-5.52,1.19c-.93-1-2.15-.69-3.29-.76,1.15.09,2.36-.16,3.33.75A70.25,70.25,0,0,1,189.51,682.67Z" transform="translate(-1.51 -64.05)"/><path class="cls-24" d="M175.22,503.23c.45,2.19,0,4.6,1.58,6.51,4.58,1.57,3.68,4.7,2.27,8-1.64,3.26-3.36,6.24-7,1.78-1.11-1.83-.5-4.17-1.74-6Z" transform="translate(-1.51 -64.05)"/><path class="cls-25" d="M177.81,321.91c3.55-3.42,7.4-6.36,12.25-7.69,1.55-.88,3.13-1.45,4.88-.58,1.81,1.39.64,2.71-.44,3.45-4,2.71-7.51,6.36-12.6,7.21C180.35,323.83,178.56,323.77,177.81,321.91Z" transform="translate(-1.51 -64.05)"/><path class="cls-26" d="M226.33,290.29c1.68,1.24,2,3.12,2.28,5-.22.27-.44.54-.65.82-4.38,1.82-8.87,1.14-13.36.63a4.43,4.43,0,0,1-1.75-1.11c-1.25-2.31-.39-3.95,1.65-5.22l5.07-1.12C221.69,290.49,224.31,288.41,226.33,290.29Z" transform="translate(-1.51 -64.05)"/><path class="cls-27" d="M189.2,576.39c1.4,2.59,4.86.29,6.36,2.67-3.36,2.93-7.8,2-11.64,3.26-2.13-.41-4.46-.18-6.2-1.86a1.82,1.82,0,0,1,.28-1.71c1.29-.41,2.65-.32,5.34-.06-4.44-.81-7.19,1-10.23.86-2.44-.14-5.06.39-6.87-1.94C173.81,575.67,181.55,576.92,189.2,576.39Z" transform="translate(-1.51 -64.05)"/><path class="cls-28" d="M155.22,405.15l4,13.74c3.35,3.74,3.68,8.05,2.37,12.66a4.76,4.76,0,0,1-.18,1.85c-1,1.72-1,.15-1.11-.44-1.56-6.38-2.61-12.89-5.13-19a4.77,4.77,0,0,1-1.29-4.71C153.64,407.65,152.1,405.64,155.22,405.15Z" transform="translate(-1.51 -64.05)"/><path class="cls-29" d="M195.64,314.43l-5.58-.21a8.09,8.09,0,0,1,5.32-5.13c2.18.59,4.24,0,6.31-.65a10.07,10.07,0,0,1,1.72-.34,7.56,7.56,0,0,1,1.84.11,2.41,2.41,0,0,1,2,1.78C204.48,314.32,200.79,316.28,195.64,314.43Z" transform="translate(-1.51 -64.05)"/><path class="cls-30" d="M177.92,579.1c0,.41,0,.82,0,1.22-3.6,2.69-8.08,1.73-12,2.89-2-.39-4-.17-6-.51a6.63,6.63,0,0,1-1.75-.81c-1.34-1.27-3.6-1.2-4.55-3.06,2.52-1.49,5.25-1.26,8-1,4,1.39,8.23.26,12.34.62C175.24,578.59,176.7,578.09,177.92,579.1Z" transform="translate(-1.51 -64.05)"/><path class="cls-31" d="M207.93,301.24l2.94-3.22c.87-.83,0-3.25,2.42-2.66l-.06.12c4.79,1.44,9.71.22,14.54.73a1.67,1.67,0,0,1,1.2,1.51c-.09,1.62-1.14,2.33-2.55,2.7-4.11.53-8.48-2.5-12.39.92-1.5,1.22-2.91,2.64-5.12,2.22C208,303,207.3,302.41,207.93,301.24Z" transform="translate(-1.51 -64.05)"/><path class="cls-32" d="M155.22,405.15c-1.5,1-1.18,2.63-1.35,4.09-2.06-4.83-3-9.95-3.85-15.09-.47-1.38-1-3,.29-4,1-.79,1.81.22,2.3,1.18C152.44,396.15,154.37,400.55,155.22,405.15Z" transform="translate(-1.51 -64.05)"/><path class="cls-30" d="M142.64,585.4l-1.29-2.69c3.05-2.11,6.67-2.61,10.12-3.6a21.36,21.36,0,0,0,2.11,1.26,2.23,2.23,0,0,1,.65,2.31C150.94,586,147.22,587.55,142.64,585.4Z" transform="translate(-1.51 -64.05)"/><path class="cls-33" d="M172.84,518.64c3.22,5.19,3.5-.36,5-1.38a4.64,4.64,0,0,1,2.13,5.38c-1.37,2.54-3.67,2.68-6.14,2.35-1.33-1.06-3.9-.8-3.67-3.5C169.63,519.2,169.55,517.35,172.84,518.64Z" transform="translate(-1.51 -64.05)"/><path class="cls-34" d="M183,511c-1.84,4.8,3.91,8.24,2.34,13l-2.36.81c-1.29-.9-1.73-2.34-2.31-3.69-.79-2.2-2-4.36-.85-6.81.44-1.4.69-2.92,2.33-3.53Z" transform="translate(-1.51 -64.05)"/><path class="cls-35" d="M181.79,521.07c1.38.95,1.13,2.4,1.17,3.76-3,3.27-6,2.28-9.11.16l5.37-2.65A3.05,3.05,0,0,1,181.79,521.07Z" transform="translate(-1.51 -64.05)"/><path class="cls-36" d="M118.28,597.84c1.41-.35,2.82-.78,4.19.15.15,3.56-3.17,4.36-5,6.31-1.73,1.18-1.52-1.47-2.7-1.37C115.09,600.66,116.66,599.24,118.28,597.84Z" transform="translate(-1.51 -64.05)"/><path class="cls-37" d="M207.93,301.24c.58.63,1.15,1.27,1.72,1.9.37,1.7-.79,2.6-1.85,3.55s-2.36,1.49-3.2,2.65l-1.47,0c-1.24-.94-3.34-1.31-2.5-3.67Z" transform="translate(-1.51 -64.05)"/><path class="cls-38" d="M308.88,709l14,1.58v.53l-5.44.56-8.45-.38A1.65,1.65,0,0,1,308.88,709Z" transform="translate(-1.51 -64.05)"/><path class="cls-39" d="M173.14,495.89a2.8,2.8,0,0,0-.14,1.18c-5.23-2.26-2-6.67-2.55-10.1.85-.63,1.62-.65,2.24.32l.07-.19C173.59,490,174.56,492.9,173.14,495.89Z" transform="translate(-1.51 -64.05)"/><path class="cls-40" d="M94.86,616.92l-.27-4.2c-.08-4.38,2.12-6.32,6.44-6,.5,2.85-2.29,4.31-2.81,6.74C97.31,614.84,97.25,617,94.86,616.92Z" transform="translate(-1.51 -64.05)"/><path class="cls-41" d="M152.61,391.35c-3.59-1.59-1.76,1.83-2.59,2.8-1.47-3.51-1.94-7,.26-10.41A11.64,11.64,0,0,1,152.61,391.35Z" transform="translate(-1.51 -64.05)"/><path class="cls-42" d="M308.88,709l.12,2.29L305.26,710c-2.95-1.34-6.22.25-9.17-1l-.48.16-.44-.25c2.73-2.6,6.23-.65,9.25-1.54Z" transform="translate(-1.51 -64.05)"/><path class="cls-43" d="M172.84,518.64c-1.93,0-2.34,1.37-2.66,2.85-1.41-2.68-.83-5.32.18-8C173.75,514,172.64,516.63,172.84,518.64Z" transform="translate(-1.51 -64.05)"/><path class="cls-44" d="M97.28,613.08c-.06-2.88,2.12-4.44,3.75-6.32a.68.68,0,0,1,.93-.15,4,4,0,0,1,2.65-.23c1,4.61-3.73,4.64-5.62,6.94A1.92,1.92,0,0,1,97.28,613.08Z" transform="translate(-1.51 -64.05)"/><path class="cls-45" d="M213.29,295.36,210.87,298c1.32-2.49-4-8.14,3.63-7.62A8.25,8.25,0,0,0,213.29,295.36Z" transform="translate(-1.51 -64.05)"/><path class="cls-46" d="M172.69,487.29l-2.24-.32-.15-6.19a1.64,1.64,0,0,1,2.54.06Z" transform="translate(-1.51 -64.05)"/><path class="cls-12" d="M174.12,579c-4.18-.51-8.58,1.34-12.57-1.19l4.69-.23,7.83.37c.47.21.63.43.49.67S174.28,579,174.12,579Z" transform="translate(-1.51 -64.05)"/><path class="cls-40" d="M104.81,607.09l-2.85-.48c3.68-2,7.73-.73,11.57-1.3l.1,1.44C110.78,609.1,107.83,609.09,104.81,607.09Z" transform="translate(-1.51 -64.05)"/><path class="cls-47" d="M226.33,290.29c-2.29-.08-4.76,1-6.76-1l6.25-1.44Z" transform="translate(-1.51 -64.05)"/><path class="cls-48" d="M172.84,480.84l-2.54-.06a13.33,13.33,0,0,1-1.23-6.31c1.68.84,1.09,4,3.82,3.77C172.87,479.11,172.86,480,172.84,480.84Z" transform="translate(-1.51 -64.05)"/><path class="cls-49" d="M200.63,305.63l2.5,3.68a5.38,5.38,0,0,1-1.2.07c-1.88.55-4.09,1.81-4.08-1.84C198.6,306.64,199.13,305.44,200.63,305.63Z" transform="translate(-1.51 -64.05)"/><path class="cls-50" d="M177.81,321.91l3.93,1.32c.27,1.12-.15,1.55-1.27,1.25l-5.58-.18Z" transform="translate(-1.51 -64.05)"/><path class="cls-51" d="M197.85,307.54c.8,1.84,2.48,1.76,4.08,1.84-2.25,1.53-4.47,2.14-6.55-.29Z" transform="translate(-1.51 -64.05)"/><path class="cls-6" d="M296.09,709c3.09,0,6.31-1.15,9.17,1A26.79,26.79,0,0,1,296.09,709Z" transform="translate(-1.51 -64.05)"/><path class="cls-52" d="M424.9,246.48c-2.35-.33-2.59-2-2.44-3.9C425,242.77,425.14,244.52,424.9,246.48Z" transform="translate(-1.51 -64.05)"/><path class="cls-15" d="M152.64,359.58c-.11,2.63,1.06,5.47-1.23,7.76A13.09,13.09,0,0,1,152.64,359.58Z" transform="translate(-1.51 -64.05)"/><path class="cls-53" d="M152.74,580.38l-1.27-1.27,2.1-.28c1.76.69,4-.37,5.45,1.49C156.94,582.14,154.84,581.59,152.74,580.38Z" transform="translate(-1.51 -64.05)"/><path class="cls-50" d="M172.85,325.64c0,2.64-1.91,2.64-3.8,2.6A5.37,5.37,0,0,1,172.85,325.64Z" transform="translate(-1.51 -64.05)"/><path class="cls-54" d="M306.65,471.49q-.11-2.92-.2-5.87c-1.53-4.66.33-9.57-1.07-14.23-.11-1.57-.21-3.14-.31-4.71-1.19-3,.29-6.2-.95-9.15l-.17-2.15c-1.48-3,.19-6.31-1.08-9.3q-.71-5.43-1.42-10.86c-1.41-2.06.07-4.59-1.11-6.68.21-1,0-1.86-1.13-2.22a2.35,2.35,0,0,0-1.37-.49c.11-4.49-1.36-8.81-1.46-13.27-.11-2.35.07-4.82-2.31-6.35-.87-3.71-1.88-7.4-1.5-11.28-2.2-13.35-6.95-25.87-12.28-38.21a6.65,6.65,0,0,1-2.82-5.92c-11.62-18.26-21.58-38.8-48.86-35.52-.17.13-.33.27-.49.41s-.19.14-.28.4a.67.67,0,0,0,.33.75c.1.37.19.73.28,1.1,1.18,2.08.55,4.43,1,6.61.17,1.76.9,3.42,1,5.2a31.32,31.32,0,0,0,.67,3.58c.76,2.1.49,4.33.84,6.47.79,3.51,3.22,6.46,3.48,10.15,1.65,9.28,2.57,18.66,3.82,28,.64,4.87-.08,10.12,3.08,14.5.62.17,1.16.16,1.52-.45.38.39,0,.7-.14,1a34.7,34.7,0,0,0-1.82,6.34c-.34,2.52.17,5,.42,7.49,2.22,22.27,4.21,44.56,4.19,67,0,10.88,0,21.77,0,32.66.13,5.47.8,11-.47,16.37a17.11,17.11,0,0,0-.48,3.17c-.25,3.72.42,7.51-.81,11.15a20.9,20.9,0,0,0-.48,3.94c0,.1,0,.2,0,.3-1.09.94-1.33,2.45-1.64,3.9-.06,7.4-1.85,14.54-3.21,21.74-.24,1.83-.2,3.72-1.05,5.42-1.94,5.88-3.49,11.88-5,17.87,1.07,3.64-3,7.71,0,10.77,4.48,4.59,7.28,10.61,12.63,14.38,4.12,1.78,5.37-1.86,7.44-4a168.65,168.65,0,0,1,38.37-42.38c.9-.64,1.82-1.26,2.72-1.91,1.75-1.32,3.85-1.86,5.83-2.65,1-.45,1.66-1.4,2.57-2,1.52-3.08,1.18-6.39,1.2-9.66,1-2.15-.07-4.57.9-6.72.12-2,.23-3.93.35-5.89,1.32-3.84-.39-8,1-11.79l.24-7.09A190.74,190.74,0,0,0,306.65,471.49ZM264.89,506l0,0a.06.06,0,0,0,0,0,6.16,6.16,0,0,0,.64.26Z" transform="translate(-1.51 -64.05)"/><path class="cls-55" d="M300.18,543.7a2.67,2.67,0,0,1,2.76-1.11c-.09.82-.19,1.65-.28,2.48-1.33,2,.14,4.51-1.08,6.55-1.08,6-.29,12.62-5,17.61a2.08,2.08,0,0,1-.54-2.47c.46,2.71-2.26,5.36-.68,8.42l.16-.19L289,593.18c-2.41,2.88-1.82,6.85-3.63,9.94-.66,1.12-.62,3-2.79,2.42-2.74.58-5.27.85-4.16,5.11a6.94,6.94,0,0,1-2.77,7.23c-2.78,1.74-1.09,3.28-.68,4.12-.89,3.72-7.24-3.73-5.42,3.64.59,2.42,5.61.19,6.34,4.27-2.65,1.23-8.23-4.1-8.12,3.33,0,.68-1.27,1.08-2.11.62-4.21-2.26-6.32.85-7.41,3.7-.88,2.31-2.5,6.52,3.14,6.38.26,0,.8,1,.77,1.45-.06,1.26-1.1,1.74-2.17,1.81-4,.28-7.44.52-6,6.37.29,1.15-1.94,4.11-5.05,4.6-3.93.62-8.08,1.49-10.52,5.35-3.95-8.2-2.63-16.47-.36-24.75,1.16-1.92,1.12-4.54,3.38-5.81,3.21.13,6.48,5.45,9.63-.13.41-.72,1.38-1.69,1-2.17-4.94-6.2,1.73-6,4.26-8.51,4.06-4,7.34-8.84,10.67-13.5,2.71-3.78,4.87-7.92,5.15-12.94.15-2.64,2.35-4.83,4.39-6.73.91-.85,2.66-1.71,2.59-2.6-.54-6.69,4.67-6.67,9.36-7.68-2.49-5.43-2.2-10.82-2.14-16.24,0-3.06-.07-5.87,2.65-7.9,2.38-1.78,1.41-4.7,2.38-6.95.83-.44,1.66-.88,2.48-1.33,4,2.48,2.16,6.3,2.28,9.26C297.94,552,297.61,547.38,300.18,543.7Z" transform="translate(-1.51 -64.05)"/><path class="cls-56" d="M306.65,501.44V471.5" transform="translate(-1.51 -64.05)"/><path class="cls-57" d="M295.32,575.18c-3.61-3.1,1.09-5.78.87-8.79.12,1,.23,1.89.35,2.84C296.13,571.21,295.73,573.2,295.32,575.18Z" transform="translate(-1.51 -64.05)"/><path class="cls-56" d="M305.39,520.32c.29-3.93-1.24-8,1-11.79" transform="translate(-1.51 -64.05)"/><path class="cls-58" d="M416.11,516.24q.18-3.21.37-6.42c.79,2.57,1.89,5.15-.22,7.47A1,1,0,0,1,416.11,516.24Z" transform="translate(-1.51 -64.05)"/><path class="cls-59" d="M418.87,530.76a20.46,20.46,0,0,1,2.4,8C418.68,536.63,418.52,533.77,418.87,530.76Z" transform="translate(-1.51 -64.05)"/><path class="cls-60" d="M408.55,264.21l-2.28-2.28" transform="translate(-1.51 -64.05)"/><path class="cls-60" d="M393.51,257.68l-6.59-.1" transform="translate(-1.51 -64.05)"/><path class="cls-61" d="M407.12,429.14l.22,1.34V434C406.17,432.35,405.59,430.72,407.12,429.14Z" transform="translate(-1.51 -64.05)"/><path class="cls-62" d="M301.58,551.62c.13-2.22-.91-4.63,1.08-6.55C302.77,547.33,302.75,549.57,301.58,551.62Z" transform="translate(-1.51 -64.05)"/><path class="cls-63" d="M289.08,690.89c-2.59,1.92-2.91-.88-3.1-1.93-1.29-6.93-5.41-6.52-10.4-4.37a8.45,8.45,0,0,1-1.84.36,71.05,71.05,0,0,1-26.55.67c2.65-3.08,4.5-.3,6.38-.68,6.81-4,14.83-3.05,22.13-5.22,3.38-1,4.75-2.49,5-5.62.23-.22.48-.43.72-.64C285.92,678.42,285.61,685.49,289.08,690.89Z" transform="translate(-1.51 -64.05)"/><path class="cls-64" d="M277.52,647.13c1.05-9.27.18-18.81,3.89-27.71a126.93,126.93,0,0,1-2.41,27.3c-.47,2.48,1.13,4.4.92,6.69-1.59.47-2.52-.36-3.23-1.63A4.25,4.25,0,0,1,277.52,647.13Z" transform="translate(-1.51 -64.05)"/><path class="cls-65" d="M282.57,605.54c1.42-4.07,2.8-8.16,4.3-12.2.45-1.22,1.18-3.43,2.12-.16l-.06,2.3c-.24,3.46-.82,6.81-2.81,9.76l-2.3,6.6C281.75,610.07,282.86,607.67,282.57,605.54Z" transform="translate(-1.51 -64.05)"/><path class="cls-66" d="M277.53,652.18l2.39,1.23c0,6.72,2.1,13.28,1.53,20.05l-.18.18a1.89,1.89,0,0,1-2.07-1C276.75,666,275.18,659.22,277.53,652.18Z" transform="translate(-1.51 -64.05)"/><path class="cls-67" d="M286.12,605.24a26.73,26.73,0,0,1,2.81-9.76C290.06,599.33,290.15,602.88,286.12,605.24Z" transform="translate(-1.51 -64.05)"/><path class="cls-65" d="M281.41,619.48c-4.68-3.21-1.26-4.69,1.36-6.33C282.15,615.22,283.79,617.78,281.41,619.48Z" transform="translate(-1.51 -64.05)"/><path class="cls-68" d="M373.3,711.4h-10A9.43,9.43,0,0,1,373.3,711.4Z" transform="translate(-1.51 -64.05)"/><path class="cls-69" d="M476.27,482.39c.24,2.7.39,4.38.53,6.07v0" transform="translate(-1.51 -64.05)"/><path class="cls-70" d="M310.66,114.18h24.52A57.92,57.92,0,0,1,310.66,114.18Z" transform="translate(-1.51 -64.05)"/><path class="cls-71" d="M333,190.93" transform="translate(-1.51 -64.05)"/><path class="cls-6" d="M277.53,652.18c1.61,7.09.17,14.71,3.74,21.46,1.11,4.69-.54,6.75-5.52,7.77a170.05,170.05,0,0,1-22.18,3.53c-2.28-4.3-6.46-8.79,1.48-11.9.86-.33.39-1.5-.54-1.79-1.31-.39-1.55-2.14-1-2.11,5.45.39,5.44-6.62,5.69-6.59,7.78.81,6.27-6.61,7.84-9.87,2.53-5.27,6-5.63,10.53-5.55C277.52,648.81,277.52,650.5,277.53,652.18Z" transform="translate(-1.51 -64.05)"/><path class="cls-72" d="M239.71,638.31c-2.71,8.29-1.41,16.78-1.26,25.21-.89,9.85,2.2,18.89,5.63,28.09-5.38-5.18-6.31-14.76-15.77-15.52,0-2.56,4.35-3.69,2.24-6.94-2.66-14.22-2-28.54-1.57-42.86.25-2,0-4.18,1-6.11,4.22-2.37,3.66,3.19,6.14,3.71a4.42,4.42,0,0,1,.73,1.66c0,.61.15,1.52-.26,1.77-5,3-2.08,5.1.8,7.08C238.82,635.4,241.2,635.64,239.71,638.31Z" transform="translate(-1.51 -64.05)"/><path class="cls-73" d="M232.2,671c3.53,5.4-3.42,2.74-3.89,5.06l-5,.06,0-.06c-1.12-1.9-1.91-4.13-5-3.05-2.16.75-4.39-.22-6.6-.33-1.11-.47-2.39-.75-2.57-2.27,1.55-2.82,4.34-2,6.74-2.35.58,0,1.17-.09,1.75-.15.4-.1,1.06-.31,1-.55-.95-9,2-18-.46-27a2.28,2.28,0,0,1,.28-2.6,4.2,4.2,0,0,1,1.77-.67c4.17,0,4.73,3.09,4.64,6.1-.21,7,1.29,13.81,1.25,20.72C226.14,668.42,227.82,670.69,232.2,671Z" transform="translate(-1.51 -64.05)"/><path class="cls-74" d="M239.43,552.87c-1.41,6-1.91,12.36-6,17.45-1.83.48-1.74,2.36-2.58,3.55-1.09,2.2-2.62,2-3.85.35C219.25,563.9,211,554,204.15,543c-.31-.5,0-1.2.39-1.72-6.22-8.87-12.45-17.73-17.62-27.26,2.56-7.63-.44-15.38.46-23,.77-4.21-1.19-8.82,1.84-12.7,6.26,1.41,6.46,6.73,7.45,11.54-2.4,4.91-2.31,9.1,3.43,11.64,5.94,2.32,13,2.67,16.26,9.6.79,1.18,1.52,2.42,2.33,3.6.34.44.65.91,1,1.38,1.61,2.62,3.4,5.12,4.87,7.83,4.85,7.5,7.78,16.11,13.42,23.15C238.89,548.84,239.87,550.68,239.43,552.87Z" transform="translate(-1.51 -64.05)"/><path class="cls-75" d="M117.41,609.33h3.79c4.67-2.24,8.84-5.39,13.09-8.24,6.87-4.59,14.15-6,22.07-5.59a18.18,18.18,0,0,0,9-2.24c4-2,7.77-4.43,12.56-1.7,2.64,1.51,3.24-2.75,5.6-2.73.75,1.66,1.51,1,2.28,0,6.19,1.43,12.22-2.65,18.55-.43,1.55.54,2.15-2.25,3.28-3.39,1.48-1.5,1.06-4.75,4.28-4.62l2.52,5c-.78,1.37.34,2.83-.18,4.22-5.55,9.42-15.29,11.33-24.74,13.56-2.28.54-2.57-.27-2.75-5.1-1,1.67-.66,5.64-3.34,3.89-5.21-3.39-9.69-1.78-14.19.64a46,46,0,0,1-13.47,4.74c-3.11.57-4.65,3.47-7.36,4.58-8,1.23-16.23-.57-24.26,1.11a23,23,0,0,1-5.36.53c-2.49-.11-5.08.32-7.27-1.35-1-2.52.89-2.51,2.45-2.59C115.13,609.59,116.35,610.36,117.41,609.33Z" transform="translate(-1.51 -64.05)"/><path class="cls-76" d="M189.12,491.15c0,5.4.1,10.8-.18,16.19-.12,2.28.83,5.12-2,6.66.8-6.11-2-11.39-3.95-16.85-3.45-.33-2.68-3.19-2.91-5.21-1-8.69-1.62-17.54-3.22-26-1.86-9.89-3.54-20.08-7.76-29.48a18.64,18.64,0,0,1-1.59-6.67,49.49,49.49,0,0,0-4.25-18.87,11,11,0,0,1-1-7.29c1.48-6.68.53-13.32-.93-19.86-.6-2.66-.94-4.94,1.69-6.64,2.46.41,2.8,2.66,3.8,4.34,2.44,7.59,2,15.59,3.27,23.36,2,12.6,7.61,24.15,9.87,36.63a41.4,41.4,0,0,1,1,6.14c.07,4,1.73,7.68,2.79,11.44a89.57,89.57,0,0,1,3.75,25.11c.29.89.55,1.78.86,2.66C188.85,488.2,188.35,489.79,189.12,491.15Z" transform="translate(-1.51 -64.05)"/><path class="cls-77" d="M204.54,541.26c8,10.87,16,21.71,23.86,32.64,1.14,1.59,1.63-.33,2.42,0,.4,5.57-2.95,8.56-7.39,10.85-1.69.87-4.79.34-4,4.38-1.92-6.63-8-11.75-4.24-19.15a2.07,2.07,0,0,0-.84-2.74c-5-3.3-5.87-9.13-8.23-13.88-1.52-3.06-.24-7.31-3.84-10.05C201.34,542.58,203.24,541.43,204.54,541.26Z" transform="translate(-1.51 -64.05)"/><path class="cls-55" d="M235.92,625.71v-1.26c-5.1-7.06-3.17-15.11-3.16-22.88,0-1.45.41-2.91-.64-4.21-1.16-1.46-2.88-3.05-1.09-4.91,2-2.13,4.19-.88,6.15.49,2.55,1.44,5,3.07,7.65,4.28s1.39-.74,1.18-1.75c3.25-.25,4.68-2.78,6.32-5,1.84-.36,2,1,2.4,2.24.12,3.63-2,6.4-3.61,9.36-.94,1.48-1.64,3.15-3.09,4.27-3.42,2.71-2.52,6.88-3.51,10.41-.68,2.42-1.18,4.88-1.87,7.31C241.37,628.58,238.27,625.59,235.92,625.71Z" transform="translate(-1.51 -64.05)"/><path class="cls-78" d="M123.74,611.76c8.72-2.58,17.65-.51,26.45-1.18,4.22-2.12,8.63-.78,12.85-.33,13.71,1.45,27.4,1.06,41.09.28a13.72,13.72,0,0,1,2.47.15c10.35,1.39,10.91.82,10-9.61-.21-2.38-.59-5.08,2.94-5.61a24.25,24.25,0,0,0,5.05,10c2.07.87,2.63,2.64,2.78,4.65.08,4.32-2.43,5.83-6.35,6-3.53.11-7.12-.33-10.55.94-6.49.71-13,.22-19.49.39a65,65,0,0,1-8.93-.39c-5.52-1.7-11.19-.58-16.78-.93a33.68,33.68,0,0,1-5-.36,13.76,13.76,0,0,1-1.88-.42c-2.46-.87-5-.49-7.53-.55a21.94,21.94,0,0,1-5-.53c-6.37-1.44-12.86-.08-19.25-.85A4.15,4.15,0,0,1,123.74,611.76Z" transform="translate(-1.51 -64.05)"/><path class="cls-79" d="M169.11,429.09c1.15,8.38,4.86,16,6.79,24.25,3.19,13.56,4.18,27.34,5.87,41.07a10.64,10.64,0,0,0,1.2,2.74q0,6.94,0,13.88l0,0c-4.5-2.35-1.23-7.13-3.23-10.26-1.39-6.95-3.09-13.84-4.3-20.82.43-2.72-1.44-5.08-1.26-7.76.45-4.86-2.2-9.14-2.59-13.84-.26-1.72-.42-3.48-1.69-4.86a6.14,6.14,0,0,1-.69-1.68c-.59-2.78-1.82-5.41-1.78-8.32.73-4.7-2.73-9.36-.14-14.07A1.29,1.29,0,0,1,169.11,429.09Z" transform="translate(-1.51 -64.05)"/><path class="cls-79" d="M225.88,609.32l-1.29-3.83c2.95-4.68,2.84-10.67,5.58-15.07,2.09-3.36,5.37-.53,7,2.52-1.84.72-4.46-2.06-5.55.57-1,2.43,3,2.16,3.24,3.6.45,3.06,1.41,7.52.42,9.1-3.24,5.2-1.26,9.23.59,13.78.52,1.27,2,3,0,4.46-4.28.91-3.14-3.57-5-5.05-1.59-.38-2.25-1.69-3-2.94C225.8,614.5,227.16,611.53,225.88,609.32Z" transform="translate(-1.51 -64.05)"/><path class="cls-80" d="M219.54,595.46A5.06,5.06,0,0,0,218,601c1.46,3.76,3.2,7.8-.63,10.71-3.51,2.67-7.8,1.78-11.74.09,1.62-5.38,2.5-11.27,6-15.65a7.25,7.25,0,0,0,1.58-7c0-1.37-.22-2.84,1.22-3.75Z" transform="translate(-1.51 -64.05)"/><path class="cls-81" d="M211.93,580.37c-1.9,1.72-2.53,4.33-3.54,6.42-1.88,3.92-3.08,4.94-7.28,2.58-2.86-1.59-7-.18-9.85,1.27-3,1.53-4.13.08-5.76-1.48.1-3.51,3.07-3.16,5.25-4,5.72-2.28,12.08-2.72,17.42-6.08C210.74,575.71,210.86,579.39,211.93,580.37Z" transform="translate(-1.51 -64.05)"/><path class="cls-12" d="M184.25,581.56c3.37-2.64,7.5-1.84,11.31-2.5l5.07,0c1.31,2.21.08,2.87-1.88,3.27-5.29,1.07-10.11,3.63-15.33,4.93-4.39,1.37-9.1,0-13.47,1.68-3.86,1.46-2-2.59-3.36-3.57v0c.37-3.36,3.11-3.53,5.46-3.66C176.1,581.48,180.18,581,184.25,581.56Z" transform="translate(-1.51 -64.05)"/><path class="cls-82" d="M183,586.64c4.55-2.18,9-4.64,14.17-5.09,1.83-.17,3.3-.24,3.48-2.47,2.51.42,5-2,7.54,0,2.33,3.11-1.3,3.36-2.23,3.39-5.79.16-10.44,4.32-16.24,4.36a5.34,5.34,0,0,0-4.2,2.35l-.63,1.62-.63-1.62C183.24,588.61,182.34,588,183,586.64Z" transform="translate(-1.51 -64.05)"/><path class="cls-83" d="M132.55,677.39c-3.42,2.31-13.68,1.5-17.66-2.28-3-2.88-8.33-4.52-7.55-10.32l2.58-.06a3.71,3.71,0,0,1,4.37-.7c1.95,1.64.24,2.17-1.1,3,3.15,0,6.29-1.49,9,.84a4,4,0,0,1,1.49.27,4,4,0,0,1,1,1.08,4.73,4.73,0,0,0,2.51,2.39c1.72.64,3.55.45,5.31.77a7.6,7.6,0,0,1,1.62.5c1.16.8,2.78,1.29,2.2,3.25l-2.54,1.27C133.39,678,133,678,132.55,677.39Z" transform="translate(-1.51 -64.05)"/><path class="cls-84" d="M106,661c-.13-2.75,2.88-2.09,3.91-3.58a1.5,1.5,0,0,1,1.63-.73c2.57,1.5,1.45,3.19.25,4.88-1.34,1.11-2.75,1.81-4.44.7Z" transform="translate(-1.51 -64.05)"/><path class="cls-85" d="M107.31,662.28l3.76-1.3c2.05.35,5.34-2.47,5.69,2.22a2.24,2.24,0,0,1-1.88,1.51l-5,0Z" transform="translate(-1.51 -64.05)"/><path class="cls-86" d="M136.34,676.12l-2.52-2.5a4.69,4.69,0,0,1,3.4-1.6c3.27-.2,6.55,0,10.12-.15.2-3.7-1-7.62,1.39-11a1.82,1.82,0,0,1,1.75.13,15.63,15.63,0,0,1,.14,6.39c1.13-3.63-.42-7.69-1.41-11.79a13,13,0,0,1-.46-1.94c-.52-4.78-.27-9.45,2.11-13.79,4.42-.84,3.52,3,3.34,4.72-.74,7.11,2,13.8,2.07,20.78,0,1.08,1,1.75,1.73,2.53.47.46.9.94,1.34,1.42,1.35,1.35,3.07,1.2,4.74,1.23,8.14.13,16.3-.3,24.42,1.14a22.81,22.81,0,0,0,9.35-.45A21.61,21.61,0,0,1,212,672.33c2.43-.17,4.88-.22,7.3-.54,3.49-.48,5.16.55,4.08,4.3-5-2.1-10.07-3.23-15.43-1.74-4.9,1.35-10.14,1.26-14.92,1.21-12.46-.14-24.75,3.62-37.39.79C149.47,675,142.77,676.12,136.34,676.12Z" transform="translate(-1.51 -64.05)"/><path class="cls-13" d="M132.55,677.39h1.25l1.27,2.51C131.7,681.61,132.93,678.69,132.55,677.39Z" transform="translate(-1.51 -64.05)"/><path class="cls-87" d="M91.07,638.44c.86-5.59,1.42-11.25,3.64-16.54,5.81-2.35,14.16-.55,17.67,3.81-3.76,1.22-6.86,4.36-11.52,3-2-.56-3.65,1.68-4.46,3.72-1.43,3.61-2.79,7.26-4.18,10.89C90.85,642,92.28,639.89,91.07,638.44Z" transform="translate(-1.51 -64.05)"/><path class="cls-88" d="M112.38,625.71c-5.63-.79-10.64-6.38-16.91-2.21-.26-.53-.51-1.06-.76-1.6l.15-5,2.42-3.84a6.45,6.45,0,0,0,1.08.21c2.94.56,1.79,4.67,4.63,5.31,2.24,1.4,4.8,1.8,7.3,2.36,2.17.95,5.19.19,6.35,3.15-.06,1.08-.44,1.83-1.73,1.6Z" transform="translate(-1.51 -64.05)"/><path class="cls-89" d="M114.91,625.71l1.26-1.18c3.88-.92,5.41,2.76,8.13,4.12,1.1,1,2.64,1.68,2,3.6a4.26,4.26,0,0,1-2.43,1.09c-3.94-.66-8.27-.56-10.27-5.11l0,0Z" transform="translate(-1.51 -64.05)"/><path class="cls-90" d="M91.07,638.44c1.73,1.33.94,3.24,1.15,4.92a2.46,2.46,0,0,1-1.2,2.42C91,643.33,91.05,640.89,91.07,638.44Z" transform="translate(-1.51 -64.05)"/><path class="cls-91" d="M113.64,628.23a29,29,0,0,0,10.07,3.8,2.1,2.1,0,0,1,.4,2.47c-3.16.75-4.81,2.21-4.33,6a8.82,8.82,0,0,1-2.23,6.82c-2,.37-2.62-1.07-3.4-2.37a9.86,9.86,0,0,1-.44-4.11,33.07,33.07,0,0,1-.35,5.36c-1,1.73-.3,4.67-3.48,4.76C109.56,643.11,113.34,636,113.64,628.23Z" transform="translate(-1.51 -64.05)"/><path class="cls-92" d="M109.88,650.94q1.23-2.57,2.45-5.13a4,4,0,0,1,2,3c-.17,3.11-.35,6.22-3.26,8.25a7.79,7.79,0,0,0-1.16.36Q109.87,654.19,109.88,650.94Z" transform="translate(-1.51 -64.05)"/><path class="cls-81" d="M183,586.64l1.26,2.52c-3.23,4.52-6.87,6.88-11.83,2.23a1,1,0,0,0-1.58.12c-5.09,5.47-12.08,4-18.2,5.62-4.8,1.31-10.12-.56-14.94,3.35-4.67,3.79-9.36,9-16.49,8.84,2.08-5.79,7.2-7.75,11.93-10.91,6-4,13.43-3.75,19-8.35a8.8,8.8,0,0,1,7.09-1.26c4,1.24,5.77-.47,7.39-3.41,1.55,0,.59,3.52,2.67,2.21C173.75,584.77,178.41,586.84,183,586.64Z" transform="translate(-1.51 -64.05)"/><path class="cls-79" d="M117.43,604.3l5-6.31c4.74-4.85,9.52-9.64,16.87-10.16a3.9,3.9,0,0,0,3.3-2.43c4.07-.43,8.25-.5,11.37-3.78a4.8,4.8,0,0,1,5,0h6.3c-2.8,3.86-7.8,1.93-11.28,4.26-1.43.95-3.56.92-5.1,2-10.73,2.89-20.51,7.55-28.68,15.28C119.57,603.82,118.38,603.94,117.43,604.3Z" transform="translate(-1.51 -64.05)"/><path class="cls-93" d="M102.23,619.46c-4.76.12-1.84-4.57-3.87-6.17.51-3.77,4.8-3.61,6.45-6.2l8.82-.34a3.89,3.89,0,0,0,3.78,2.58c-1.54,2.34-4.75.23-6.36,2.39l-.42.65c-1.25,1-2.82,1.33-4.11,2.22a5.08,5.08,0,0,0-2.43,4.11C103.68,619.48,103.23,620.14,102.23,619.46Z" transform="translate(-1.51 -64.05)"/><path class="cls-94" d="M148.94,587.9c3.41-3.57,8.13-3.93,12.53-5,1.34-.33,2.87.05,3.85-1.31,4.18-.68,8.32-1.71,12.61-1.28,2.12.32,4.53-.8,6.32,1.24-3.52,1.5-7.3.82-10.95,1.22-2.55.28-5,.48-6.72,2.59C160.24,583,154.91,587.72,148.94,587.9Z" transform="translate(-1.51 -64.05)"/><path class="cls-95" d="M169.1,444.23c.43,2.93.85,5.86,1.28,8.79a2.65,2.65,0,0,1-1.32,2.64q-1.87-5.71-3.76-11.43c-1.27-4.22-1.51-8.74-3.72-12.67l-2.37-12.67,1.11-2.44a1.31,1.31,0,0,1,1.77.26C166,425.48,166.55,435.11,169.1,444.23Z" transform="translate(-1.51 -64.05)"/><path class="cls-96" d="M230.82,304.14l1.22,5.21c-7.18,3-14.94,3.9-22.4,5.79-10.38,2.62-18.64,8.11-26.32,15-5.13,4.6-10.31,9.16-15.49,13.7-4.39,2.46-3.94,8.39-8,11.1l-.86-.22c.43-2.51.85-5,1.28-7.55,3.47-6.82,8.55-12.2,14.58-16.85,2.11-1.63,3.74-3.87,5.6-5.84l1.27-1.25a88.3,88.3,0,0,0,13.9-8.8c4.2-.64,8.14-1.92,11.38-4.82a5.13,5.13,0,0,1,2.91-2.78C216.78,305.11,223.5,302.27,230.82,304.14Z" transform="translate(-1.51 -64.05)"/><path class="cls-97" d="M169.06,455.66a2.9,2.9,0,0,1,1.32-2.64h0c1.23,1,1.2,2.84,2.49,3.81,1.05,5,2.69,9.91,2.51,15.12a1.47,1.47,0,0,1-2.3,0C172.17,466.42,168.83,461.48,169.06,455.66Z" transform="translate(-1.51 -64.05)"/><path class="cls-98" d="M173.1,472l2.3,0c.41,2.52.83,5,1.24,7.57a1.45,1.45,0,0,1-2.29,0c-.09-.41-.18-.83-.28-1.25C174.15,476.09,172.36,474.22,173.1,472Z" transform="translate(-1.51 -64.05)"/><path class="cls-96" d="M161.54,416.49l-1.22,0c-1-8.53-5.08-16.43-5.09-25.16-1.44-4.32,0-8.86-1-13.81,0-.24-1.14.37-.31.32.3,0,.41.13.45.43.2,1.35.93,3-1.53,2.89l-.09-3.69q1.89-7.57,3.79-15.14l.74.73c1.63,6.1,1.34,12.36,1.15,18.56a74,74,0,0,0,2.51,21,7.24,7.24,0,0,1,.62,2C160.74,408.51,164.75,412.5,161.54,416.49Z" transform="translate(-1.51 -64.05)"/><path class="cls-96" d="M156.5,362.29c.23-2.73-.95-5.92,2.51-7.57h0c1.69,3.36,1.7,6.16-2.51,7.56Z" transform="translate(-1.51 -64.05)"/><path class="cls-19" d="M152.8,381.12c1.39-.77,1-2.5,2.43-5.24v15.41C152.62,388.33,155.16,384.14,152.8,381.12Z" transform="translate(-1.51 -64.05)"/><path class="cls-99" d="M174.35,479.5h2.29c1,7.18,3.9,14,3.88,21.37.32,1.47,1.79,3.31-1.19,3.74C177.77,496.23,174.91,488.09,174.35,479.5Z" transform="translate(-1.51 -64.05)"/><path class="cls-100" d="M181.79,521.07a2.67,2.67,0,0,1-2.57,1.27l-1.36-5.08c.65-2.65,2.37-5.45-1.06-7.52a2.61,2.61,0,0,0,2.46-1.36c3.13,1.1,1.9,3.19,1.19,5.17C180,516.21,181.27,518.58,181.79,521.07Z" transform="translate(-1.51 -64.05)"/><path class="cls-101" d="M180.45,513.55c-.21-1.77.45-3.73-1.19-5.17,0-1.25.05-2.5.07-3.76,1.38-.94,1.06-2.41,1.19-3.74,2.55,3,0,7.13,2.44,10.13C182.12,511.85,181.29,512.7,180.45,513.55Z" transform="translate(-1.51 -64.05)"/><path class="cls-16" d="M173.14,495.89q-.18-4.39-.38-8.79C173.78,490,177.61,492.76,173.14,495.89Z" transform="translate(-1.51 -64.05)"/><path class="cls-8" d="M207.09,680l-6.09-.35c2.89-1.29,4.56-1.41,6.05.36Z" transform="translate(-1.51 -64.05)"/><path class="cls-37" d="M228.12,295.69a2.48,2.48,0,0,1,0,1.15c-4.95-.82-10.16,1.32-14.94-1.36Z" transform="translate(-1.51 -64.05)"/><path class="cls-102" d="M221.4,293.62a8.52,8.52,0,0,1-6.17.11C217.45,292,219.19,290.73,221.4,293.62Z" transform="translate(-1.51 -64.05)"/><path class="cls-94" d="M174.12,579a5.25,5.25,0,0,0-.05-1H184l.05,1.12h-6.1Z" transform="translate(-1.51 -64.05)"/><path class="cls-103" d="M209.62,308.28l-2.6,1.33-2.42-.27c0-1.7.22-3.31,2.52-3.3C208.2,306.52,209.25,307,209.62,308.28Z" transform="translate(-1.51 -64.05)"/><path class="cls-104" d="M159,581.6l-5,0-1.27-1.24,6.28-.06Z" transform="translate(-1.51 -64.05)"/><path class="cls-105" d="M209.62,308.28c-1.22-.31-2.65-.38-2.5-2.24.85-1,1.69-1.93,2.53-2.9l3.58-2.64c4.27-.95,8.75.75,13-1.08l2.27-1.48c3.74.94,2.12,3.93,2.37,6.2Z" transform="translate(-1.51 -64.05)"/><path class="cls-37" d="M226.18,299.42c-4,3.84-8.43,3.25-13,1.08C217.12,295.05,221.79,299,226.18,299.42Z" transform="translate(-1.51 -64.05)"/><path class="cls-106" d="M245.78,520.64c-1.11,1.34-.18,3.66-2.19,4.57-3.61.3-4.92-2.85-7.11-4.69C231,516.4,227,510.76,222.16,506c-1.34-1.21-2.77-2.33-3.47-4.07a5.16,5.16,0,0,1,.16-3.57c3-4.29,1.2-8.21-1-12.08a37.22,37.22,0,0,1-8.34-15.34c-3.07-11.6-8.75-22.19-12.8-33.42-3.7-15.09-8.12-30-10.08-45.5-.83-8.31-2.71-16.56-1.3-25,1.31-4.84,1.73-9.87,3.16-14.72,4.55-15.44,23.17-30.11,40.07-26.69,2.78,1.19,6.33.3,8.52,3.1,2.59,12.55,3.39,25.33,5,38,.26,2-.17,4.24,1.15,6.08,1.47,1.43.89,3,.38,4.61q1.94,23.79,3.88,47.59c1.69,20.51.69,41.06.9,61.59-1.52,5.55.51,11.34-1.13,16.89,0,.62-.07,1.25-.11,1.87-1.45,3.9.41,8.11-1.14,12C246,518.42,245.87,519.53,245.78,520.64Z" transform="translate(-1.51 -64.05)"/><path class="cls-107" d="M228.33,327.12c-20.12-2.4-36.92,13.51-39.74,31.39-.42,2.69-1.07,5.33-1.62,8-2.92-4-3.57-8.75-4.48-13.42-2.5-.18-3.08,1.63-3.15,3.18-.41,10.2-3.51,20.17-2.28,30.54,1.17,9.93,2.86,19.77,4.35,29.65.4,2.66,1.57,5.27.38,8a3.59,3.59,0,0,1-3.61,1.07c-3.66-4-3.69-9.31-4.17-14.12a142.06,142.06,0,0,0-4.71-23.79,25.36,25.36,0,0,1,.07-14.29c2.39-7.6,3.21-15.5,5-23.21.62-3.33,1.74-6.28,5.52-7.17,4.73.27,6.21-4.11,9.09-6.45,10.15-8.26,19.23-18.49,34.06-17.85.54,0-.22-.76,0-1.19,1.86-3.36,6.43-1,8.44-4l.75-.34c1.91,1.84,1,4.21,1.18,6.36-.41.47-.8,1.09-.53,1.64C235.24,326.07,232.3,327,228.33,327.12Z" transform="translate(-1.51 -64.05)"/><path class="cls-108" d="M166.59,343.38c6.51-6.74,14-12.41,20.85-18.76,12.05-11.15,27.84-11.72,42.29-16.12.63-.19,1.54.54,2.31.85.05,1.25.11,2.5.16,3.75l-.13.08c-3.7,3.22-8.57,2.42-12.85,3.54a49.52,49.52,0,0,0-10.93,3.88c-7.1,2.45-12.86,7-18.08,12.16-4.9,4.88-9.66,9.89-16.06,12.89-7.18,2.85-7.9,9.54-9.18,15.77-.32,1.55.54,3.69-.43,4.86-2.88,3.47-1.49,7.39-1.74,11.13-1,6.14,2.41,11.89,1.55,18,0,.18.22.42.17.59-3.11,11.67,4.72,21.82,4.59,33.07h-1.26c-6-6.5-5.14-15.1-6.9-22.9-.17-.79,0-1.66-.67-2.31h0c-1.64-15.26-4.61-30.53-.69-45.84C160.94,352.77,163.74,348,166.59,343.38Z" transform="translate(-1.51 -64.05)"/><path class="cls-109" d="M228.33,327.12c4.84-.48,3.17-5.24,5-7.66q1.85,4.6,3.68,9.23C234.11,328.39,231.08,328.52,228.33,327.12Z" transform="translate(-1.51 -64.05)"/><path class="cls-110" d="M247.28,503.45c0-5.65-.31-11.33,1.12-16.89C248,492.19,249.82,498,247.28,503.45Z" transform="translate(-1.51 -64.05)"/><path class="cls-111" d="M265.34,445.48" transform="translate(-1.51 -64.05)"/><path class="cls-111" d="M267.4,450.56" transform="translate(-1.51 -64.05)"/><path class="cls-110" d="M246,517.31c0-4-.07-8.07,1.14-12C246.78,509.32,248.48,513.51,246,517.31Z" transform="translate(-1.51 -64.05)"/><path class="cls-62" d="M253.58,592.94a2.62,2.62,0,0,0-1.25-2.51,165.45,165.45,0,0,1,39.08-42.82c1.51,3.25,2.56,6.4-1.76,8.44-1.23.58-2.31,1.62-1.93,2.92,1.85,6.3-2,13.37,2.79,19.32,1.41,1.77.8,3.44-1.84,2.5-2.29-.81-4,.73-6.09.84-.81,0-2.23.62-1.77,1.22,4.05,5.38-2.56,5.39-4,7.8-2.08,3.39-4.77,6.22-3.71,10.7.46,2,.76,4.18-2.55,4.45-1.89.15-1.74,2.05-1.81,3.51s.11,3.08-1.71,3.64c-3.54,1.09-5.13,3.68-6.21,7s-4,4.71-7.27,5.07c-1.59.16-2.47,1.12-2.27,2.4.42,2.69,1.72.24,2.63.25s1.89.79,1.45,1.43c-2.12,3-3.18,7.24-7,8.47-3.3,1-4.42-2.3-6-4.34-.82-.72-1.57-1.74-1.34-2.69,2.07-8.36,2-17.27,6.38-25l2.52-3.79c3.86,1.61,7.46,2.72,9.87-2.36.66-1.4,2.48-2.16,3.95-3a14.21,14.21,0,0,0,6.61-14.62c-.5-2.29.71-2.95,2.24-3.71,1.36-.69,3.46.1,4.14-2.06-7.81.17-10.39,2.31-13.33,11C261,593.6,259.48,594.55,253.58,592.94Z" transform="translate(-1.51 -64.05)"/><path class="cls-112" d="M237.93,519.79l5.66,5.42c1.9,7.78-1.53,14.92-2.65,22.34-1.25.76-2.51-.06-3.76,0-6.42-6.93-9.38-16-14.33-23.76,2.16-3.31,3.64-1.1,5.27.59.76.79.94,2.7,2.61,1.92,1.2-.55,1.35-1.82,1.35-3.2C232.08,516.92,232.42,516.76,237.93,519.79Z" transform="translate(-1.51 -64.05)"/><path class="cls-62" d="M300.18,543.7c.17,4.84-.48,9.39-4.42,13.38-.7-4-1.28-7.4-1.87-10.8C295.53,544.29,297.75,543.76,300.18,543.7Z" transform="translate(-1.51 -64.05)"/><path class="cls-113" d="M237.18,547.58c1.23-3.22,2.5-1,3.76,0-.08,1.89.55,4-1.51,5.32A8.81,8.81,0,0,1,237.18,547.58Z" transform="translate(-1.51 -64.05)"/><path class="cls-79" d="M247.27,605.55c-2.25,9.13-5.11,18.16-5,27.72-2,1.09-.51,4-2.52,5-.38-.68-.58-1.74-1.15-2-8-3.64-8.51-5.76-2.64-10.6,3,.18,5.25-.51,5.84-4.08.73-4.48,1.74-8.92,2.81-13.34C244.88,607,244.53,604.62,247.27,605.55Z" transform="translate(-1.51 -64.05)"/><path class="cls-114" d="M232.2,671c-.29,2.52-1.76,2.7-3.42,1.43s-4.88-1.56-4.43-5.11c1.05-8.31-2.06-16.46-1-24.79.33-2.73-.61-4.5-3.74-4.26a61.78,61.78,0,0,1,4.59-17c5.33-2.46,5.33-2.46,6.7,4.39A274.34,274.34,0,0,0,232.2,671Z" transform="translate(-1.51 -64.05)"/><path class="cls-115" d="M230.85,625.72c-1.68-1.93-1.26-7.32-6.25-3.78-1.93,2.86-2.13,6.23-2.92,9.45-1,3.91-2.35,7.92-8,6.13a27.19,27.19,0,0,1,6.2-17.21c2.74-2.54,5-6,9.67-4.66l1.3,3.75C230.88,621.51,230.87,623.61,230.85,625.72Z" transform="translate(-1.51 -64.05)"/><path class="cls-116" d="M218.27,669.78H217c-3-1.39-6.19-.22-9.28-.4-3.69-2.7-4.52-6.37-2.79-10.34,2-4.54,1.13-10.21,5.73-13.75.93-.71,1.08-2.62.56-4.06-12.33.15-24.61.21-36.88,0-2.37,0-6.09,1.22-6.18-3.42,6.19-2.59,12.68-.79,19-1.26,2.68-.2,5.38,0,8.07,0,5.82.34,11.69-.67,17.47.71,1.72,1,3.88-.15,5.54,1.13l1.31,1.23c1.54,3.65-.06,6.86-1.44,10.09-2.53,5.87-5,11.69,1,17.12C220.3,667.9,219.5,669,218.27,669.78Z" transform="translate(-1.51 -64.05)"/><path class="cls-117" d="M218.27,669.78c.12-.59.51-1.59.32-1.71-7.55-4.88-5.61-9.93-2.45-18.1,1.32-3.42,3.86-6.39,3.39-10.39,2.71,4.49,1,9.39,1.14,14.08.1,4.25-1.62,8.42.7,12.74C222.64,668.73,220.31,669.53,218.27,669.78Z" transform="translate(-1.51 -64.05)"/><path class="cls-118" d="M206.93,668.56c3.34.54,7-1.24,10,1.23-2.52.44-5.34-.91-7.56,1.28-12.28,1.86-24.59,1.36-36.86.19-4.93-.48-10.09,1.2-14.8-1.44v-1.26c2-3.57,5.16-2.89,8.3-2.44,10.63,1,21.28.13,31.92.43C201.09,666.64,204.32,666.25,206.93,668.56Z" transform="translate(-1.51 -64.05)"/><path class="cls-119" d="M157.76,669.82q25.82,1.68,51.66,1.25a2.71,2.71,0,0,1,2.54,1.26c-16.27,1.82-32.53-.09-48.8,0C159.48,672.36,159.48,672.3,157.76,669.82Z" transform="translate(-1.51 -64.05)"/><path class="cls-120" d="M218.22,638.35l-5-.06-.48-.62c.15-.21.31-.41.47-.62,4.81.64,6.92-1.92,7.54-6.32.46-3.27.53-6.74,3.83-8.79-1.11,5.63-1.29,11.54-5,16.36Z" transform="translate(-1.51 -64.05)"/><path class="cls-121" d="M179.19,425.31a2.65,2.65,0,0,1,2.52-1.26c2.55,2.18,3.37,5.38,3.61,8.32.65,8,3.24,15.4,6.35,22.68,3.56,9.49,6.8,19.09,10.37,28.57,2.29,6.1.75,10.87-5.69,11.64-2.45-1-.22-3.1-1-4.51.24-4.93-3.47-8.24-5.07-12.41-2-1.12-2.41-3-2.44-5.09.67-6.08-2.11-11.38-3.82-16.93a28.58,28.58,0,0,1-1.55-7.34c-.9-5.36-2.13-10.64-3.41-15.91C178.47,430.58,177,427.85,179.19,425.31Z" transform="translate(-1.51 -64.05)"/><path class="cls-112" d="M195.37,490.75c2.11,1.11.73,2.5.3,3.81,7.57-.34,9.23-1.65,9.47-7.51,6.31-3.9,7.84-3.61,14.86,2.74a10.34,10.34,0,0,1-.34,9l0,3c.37,2.93-1.57,2.17-3.1,1.88-5.91-1.09-8-2.16-12.28-6.26-.22,3-2.48,4.05-5,4.85C192.06,498.51,191.61,497.17,195.37,490.75Z" transform="translate(-1.51 -64.05)"/><path class="cls-122" d="M199.32,502.29c2.75-3,4.35-8.51,10.09-2.61,2,2.09,6.5,3.07,10.29,2.14l3.61,3.31c.32,3.19,3.17,4.74,4.63,7.19s2.91,5.23.31,7.39-5.15,1-7-1.58a5.68,5.68,0,0,0-3.08-2l0,0c-.69-1.42-.38-3.58-2.76-3.76-3.43-4.09-6.36-9-13.08-7.41C200.56,505.41,200.19,503.38,199.32,502.29Z" transform="translate(-1.51 -64.05)"/><path class="cls-123" d="M218.18,516.12c2.14-1.36,3.65-.26,4.56,1.52a3,3,0,0,0,4.67,1.23c2-1.28.47-3.18-.07-4.89-1-3.12-6.12-4.35-4-8.85,5,4.72,8.86,10.65,14.62,14.66-1.62-.16-3.39-2-4.67-.71-1,1-.91,2.94.78,4.37,1,.86.68,1.25-4.16,5.51-2.89-1-1.95-7.15-7-5.14Z" transform="translate(-1.51 -64.05)"/><path class="cls-124" d="M189.11,473.53c.4,1.61.79,3.21,1.19,4.81-2.34,4.09,0,8.61-1.18,12.81-.38-1.36-.75-2.72-1.13-4.08-2-3.24-.82-6.91-1.39-10.34a8.34,8.34,0,0,1-.33-1.86C186.86,473.67,187.54,472.66,189.11,473.53Z" transform="translate(-1.51 -64.05)"/><path class="cls-123" d="M215.45,512.4c5.66-2.23,2.56,2,2.76,3.76Z" transform="translate(-1.51 -64.05)"/><path class="cls-125" d="M213.23,589.16c2.73,4.19,2.71,4.17-1.09,7.91a3.37,3.37,0,0,0-.59,1.73c-.88,4.84-1.72,9.69-5.88,13-13.31,2.36-26.71,1.66-40,.55-5.13-.43-10.53.47-15.47-1.81-1.43-3.77,2.18-3.68,3.81-4.23,7.13-2.42,14.84-3.45,20.37-9.41,1-1.11,1.13.52,1.59.95s1.07,1.16,1.59,1.74c3.35-4.28,4.78.1,6.56,2,1.91-2.26-1.51-5.28,1.58-6.35.87-.3,2.68,1.42,3.62,2.17,2.18,1.72-2.75,2-1.39,4.76C197.17,599.56,206.93,597.91,213.23,589.16Z" transform="translate(-1.51 -64.05)"/><path class="cls-126" d="M146.51,613l5,.17c2.39,1.41,5.22-.26,7.62,1.09l0,0a1.45,1.45,0,0,1-.53,2,8.84,8.84,0,0,1-6.1,1c-9-1.47-18-.91-27-1.22-2.33-.08-4.66-.12-6.42-2a1.88,1.88,0,0,1-.3-2.14l5.07-.23,2.51.22C132.94,613.48,139.82,611.5,146.51,613Z" transform="translate(-1.51 -64.05)"/><path class="cls-127" d="M118.67,612c0,.37,0,.74,0,1.1-2.86,1.83-5.6,3-7.5-1.19l-.13-.18Z" transform="translate(-1.51 -64.05)"/><path class="cls-128" d="M174.15,344.64c8.6-4.87,14-13.4,22-19.05a45.74,45.74,0,0,1,10.77-6.15c.82.4,1.6.84,1.65,1.91-10.7,5.65-18.37,15.17-28.12,22-2.72,1.27-3.86,3.8-5.06,6.29-.77,6.46-3.69,12.33-5.11,18.68-2.76,12.42.52,23.9,2.58,35.79,2.45,14.16,7.73,27.72,8.67,42.17-.43,1.05-1,2-2.35,1.68-1.4-10.12-4.38-19.78-7.81-29.39-3.16-8.83-3.72-18.28-4.7-27.55-.35-3.31-.39-6.64-1.36-9.86C163,367.75,163.3,354.92,174.15,344.64Z" transform="translate(-1.51 -64.05)"/><path class="cls-129" d="M174.15,344.64c.06,3.78-3.59,5.44-4.85,8.53-3.71,9-3.81,18.52-4,28l-2.52-3.79a8.94,8.94,0,0,1-.58-8.58c2.09-5,.78-10.91,3.1-16.05C167.12,348.79,168.78,344.73,174.15,344.64Z" transform="translate(-1.51 -64.05)"/><path class="cls-130" d="M179.19,448l1.28-1.3c2.71,0,2.21,2.17,2.58,3.75,1.23,4.77,2.71,9.47,4.17,14.17a14,14,0,0,1-.27,10.19.33.33,0,0,1,0,.56,20.78,20.78,0,0,1-.16,10.42c-2.44-7.21-.8-15-3.6-22.28C181.23,458.57,180.47,453.18,179.19,448Z" transform="translate(-1.51 -64.05)"/><path class="cls-121" d="M186.74,485.79c0-3.47.11-6.94.16-10.42,1.44,3.8,1.09,7.76,1.09,11.7Z" transform="translate(-1.51 -64.05)"/><path class="cls-131" d="M253.58,592.94c4.86-.26,7.21-2.25,8.18-7.61.53-2.91,2.43-6.19,3.71-9.29,1.14-2.75,4.58-1.53,6.35.63,2.07-1.44-.78-4.85,2.49-4.6,2.62.2,5.35,2.33,4.94,4.87-.73,4.62-6,.28-8.42,3.81.53,1.1,8.15,2.19.77,4.57-.21.07.36,1.74,0,2.32-2.21,3.65-.79,10.1-7.86,10.31-.36,0-4.13,1.26-3.89,4.92.22,3.13-6.85,2.57-10.07-1.11C251,598.8,253.16,596.24,253.58,592.94Z" transform="translate(-1.51 -64.05)"/><path class="cls-132" d="M159,615.63l0-1.31,5,.16c5.85,1.5,11.9-.43,17.74,1.07l8.73.09a1.46,1.46,0,0,1-.63,2c-9,2.31-18,1.16-27.08.75A4.18,4.18,0,0,1,159,615.63Z" transform="translate(-1.51 -64.05)"/><path class="cls-133" d="M229.6,615.65c-3.58.55-5.78,3.49-8.8,5l-.59-.63a3.21,3.21,0,0,1-.07-2.47c0-.55,1.2-.74.74-1s-1.33.46-2.11.57a21.45,21.45,0,0,1-5.66-.06,3.8,3.8,0,0,1-2.46-1.54c3.24-2.23,6.91-1.08,10.34-1,4,.08,5.29-1.55,4.88-5.19C227.6,611.15,227.06,614.31,229.6,615.65Z" transform="translate(-1.51 -64.05)"/><path class="cls-134" d="M210.65,615.52l2.5.19c.07.89-.23,1.85-1.06,2-7.23,1.16-14.48,2.42-21.55-.82v-1.24Z" transform="translate(-1.51 -64.05)"/><path class="cls-135" d="M146.51,613c-6.75-.33-13.61,1.27-20.26-1C133,612.24,139.85,610.78,146.51,613Z" transform="translate(-1.51 -64.05)"/><path class="cls-135" d="M181.81,615.55c-5.91-.39-11.95,1.31-17.74-1.07C170,614.84,176,613.28,181.81,615.55Z" transform="translate(-1.51 -64.05)"/><path class="cls-135" d="M159.08,614.28c-2.57-.19-5.33,1-7.62-1.09C154,613.38,156.76,612.32,159.08,614.28Z" transform="translate(-1.51 -64.05)"/><path class="cls-107" d="M160.28,403.88q3.78,12.62,7.57,25.21.61,7.57,1.25,15.14a117.06,117.06,0,0,1-7.56-27.74C161.7,412.23,159.55,408.2,160.28,403.88Z" transform="translate(-1.51 -64.05)"/><path class="cls-19" d="M172.89,456.82c-2.55-.15-2.55-2-2.49-3.81C172.91,453.18,172.93,455,172.89,456.82Z" transform="translate(-1.51 -64.05)"/><path class="cls-136" d="M123.51,668.68l-1.06-.11a14.63,14.63,0,0,1-1.59-3.13c-.46-1.91-1.88-3.14-3.31-4.23-2.1-1.6-1.81-3.39-.79-5.37,2.25-5.25,2.25-11,2.9-16.45.44-3.75,1.82-4.4,4.74-4.52,7.07,0,5.73,5.35,6.16,9.58-.29,7.48-1.42,14.9-1.67,22.36a5.41,5.41,0,0,1-.81,1.63C126.64,669.74,125,668.16,123.51,668.68Z" transform="translate(-1.51 -64.05)"/><path class="cls-137" d="M137.58,673.58l-3.76,0c-.42,0-.84,0-1.25,0a1.15,1.15,0,0,1-.43-.94c0-.36.06-.54.13-.54,1.58-3.4-3.43-2.28-3.26-4.72.37-5.12-.43-10.46,2.87-15,1.48-.93,2.81,0,2.74,1.16-.18,3.51,2.62,3.54,4.63,4.55,2.39,3.54-.13,8,2.15,11.56C142,672.72,138.78,672.18,137.58,673.58Z" transform="translate(-1.51 -64.05)"/><path class="cls-138" d="M129.87,668.43c2.66-.92,5.16-.34,5.85,2.38.46,1.85-1.94,1.34-3.2,1.6-2.09,0-4.18,1.2-6.27,0-1.56-.17-2.57-.88-2.48-2.62,1.58,1.08,1.81-.58,2.53-1.25l1.41-.09A1.5,1.5,0,0,1,129.87,668.43Z" transform="translate(-1.51 -64.05)"/><path class="cls-139" d="M122.39,664.88l.06,3.69c-3.62-1.55-7.87,1.29-11.33-1.75.78-1.44,3.18-.25,3.76-2.11l1.28-1.19C118.57,662.46,120.55,663.32,122.39,664.88Z" transform="translate(-1.51 -64.05)"/><path class="cls-140" d="M126.25,672.41c2.09.23,4.18-1.42,6.27,0,0,.39,0,.78,0,1.17C130.43,673.33,128.06,674.39,126.25,672.41Z" transform="translate(-1.51 -64.05)"/><path class="cls-141" d="M126.3,668.54c0,2-1.08,2.06-2.53,1.25-.07-.37-.16-.74-.26-1.11C124.27,665.2,125.3,667.23,126.3,668.54Z" transform="translate(-1.51 -64.05)"/><path class="cls-142" d="M122.39,664.88a11.17,11.17,0,0,1-6.23-1.36c-.3-3.65-4.38.28-5.09-2.54.6-1.31,1.88-2.63,0-3.91l2.55-8.71c-1.06-1.8-.3-2.93,1.37-3.72l2.45,2.47c1.48,3.37.74,6.74,0,10.12C117,661.15,122.66,661.08,122.39,664.88Z" transform="translate(-1.51 -64.05)"/><path class="cls-143" d="M165.33,667.3c-2.6,0-5.23-.23-7.57,1.26-2.37-1.1-7.45-.73-3-5.51.27-.29.72-.89.65-1-6.09-6.67-.1-15.46-4-22.49,1.65-2.65,2-2.61,5.57.48,5.42,7.47,8.62,16,11.71,24.59C169.78,667.48,168,668.37,165.33,667.3Z" transform="translate(-1.51 -64.05)"/><path class="cls-144" d="M156.5,640.84c-1.75-.08-2.58-3.9-5-1.24-.33,5-1.93,9.94-1.36,15-3.26-.42-2.77-3.15-2.9-5.18a37.48,37.48,0,0,1,.31-9.16c.66-1.46.65-3.09,1.12-4.6a4,4,0,0,1,2.56-1.13,6.4,6.4,0,0,1,1.9.15,22.58,22.58,0,0,1,3.55,1.4c3.59,1.36,7.91-.89,11.15,2.22,1.89,2,4.33,1.17,6.54,1.18,13,.08,25.93,0,38.9.06.36,0,1,.13,1,.32.24.89-.57.76-1.06.93-2.81,1.89-5.94,2.17-9.2,1.87-11.56.18-23.12.27-34.69.1C165.05,642.22,160.38,644.05,156.5,640.84Z" transform="translate(-1.51 -64.05)"/><path class="cls-145" d="M149,638.32c.65,5.42-1.44,11,1.19,16.33l.11.08a7.39,7.39,0,0,1-.08,6.25L149,661c-1.43,1.37-.08,3.31-.95,4.75-1.22,2-2.25,5-5.19,1.58.47-9.7-.11-19.49,3.11-28.88A2.15,2.15,0,0,1,149,638.32Z" transform="translate(-1.51 -64.05)"/><path class="cls-140" d="M143.86,668.55c4.08-1.75,3.95-5.3,3.86-8.87,0-.59,0-2.09,1.05-.48.3.46.13,1.21.18,1.82.78,3.4-1.52,7,1.09,10.4,1.24,1.6-.82,2-1.84,2.06-3.53.16-7.08.08-10.62.1l3.77-3.67.39-.66A2.92,2.92,0,0,1,143.86,668.55Z" transform="translate(-1.51 -64.05)"/><path class="cls-146" d="M150.17,661c0-2.08.05-4.17.08-6.25,2.57,4.42.63,9.1-.08,13.7Z" transform="translate(-1.51 -64.05)"/><path class="cls-143" d="M123.9,629.74l-7.73-5.21c-1.51-2.4-4.82-.3-6.39-2.55a7.4,7.4,0,0,1,1.92-2.59,3.85,3.85,0,0,1,1.49-.8,5,5,0,0,1,2.63.28,38.29,38.29,0,0,0,17.39,4.19c3.24,0,9.54-1.63,9.54,5.52a5.78,5.78,0,0,1-3.45,1.23c-4.43.61-8.23-2.19-13.46-2.41.09,0,.78,1.52.84.68a.21.21,0,0,1,.22-.21c1.66-.17,3.8-.92,2.69,2.24C127.61,631.19,125.77,630.15,123.9,629.74Z" transform="translate(-1.51 -64.05)"/><path class="cls-147" d="M112.38,620.68a2.92,2.92,0,0,1-2.6,1.3c-2.82.09-5.49-.31-7.55-2.52l1.31-1.3c1-.72,2.09-.35,3.13,0,.51.16,1,.36,1.5.56C109.6,619.27,111.28,619.37,112.38,620.68Z" transform="translate(-1.51 -64.05)"/><path class="cls-148" d="M128.83,644.7c-.72-3.53,2-9-5.1-8.92-.45-.27-.6-.55-.46-.83s.3-.41.45-.41c0-.84,0-1.67,0-2.51l2.57-.15c2.67-1.39,5.31-2.16,7.68.57-.88,3.12-2.36,6.07-2.56,9.42C131.33,643.25,130.8,644.77,128.83,644.7Z" transform="translate(-1.51 -64.05)"/><path class="cls-149" d="M133.72,633.35c-2.14-2.21-5-.89-7.44-1.47l-2.38-2.14,6.11-.14a9.61,9.61,0,0,1,4.46-.15,25.59,25.59,0,0,1,7.32,1,4.37,4.37,0,0,1,2.35,1.57c-.58,3.19-3.21,2.46-5.29,2.8a15.15,15.15,0,0,1-2.77-.22,5.87,5.87,0,0,1-1.71-.63Z" transform="translate(-1.51 -64.05)"/><path class="cls-150" d="M123.72,634.54c0,.41,0,.83,0,1.24-2.47-.24-2.27,1-2.83,3.12-1.57,6.06,1,12.91-3.47,18.33a13.38,13.38,0,0,1,0-10.12c-.47-4.38,3.48-8.83-.67-13.11C119.5,632.77,121.48,635.16,123.72,634.54Z" transform="translate(-1.51 -64.05)"/><path class="cls-151" d="M115,644.64l-1.37,3.72a2.78,2.78,0,0,1-1.24-2.55c.06-3.39-.15-6.86,2.89-10C116.67,639.22,114.13,641.88,115,644.64Z" transform="translate(-1.51 -64.05)"/><path class="cls-135" d="M190.54,616.88c7.52-.68,15.19,1.48,22.61-1.17l6.32,0c-.47,3.73-3.65,3.66-6.13,4-10,1.38-19.9,2.87-29.58,5.7-2.71.79-5.48-.09-8.09.24-16.58,2.06-31.86-6.07-48.15-5.9-5.86.06-11.44-2.52-17.39-1.55a4.54,4.54,0,0,1-4.36-2.06,2.52,2.52,0,0,1,.33-3,7.37,7.37,0,0,1,5.08-1.24c2.21,2.24,5,.81,7.5,1.19,2.26,1.41,4.78,1.37,7.29,1.26,11.05-.51,22,.68,33.05,1.28,7.69,2.68,15.63.67,23.43,1.23C185.13,617.06,187.84,616.89,190.54,616.88Z" transform="translate(-1.51 -64.05)"/><path class="cls-152" d="M106.1,613.14l0,2.49c.66,1.18,2,2.15,1.26,3.79l-3.79-1.26C101.07,614.8,104.8,614.59,106.1,613.14Z" transform="translate(-1.51 -64.05)"/><path class="cls-107" d="M166.59,343.38A7.36,7.36,0,0,1,165.2,348c-6.94,10.25-6.93,21.33-5.51,33.28.87,7.3,2.14,15,.59,22.57-4.21-5.35-3-11.94-3.59-17.94-.78-7.81-.18-15.76-.18-23.65a12.07,12.07,0,0,0,2.51-7.56C162.48,351.57,161.53,345.47,166.59,343.38Z" transform="translate(-1.51 -64.05)"/><path class="cls-153" d="M190.54,455.56c-6.11-9.62-5.85-21-8.83-31.51-2-5.48-3.91-11.35-3.36-16.87.68-6.81-3.11-12.37-2.84-19.21.35-8.88,0-17.72,2-26.48.77-3.23-1.28-6.94,1.89-9.84,1.13-1,2.07-2.2,3.7-1.66,2,.67,2.12,2.07,1.57,4-1.27,4.48,3.37,8,2.26,12.51l1.17,26c-6.15,6.23-3,14.11-2.68,20.93.39,8.12,2.66,16.33,4.93,24.32a9.72,9.72,0,0,1,.21,2.69c-.65,2.18.39,4,1.14,5.93C193,449.61,193.41,452.82,190.54,455.56Z" transform="translate(-1.51 -64.05)"/><path class="cls-154" d="M189.28,440.43v-2.52c3-1.48,6,2.67,8.94-.05,3.94,9.56,8.85,18.68,11.61,28.77,1.89,6.93,4.17,13.95,9.68,19.18-.84,1.12.27,2.87-1.22,3.78-3.71-3.34-7.87-4.43-12.62-2.52a19.85,19.85,0,0,1-6.52-11.55C197,463.54,193.12,452,189.28,440.43Z" transform="translate(-1.51 -64.05)"/><path class="cls-155" d="M198.22,437.86c-1.73,4.14-3.66,6.27-6.64.82-.29-.52-1.51-.52-2.3-.77-4-2.86-1.24-7.48-2.91-11-4.28-9-1.86-18.9-3.65-28.28-.38-1.95,1.15-6.26,5.42-6.15Z" transform="translate(-1.51 -64.05)"/><path class="cls-156" d="M218.29,489.59c0-1.38-.25-2.86,1.22-3.78,1.89,4.31,5.07,8.6.15,13C219,495.76,220.73,492.36,218.29,489.59Z" transform="translate(-1.51 -64.05)"/><path class="cls-157" d="M181.8,450.51c-.09-1.4.14-2.9-1.33-3.81-.13-7.78-3-15-4.35-22.58-2.64-15-8.87-29.27-8.35-44.93.34-10.52,1.77-20.53,7.63-29.51.7,7.69-1.9,15-3.62,22.19-1.43,6-1.8,11.38.08,17.36a99.75,99.75,0,0,1,3.47,18.62c.67,6,1.26,11.93,3.86,17.46l5,23.95C183.56,449.93,183.17,451.18,181.8,450.51Z" transform="translate(-1.51 -64.05)"/><path class="cls-158" d="M180.46,343.39a88.62,88.62,0,0,1,27.77-22.66c4.61-3.24,9.37-5.62,15.06-2.57a2.51,2.51,0,0,1,.61.1c.61.23,1.14.77.25,1.06-5.46,1.79-11.33,1.89-16.61,4.65-6.6,3.44-11.31,9.14-17,13.62a54.72,54.72,0,0,0-8,7.67C179.83,348.5,181,344.28,180.46,343.39Z" transform="translate(-1.51 -64.05)"/><path class="cls-159" d="M223.29,318.16c-5.28-.66-10.15,1.1-15.06,2.57l-1.3-1.29c7.72-4.74,16.54-5,25.14-6.26.29,2.65-.84,3.82-3.54,3.77C226.73,316.91,224.72,316.43,223.29,318.16Z" transform="translate(-1.51 -64.05)"/><path class="cls-133" d="M143.75,632.19l-2.38-.38c-.92-.85-2.09-1.36-2.94-2.28a1.15,1.15,0,0,1,.41-1.3h3.8c6.35-1.67,12.36.08,18.34,1.86a50.9,50.9,0,0,0,18.59,2.12A10.8,10.8,0,0,0,186,630c3.37-1.86,7.07-.68,10.6-1.14,4.16.82,10.58,1.14,11.71-1.15,2.17-4.38,6.39-4.42,9.07-7.07a2.39,2.39,0,0,1,3.42,0l0,0c-4,4.8-3,11.88-7.57,16.38h0c-5.78,1.35-11.64.27-17.45.62-12.14-.21-24.29.53-36.4-.64-2.6.23-4.42-1.69-6.67-2.41a22.66,22.66,0,0,0-5.54-1A5.18,5.18,0,0,1,143.75,632.19Z" transform="translate(-1.51 -64.05)"/><path class="cls-152" d="M156.5,640.84h12.6c.6,4.95,1.29,9.59,7.6,10.78,5.53,1,8.71,6.94,15.63,8.16-5-6-.82-8.72,3.12-10.26,4.46-1.74,3.35-8.6,9-8.68h8.83c.17,4.12-4.49,7.61-4.49,9.22,0,6.29-5.94,12.05-1.81,18.5-11.7,0-23.4,0-35.1,0-2.2,0-4.65.82-6.5-1.22,1.26-.25,3.39-1.7,2.43-1.92-4.31-1-2.33-4.74-3.41-6.9-1.7-3.43.68-9.06-5.78-9.77C159.36,645.7,156.91,643.53,156.5,640.84Z" transform="translate(-1.51 -64.05)"/><path class="cls-160" d="M157.77,635.79c12.56,1.9,25.2,1.12,37.81,1.27.42.27.56.55.42.82s-.27.42-.41.42l-27.77.05c-4.19-.56-8.61,1.19-12.61-1.28C155.75,636,157.07,636.52,157.77,635.79Z" transform="translate(-1.51 -64.05)"/><path class="cls-115" d="M195.59,638.3c0-.42,0-.83,0-1.24h17.65c0,.41,0,.82,0,1.24Z" transform="translate(-1.51 -64.05)"/><path class="cls-155" d="M189.28,440.43c4.11,1.81,4.1,6.23,4.68,9.37,1.77,9.61,7.65,18.15,6.94,28.39-.24,3.59,5.7,4.52,4.77,8.88-.41,2.29,3.86,4.83.68,6.43s-6.9,3.21-10.68,1.07c6.73-3.81,6.8-5.28,4.05-12.14-3.51-8.77-6.16-17.9-9.18-26.87.67-3.87,1.36-7.74-1.57-11.11C187.73,443,188.74,441.74,189.28,440.43Z" transform="translate(-1.51 -64.05)"/><path class="cls-161" d="M181.8,450.51l2.43-1.25c.15,7.12,4.94,13,5.3,20.13.08,1.47.29,2.81-.42,4.14L187,474.81C187,466.33,184.59,458.38,181.8,450.51Z" transform="translate(-1.51 -64.05)"/><path class="cls-162" d="M107.33,619.42l-1.26-3.79c8.06.84,16.15,1.44,24.17,2.58,8.3,1.18,17,0,24.78,4.64a11.8,11.8,0,0,0,10.32.69,12.7,12.7,0,0,1,7.45-.23c8.72,2.52,16.24-1.69,24.25-3.49,4.82-1.08,10-.52,14.89-1.59,2.65-.57,5.36-.72,7.54-2.56H224l-3.24,2.47c-4.58,3.72-9.52,6.66-15.55,7.31-7.29,0-14,3.22-21.2,3.94-2.55.26-5.25.93-7.89,1.39-2.27.38-4.56.5-6.84.77-1.84.23-3-.52-4.19-2-.35-.47,2.73-2.41-.29-1-1.27.6-2.4,2.19-3.83,1.51-5.9-2.85-12.7-1.84-18.65-4.74a22.61,22.61,0,0,0-12-2.19c-5.26.42-10.48-1.65-15.44-3.71h-2.52c-1.69.3-3.37,1.24-5,0Z" transform="translate(-1.51 -64.05)"/><path class="cls-145" d="M205.67,624.45l15.12-6.31c0,.84,0,1.68,0,2.51-3.05,3.23-10.07,1.6-10.23,8.63,0,1.5-11.77,1.64-13.71.21C198.28,625.18,201.83,624.57,205.67,624.45Z" transform="translate(-1.51 -64.05)"/><path class="cls-163" d="M128.83,644.7c1.73-1.89.91-4.27,1.26-6.43s.72-4.54,3.63-4.92v0c3.44,6.51,1.57,12.68-1.16,18.81q-1.34,8.12-2.69,16.24l-2.16,0C126.24,660.45,128.6,652.62,128.83,644.7Z" transform="translate(-1.51 -64.05)"/><path class="cls-164" d="M132.56,652.19c-.6-6.33,2.1-12.46,1.16-18.81l1.3.08c1.35,1,1.79,2.58,2.51,4,1,2,2.34,1.12,3.7.52a2.58,2.58,0,0,1,1.7.23,5.2,5.2,0,0,1,.93,1.61c1,5.32-.87,10.34-1.46,15.5a5.68,5.68,0,0,1-3.57,3.2C132.86,660.25,134.3,654.64,132.56,652.19Z" transform="translate(-1.51 -64.05)"/><path class="cls-133" d="M138.83,658.49a2.39,2.39,0,0,1,2.42-2.59c3.32,4.57,1.59,9.2.17,13.82l-.07.19c-1.7-.11-3.23,0-2.77-2.73S138.78,661.39,138.83,658.49Z" transform="translate(-1.51 -64.05)"/><path class="cls-165" d="M204.4,640.84c-1.54,1.41-5.25,2-2,5.28.26.26-.06,1.09-.12,1.65-4.55-1.49-5.3,4.84-9.65,4.64-1.63-.08-2.3,3.52-.54,4.81s2.21,1.92.93,3.66-2.65.7-3.82,0c-2.35-1.32-4.47-3.14-6.92-4.23-3.41-1.52-5.81-5.89-10.59-3.89-.44.19-2-.76-1.92-1.1.3-3.66-3.63-7.07-.69-10.86Z" transform="translate(-1.51 -64.05)"/><path class="cls-166" d="M142.63,638.31l-1.17,0c-1.28-.09-2.64-.41-2.59-1.93.06-1.78,1.82-1.9,3.1-2.4,2.51-.08,5.46-1.83,6.95,1.87.14.83,1.39,1.64,0,2.49l-2.6,0A2.66,2.66,0,0,1,142.63,638.31Z" transform="translate(-1.51 -64.05)"/><path class="cls-167" d="M148.92,635.83c-2.35-1.43-4.95-1.46-7.57-1.33-1.6.68-3.31,1.71-3.8-1.19,2.07-.36,4.4.72,6.2-1.12l3.82-.12c1.36,1.15,4.59.37,3.82,3.71Z" transform="translate(-1.51 -64.05)"/><path class="cls-168" d="M157.77,635.79a2.71,2.71,0,0,1-2.56,1.28l-2.45-1.3a1.6,1.6,0,0,1,0-2.49Z" transform="translate(-1.51 -64.05)"/><path class="cls-169" d="M152.75,633.28c0,.83,0,1.66,0,2.49h-1.37c-.5-2-2.67-2.35-3.82-3.72A8.15,8.15,0,0,1,152.75,633.28Z" transform="translate(-1.51 -64.05)"/><path class="cls-170" d="M142.63,638.31l3.72,0-2.49,30.21a2.36,2.36,0,0,1-2.44,1.17q-.09-6.91-.17-13.82Z" transform="translate(-1.51 -64.05)"/><path class="cls-152" d="M114.9,619.4c15.28,1.82,30.46,4.17,45.09,9.17a3.8,3.8,0,0,0,3.45-.28c1.52-.8,1.57-.64,3,1.29.73,1,1.71.72,2.8.56,2.47-.36,5-.45,7.45-.65,2.27-.15,4.51,1.23,6.86-.46,1.26-.9,2.62.22,3.23,1.72-2.13,4.64-8.08,4.2-10.19,3.65-5.22-1.36-10.78.06-15.73-2.63-5.62-3.06-12.27-1.59-18.2-3.54-2.24-4.19-6.9-4-10.13-3.83C125.79,624.83,120.08,623.54,114.9,619.4Z" transform="translate(-1.51 -64.05)"/><path class="cls-171" d="M138.84,628.23c0,.42,0,.83,0,1.24-1.47,1.29-3.34.21-4.92.86-1.4.31-2.83.76-3.89-.73-1.08-2.33-3.91-.46-5.71-2.59C129.56,625.89,134.12,628.41,138.84,628.23Z" transform="translate(-1.51 -64.05)"/><path class="cls-152" d="M107.33,619.41c1.68.58,3.36-1.28,5,0v1.27C110.63,620.5,108.66,621.22,107.33,619.41Z" transform="translate(-1.51 -64.05)"/><path class="cls-172" d="M137.55,633.31c1,1.37,2.43,1.13,3.8,1.19-1.75,1.31-1.71,2.58.11,3.79l-.22.08a3.53,3.53,0,0,1-4.9,0L135,633.46Z" transform="translate(-1.51 -64.05)"/><path class="cls-143" d="M133.9,630.33c1.46-1.33,3.26-.71,4.92-.86a2.3,2.3,0,0,1,2.55,2.34Z" transform="translate(-1.51 -64.05)"/><path class="cls-173" d="M186.76,630.75c-3.15-2.14-7,1.63-10.09-1.26,7.89-2.85,16.71-1.93,24.3-6.07,1.57-.85,3.2.34,4.7,1-3,1.52-6.36,2.53-8.83,5C193.75,632.07,190,629.46,186.76,630.75Z" transform="translate(-1.51 -64.05)"/><path class="cls-174" d="M136.34,638.32l4.9,0c0,1.42-.55,2.33-2.09,2.42A2.37,2.37,0,0,1,136.34,638.32Z" transform="translate(-1.51 -64.05)"/></g><g id="leggero_basso" data-name="leggero basso"><path class="cls-3" d="M295.49,576.22c14.63-2.64,29-6.41,43.28-10.42,25.53-7.17,50.91-14.87,76.34-22.4,2.27-.67,4.77-1.07,6.16-3.41-1.37-2.5-1.79-5.27-2.4-8a31.13,31.13,0,0,1-2.61-13.46c1.3-2,.05-4.36.71-6.46-.52,1.76.52,3.8-.86,5.41-2.82-10.52-3.53-21.31-4.16-32.1-.74-12.48-1.3-25-1.94-37.45,1.35-8.2-1.34-16.09-1.86-24.15-.19-2.89-.71-5.79-1.15-8.68-1.89-14.51-4.42-28.91-7.39-43.23a7.9,7.9,0,0,1-.4-2.9,3.08,3.08,0,0,1,.2-1.72c-.53.39-.33,1.24-1,1.55l-4.68-27.13c-2.39-4.37-2.23-8.77-.11-13.18,1.63-4.92,2.43-10.13,5.32-14.6,7.9-12.25,24.64-15.88,38.34-8.25,1.8,1,3.58,2.06,5.37,3.1a46.6,46.6,0,0,1,2.91,4.81c15.69,34.16,25.22,70,30,107.27,2.71,21.29,4.67,42.58,2.4,64.05a37.39,37.39,0,0,1-1.13,4.82c-.9-1-.62-2.18-.73-3.31.05,1.14-.25,2.36.74,3.29-.59,9.09-3,17.83-7.89,25.36-3.41,5.22-4.3,10-2.68,15.75.94,3.38,1.16,7,1.71,10.44-1.35,1.95-.82,4-.13,5.95,2.06,5.7,1.75,11.73,2.2,17.62-.31-2.57-.82-5.1.59-7.58,3.5,17.06,2.29,34.22.84,51.35a198,198,0,0,1-7.4,37.62c-5.75,20.16-15.78,37.84-33.57,49.5-12.61,8.26-26.68,14-42,15.71-5.15-.83-10,1.29-15,1.66a26.91,26.91,0,0,0-10.08,0c-.39.12-1,0-1.17.14-.49.66-1.27.06-.45.25-.11.16.05-.14.52-.18,2.55-.22,5.27-1.79,7.54.77-12.05,2.23-24.17,1.19-36.24.59-5.38-.27-10.91-.06-16.17-1.78a4.1,4.1,0,0,1,3.78-.82c-3.09.2-7.32-.37-11.57-.72-1.92-.26-3.68-1.09-5.55-1.5a60.17,60.17,0,0,1-16.46-17.11c-3.31-5.94-4.29-12.83-7.57-18.79-.35-6.3-1.88-12.48-1.89-18.81-1.88-6.23.1-12.43.52-18.59.31-4.53.72-9.1,1-13.65a10.24,10.24,0,0,1,.37-1.91c.79-2,.89-4.17,1.46-6.22a20.35,20.35,0,0,1,.94-2.43c1.09-1.9.87-4.47,2.93-5.88,2.66-2.93,2.8-6.46,2.43-10.12a8.26,8.26,0,0,1,.17-2.76C290.5,587.77,290.56,580.94,295.49,576.22Z" transform="translate(-1.51 -64.05)"/></g><g id="pesante"><path class="cls-54" d="M308.55,478.24c-.06-1.83-.12-3.67-.19-5.51a2.46,2.46,0,0,0-.12-.71c-1.3-4.46.34-9.14-.88-13.61a2.54,2.54,0,0,1-.1-.55c-.08-1.34-.17-2.68-.26-4a2.92,2.92,0,0,0-.16-.78c-.89-2.73.26-5.67-.67-8.39a3,3,0,0,1-.18-.78l-.1-1.27a3.51,3.51,0,0,0-.24-.94c-1.07-2.75.23-5.78-.76-8.54a3.32,3.32,0,0,1-.16-.62l-1.32-10.09a2.47,2.47,0,0,0-.29-.84c-1-2,.23-4.33-.88-6.29a1.65,1.65,0,0,0-1.13-2.22h0a3.15,3.15,0,0,1-1.4-2.37c-.24-3.82-1.33-7.55-1.42-11.38-.09-2.1,0-4.28-1.61-5.81a3.11,3.11,0,0,1-.93-1.55,32.23,32.23,0,0,1-1.3-9.91,2.9,2.9,0,0,0,0-.72c-2.18-12.92-6.73-25.08-11.88-37.05a3.05,3.05,0,0,0-.83-1.17,6.46,6.46,0,0,1-2.3-4.84A2.76,2.76,0,0,0,279,337c-11.45-18.11-21.49-38.16-48.48-34.92-.16.13-.33.27-.48.41s-.19.14-.28.4,0,.51.32.75c.1.37.19.73.28,1.1,1.19,2.08.55,4.43,1,6.61.17,1.76.9,3.42,1,5.2a31.29,31.29,0,0,0,.66,3.58c.74,2,.51,4.2.82,6.29,0,.12,0,.24.07.36.83,3.43,3.18,6.34,3.43,10,1.65,9.29,2.58,18.67,3.82,28,.65,4.87-.08,10.12,3.09,14.49a1.17,1.17,0,0,0,1.52-.44c.37.39,0,.7-.15,1a36.36,36.36,0,0,0-1.82,6.34c-.34,2.52.17,5,.42,7.49,2.23,22.27,4.21,44.56,4.2,67,0,10.88,0,21.77,0,32.66.13,5.47.79,11-.48,16.37a17.11,17.11,0,0,0-.48,3.17c-.24,3.72.43,7.51-.8,11.15a20.11,20.11,0,0,0-.48,3.94v.3c-1,.88-1.29,2.26-1.58,3.63a2.48,2.48,0,0,0-.06.54c-.1,7.27-1.85,14.28-3.18,21.36a2.07,2.07,0,0,0,0,.22c-.23,1.8-.2,3.64-1,5.31-1.88,5.71-3.39,11.51-4.88,17.33a2.85,2.85,0,0,0,0,1.09c.56,3.49-3,7.31-.13,10.22,4.38,4.49,7.16,10.35,12.29,14.14a3.39,3.39,0,0,0,.72.4c3.71,1.35,5-1.9,6.89-3.94a2.79,2.79,0,0,0,.3-.38,168.83,168.83,0,0,1,38.23-42.17l2.73-1.91c1.74-1.32,3.84-1.86,5.82-2.65a9.48,9.48,0,0,0,2.09-1.63,2.87,2.87,0,0,0,.8-1.06c1.09-2.72.9-5.6.88-8.46a3,3,0,0,1,.19-1c.62-1.88-.07-3.94.55-5.82a3.44,3.44,0,0,0,.19-.9l.3-5.08a3,3,0,0,1,.13-.66c1.08-3.62-.35-7.46.78-11.08a3.14,3.14,0,0,0,.15-.8c.07-2.23.15-4.45.22-6.68A188.35,188.35,0,0,0,308.55,478.24ZM266.8,512.76a.05.05,0,0,1,0,0v0a5.86,5.86,0,0,0,.63.25A4.77,4.77,0,0,1,266.8,512.76Z" transform="translate(-1.51 -64.05)"/></g><g id="medio"><path class="cls-2" d="M424.9,248.2c3,14.23,8.3,27.8,12.13,41.79,1.77,6.44,3.75,12.82,5.63,19.23-1.92,1.95-3.39,0-4.84-.71-19.58-10-34.94-3.65-41.41,17.11a6.22,6.22,0,0,1-1.73,3.25c-3.19,4.3-3,10.58.49,14,2.63,8.41,2.93,17.23,4.57,25.81a15.33,15.33,0,0,1,.55,3.07c2.89,14.37,5,28.87,7.39,43.32.2,2.36.09,4.77.94,7.05a15.63,15.63,0,0,1-.18,7.89c-.9,1.4-2.21,2.65-1.65,4.59.52-.92-.81-3.16,1.85-2.57,2.6,5.26,2.45,11,3.16,16.63,1,22.69,2,45.37,5.37,67.87a11.07,11.07,0,0,1,.51,2A63.79,63.79,0,0,0,420,532.35c.1,2.93,1.48,5.62,1.69,8.54-1.28,3.23-4.4,3.6-7.13,4.52-15.92,5.36-32.25,9.38-48.25,14.5-21,6.72-42.32,12.27-63.78,17.33-2,.48-4.05,1.18-6.2.74a3.24,3.24,0,0,1-1.63-1.08c-.93-2.41.1-4.5,1-6.61,3.17-5.22,3.13-11.31,4.52-17a22,22,0,0,0,.87-6.5,17.46,17.46,0,0,1,.42-2.86c.86-3.14.54-6.43,1.22-9.59a17.64,17.64,0,0,0,.68-6.78,29.81,29.81,0,0,1,.54-6.11c1.26-3.74.59-7.6.74-11.41a38.68,38.68,0,0,1,.48-7.6,110.88,110.88,0,0,0,0-28.43,30.31,30.31,0,0,1-.51-6.52c-.21-4.54.59-9.14-.68-13.63a21.52,21.52,0,0,1-.53-5.12c-.1-3,.32-6-.69-8.86a15.31,15.31,0,0,1-.48-2.93c-.21-2.91.26-5.89-1-8.69a30.61,30.61,0,0,1-1.65-10.69c0-2.16.24-4.36-.68-6.43-.46-1.15-.92-2.3-1.27-3.49a30.5,30.5,0,0,1-.54-7.26,6.64,6.64,0,0,0-1.51-4.71,9.53,9.53,0,0,1-.67-1.62,61.81,61.81,0,0,0-2.37-6.78c-.63-3.43-.59-7-1.69-10.31-2.36-12.93-7.16-25.09-11.83-37.29-1-2.26-2.06-4.47-3.22-6.64-6.89-12.32-14.79-23.78-27.18-31.3-4.91-3-10.05-5.22-16.05-3.45a5.16,5.16,0,0,1-4.24-.59,13.89,13.89,0,0,1-3.39-5.53,2.84,2.84,0,0,1,.69-2.61c-2.21-9.75-8.37-17.45-13.38-25.74,2.72-5,8.13-6.28,12.55-8.59,16.09-8.41,32.51-16.19,50.59-19.54,5.27,1.12,9.79-2.89,15-2.17-.24-.68-1-1.27-.3-2.1,10.84-4.56,22.47-6.15,33.78-8.92,8.9-2.19,18.06-3.27,27.15-4.5a14.59,14.59,0,0,1,2.94-.51c2.51-.21,5.08.14,7.53-.73a20.35,20.35,0,0,1,3.73-.55c.62,0,1.24-.06,1.86-.06a17.37,17.37,0,0,0,6.4-.79,18,18,0,0,1,3.87-.5c3.34-.12,6.74.29,10-.9a35.69,35.69,0,0,1,6.45-.44c4.52,0,9,0,13.54,0,2,.13,4,.18,5,2.31,4.7,9,6.39,19,9.93,28.45C423.8,245.26,423.79,247.08,424.9,248.2Z" transform="translate(-1.51 -64.05)"/></g><g id="leggero_alto" data-name="leggero alto"><path class="cls-3" d="M353.14,217.5c-18.35,3.08-36.56,6.82-54.61,11.35-2.61.66-5.19,1.46-7.78,2.2a40.62,40.62,0,0,1-13.54,4c-19.45,4.7-37.61,12.56-55,22.36-2.91,1.64-5.9,3.12-8.85,4.68C199.09,237.38,194.08,210.75,200,183c5.35-25,18.85-44.52,43.19-55.52,21.65-9.78,44.39-13.14,67.8-13.64l1,.11q11.81.21,23.6,0l1-.1c24.11.6,42.2,10.68,52.74,33.07,3.34,7.1,8.48,13.35,10,21.33a14.77,14.77,0,0,0,1.62,7.47c1.47.3,1.87,1.5,2.23,2.7Q408.1,194.71,413,211c-1.11,1.19-2.59,1.28-4.05,1.23-14.36-.47-28.57,1.34-42.79,2.81a16.83,16.83,0,0,1-5.87.24c.85.49,2.37-.25,3.05,1l-8,1a3.08,3.08,0,0,0-2.25-.59,6.73,6.73,0,0,1-1.79-.13C351.84,217,352.79,216.67,353.14,217.5Z" transform="translate(-1.51 -64.05)"/></g></svg>