<svg id="Livello_1" data-name="Livello 1" xmlns="http://www.w3.org/2000/svg" viewBox="0 0 290.02 558.07"><defs><style>.cls-1,.cls-2,.cls-3,.cls-4{fill:none;stroke-miterlimit:10;}.cls-1,.cls-2{stroke:#5c809b;}.cls-1,.cls-3{stroke-width:2px;}.cls-3{stroke:#000;}.cls-4{stroke:#f8b03b;}</style></defs><path class="cls-1" d="M214.65,659.78a108.27,108.27,0,0,0,.89-23.18l.07,7.77V628.18l.83,19-7.61-83.88L212.7,626c-5-51.3-5-102.93-5.07-154.47q.35,60.11,4.62,120.11c-4.3-44.62-4.83-89.52-5.36-134.34q-.93,55.08,2.73,110.11a925.11,925.11,0,0,1-2.86-108.67q-3.1,51.51-3,103.14c-3.41-31.56.61-63.37,3.3-95,5.25-62,5.35-124.23,4.38-186.4q-2.34,101.66-.53,203.36l3.47-199.47c3.73,52.42-.81,105.05-5.35,157.41,6-45.22,12.07-90.7,10.45-136.3,2.79,21.64-4.89,46.64-6.9,68.55q-3.22,35.12-3.51,70.42L206.67,440" transform="translate(-163.3 -133.61)"/><path class="cls-1" d="M220.08,656.45l-2.49,5.7a61.44,61.44,0,0,0,20.64,9.07l-15.45-5.67a60.48,60.48,0,0,0,17.06,8.8,96.85,96.85,0,0,1-18.84-8,179.78,179.78,0,0,0,64.74,20.34,82.46,82.46,0,0,0-17.19,1.09,213.5,213.5,0,0,1,29.59-1.3l-10.47.23a88,88,0,0,0,21.63.91l-20.77,3.08,34.39-1.42-9.62-1.16L335,682l-3.54,2a53.44,53.44,0,0,0,21.92-7.75,43.22,43.22,0,0,0-11.46,7.19A50.92,50.92,0,0,0,362.62,671a41.83,41.83,0,0,0-11,5.53,145.54,145.54,0,0,0,20.09-15.11c8-7.17,7.12-10.64,6.87-21.22-.59-25.36-.09-50.92.5-76.27.59-25-.79-50.21-.1-75.31,1.42-51.52,5.31-103.08,2.55-154.62a469.89,469.89,0,0,0-7-61.12q-2.44,44.16-4.9,88.33c3.62-28,2.39-56.32,1.09-84.49q1.89,10.65,3.8,21.32l-4.07-19" transform="translate(-163.3 -133.61)"/><path class="cls-1" d="M209.17,270.11l23.47-16.54-22.79,23.14c8.17-7,16.41-14.15,25.8-19.47a212.49,212.49,0,0,1-16.86,16.83l23.49-20.48q-13.53,9.75-28,18.13a90.8,90.8,0,0,1,28.34-25.21,4,4,0,0,1,1.63,3.24" transform="translate(-163.3 -133.61)"/><path class="cls-1" d="M378.4,258.71q-10.81-10.33-22-20.28a85.58,85.58,0,0,1,25.15,26.48,86.19,86.19,0,0,0-29.12-31.45c14.74,8.87,22.54,25.87,26.74,42.54a89.24,89.24,0,0,0-30.69-40.41" transform="translate(-163.3 -133.61)"/><path class="cls-1" d="M243.81,247.23l8-24.1-2.89,21.51a88.65,88.65,0,0,1,1.5-18.47c.06-.31.2-.69.51-.7s.18.65,0,.42l-1.93-7.2-1.52,11.9" transform="translate(-163.3 -133.61)"/><path class="cls-1" d="M349.68,233.79,349,211.07a89.93,89.93,0,0,1-3.64,22.5L349,216.32A21.14,21.14,0,0,1,343.38,232" transform="translate(-163.3 -133.61)"/><path class="cls-1" d="M275.37,217.41a11.9,11.9,0,0,0-1.5,8.89c-8.93-6.12-17.92-17.62-26.94-8.15-5.41-5.55-12.45-10.31-17.06-16.63l53.37,5.35A179.32,179.32,0,0,0,304,208.14c18.66-.3,37-6.45,55.66-5.32a11.84,11.84,0,0,1-9.17,6.14l5.6-1.34a26.58,26.58,0,0,0-11.23,3.06l9.12-7c-7.17-3.66-15.35-4.64-23.33-5.57-27.75-3.22-56.32-6.39-83.27,1-2.24.62-5,2.35-4.18,4.51" transform="translate(-163.3 -133.61)"/><path class="cls-1" d="M282.64,224.85l.69-8.29c.2-2.35,4.14-.87,4.35-3.21C287.46,216.12,282.86,222.09,282.64,224.85Z" transform="translate(-163.3 -133.61)"/><path class="cls-1" d="M293.85,226.21a9.78,9.78,0,0,1,1.67-8.3C295.3,219.83,294.06,224.29,293.85,226.21Z" transform="translate(-163.3 -133.61)"/><path class="cls-1" d="M304.44,221.56c-1.24,1.85-2.89,3.08-3.91,5.09,2.45-1.81,6.18-1.52,7-5.72-.24,1-.27,2.31-.53,3.41a2.34,2.34,0,0,1,1.1-2l.13,2.36a7.13,7.13,0,0,1,4.31-5.18A9.13,9.13,0,0,1,312,224a8.75,8.75,0,0,1,3.59-6.65,7.85,7.85,0,0,1-1.13,6.66,9.2,9.2,0,0,1,3.83-7.51,7.47,7.47,0,0,1-.33,4.36,3.84,3.84,0,0,1,1.6-2.9v3.44a9.53,9.53,0,0,1,4.62-5.34,29.81,29.81,0,0,1-2.35,7.38,30.83,30.83,0,0,1,7.39-10.82,28.71,28.71,0,0,1-3,9.42,22.19,22.19,0,0,1,9-10.95l-1.89,9" transform="translate(-163.3 -133.61)"/><path class="cls-1" d="M339.47,218.47h-6.19l13.09.09-18.91,2.53a47.41,47.41,0,0,1-8.32.6c-3.56-.16-7-1.13-10.52-1.87-10.48-2.21-21.28-2.28-32-2.34l11.61,7.4a179.36,179.36,0,0,1-23.37-4l13.22,8.38-18.79-6.63a33.25,33.25,0,0,0,12.27,14.87l-18.25-22.06a28.33,28.33,0,0,0,15.19,15.27l-10.64-14.52a279.28,279.28,0,0,1,28.28,15,49.23,49.23,0,0,1-13.57-17.56c7.27,2.18,14.46,4.67,21.52,7.47a63.92,63.92,0,0,1-23-4.92,190.91,190.91,0,0,1,31.23,17.66" transform="translate(-163.3 -133.61)"/><path class="cls-1" d="M223.85,293.88l-2.95-2.24A239.08,239.08,0,0,1,280,300.48c-6.76-.06-12.26-5.18-18.51-7.74s-13.31-2.53-20.06-3.48-13.9-3.36-17.56-9.09a250.74,250.74,0,0,1,56.91,18.2c-13.38-5.31-27.27-10.7-41.65-10a158.4,158.4,0,0,0,65.08,14.26,148,148,0,0,0-26.66-6.45,232.6,232.6,0,0,0,50.92-6.84L298,301.59a382.47,382.47,0,0,0,45.72-9.27l-42.55,4L348.83,286a67,67,0,0,1-25.53,6.82,156.81,156.81,0,0,1,39-15.43,13.21,13.21,0,0,0-6.18,3" transform="translate(-163.3 -133.61)"/><path class="cls-1" d="M247.53,324.45l3.93-28.2q-2.27,49.9-8,99.55a304.64,304.64,0,0,0,.44-92.37c-1.26,29.74,4.84,59.84-.53,89.12a562.85,562.85,0,0,0-7.49-94.9c-.25,27.72-.5,55.53-4.13,83l-6.85-79.52c3.11,30.84,6,61.83,4.69,92.8a444.23,444.23,0,0,1,11.32-94.65,695.39,695.39,0,0,1,4.35,77.42c1-20,2-40.32,8.32-59.35q1.47,34.17,1.37,68.38" transform="translate(-163.3 -133.61)"/><path class="cls-1" d="M217.56,508.28q6.27-74.19,16.7-147.94c.15,54.39-6.72,108.65-6,163,.11,8.6.44,17.33,3,25.54,3-11.78,2.63-24.1,2.6-36.24a680.15,680.15,0,0,1,9.39-114.42q-2.24,75.47-3.33,151l8.87-166.57-1.21,160.74,1.67-182.93q-4.77,110.67-5.13,221.48c0,3,.07,6.21,2,8.5a433.91,433.91,0,0,1-2.55-82.24l1.54,68.13L239,540.11a177,177,0,0,1-2.73,48.45l-2.53-41.15-5.91,35c-.12.72-.13,1.66.55,1.93s.87-1.3.24-.93" transform="translate(-163.3 -133.61)"/><path class="cls-1" d="M243.35,608.54l3.7,35.76-6.55-63.36a505.83,505.83,0,0,0-7,54.44,139.94,139.94,0,0,0-3-23.15,162.64,162.64,0,0,1,46.37,35.1l-35,.3c-1.89,0-4.51.85-4.12,2.71,16.77,8.22,35.78,10.34,54.35,12.34a484.54,484.54,0,0,0-48.65-13.32q31.2,6,62.78,9.86c-15.89-10.39-31.58-21.54-44-36s-21.32-32.5-21.61-51.49c2.69-.67,4.59,2.53,5.5,5.14L269.56,644q-11.26-35.89-25.87-70.61l12.37,30.91L231,532.62A238,238,0,0,1,247,554a376.12,376.12,0,0,0-8.73-40.25l18.24,31.61" transform="translate(-163.3 -133.61)"/><path class="cls-1" d="M239.5,489.35A77.78,77.78,0,0,0,219,514.42q13.14-20.05,24.26-41.32a86.94,86.94,0,0,0-13.88,22.19,231.19,231.19,0,0,0,17-45.52,109,109,0,0,0-9,17.42,372,372,0,0,0,9.58-44.78,167,167,0,0,0-16.52,24.88,451.5,451.5,0,0,0,15-55.39,284.53,284.53,0,0,0-19.92,30.3,198.84,198.84,0,0,0,19-59.39,96.14,96.14,0,0,0-20.35,31.3,206.82,206.82,0,0,0,18.64-41.18,233.5,233.5,0,0,0-19.28,29.33,298.38,298.38,0,0,1,16.41-36.1" transform="translate(-163.3 -133.61)"/><path class="cls-1" d="M322.5,260a63.32,63.32,0,0,0,19.59-9.45,302.09,302.09,0,0,0-31.37-2.26,63.86,63.86,0,0,0,20.75-6.45q-17.48,5.07-34.81,10.59c14.48,4,29,7.95,43.84,10.23A67.53,67.53,0,0,0,313.57,271l28.76-1.49a63.58,63.58,0,0,1-9.33,8.71q10-3.8,19.74-8.14a4.53,4.53,0,0,1-3.65,2.52,43.37,43.37,0,0,1,4.24-20.45c-6.72,2-14.57-3.12-15.56-10L354,269.78c2.55,4.33,5.21,8.81,9.32,11.71a211.41,211.41,0,0,1-19.79-34.7,101.24,101.24,0,0,1,16.37,31.65,48,48,0,0,1-8-28.66,37.66,37.66,0,0,1,14.19,20.5c-2-7.52-8-12.43-7.75-21.15,2.89,1.77,6.15,5,6.6,8.37-4.51,1.29-10.94-.43-15.8-.18C340.21,257.77,331.32,258.73,322.5,260Z" transform="translate(-163.3 -133.61)"/><path class="cls-2" d="M402.68,288.06l-.64-.64" transform="translate(-163.3 -133.61)"/><path class="cls-2" d="M314,658.42a39.3,39.3,0,0,1,23-4.74L293.9,668.11l56.91-13.48c-13.05,5.87-27.59,7.28-41.84,8.61a173.63,173.63,0,0,0,38.86-7.35c-21.28,9.08-44.76,11.32-67.8,13.45a115.78,115.78,0,0,1,45.9-13.48,176.76,176.76,0,0,1-48.73.78c-6.87-.84-13.85-2.15-19.85-5.6s-10.93-9.39-11.55-16.28c1.53,1.86,3,3.73,4.58,5.6L234,603.24q-.75,17.55-2.87,35l-5.6-67.09c-.56,17.72-1.05,35.91,4.77,52.65a174,174,0,0,0-10.49-60.95A178.41,178.41,0,0,0,218.06,625a503.18,503.18,0,0,1,2.79-67.45L225,599.05c2.2-18.43-.62-36.9-3.55-55.08-.89-5.58-4.27-13.83.28-18.25,4.93-4.79,18.62-6.78,25.14-9.09" transform="translate(-163.3 -133.61)"/><path class="cls-2" d="M228.58,443.91a3.75,3.75,0,0,1,4.35-2.3" transform="translate(-163.3 -133.61)"/><path class="cls-2" d="M252.5,491.73a308.3,308.3,0,0,0,51.92,160" transform="translate(-163.3 -133.61)"/><path class="cls-2" d="M264.77,539l-3.24-5.83q26,61.18,56.7,120.24" transform="translate(-163.3 -133.61)"/><path class="cls-2" d="M257.11,559.4a26.32,26.32,0,0,0-3.52-7.51q17.05,39.51,35.17,78.57c2.6,5.61,5.28,11.31,9.48,15.86l-40.05-67.1a317.06,317.06,0,0,0,13.57,48.67,174.5,174.5,0,0,1-24.44-42.15c4,9.77,11.08,17,16.47,25.69,6.09,9.87,12.61,18.77,21.63,26.21.88-7.26-2.34-14.31-5.35-21a536.88,536.88,0,0,1-29.28-82c15.12,36.07,30.66,72.83,56.39,102.29" transform="translate(-163.3 -133.61)"/><path class="cls-2" d="M238.36,638.07l-7.48-13.57.18,31.84-3.31-38.77,3.3,30.29a97.29,97.29,0,0,0-.88-25,191.06,191.06,0,0,0,3.64,27.9c.58-3.69,4.9-5.79,8.6-5.31s6.87,2.81,9.85,5.06l12.44,9.38a40.87,40.87,0,0,1-16.56-17.39c.6-1.32,2.57-.76,3.81,0l23,14.06a53,53,0,0,1-10.43-9.81,110.3,110.3,0,0,0,24.53,10.89" transform="translate(-163.3 -133.61)"/><path class="cls-2" d="M258.17,506.05c3.52,11.81,4.3,24.24,3.6,36.5-.27,4.78-1.83,29.43-9.68,19-2.82-3.75-3.12-12.84-4.32-17.44-1.58-6-3.33-12-4.88-18-3-11.78-5.78-24-5-36.22a163.66,163.66,0,0,1-.8,48.81c-4.39-26.09-13.25-51.19-22.07-76.14C236.07,466.64,252,485.45,258.17,506.05Z" transform="translate(-163.3 -133.61)"/><path class="cls-2" d="M248.08,516l11.61,65.42c.78,4.39,1.95,9.35,5.87,11.47" transform="translate(-163.3 -133.61)"/><path class="cls-2" d="M289.62,472.57l2.72-27a729.61,729.61,0,0,1-4.1,85.55c.58-25.33,1.14-50.93-4-75.73l-6.09,75.95" transform="translate(-163.3 -133.61)"/><path class="cls-2" d="M252.91,470.11l18.84,14.29a69.79,69.79,0,0,1-19.67,8.37c-2.05.52-4.53.83-6-.7a5.83,5.83,0,0,1-1.21-3.81A32.84,32.84,0,0,1,250,469.07a274.28,274.28,0,0,1,2.31,42.58,620,620,0,0,0,3.06-64.78l11.11,90.23.24-90L282.14,552.2l-28-149" transform="translate(-163.3 -133.61)"/><path class="cls-2" d="M210.79,405.56a653.07,653.07,0,0,0,9.13,72.55c1.59-5,1.67-10.37,1.65-15.63-.06-22.24-1.54-44.63,1.89-66.6q3.45,26.88,6.89,53.78" transform="translate(-163.3 -133.61)"/><path class="cls-2" d="M249.38,540.09c-1.82.41-1.54-2.76-.34-4.18l15.63-18.58a171.36,171.36,0,0,1-15.31,21.92l14.7-26c-8,2.42-14.56,8.17-20.82,13.75,1.49-6.76,6.23-12.25,10.81-17.44l17-19.27a248.25,248.25,0,0,0-33.35,17.07L274.58,484c-11.64,4.85-24.09,9.8-36.51,7.61a57.72,57.72,0,0,1,27.38,22.2c-10.17.69-19.56-4.93-28.19-10.34l9.32,26.28c.78,2.2,1.48,4.9,0,6.67-1.7,2-4.88,1.36-7.31.42C226.67,532,216,523.24,205.65,514.66a219.73,219.73,0,0,0,35.68,55.69l-22-58.49a186.82,186.82,0,0,0,5.2,31.35,166.52,166.52,0,0,0-2.11-34.4,41,41,0,0,0,1.53,18" transform="translate(-163.3 -133.61)"/><path class="cls-2" d="M254.55,230.62c2.73-2.45,7-.06,9.67,2.42a108.31,108.31,0,0,1,14.32,16.16l-13.12-6.15c1.44,6.18,8.46,9.42,14.8,9.7s12.64-1.46,19-1.07a226.17,226.17,0,0,1-34.72-1.09c15,8.16,30.5,16.47,47.48,18.32a255.24,255.24,0,0,1-35-16.71c14.58-1.56,29.35,8.69,43.31,4.19A80.67,80.67,0,0,0,286,249.5,131.25,131.25,0,0,0,327.53,257l-36.17,6.53a55.84,55.84,0,0,0,37.38-.45,48.51,48.51,0,0,0-34-11.33c-2.12.12-5.15-.43-4.95-2.55a17.48,17.48,0,0,1,20.78,7.56l-1.3-8.25a52.23,52.23,0,0,0,10.33,13l3.2-8.44a36,36,0,0,0,4.57,12.09l5.68-16a142.66,142.66,0,0,0,2.2,29.61l6.52-28.09a167.19,167.19,0,0,1,7.87,25.2" transform="translate(-163.3 -133.61)"/><path class="cls-2" d="M251.1,225.58c.05.47-.86.07-.63-.34s.81-.38,1.28-.29c23.38,4.38,46.29,12.37,70.07,12.89A73.56,73.56,0,0,0,284.65,228a68.54,68.54,0,0,0,29.18,12.12c-14.72.2-29.69.44-43.71,4.91a54.6,54.6,0,0,0,23.9,4,83.93,83.93,0,0,0-16.51-6.17" transform="translate(-163.3 -133.61)"/><path class="cls-2" d="M250.59,281a35,35,0,0,1,14.4-12.7l-14.48,12.39c-2.87,2.46-5.81,4.95-9.33,6.31a187.57,187.57,0,0,1,17.62-27.08c-10.58,3.79-17.76,15.52-29,16.43a125.9,125.9,0,0,0,26.43,6.36l-40,.46a85.57,85.57,0,0,0,28,9.54,18.93,18.93,0,0,1-16.08-4.24l18.3,3.81-8.09-15.86a57,57,0,0,0,16.8,6,148.32,148.32,0,0,1-8.29-13.58A47.85,47.85,0,0,0,261.6,283,170.75,170.75,0,0,1,252,265a69,69,0,0,0,16,10.52,152.09,152.09,0,0,1,.47-19.33,128.72,128.72,0,0,1-15.86,20.52q9.53-11.66,20-22.46A168.46,168.46,0,0,1,255.26,268l1.85-2.91" transform="translate(-163.3 -133.61)"/><path class="cls-2" d="M258.83,273.71l-10.12,27.77,4-18.41a242.73,242.73,0,0,0-4.51,25.11,81.46,81.46,0,0,0,2.11-37.11c-7,14.87-6.26,32.82-14.94,46.78q.18-21.09-.92-42.17a239.9,239.9,0,0,0-10.2,33.25l-.48-16.32c-.62.82-.31,2,.05,3s.76,2.09.26,3-2.32.73-2.19-.3a60.21,60.21,0,0,0,18.49,4.51q-8.87.92-17.62,2.54a60.06,60.06,0,0,0,16.86-2.3,222.05,222.05,0,0,1-28.21,30.11,99.7,99.7,0,0,0,27.09-1.8,185.09,185.09,0,0,0-28.75,15.23c11.89,3.63,25.53-6.34,36.64-.78" transform="translate(-163.3 -133.61)"/><path class="cls-2" d="M344.63,276.43c.26-1.64-1.26-3.14-2.88-3.47a9.6,9.6,0,0,0-4.88.7,199.54,199.54,0,0,0-37.19,16.78l41.52-21.66a242.62,242.62,0,0,1-56.9,30.41l49.31-15.91c-19,3.41-38.95,6.76-57.38.94l55.86-1a14.94,14.94,0,0,0-9.06-.62,202.72,202.72,0,0,0,38,3.14c-3.73,4.3-8.84,7.1-13.85,9.81l-23.74,12.86,36.21-14.82a192.67,192.67,0,0,0-39.08,23.16A103.89,103.89,0,0,0,361.47,315l-63.08-6.72a243.81,243.81,0,0,0,41.24,4c-10.66,1.31-21.45.36-32.19.65s-21.84,2-30.77,8" transform="translate(-163.3 -133.61)"/><path class="cls-2" d="M263.54,308.37a124.75,124.75,0,0,0,26,7c-8.79-3.07-18-6-27.25-4.65a48.53,48.53,0,0,0,22.22.89c-7.75,2.62-13.71,9.44-21.69,11.22a2.07,2.07,0,0,1-1.37,0c-1.12-.54-.59-2.24.11-3.27A80.66,80.66,0,0,1,272,307.16,119,119,0,0,0,251,322.22" transform="translate(-163.3 -133.61)"/><path class="cls-2" d="M256.6,326.89c-6.39-7.32-1.63-20.32-8.37-27.32l39-2.56a102.38,102.38,0,0,0-35,4.51,139.94,139.94,0,0,0,21.22,2.29q-9,1.65-17.78,4.11,14.77-1.29,29.47-3.35a31.36,31.36,0,0,0-12.71,5.85" transform="translate(-163.3 -133.61)"/><path class="cls-2" d="M267.26,316.12c-4,7.22-13.95,8.72-19.33,14.95a159,159,0,0,0,28.77.84,152.59,152.59,0,0,0-37.28,9.71l17.06,2a7.44,7.44,0,0,1-1.3,3.81" transform="translate(-163.3 -133.61)"/><path class="cls-2" d="M237.87,347.47c1.81,3.87,3.75,7.9,7.17,10.46s8.81,3.05,11.69-.1" transform="translate(-163.3 -133.61)"/><path class="cls-2" d="M258.37,343q.15-7.38-.15-14.74a257.65,257.65,0,0,0,.77,54.33" transform="translate(-163.3 -133.61)"/><path class="cls-2" d="M370.23,307.79l-8.59-18.71c-.13,46.32-.3,93-9.81,138.34" transform="translate(-163.3 -133.61)"/><path class="cls-2" d="M338,329.56c.63,35.46,4.75,73.44,9.85,108.53-.17-3.6-2.17-12,.58-14.77s13-2.78,16.92-3.84a88.58,88.58,0,0,0-14.82,2.59A98.09,98.09,0,0,0,367.64,410a127.78,127.78,0,0,1-19.16,4c-.94-5,1.54-10,4.54-14.16s6.66-7.87,8.67-12.56a129.92,129.92,0,0,0-18.47,8.85c.79-4.84,3.67-9,6.48-13l10.86-15.52-15.81,6.9c.63-9.16,7.44-16.54,13.86-23.09a75.39,75.39,0,0,0-8.81,3.1c-5.38-5.18-.37-25.53.23-32.56" transform="translate(-163.3 -133.61)"/><path class="cls-2" d="M326.69,292.53a502.62,502.62,0,0,0,2.59,84.27" transform="translate(-163.3 -133.61)"/><path class="cls-2" d="M350.81,295.08a977.71,977.71,0,0,0,2.77,112.37" transform="translate(-163.3 -133.61)"/><path class="cls-2" d="M364.36,546.61a224.86,224.86,0,0,1-29.87,2.76,144.33,144.33,0,0,0,20.7-7.93c.93-.44,2-1.37,1.52-2.26a74,74,0,0,0-17.21-2.24A22.81,22.81,0,0,0,343,547.87a3.14,3.14,0,0,0,1.4,1.37c1.65.62,3-1.47,3.48-3.15a114.51,114.51,0,0,0,4.73-25.69l.6,13.29c1.55-9.69.33-31.21,8.17-37.37L349.1,527.91l1.86-8.73" transform="translate(-163.3 -133.61)"/><path class="cls-2" d="M349.68,595.8l0-12.85-1.41,51.87c-.11,4.07.19,8.92,3.67,11q4.45-29.76,7-59.76a333.28,333.28,0,0,0-4.81,78.08c-3.31-3.71-8.77-4.86-13.69-4.14s-9.43,3-13.84,5.29A59.22,59.22,0,0,0,349.3,664a99,99,0,0,1-29.5,12.92,41.48,41.48,0,0,0,22.5-8.12,60.33,60.33,0,0,0-17.19,8.63,80.63,80.63,0,0,0,39.73-19.23" transform="translate(-163.3 -133.61)"/><path class="cls-2" d="M373.9,586.94c.6.41.62-1.17-.1-1s-.94,1-1,1.77q-2.46,27-4.93,54.05A160.51,160.51,0,0,0,371,600.23a166.07,166.07,0,0,0-7,39.67,402.17,402.17,0,0,0,1.55-73.19l-5.1,38.87a355.68,355.68,0,0,0-1.63-71,315.93,315.93,0,0,1-21.51,64.64l7.43-16.06c.55-1.18,1-2.74.08-3.63a3.05,3.05,0,0,0-2.76-.32,38.48,38.48,0,0,0-15.81,7.57,82.55,82.55,0,0,0,19.72-8.23,135.48,135.48,0,0,0-22.36,3.69L343.09,576c1.23-.4,2.72-1.16,2.6-2.44a2.8,2.8,0,0,0-1-1.63,27.83,27.83,0,0,0-21.8-7.38" transform="translate(-163.3 -133.61)"/><path class="cls-2" d="M262.81,566.38c7.59-7.34,20.58-5.82,28.74-12.53l-20,5A13.08,13.08,0,0,0,282.43,554" transform="translate(-163.3 -133.61)"/><path class="cls-2" d="M277,529.43c-2.24,4.18-1.93,9.21-1.56,13.94q2.13,27.2,4.25,54.38" transform="translate(-163.3 -133.61)"/><path class="cls-2" d="M284.77,535.8A105.41,105.41,0,0,0,302,602.5" transform="translate(-163.3 -133.61)"/><path class="cls-2" d="M230.6,635c5.27-2.89,11.57-3.43,17.53-2.63s11.68,2.83,17.34,4.85" transform="translate(-163.3 -133.61)"/><path class="cls-2" d="M221.85,643.36,247,653.11c2.48,1,5.39,2.49,5.44,5.15" transform="translate(-163.3 -133.61)"/><path class="cls-2" d="M232.32,658.6A231,231,0,0,0,266,665" transform="translate(-163.3 -133.61)"/><path class="cls-2" d="M362.81,538.64l12.28-14.39-8.66,12a18.13,18.13,0,0,1,9-6.08c-4.48,1.32-11.53,19.2-13.59,23.68-4.25,9.22-4.67,17.86-5.88,27.87q7.39-50.28,10.87-101c-.78,11.43,4.19,23.34,3.36,35.23-.79,11.39-10.77,20.58-17.33,29.48" transform="translate(-163.3 -133.61)"/><path class="cls-2" d="M370.19,582.46a93.88,93.88,0,0,0-11.68,15.18" transform="translate(-163.3 -133.61)"/><path class="cls-2" d="M368.84,592.6l-6.39,9.58" transform="translate(-163.3 -133.61)"/><path class="cls-2" d="M453,587.38l-1.89,1.31" transform="translate(-163.3 -133.61)"/><path class="cls-2" d="M364.31,571l-4.53-2.9a37.58,37.58,0,0,1,16.36-11.46c-7.32,4.22-14.71,8.47-22.77,11a136.62,136.62,0,0,1,22.45-20c-1.48.56-2.54,1.83-3.71,2.9s-2.71,2-4.25,1.64-2.43-2.71-1.11-3.58a204.51,204.51,0,0,1,6,38.25c.11,1.86-.33,4.36-2.18,4.49a124,124,0,0,1-2.29-28.11c-.9,14.55-1.79,29.34,1.47,43.55" transform="translate(-163.3 -133.61)"/><path class="cls-2" d="M368.79,485.7c-4.82,3.7-12.13,3.63-16,8.29a141.67,141.67,0,0,0,16,.24c2.08-.09,4.63-.59,5.21-2.58-8.89,1.34-16.29,8.77-25.28,8.81L359.28,489c5.41-5.83,11.51-11.81,15.29-18.83-2.8.94-5.53,2.18-8.32,3.25.72-.63,1.35-1.48,2.06-2.11a32.53,32.53,0,0,0-7.36,3.51C365.49,475.35,375.11,480.86,368.79,485.7Z" transform="translate(-163.3 -133.61)"/><path class="cls-2" d="M211.12,525.63a42.12,42.12,0,0,1,30.51,11.68c-5.28,4.6-13.16,3.63-20.14,4.17-2.94.22-6.57,1.54-6.68,4.48a6.59,6.59,0,0,0,1.51,3.75l10.19,15.17a23.39,23.39,0,0,1-17-5.49,87.9,87.9,0,0,1,12.39,17.79c-4.07,1.33-7.08-3.86-8-8a85,85,0,0,1,1.09-39.38c1.06,14.89,2.14,29.9,6.15,44.28a572.56,572.56,0,0,0,1.12-66.41,237.83,237.83,0,0,0-2.08,33.84l5.56-71.53-4.94,21.36a221.78,221.78,0,0,0-.34-46.72L215,486c-1.69-47.87-3-97.55,15.75-141.61a385.42,385.42,0,0,0-8.1,99.86,58.52,58.52,0,0,1-12.68-33.64A69.91,69.91,0,0,0,238,433.87a41.62,41.62,0,0,0-22.28-19.82,61.81,61.81,0,0,0,31.85,18.12" transform="translate(-163.3 -133.61)"/><path class="cls-2" d="M279,243.48c2.35-3.9,7.89-4,12.41-3.42a141.93,141.93,0,0,1,18.71,3.69c-6.3.31-13.07.18-18.26-3.39l22.7,5.08-22.31-6.74,3.16,1.48" transform="translate(-163.3 -133.61)"/><path class="cls-2" d="M327.3,335.94a5.39,5.39,0,0,0-1.23-3.81,279.45,279.45,0,0,1-8.38,33c-1.34,4.19-3.75,9.11-8.14,9.26a353.39,353.39,0,0,1,.06-50.2A100.57,100.57,0,0,0,307.14,361a48.44,48.44,0,0,0,1.5-19.24c-.4-3.22-1.23-6.61-3.59-8.83-2.07-1.94-5-2.68-7.78-3.16a66.62,66.62,0,0,0-17.78-.67A69.52,69.52,0,0,0,319.23,323c.14-2.57-3.18-3.67-5.74-3.87a132.65,132.65,0,0,0-40.94,3.17c13.46-6.49,28.77-8.42,43.7-7.77s29.65,3.76,44.26,6.91" transform="translate(-163.3 -133.61)"/><path class="cls-2" d="M257.53,648.12c.82-.35.07-1.84-.79-1.6a1.56,1.56,0,0,0-.66,2.24,4.6,4.6,0,0,0,2.08,1.64,181.48,181.48,0,0,1,28.68,18.3l-37.24-4.18A394.7,394.7,0,0,0,298,675.59c-17.19-1-33.27-8.4-48.87-15.7a92,92,0,0,0,38.77,6.85,126.56,126.56,0,0,0-26.24-1.2c-4.29.26-9.33,1.24-11.12,5.15a87,87,0,0,0,36.13,6.77c-17.12,5.47-35-4.28-52.79-6.79a112.84,112.84,0,0,1,32.56,8.65,143.59,143.59,0,0,1-57.34-33.92l27.11,9.4A184.35,184.35,0,0,1,214,636c-3.33-3.3-6.78-7.51-5.94-12.12" transform="translate(-163.3 -133.61)"/><path class="cls-2" d="M324.45,340.43,313.72,595.76" transform="translate(-163.3 -133.61)"/><path class="cls-2" d="M332.49,516q-.81-71.83-1.63-143.67c3.22,11.14-.09,24.91-.68,36.53q-1,19.81-1.54,39.64-1.11,40.44-.29,80.91" transform="translate(-163.3 -133.61)"/><path class="cls-2" d="M319.51,456c2.61-17.69,9.09-34.43,15.77-50.89.85-2.09,1.45-5-.52-6.16a4.82,4.82,0,0,0-2.42-.42l-15.13.07a65.54,65.54,0,0,0,22.17-10.49c1.71-1.25,3.52-2.92,3.42-5l-18-1" transform="translate(-163.3 -133.61)"/><path class="cls-2" d="M310.76,491.19a92,92,0,0,1,32.8-2.46q-16.29,9.15-32.85,17.79a49.27,49.27,0,0,0,24.76,4.29A56.35,56.35,0,0,1,312.22,533a122.94,122.94,0,0,1,27.23-3.18,133.11,133.11,0,0,1-30.67,46.49A368.41,368.41,0,0,1,340,529.18a26.27,26.27,0,0,1-7.66,3.67q-.66-31.2,1.49-62.38l-6.16,9.9q-.14-25.31-2.25-50.54A626.09,626.09,0,0,0,335,515l3.19-96.82c-.33,53.31-.66,106.64,1.4,159.91-.57-20.94-1.14-41.9-.19-62.83a208.33,208.33,0,0,1-1.27,55.88l.05-17.47" transform="translate(-163.3 -133.61)"/><path class="cls-3" d="M245.55,201.87l.91-16.56.6,18.16A160.84,160.84,0,0,0,248.18,181a30,30,0,0,0-1.33,9.22,131.56,131.56,0,0,1,4.4-29.79,29.82,29.82,0,0,1-1.75,12.66,67.32,67.32,0,0,1,3.2-21.46l-.5,6.79c-.5-6.1,3.18-12,8.29-15.41s11.45-4.46,17.57-4.33l-13.27,1.19a240.2,240.2,0,0,1,36.54,4.53l-16.45-1.28,36,2.71-25.78-4.69,31.66.71a181.19,181.19,0,0,1-32.26-1.26,134.83,134.83,0,0,1,35.56,4l-21.95-3.42,33.38,1.93a6,6,0,0,1,3.57,1c1.16,1,1.37,2.67,1.49,4.19.55,7.44.75,14.91.57,22.37l-.61-18.85q-1.86,18.91-2.64,37.92a119.79,119.79,0,0,1,2.74-26.7l-3.54,34.58,1-18a127,127,0,0,0,1.81,15.55" transform="translate(-163.3 -133.61)"/><path class="cls-3" d="M251.42,198.74a42.3,42.3,0,0,1,10.12,2.71l-9.67-1.52a132.57,132.57,0,0,1,14.07,1.32,102,102,0,0,1-15.63-.81L296,207.05a38.68,38.68,0,0,0-16.81-3.28l31,1.69a47.61,47.61,0,0,0-19.78-2.3l29.85,0q-12-.19-24.08.69a348.36,348.36,0,0,0,38.06-2.6,106.89,106.89,0,0,0-22.88,1.3,96,96,0,0,0,26.87-4.11,37.81,37.81,0,0,0-21.64,3.63" transform="translate(-163.3 -133.61)"/><path class="cls-3" d="M335.92,177.4a56.06,56.06,0,0,0,7.5-25.05,16.25,16.25,0,0,0-1.19,10.46c.81-6.32-.93-12.55-2-18.74A169,169,0,0,1,306,153.41l28.76-5.35c-5.59,3.09-12.44,2.93-18.67,1.52s-12.15-4-18.37-5.45a56.25,56.25,0,0,0-38.62,4.74,13.08,13.08,0,0,0,8.45-1.94,37.45,37.45,0,0,0-10.39,12.53A66.56,66.56,0,0,0,270.9,145.3a138.78,138.78,0,0,0-13,17.93l17.19-20.41-14.43,10.61c-1-3.66,1.84-7.5,5.35-8.94s7.48-1.15,11.28-1c21.55,1.12,44.51-1.58,63.5,8.66a29.37,29.37,0,0,0-13-5.48c4,4.06,11.62,4.61,13.43,10a12.7,12.7,0,0,1,.3,4.88l-2.33,34.5a266.18,266.18,0,0,0,2.1-38,219,219,0,0,0-3.83,37.28q1.29-18.09,1.38-36.23a222.41,222.41,0,0,0-4.58,28.93l-.16-9.56a40.6,40.6,0,0,0-7.8,18.13,84.08,84.08,0,0,0,7.36-23.83,53,53,0,0,0-1.58,20.21,131.87,131.87,0,0,0,2.29-38.48l-1.29,28.26.08-25.1a113.39,113.39,0,0,0,4.26,19.53l4.08-17.15L334,153l-15,1.74q10.51-2.76,21.24-4.56a155.2,155.2,0,0,1-18.77,1.29l15.62-.09A117.53,117.53,0,0,1,315,154a163.91,163.91,0,0,1,18.52-1.35,311.24,311.24,0,0,1-31.89-.7l18.51,2.62a86,86,0,0,1-33.12-.36,76.85,76.85,0,0,1,23.37,1.68A79.17,79.17,0,0,1,277,150.77l28.4.62-19.46-4.55,15.43,1.64a181.27,181.27,0,0,0-35.08-6.94,103.57,103.57,0,0,0,23.54,10.72l-21.93-1.36a123.41,123.41,0,0,0,22,6.36,50.52,50.52,0,0,1-23.67-5.46,56.51,56.51,0,0,0,23.44,3.33,37.54,37.54,0,0,0-33.57-5.43,5,5,0,0,1,2.77-2.73,59.29,59.29,0,0,0-3.09,13.86l2.06-11.48a157.68,157.68,0,0,1-4.45,24.19l8.91-23.47a165.91,165.91,0,0,0-5.92,26.05l7.56-29.07A299.33,299.33,0,0,0,250,187.17l.24-20.33,9.88,27.3a156.28,156.28,0,0,1-4.94-38.38A138.88,138.88,0,0,1,260,193.27l-4.25-26.61q0,18.57,1.48,37.11a92.06,92.06,0,0,1-5.3-22.37l1.39,18.15a15.31,15.31,0,0,1-5.9-7.4,80.28,80.28,0,0,0,6.53,11.39,31,31,0,0,1-3.74-14.65,58.92,58.92,0,0,1,10.71,10.75,89.94,89.94,0,0,1-8.84-18.19,142.65,142.65,0,0,1,10.71,20.87A116.89,116.89,0,0,1,254.84,188c9.88,2.08,20.24,3.46,30.13,5.54l-23.45.14a208.42,208.42,0,0,0,37,7,57.31,57.31,0,0,0-31.76-2.9q26.38,1.22,52.79,1l-42.12-3.13a97.76,97.76,0,0,1,43.49-5.25,80.89,80.89,0,0,0-32.9,5.84,272.53,272.53,0,0,0,50.82-6.33,122,122,0,0,0-28.64,10.33A56.28,56.28,0,0,0,330.47,195a234.74,234.74,0,0,0-34.37.61c-4.17.38-8.4.87-12.54.2a39.13,39.13,0,0,1-8.48-2.64,156.5,156.5,0,0,1-19.8-9.72,219.72,219.72,0,0,0,38.12,12l-29.88,1.27q14.88-.33,29.76.56-14.36-.27-28.71.73c26.33,2.11,52.72-5,76.61-16.29C340.61,182.94,336.49,176.23,335.92,177.4Z" transform="translate(-163.3 -133.61)"/><path class="cls-3" d="M271.37,149.25c-9,14.53-8.86,32.75-8.39,49.85-1.58-8.53-3.17-17.13-2.94-25.8s2.4-17.52,7.66-24.41a60.71,60.71,0,0,0-4.95,44.16q-.31-12.86.6-25.7c.4-5.49,1.71-12,6.83-14-9.39,9.31-11.68,25-5.36,36.59-1.95-8.14-3.75-16.71-1.57-24.79s9.65-15.39,18-14.44l-12.81,3.81a37.74,37.74,0,0,0,9-1.79A112.37,112.37,0,0,0,261,163.59a37.08,37.08,0,0,0,14-7.18,53.91,53.91,0,0,0-11.47,5.91c3.65-6.51,11.65-9.63,19.1-9.35s14.49,3.4,21.12,6.8a34.06,34.06,0,0,0-18.57-5.45l13,3.62a11.85,11.85,0,0,0-7.27,1,176.39,176.39,0,0,0,23.67-.34A22.52,22.52,0,0,0,305,158a112.77,112.77,0,0,0,20.43-4.65,13.2,13.2,0,0,0-8.53,3.73c4.22-2,8.74-4.16,13.41-3.64s9.23,4.84,8.17,9.41l-9-6.39c1.83.69,3.93,1.72,4.19,3.65a21.85,21.85,0,0,0-32.75-10.24A64,64,0,0,0,333.21,145l-20.6,4.11a98,98,0,0,1,18.57-9.3l-12.57,2.6,14-4.33-7.77,0,10.63-3.14.38,10.21a39.14,39.14,0,0,1-13.18.18c4.15-.73,8.4-1.46,12.56-.76s8.28,3.12,9.85,7a21.3,21.3,0,0,1-11.4-5.85,12.34,12.34,0,0,1,10.6,2.4,50,50,0,0,0-9.94-10.3,26.78,26.78,0,0,1,12.28,6.65,5.44,5.44,0,0,1-4.76-3.11,14.73,14.73,0,0,1,7.19,4.52c-5.75-3.54-11.93-7.21-18.68-7-4.31.12-8.4,1.83-12.37,3.51l-20,8.44c-.53.22-1.11-.08-1.66-.26s-1.34-.1-1.47.46,1.12.53.78.07" transform="translate(-163.3 -133.61)"/><path class="cls-3" d="M235.4,197.4,234.23,200a35.65,35.65,0,0,0,7.92-3.3,7.36,7.36,0,0,0-1.6,3.72l6.32-3.65" transform="translate(-163.3 -133.61)"/><path class="cls-3" d="M345.68,194.75c-.08.38-.71-.16-.43-.43s.75-.12,1.11.06a53.74,53.74,0,0,1,10.9,7.47A23.58,23.58,0,0,1,344,197.9l4.84,5.22A7.61,7.61,0,0,1,344.61,193" transform="translate(-163.3 -133.61)"/><path class="cls-4" d="M246.88,170.44c1.24-1.06,0-3.08-1.4-3.92-4.91-3-11.15-2-16.79-1-1.48.28-3.4,1.31-2.82,2.69,5.16-5.37,13-8.29,20.28-7S260,168.4,261.46,175.7l-5.78-8.89c.95,3.81,2.08,7.69,2.72,11.52-4.72-6-6.56-14.55-16.33-13.71-7,.6-12.75,7.64-12,14.61a14.05,14.05,0,0,1,.26-11.07,69.14,69.14,0,0,0-5.88,17.63l-1-15.71a13.48,13.48,0,0,0,1.74,8.56l0-4.09a28.16,28.16,0,0,0,0,11.2c-15.57-.25-28,12.3-38.34,23.91a33.33,33.33,0,0,1,14.8-11.77,148.19,148.19,0,0,0-29.85,37.33l28.07-35.75A92.06,92.06,0,0,0,171.35,262q3.77-18.5,9.1-36.63c-7.16,17.56-14.42,36.92-8.7,55a61.49,61.49,0,0,0-3.39-20.74,103.25,103.25,0,0,0,21,36.07,295.26,295.26,0,0,0-16.48-27.22,229.93,229.93,0,0,0,20.83,20.35l-14.27-13a40.39,40.39,0,0,0,39.94,12.9l-16.15-.48a92,92,0,0,1,32.36-27.54,114.89,114.89,0,0,0-26.33,20.79,131.91,131.91,0,0,1,30.5-26.17,210.79,210.79,0,0,0-29.63,29.43A404,404,0,0,0,238,253.22c6.12-7.72,12.37-16.2,14.08-26.14-4.88,8.17-6.87,17.63-11.31,26.14a100.19,100.19,0,0,1-18.83,25.3,15.23,15.23,0,0,1-3.86,3,16.73,16.73,0,0,1-6.25,1.22l-29.27,1.89,22,6.4c-5.47-.56-10.78,3.63-16.16,2.48a13.51,13.51,0,0,1-6.19-3.71c-11.08-10.49-13.49-27.27-12.44-42.49l3.19,24c-7.23-6.29-10.21-16.67-8.71-26.15s7-18,14.2-24.37a323.89,323.89,0,0,0-9.74,40.09,98.54,98.54,0,0,1,16.08-42.9l-12.38,34.3a82.68,82.68,0,0,1,14.58-47.38c1.62-2.33,4.88-4.76,6.9-2.76C186,214.44,181.15,226.84,174.65,240s-12.38,28.48-7,42.13l7.5-48.18c-2.36,16.38-4.6,33.69,1.74,49-2.77-17.54-5.49-35.84-.15-52.78a107.14,107.14,0,0,0,7.84,46.58l-11.46-27.46c3.77,8,7.6,16,13.24,22.79s13.37,12.22,22.11,13.28A20.65,20.65,0,0,0,188,275.74a183.38,183.38,0,0,1,43.41-26.11A70.86,70.86,0,0,0,205.42,268l28.19-30.24c3.94-4.23,8-8.62,9.94-14" transform="translate(-163.3 -133.61)"/><path class="cls-4" d="M190.52,210.45a82.49,82.49,0,0,1,32.59-11.94,87.39,87.39,0,0,1-22.49,3.38A33.12,33.12,0,0,1,227.88,192a113.44,113.44,0,0,1-19,2.74c8.59-1.16,17.56-2.29,25.73.58L216.38,201l9.37-2a4.63,4.63,0,0,0,4.62-4.38l5.16-21.93L227,195.62c-2.38-4.11-2.17-9.36-.32-13.73s5.14-8,8.74-11.08a23.85,23.85,0,0,0-3.89,24.62,114.4,114.4,0,0,1-1.91-18.55,101.34,101.34,0,0,0,5,19.05s-13.79-.41-14.95-.53a19.14,19.14,0,0,1,.52-3C210.67,199.07,201,205.36,190.52,210.45Z" transform="translate(-163.3 -133.61)"/><path class="cls-4" d="M261.25,168.11a57.1,57.1,0,0,1,1.66,13.78c-.85-3.35.38-7.71-2.65-9.37a11,11,0,0,1,.78,7.67" transform="translate(-163.3 -133.61)"/><path class="cls-4" d="M259.64,205.11l-1.84-1,5.08-5.19c-5.57,5.68-8.48,18.74-16,8.27a39.86,39.86,0,0,1,15.84-4.83,57.35,57.35,0,0,1-20.11,2.68,91.07,91.07,0,0,1,18.88.92,187.74,187.74,0,0,1-20.94,1,69.33,69.33,0,0,1,1.68,31.24,116.18,116.18,0,0,1,.93-26.55,112.61,112.61,0,0,1-4.47,31,73.43,73.43,0,0,1,4.39-27.07,58,58,0,0,1-7.6,33.72,59.36,59.36,0,0,1,7.64-23.73,75.88,75.88,0,0,1-21.93,24.11l-1.1-1.23" transform="translate(-163.3 -133.61)"/><path class="cls-4" d="M235.31,222.86a39.64,39.64,0,0,1-4.39,34.46,33.71,33.71,0,0,1,12.11-27A53.27,53.27,0,0,1,233,263a23.23,23.23,0,0,1,6.84-8.24c.56,5.06-3.28,9.5-7.25,12.69a60.2,60.2,0,0,1-27.21,12.28" transform="translate(-163.3 -133.61)"/></svg>