<svg id="Livello_1" data-name="Livello 1" xmlns="http://www.w3.org/2000/svg" viewBox="0 0 790.3 443.04"><defs><style>.cls-1{fill:#5c809b;}.cls-10,.cls-11,.cls-2,.cls-3,.cls-4,.cls-5,.cls-7,.cls-8,.cls-9{fill:none;}.cls-11,.cls-3,.cls-4,.cls-5{stroke:#000;}.cls-10,.cls-11,.cls-3,.cls-4,.cls-5,.cls-7,.cls-8,.cls-9{stroke-miterlimit:10;}.cls-4{stroke-width:0.5px;}.cls-5{stroke-width:3px;}.cls-6{fill:#f8b03b;}.cls-10,.cls-7,.cls-8{stroke:#5c809b;}.cls-11,.cls-8,.cls-9{stroke-width:2px;}.cls-9{stroke:#49697c;}.cls-10{stroke-width:0.75px;}</style></defs><path class="cls-1" d="M190.69,583.42H179.24" transform="translate(18.65 -149.4)"/><path class="cls-2" d="M142.64,400.14l.51,1.27" transform="translate(18.65 -149.4)"/><path class="cls-2" d="M164.43,388.45a85.18,85.18,0,0,1,.92-18.19" transform="translate(18.65 -149.4)"/><path class="cls-3" d="M267.67,235.61v1.46" transform="translate(18.65 -149.4)"/><path class="cls-4" d="M249.58,245.88l-.49,1" transform="translate(18.65 -149.4)"/><path class="cls-5" d="M416.85,244.9l-2.45,1" transform="translate(18.65 -149.4)"/><path class="cls-6" d="M159.83,379.16h-.25" transform="translate(18.65 -149.4)"/><path class="cls-7" d="M177.62,430.65l-1.46-31.8,1.14,59.61-.42-65.1,0,73.25c-2.18-19.26-.95-38.72.28-58.07l2.58-40.32q-.28,53.26-4,106.45l.44-6a109.74,109.74,0,0,1-2.46,32.77,65.84,65.84,0,0,1,2.61-24.57l-.06,16.83a21.73,21.73,0,0,1-.7-8.6l-.69,15.69,0-19.94v24.7a30.56,30.56,0,0,1,.62-8.9,101.29,101.29,0,0,1-2.7,24.28L172,500.36l4.27,31.08-.78-21.35a186,186,0,0,1-.6,24.53l-2.11-16.71-.17,19.9a74.23,74.23,0,0,0,30.88-.35,65.74,65.74,0,0,0-19.73,1.38l32.52,8.73-38.2-6.65c18.85,4.61,38.12,9.26,57.45,7.5a174.8,174.8,0,0,1-31.93-3.63l26.91,3.34a168.79,168.79,0,0,1-56.23-9.55c24.79,8,50.37,16,76.34,14a157.91,157.91,0,0,0-27.24.95,140.24,140.24,0,0,0,39.18,1.65L239.82,553a303.81,303.81,0,0,0,44.84-1.49,31.34,31.34,0,0,0-18.5,4.71,176.21,176.21,0,0,0,46.17-14.59,47.36,47.36,0,0,0-17.65,9.22,113.48,113.48,0,0,0,36-16q-23.44,11.55-47.72,21.31a281.62,281.62,0,0,0,43.56-11.13,273.31,273.31,0,0,0-44.29,11.17c26.82-4,51.73-16,76.17-27.75l-25.89,18a215.73,215.73,0,0,0,34.94-17.69,55.32,55.32,0,0,0-19.09,12,234.19,234.19,0,0,0,33.27-21,117.3,117.3,0,0,1-68.8,34,296.91,296.91,0,0,0,62.67-27c7.18-4.13,14.76-9.31,16.87-17.32.95-3.61.66-7.42.32-11.13q-1.87-20.61-5.33-41l7.77,48.76q-5.82-34.8-9.76-69.86,3.94,31.64,10.33,62.91-4.17-29.7-5.72-59.68,2.42,37.74,3.18,75.56a323.25,323.25,0,0,1-1.81-36.81,448.66,448.66,0,0,1,5.87,45.91l-3.68-17,5.11,22.7-36.69,15.63a228.37,228.37,0,0,1,27.45-21.23l-24.81,17.22,27.2-21.22-26,16.4,16.25-8c-12.69,17.65-33.48,28.18-54.79,32.49s-43.32,3-65,1c-32.58-3.07-65.32-7.84-95.92-19.44a18.7,18.7,0,0,1,10.55-1.2" transform="translate(18.65 -149.4)"/><path class="cls-7" d="M381.43,394.81a57.71,57.71,0,0,1-3.32-23.58c.32-4.73,1.16-9.79-1.12-13.94a15.38,15.38,0,0,0,1.76,7.19" transform="translate(18.65 -149.4)"/><path class="cls-7" d="M392.3,458.69l-21-94.21.32,7" transform="translate(18.65 -149.4)"/><path class="cls-7" d="M179.1,379,175,365.7a155.12,155.12,0,0,0-4.18,34.6,129.64,129.64,0,0,0,4-36.79L177,392.63a202.56,202.56,0,0,1-4.3-34.34,29.67,29.67,0,0,1,16.14,5.95l-5,.77L241,374.72c12.25,2.08,24.62,4.17,37,3.64,16.42-.69,32.27-5.92,47.87-11.1l51.46-17.09a39.88,39.88,0,0,1,1.7,23.37" transform="translate(18.65 -149.4)"/><path class="cls-7" d="M193.45,357.73l-.69,2.07" transform="translate(18.65 -149.4)"/><path class="cls-7" d="M193.08,353.72l-3.86,11.4a47.19,47.19,0,0,1,4.49-17.37L184.65,362l4.42-8.79a12.34,12.34,0,0,1-5.33,5.62,74.72,74.72,0,0,1,11.44-17l-11.91,18a130.66,130.66,0,0,1,32.63-23l-10.11,2.86,21.31-11.88-13.49,7.2a176.44,176.44,0,0,0,26.56-8.47l-10.81,2.21a520.62,520.62,0,0,0,55.76-5l-21.9,3,51.12,2.07-37.72-1.57L333,332.91a45.6,45.6,0,0,1-13.86-1.44A67.33,67.33,0,0,1,354.64,346a22.13,22.13,0,0,1-8.86-8.46l15.55,9.74c1.67,1,3.43,2.19,4.16,4s-.2,4.41-2.16,4.56" transform="translate(18.65 -149.4)"/><path class="cls-7" d="M277.37,370.11l-2.06,4.13" transform="translate(18.65 -149.4)"/><path class="cls-7" d="M203.77,356.18l43.87.6-28.57-.71,32,4.61a117.51,117.51,0,0,1-40.55-9.94l54.33,8.45a186.43,186.43,0,0,0-31.95-1.43l50.37,3.94-25.72-2.77a250.7,250.7,0,0,0,50.65-.51,137.12,137.12,0,0,0-28,4.9,322.35,322.35,0,0,0,46.46-8.42,120,120,0,0,0-33.77,8.25,391.66,391.66,0,0,0,46.35-10.75,67.94,67.94,0,0,0-19.74,9A216.21,216.21,0,0,0,345.3,350a68.43,68.43,0,0,0-18.15,5.3c3.59-2.79,7.37-5.66,11.84-6.48s9.81,1.18,11.21,5.5" transform="translate(18.65 -149.4)"/><path class="cls-7" d="M362,434.78l.69-.69" transform="translate(18.65 -149.4)"/><path class="cls-7" d="M249.85,334.34l0-12.32,5,18.11a192.8,192.8,0,0,0-2.9-20.15,75.39,75.39,0,0,0,1.44,16.14l-.07-16.77a118.45,118.45,0,0,0,3.54,14.86,145.08,145.08,0,0,1,.54-21.86l4.05,19.23-.56-19.84,4.92,19.7a63.51,63.51,0,0,0-4.26-15.54,43.68,43.68,0,0,1-3.06,13.34,40.09,40.09,0,0,1-10-16.79,100.39,100.39,0,0,0,3.34,19.77,72.51,72.51,0,0,0-4.61-15.52l.74,8.95c-.65-8.83-2.47-12.58,6.62-14.23,8.71-1.58,17.65-1.72,26.4-3.58-2.65-.7-19.18-7-20.59-6.13-3.63,2.19.61,29.07,1.08,33.3h20.94a223.44,223.44,0,0,1-6.56-35q-8.86-.24-17.74.05" transform="translate(18.65 -149.4)"/><path class="cls-7" d="M-18.43,443.72l1.38.69" transform="translate(18.65 -149.4)"/><path class="cls-7" d="M252,302.7a118.93,118.93,0,0,1-6.24,34.5,138.25,138.25,0,0,1-.71-35.72A119.79,119.79,0,0,1,243.47,328a93.48,93.48,0,0,1,5.6-28.64l29.45,9.3a48.26,48.26,0,0,0-21.68-5.07,185.21,185.21,0,0,0,32,1.19l-15.4.08q15.46-1.06,30.86-3a180.15,180.15,0,0,0,6.55,38.09l-13.61-31.62q5.43,12.61,11.49,25l-7.51-25.46,8.65,29.81a195.66,195.66,0,0,1-10.37-30.62l2.61-.79" transform="translate(18.65 -149.4)"/><path class="cls-8" d="M664,291.69l-6.19,3.44" transform="translate(18.65 -149.4)"/><path class="cls-8" d="M309.7,317.15l3.07-8.7a8.88,8.88,0,0,1,5.68,6.6,13.89,13.89,0,0,1-1.28,8.85,5,5,0,0,1-2.37,2.69c-2.16.86-4.38-1.12-5.56-3.13a11.59,11.59,0,0,1-1.73-7.95c.54-2.72,2.77-5.2,5.54-5.42,2.95-.22,5.64,2.18,6.57,5s.46,5.9-.36,8.75c-1,3.59-3.81,7.7-7.46,6.86-2-.46-3.31-2.28-4.15-4.12a17.13,17.13,0,0,1,.14-14.2c1-2.11,2.62-4.12,4.88-4.74,2.67-.72,5.57.79,7.21,3a16.77,16.77,0,0,1,2.65,7.78c.49,3.51.62,7.19-.65,10.5s-4.26,6.16-7.8,6.37c-3.76.22-7.2-2.6-8.7-6.05s-1.39-7.38-.83-11.1c.63-4.12,1.91-8.39,5-11.22s8.33-3.59,11.33-.69a10.72,10.72,0,0,1,2.62,5.44A29.31,29.31,0,0,1,321.63,330c-1.36,3-4,6.16-7.26,5.7a7.25,7.25,0,0,1-3.64-2c-7.16-6.45-7.38-19.07-.46-25.77a5.74,5.74,0,0,1,2.72-1.67c2.53-.51,4.7,1.88,5.86,4.2a24.69,24.69,0,0,1,2.47,14,5.27,5.27,0,0,1-.74,2.4,3.79,3.79,0,0,1-4.71.86,7.76,7.76,0,0,1-3.3-3.91,17.16,17.16,0,0,1-1.49-7.64,6.8,6.8,0,0,1,4.09,6.31,13.32,13.32,0,0,1-1.81-6.69,20.14,20.14,0,0,1,.78,11.14,13.17,13.17,0,0,1-3.65-13.92,4.35,4.35,0,0,1,2.26-2.79c2.6-1,4.59,2.42,5.27,5.12.86,3.41,1.58,7.22-.12,10.31-2,3.69-7.33,4.93-11,2.81a9.57,9.57,0,0,1-3.94-11,11.48,11.48,0,0,1,9.35-7.47,4.44,4.44,0,0,1,3,.43,4.93,4.93,0,0,1,1.76,3.46c1.19,6.83-1.2,15.25-7.81,17.38a5.39,5.39,0,0,1-4.42-.24,6,6,0,0,1-1.94-2.22,17.45,17.45,0,0,1,4.53-22,6,6,0,0,1,4.25-1.5c2.41.33,3.82,2.89,4.44,5.24a21.56,21.56,0,0,1-1.47,14.82c-1.45,3-4.14,5.84-7.42,5.61-4.23-.29-6.4-5.44-6-9.66a17.65,17.65,0,0,1,5.45-11.21c1.46-1.36,3.44-2.53,5.37-2,2.15.58,3.24,3,3.65,5.17a18.58,18.58,0,0,1-.19,7.68c-.19.8-.62,1.75-1.44,1.77a1.8,1.8,0,0,1-1.17-.56,11.24,11.24,0,0,1-3.15-12.1,2.28,2.28,0,0,1,.92-1.29c.87-.46,1.9.23,2.55,1a10.63,10.63,0,0,1,2.62,7.32,3.69,3.69,0,0,1-2.8-5.5,4.06,4.06,0,0,1,2.11,4A7.28,7.28,0,0,1,311.9,308a5.73,5.73,0,0,1,3.05,7.27c-3-.54-5.36-3.14-6.4-6a23.42,23.42,0,0,1-.86-9.1,5.47,5.47,0,0,1,5,5.18,5.09,5.09,0,0,1-5.06,5" transform="translate(18.65 -149.4)"/><path class="cls-8" d="M287.19,327.62l14,6-18.81-10.38a2.41,2.41,0,0,1-1.17-1,2.44,2.44,0,0,1,.15-1.77c2.94-8.46,5.9-17,10.41-24.71a76.53,76.53,0,0,1-6.66,24.45c-1.24-11.39,6.73-23.08,17.78-26.08a6.56,6.56,0,0,1,3.56-.21,7.51,7.51,0,0,1,3.26,2.53q4.38,5,8.37,10.34-6.76-4.18-13.12-9l12.19,7.8a92.76,92.76,0,0,0-17.95-6.77c2.31,3.93,4.85,7.83,6.81,11.9-2.34-.87-4.73-1.82-7.11-2.62,1.22,2.35,2.8,4.55,4.15,6.86-6.1-5.5-7.22,0-5.76,4.95,2,6.83,8.24,12.15,14.51,14.85A112.79,112.79,0,0,1,287.19,327.62Z" transform="translate(18.65 -149.4)"/><path class="cls-8" d="M300.78,352.86a25.15,25.15,0,0,1-7.54-4.93,7.52,7.52,0,0,1,7.66,4.26,15.28,15.28,0,0,1-14.4-11.06,16.51,16.51,0,0,1,14.38,10.76c-8.13-.72-14.05-7.74-19-14.22A32.84,32.84,0,0,1,298,348a12.64,12.64,0,0,1-11.49-5.29,10.44,10.44,0,0,1,10.1,3.81,11.46,11.46,0,0,1-12.46-5.24,17.52,17.52,0,0,1,11.72,6.83,17.73,17.73,0,0,1-11.42-5.65,21.21,21.21,0,0,1,10.76,4.77L287.68,344" transform="translate(18.65 -149.4)"/><path class="cls-8" d="M302.7,344.13a23.76,23.76,0,0,0,9.77,4.58,5.24,5.24,0,0,1,2.53-1.39,1.85,1.85,0,0,1,2.21,1.43,19.46,19.46,0,0,1-17.77-8A16.71,16.71,0,0,1,316,346.87a16.78,16.78,0,0,1-17.36-7.79,2.61,2.61,0,0,1-.39-2.46,2.51,2.51,0,0,1,2-1,12.88,12.88,0,0,1,13.59,9.65,13.7,13.7,0,0,1-13.42-6.46,16.76,16.76,0,0,1,11.34,6.5,23,23,0,0,1-12.25-5.42C302.85,341.61,299.76,341.81,302.7,344.13Z" transform="translate(18.65 -149.4)"/><path class="cls-8" d="M209.87,344.56a1.24,1.24,0,0,1-1.84-.72A42.06,42.06,0,0,0,226.92,349l-13.18-7.39a57.77,57.77,0,0,0,11.4,4.28L215,336.6a57.66,57.66,0,0,0,16.28,7.27l-10.85-10.94a55.77,55.77,0,0,0,17.75,8.77,79.36,79.36,0,0,1-9.11-13.36,239.6,239.6,0,0,0,22.77,7.5,11.57,11.57,0,0,0-4.26-9.33,89.64,89.64,0,0,1-8.81,14A31.85,31.85,0,0,1,247,320.25a63.57,63.57,0,0,1-6.89,15.87,27.33,27.33,0,0,1,11.09-13.58" transform="translate(18.65 -149.4)"/><path class="cls-8" d="M270.49,517.32h-2.06" transform="translate(18.65 -149.4)"/><path class="cls-8" d="M170,531.88a10.22,10.22,0,0,0-8.91.43,25.68,25.68,0,0,1,11.35-14.57,59.25,59.25,0,0,0-15.72,23.56l8.3-13.68-9.81,12L164,525.73c-4.08,4.45-7.93,9.73-8.06,15.77s3.56,11.5,8.3,15.13,10.46,5.68,16.09,7.68l-16.45-4.5a221.77,221.77,0,0,1,25.48,9.07l-21.8-5.19q22.35,8.84,43.86,19.64C195,571.57,171.6,573.25,155.7,560.86c29.22,10.41,59,20.94,90,21.94a66.35,66.35,0,0,0-27.36,2.65,414.9,414.9,0,0,0,179.55-31.83c-14.88,14.28-35.79,20.52-56.26,23s-41.24,1.77-61.69,4.48q45.74-8.45,90.89-19.7c11-2.75,22.21-5.71,31.86-11.72s17.68-15.62,19.05-26.9L413.63,541a47.46,47.46,0,0,1,2.59-17.64,34.64,34.64,0,0,1-1.07,10.78,100.67,100.67,0,0,1-3-19.6l.77,11a43.13,43.13,0,0,0-18.71-23.24,28.2,28.2,0,0,0,20.14,16.16,105.37,105.37,0,0,0-17.54-8.72,42.33,42.33,0,0,1,17.26,9.15" transform="translate(18.65 -149.4)"/><path class="cls-9" d="M309,369.47l-16.53,1.18" transform="translate(18.65 -149.4)"/><path class="cls-9" d="M288.38,392.13l3.44-.69" transform="translate(18.65 -149.4)"/><path class="cls-9" d="M397.68,514.52l-13.27,18.37,9.72-14.11-10.75,10.46a20.47,20.47,0,0,1,10.1-13.7A45.52,45.52,0,0,1,358,538.37c9.44-10,23.61-13.71,35-21.34l-15.74,19.43a103.43,103.43,0,0,0,19.09-18.3,20.9,20.9,0,0,0-4.53,10,14.81,14.81,0,0,0,5.76-15.36A78.66,78.66,0,0,0,402.11,524a25,25,0,0,1-2.35-10.21,19.61,19.61,0,0,1,6,12,8.55,8.55,0,0,1-2.17-5.24c-.1-1.8.86-4,2.66-4s2.66,1.93,2.72,3.59a8.17,8.17,0,0,1-8.88,8,14.27,14.27,0,0,1,8.31-6.77,58.67,58.67,0,0,1-29.86,16.64" transform="translate(18.65 -149.4)"/><path class="cls-9" d="M397.75,555.85l-34.17,15.78a129,129,0,0,1,36.73-17.37l-29.17,15.52,38.41-21.14a136.88,136.88,0,0,0-23.05,21,95.52,95.52,0,0,0,28.12-20.79c-16.77,14.73-37.82,23.93-59.43,29.53s-43.94,7.8-66.16,10l53.12-9.69a375,375,0,0,0-52.31,7.69,182.25,182.25,0,0,1,26.48-4.12,191.28,191.28,0,0,1-47.24,4.25l53.6-6.59L287,585.13a557.56,557.56,0,0,0,89.11-22.8c4.17-1.44,8.59-3.13,11.16-6.72,1.89-2.66,2.5-6,3.75-9a22.63,22.63,0,0,1,16.27-13.29" transform="translate(18.65 -149.4)"/><path class="cls-9" d="M180.32,566.43l47.16,10a330.32,330.32,0,0,0-47.68-5,331.77,331.77,0,0,0,52.58,6,400.76,400.76,0,0,1-55.41-9c-11-2.59-23.65-7.2-26.9-18.07A37.45,37.45,0,0,0,153,566.64l.56-15.42,1,13,.84-14.77,2.1,13.81a4.52,4.52,0,0,0,4.66,4.77l43,7.54A78.51,78.51,0,0,1,166.51,573a120.37,120.37,0,0,0,38.74,7,256.76,256.76,0,0,1-39.15-7.56,223.16,223.16,0,0,0,88.07,16.56l-45.58-3.48a417.57,417.57,0,0,0,75.49,1.9l-52.24,2.3a144.17,144.17,0,0,0,60.91-3.39c-34.25-10.68-73-2.27-105.8-16.82l95.06,13a360.44,360.44,0,0,0-68-13c25.42,10.84,54.21,9.06,81.77,7.08a250.72,250.72,0,0,0-63.5,3.31,129.15,129.15,0,0,0,76.27-6.25,69.78,69.78,0,0,0-39.56,10.13" transform="translate(18.65 -149.4)"/><path class="cls-9" d="M277.37,540.71h2.06" transform="translate(18.65 -149.4)"/><path class="cls-9" d="M257.42,553.14c-1.94,0-3.87,0-5.8-.18,14.95-3.51,31.54-4.29,46.06-9.14,2-.66,3.89-.8,5.63-1.81-10.57-5-29.05-1.91-40.48-1.76-12.63.16-27.29-1.15-39.59,1.86,9.5,2,20.5,1,30.07-.09-16.93-.38-34.49,0-51.29,2.16,15.83,4.42,33.43,4,49.73,3.55a552,552,0,0,1-56.23-7.94,180.26,180.26,0,0,0,37.58,1.11c12.17-.95,24-5.65,35.9-6.62a383,383,0,0,0-45.24,6.43c23.2-2,46.35-4.21,69.35-7.05L254.46,529a77,77,0,0,0,21.45-6,58.26,58.26,0,0,0-18.21-.48,45.06,45.06,0,0,0,11.13-.09,4.65,4.65,0,0,0,2.65-1,1.75,1.75,0,0,0,.16-2.52" transform="translate(18.65 -149.4)"/><path class="cls-9" d="M633.7,411.39l-6.88,1.37" transform="translate(18.65 -149.4)"/><path class="cls-9" d="M260.86,544.13a103.7,103.7,0,0,1,28.15-.89,186.07,186.07,0,0,1-35.79.09c8.87.63,17.76-.36,26.6-1.35a145.89,145.89,0,0,1-22.8-.59q12.18.24,24.35-.28l-21.49-16.7a50.6,50.6,0,0,1,12.64,2" transform="translate(18.65 -149.4)"/><path class="cls-9" d="M770.85,150l-2.07,2.75" transform="translate(18.65 -149.4)"/><path class="cls-9" d="M184,536.49a54.89,54.89,0,0,1-6.63-25.15,163.35,163.35,0,0,0,4,20.44l2.31-13.5.19,18.22a16.39,16.39,0,0,1,19.1,2.35,43.44,43.44,0,0,1-22.19-10,389.1,389.1,0,0,1,46.32,8.43c-12.87.32-25.32-4.21-37.4-8.68q16.74,3.75,33.32,8.2a89.24,89.24,0,0,1-30.79-6.63,244.16,244.16,0,0,1,29.09,10.59,158.48,158.48,0,0,1-27.07-4" transform="translate(18.65 -149.4)"/><path class="cls-9" d="M253.22,404.51l2.54,72.7a515.16,515.16,0,0,0-1.12-62.37q3,37.88,2.85,75.89a371.15,371.15,0,0,1,4.66-69.36q2.21,39.74,6.23,79.34l-11.64-81.64-7.22,90.64c-4.54-6.71-3.54-15.88-.17-23.25a37.27,37.27,0,0,1-9.47,39.06l27.66-9a156.27,156.27,0,0,1-33,3.46,165.53,165.53,0,0,0,30.83-3.47c-11.87,1.08-24.13,2.12-35.48-1.52q27.09.56,54,3.69a81.55,81.55,0,0,1-28.12-14.44,76.83,76.83,0,0,1,19.39,3.84,50.79,50.79,0,0,1-16.06-23.83l3.71,15.87a283.39,283.39,0,0,0-2.78-36.57" transform="translate(18.65 -149.4)"/><path class="cls-9" d="M189.74,360.49a29.26,29.26,0,0,0,8.55,8.86l-13.6-3.3a43.81,43.81,0,0,0,14,8.28A77.35,77.35,0,0,1,183,366.46a348.39,348.39,0,0,0,44.81,9.86,69.06,69.06,0,0,1-21.15-3.89l48.62,8-15.55-3.1A203.31,203.31,0,0,0,276.52,379a69.55,69.55,0,0,0-17.77-.33,109,109,0,0,0,36.57.3,76.33,76.33,0,0,0-20.61,1.69,97.59,97.59,0,0,0,47.2-13.21,23.71,23.71,0,0,0-7.24,1.95,144.1,144.1,0,0,0,31.38-2l-10.83.24A139.85,139.85,0,0,0,371,354.2a20.93,20.93,0,0,0-6,6.52l10.44-3.47L366,344.41a114.66,114.66,0,0,0,11.76,10.14,34.78,34.78,0,0,1-10.24-10.4,52.23,52.23,0,0,1,10.34,10.29,64.25,64.25,0,0,1-12.45-9.16l10.36,5.19a158.2,158.2,0,0,1-21.35-14.37,68.67,68.67,0,0,0,17.25,13.35l-24.07-7.68a25.09,25.09,0,0,0,13,5.87,49.27,49.27,0,0,1-18.18-6.57,47.91,47.91,0,0,0,14.69,10l-24.66-9.55a22.56,22.56,0,0,0,13.09,12l-17.42-7.16a14.53,14.53,0,0,0,3.06,7.47l-3.56-.68" transform="translate(18.65 -149.4)"/><path class="cls-9" d="M333.76,339.87l-5.27-4.18q11.72,5.64,23.93,10.13A59.42,59.42,0,0,1,328,342.41l18.63,3.32a55.57,55.57,0,0,1-20.72-9.61,31.84,31.84,0,0,0,9.2,4.63l-4.79-4.11a6.45,6.45,0,0,1-12.3,3.71,66.63,66.63,0,0,1,11.53,3l-14.92-4.77a36.47,36.47,0,0,1,6.15,4.3,23,23,0,0,1-6.18,3.65,8.55,8.55,0,0,0,4.75.81" transform="translate(18.65 -149.4)"/><path class="cls-9" d="M382.05,369.39l-4.64-14.92,4.64,53.86c-3.54-16.23-7.1-32.55-8-49.14l8.09,91.7A482.71,482.71,0,0,1,372.78,378q4.44,36,8.87,72c-2.4-17.81-8.58-34.87-14.72-51.77q-.07,19.15,1.36,38.27l-4.53-29.39a32.13,32.13,0,0,0-1.62,16.62" transform="translate(18.65 -149.4)"/><path class="cls-9" d="M371.64,513.94l18.07-11.67q-22.23,6.75-44.1,14.63l32.66-15.46-31.79,8.64c9.54-4.38,19.19-8.83,27.31-15.47a211.59,211.59,0,0,1-32.56,2.89,169.19,169.19,0,0,0,25.48-6.35,46.37,46.37,0,0,1-20.86.6,72.07,72.07,0,0,0,13.89-11.4,26.4,26.4,0,0,0,6.46,21.3,314.11,314.11,0,0,0-6.49-32.45l13.14,30.67c.92,2.14,2.26,4.6,4.58,4.8l-11.77-40.9,10.79,31.37c.48,1.4,2,3.1,3.05,2.09q-4.8-23.62-9.62-47.26c3.24,17.2,6.49,34.41,10.76,51.39a15.29,15.29,0,0,0-.93-10c2.14,4.4,4.26,9.72,1.78,13.94-1.52,2.59-4.41,4-7.13,5.27l-35.63,16.59c12.36-6.73,24.89-13.54,38.56-16.87a97.23,97.23,0,0,1-45.71,16.53l35.77-10.92A55.55,55.55,0,0,1,329,522.63a186,186,0,0,1,39.37-11.39c-12.74,6.23-27,8.54-41,10.77,15.9-.19,29.88-10.14,42.07-20.34a6,6,0,0,0,2.38-3.16c.3-1.56-.66-3.07-1.58-4.37l-9.65-13.75A107.52,107.52,0,0,0,373.85,508l-8.17-42.71a285.15,285.15,0,0,0,13,37.14,184.22,184.22,0,0,1-5.56-31A79.56,79.56,0,0,1,381,490.55" transform="translate(18.65 -149.4)"/><path class="cls-9" d="M633.7,432.71l-2.06,2.07" transform="translate(18.65 -149.4)"/><path class="cls-9" d="M390.3,447.19c-1.67,14.67-2.66,29.43-3,44.19A232.19,232.19,0,0,0,386,452.46a183.45,183.45,0,0,0,1.5,47.16c-.75-13.38-4.54-26.43-9.38-38.93-.41,6.76-2.36,15.77-.55,22.22C388.18,480.66,389.37,455.29,390.3,447.19Z" transform="translate(18.65 -149.4)"/><path class="cls-8" d="M597.24,458.17l2.07,4.81" transform="translate(18.65 -149.4)"/><path class="cls-8" d="M247.15,483a240.54,240.54,0,0,0-18.69,37.67c-.94-17.59,3.31-35,7.53-52.1a197.81,197.81,0,0,0-13.86,41,228.88,228.88,0,0,1,21.56-49.27l-2.06,23.64c-.41,4.68-.58,10.06,2.81,13.31" transform="translate(18.65 -149.4)"/><path class="cls-10" d="M192.69,511.94l37.54,20.22a88,88,0,0,1-38.55-19.93c11.52,4,22.54,9.33,33.4,14.89A63.42,63.42,0,0,1,195,511.63l26.5,11.48" transform="translate(18.65 -149.4)"/><path class="cls-10" d="M176.8,498.86l27.55,34.62a306.61,306.61,0,0,1-19.86-31.83,107.37,107.37,0,0,0,23.4,19.3,155.28,155.28,0,0,0-15.14-21.41c12.11,5.73,20.53,19.8,33.91,20.38A77.9,77.9,0,0,1,212,502.12a56.36,56.36,0,0,0,22.71,5.75c-2-2.39-4-4.84-6.7-6.39s-6.22-2-8.86-.41-3.68,5.74-1.52,8a229.38,229.38,0,0,0,26.58-22.63L222.1,508.68a119.81,119.81,0,0,1,20.22-33.13,138.91,138.91,0,0,1-19.24,17.68,121.92,121.92,0,0,1,15.23-25.32,119.85,119.85,0,0,1,0,24.69,105.82,105.82,0,0,1,.94-42.61,142.76,142.76,0,0,1,7.23,42.19L243,462.81q5.32,23.93,12.65,47.37L256,507" transform="translate(18.65 -149.4)"/><path class="cls-10" d="M272.56,531.8l64.9-7.17a218.29,218.29,0,0,1-54.42,0L335.87,507a144.17,144.17,0,0,1-39.64,17.49c-5.11,1.39-10.73,2.76-14,7,24.82,2.3,49.23-6.24,72.69-14.65-15.48,4.43-31.09,8.9-45.36,16.38a179.49,179.49,0,0,0,47.5-20.53c9.51-5.86,19.06-13.44,21.92-24.24" transform="translate(18.65 -149.4)"/><path class="cls-10" d="M354.41,469.86l7.93-34.61a166.66,166.66,0,0,0,0,41q.48-27.51-.53-55a183.11,183.11,0,0,0,11.75,45.51l-3.25-60.2,11.49,48.13a450.78,450.78,0,0,0-11.12-54.46l-2.11,64.68c-3.34-10.26-4.91-21-6.46-31.66q-3.16-21.85-6.34-43.7l9.09,54.15A512.23,512.23,0,0,1,352.69,380a267.2,267.2,0,0,0,11.42,40.22c1.89,5.12,4.18,10.48,8.7,13.54.81-18.95-8.55-37.16-8.26-56.12a296.1,296.1,0,0,0,5.78,35.26q-2.93-22.38-7.93-44.43a231.2,231.2,0,0,0-1.75,38.2l-8.4-36.11q-.57,20.08.15,40.18a178,178,0,0,1-4.63-39.56q5.84,20.94,9.93,42.31" transform="translate(18.65 -149.4)"/><path class="cls-10" d="M329,386.62l-32,1.61,53.86-3.06c-24.35,6.41-51.39-.53-74.61,9.23a314.67,314.67,0,0,0,57-16.51,292.31,292.31,0,0,0-30.47-1.23,52.94,52.94,0,0,0,34.11-5.8,39.08,39.08,0,0,0-21.44,9.79q19.39-4,38.63-8.76c-13.93,11.16-32.23,14.87-49.77,18.23-5.38,1-10.81,2.07-16.29,1.87-12.48-.45-23.75-7.2-34.39-13.74a92.88,92.88,0,0,0,31.06,15.36,433,433,0,0,1-49.82-4.45l30.33,1.25a71.68,71.68,0,0,1-44.06-6,162,162,0,0,0,32.38,5.25,98.91,98.91,0,0,1-38-14.92l35.86,7.09a122.61,122.61,0,0,1-34-6.84l42.69,10.15L207.21,377" transform="translate(18.65 -149.4)"/><path class="cls-10" d="M238.84,345.39,270.9,352a66.43,66.43,0,0,1-29.2-7.37l14.06,1.13a149.83,149.83,0,0,0-26.21-12q18.73-.8,37.5-.07" transform="translate(18.65 -149.4)"/><path class="cls-10" d="M207.89,384.64A89,89,0,0,1,236.24,392a133.88,133.88,0,0,1-37-4.29,75.26,75.26,0,0,0,32.07,6.38,121,121,0,0,1-40.39-13,180.66,180.66,0,0,1,23.63,10.72,50.28,50.28,0,0,1-31.8-15.67l27.61,18-4.76-4,43.73,22.26L229,401.22a191.09,191.09,0,0,1,34,22.56" transform="translate(18.65 -149.4)"/><path class="cls-10" d="M282.18,392.08c15.67-1.27,31.5-2.56,46.5-7.25a421.94,421.94,0,0,1-74.58,22.53,226.51,226.51,0,0,0,43.19-15.7,70.64,70.64,0,0,1-60.12-7c8.88,7.48,18.89,13.49,28.86,19.47l-16.2-6.49c-1.29-.51-2.78-1-4-.38-1.53.81-1.74,2.89-1.61,4.61a31.55,31.55,0,0,0,3.46,12.17A24.65,24.65,0,0,0,246,403.31a47.94,47.94,0,0,0,5.54,14A58.56,58.56,0,0,1,261.39,402l3.46,17.75a198,198,0,0,1,9.42-23.06,42,42,0,0,1-.73,21.57A61.49,61.49,0,0,1,304,388.78a27.19,27.19,0,0,1-18,16.92l38.62-22.53-6.94,26.9a116.82,116.82,0,0,1-2.23-21.91l6,19.7L321,388.69a16.76,16.76,0,0,0,6.18,8.84l1.76-12.16a2.81,2.81,0,0,1,.63-1.7c1.09-1.07,2.87.11,3.84,1.29a51.26,51.26,0,0,1,5.81,8.62l-1.3-12.67,9,12.56" transform="translate(18.65 -149.4)"/><path class="cls-10" d="M286,452.68a260.45,260.45,0,0,0,4.84,60.21L288,412.23c-.75,20.5-1.5,41-.46,61.52.38,7.32,1.15,15.1,5.63,20.91" transform="translate(18.65 -149.4)"/><path class="cls-10" d="M666,293.76l-3.44,7.56" transform="translate(18.65 -149.4)"/><path class="cls-10" d="M315.2,419,277.37,421c-6.28,5.36-7.44,15.78-6.88,24l3.15,46.17-5.38-79.86a217.63,217.63,0,0,0,1.57,79.24c5.55-26.16-1.82-54.07,5.53-79.78-.39,29.62-.79,59.33,2.34,88.79.24,2.25,1,5,3.2,5.43,1.92-27.24-.57-54.58-3.06-81.77q2.43,42.48,8.92,84.6c4.13-30.18-5.61-60.85-2.47-91.14l11.34,88.95" transform="translate(18.65 -149.4)"/><path class="cls-10" d="M206.52,493.25l-4.83-11.39a28.91,28.91,0,0,0,1.9,16.25,73.43,73.43,0,0,0-4.41-29.66q-.44,17.46-.19,34.92a286.16,286.16,0,0,1-1.53-50.6q.56,17.82-.37,35.65l-4.38-22.74c1,17.24-2.53,35.46,4.58,51.2,2.49-.16,2.79-3.75,2.13-6.16a48.42,48.42,0,0,0-8.83-17.27,62.84,62.84,0,0,0,7.22,18c.85,1.43,2.27,3,3.85,2.51a3.3,3.3,0,0,0,1.82-2.48c1-3.8-.15-7.79-1.28-11.55l-11.12-36.89" transform="translate(18.65 -149.4)"/><path class="cls-10" d="M196.13,394.19a9.78,9.78,0,0,0-1.89-5.22,61.8,61.8,0,0,1-4.93,19.83,81,81,0,0,1,7-31.7c-1.83,11.51-5,22.75-8.24,34a117,117,0,0,1,23.69-20.55,38.5,38.5,0,0,1-17.53,13.6,8.2,8.2,0,0,1-4.34.71,3.26,3.26,0,0,1-2.79-3c0-1.39,1.23-2.43,2.35-3.26a64.48,64.48,0,0,1,18.87-9.66q-5.91-.76-11.87-1a53.39,53.39,0,0,1,19,2.86" transform="translate(18.65 -149.4)"/><path class="cls-10" d="M608.25,315.77l-2.75.69" transform="translate(18.65 -149.4)"/><path class="cls-10" d="M289.06,421.71l1.38-16.51" transform="translate(18.65 -149.4)"/><path class="cls-10" d="M233.34,429.27l-7,0c8.77-.26,17.56-.12,26.32.4-4.14,3.39-9.19,5.44-14.16,7.45l-18.3,7.38a38.07,38.07,0,0,0,25.45-.35l-18.61-10.25a129.73,129.73,0,0,0,19.82,20.21,183,183,0,0,1-18.28-13c9.24,4.57,19,9.25,29.3,8.72q-7.62-9.28-15.72-18.18c6.24,3.23,13,6.55,20,5.68-11.74-3.14-24.43-6.26-35.8-1.93A308.13,308.13,0,0,0,260.12,448c-.34,2.08-2.82,2.91-4.89,3.3a160.86,160.86,0,0,1-28.3,2.67c0,2.16,2.4,3.41,4.46,4.08a135.71,135.71,0,0,0,25.58,5.7q-11.09-.84-22.2-.75l20.6,0a18.32,18.32,0,0,1-3.08,8.05c-3.24-21.08-17-38.78-25.71-58.26A251.66,251.66,0,0,0,251,429.65a193.73,193.73,0,0,1-21-14.91,107.62,107.62,0,0,0,13.63,7,26.48,26.48,0,0,0-4.09-4.87" transform="translate(18.65 -149.4)"/><path class="cls-10" d="M561.39,310a13.41,13.41,0,0,1,6.26-.38" transform="translate(18.65 -149.4)"/><path class="cls-10" d="M260.78,426.4a166.29,166.29,0,0,1,43.65-18.92L263.77,434l14.86,6.57a36.94,36.94,0,0,1-19.46-5.14L279.42,445a26.13,26.13,0,0,0-12.63,4,48.65,48.65,0,0,0,21.64,8.16l-17.14,6.13a3.65,3.65,0,0,0-2.15,1.44c-1,1.88,1.61,3.55,3.64,4.11L290,473.61l-16.87,8.06c.19,2.93,4.27,3.37,7.21,3.24s7,1.63,6,4.37a4.75,4.75,0,0,1-1.5,1.78l-12.37,10.5a52.45,52.45,0,0,0,16.63,4.72" transform="translate(18.65 -149.4)"/><path class="cls-10" d="M622.09,352.29a9.37,9.37,0,0,0,1.85-5.56" transform="translate(18.65 -149.4)"/><path class="cls-10" d="M196.87,552.27a41.28,41.28,0,0,1-28.07-6.79,156.93,156.93,0,0,0,33.83,18.59,47.32,47.32,0,0,1-32.51-2.83l26.41,3.2a190.59,190.59,0,0,1-29.15-16.09c-6.38-4.29-12.59-9.06-17.17-15.25-1.38-1.86-2.51-4.74-.76-6.27s4.59.14,5.14,2.33-.42,4.44-1.37,6.49a24.77,24.77,0,0,1,.88-13.3l8.13,21.37c1.33,3.49,2.94,7.31,6.32,8.9a40.5,40.5,0,0,1,3.08-21.49,39.9,39.9,0,0,0,4.71,27.26,26.66,26.66,0,0,0-13.58-19c-1.43,1.24-1.52,3.53-.71,5.24a12.48,12.48,0,0,0,3.8,4.16c12.51,10,27.91,18.88,43.71,16.24a171.52,171.52,0,0,1-28.5-11.23,209.37,209.37,0,0,0,26,4,72.06,72.06,0,0,1-31-13.14l36.94,9-29.4-8.79A135.5,135.5,0,0,0,232,553.42" transform="translate(18.65 -149.4)"/><path class="cls-10" d="M377.09,538.61a260.82,260.82,0,0,1-25.67,11.48c8.73-10.62,23.13-14.51,36.71-16.63,8.87-1.38,18.77-2,26,3.28" transform="translate(18.65 -149.4)"/><path class="cls-11" d="M266.35,296.53a90.83,90.83,0,0,1,10.75,8.82,36.86,36.86,0,0,1-11.31-3.81,5.91,5.91,0,0,1,3.79,1.11,8.2,8.2,0,0,1-6.05-4.66,59.79,59.79,0,0,1,14.39-.79,34.43,34.43,0,0,1-20.6-6A83.94,83.94,0,0,1,291.7,294q-13.86,1.48-27.76,2.55a66.14,66.14,0,0,1,23.48,2.79,56.72,56.72,0,0,1-27,4.46c-1.06-1.34-.5-3.45.77-4.6a9.35,9.35,0,0,1,4.71-1.86,64.29,64.29,0,0,1,27.33,1l-2.78-1.78" transform="translate(18.65 -149.4)"/><path class="cls-11" d="M272.55,277.94l-.68.68" transform="translate(18.65 -149.4)"/><path class="cls-11" d="M268.7,278.81a30.74,30.74,0,0,1-5.37-1.25,28.16,28.16,0,0,1,3.78-2.32,35.36,35.36,0,0,1,6.74-2.54,12.51,12.51,0,0,0-4.28-.43c1.72,2.57-4.76,20.84-6.24,25.62a40.31,40.31,0,0,1-1.07-12.24,20,20,0,0,0,3.3,10.23l2.23-16.12L269.2,297A110.85,110.85,0,0,1,270,274.5l4.1,15.64a45.78,45.78,0,0,1,2.4-17.06,118.43,118.43,0,0,1,.83,22,93.25,93.25,0,0,1,.73-18.29,120.32,120.32,0,0,0,4.54,25.95" transform="translate(18.65 -149.4)"/><path class="cls-11" d="M278.16,267.28a23.89,23.89,0,0,1-3-16.1c-1.61,7.33-1.43,14.93-1.25,22.43a109.2,109.2,0,0,0,.64-18.17c-.53,6.62-1.31,13.23-2.33,19.79a111.85,111.85,0,0,1-1.11-18.83,82.49,82.49,0,0,1-.68,15.15,80.47,80.47,0,0,1-1.37-16.17v16.87a56.4,56.4,0,0,1,.49-11.54" transform="translate(18.65 -149.4)"/><path class="cls-11" d="M250.71,257.56l54.18,3.12a374,374,0,0,1-59.17-7.57l45.22,4.13q-28.53-3.23-56.79-8.46l33.37,10.85a118,118,0,0,1-31.07-9.39q37.67,1.62,75.37.34a120.19,120.19,0,0,0-50.44,1.83c18.39,2.84,37.1-.8,55.36-4.42A182.84,182.84,0,0,0,283,261.5,147.11,147.11,0,0,0,319.31,253c-30.42,3.49-61.16.07-91.59-3.34l22.52,7.22q-15.15-5.29-30.66-9.48l8.25-7.18-4.53,3.68a59,59,0,0,1,5.63-10.25q18.18,3.92,36.15,8.65a219.48,219.48,0,0,0-29.88-5.65l59.09,3.51-39.13,2.08,44.92-8.53a41.76,41.76,0,0,0-16.26,5.15,97.15,97.15,0,0,0,29.58-7.66l11.74,19.89-8.59-10.42c-.47,4,4.08,8.72,1,11.28a5.6,5.6,0,0,1-3.35.92A116,116,0,0,1,286.62,251l20-.59c-16.21-.31-43.12,2.22-57.3-6.63,14.64-1.23,33.21,4.16,47.41,7.28C282.84,254.61,265.11,258.44,250.71,257.56Z" transform="translate(18.65 -149.4)"/><path class="cls-11" d="M230.64,249.08a142.17,142.17,0,0,1,11.45-14.66C239.15,239,231.35,243.72,230.64,249.08Z" transform="translate(18.65 -149.4)"/><path class="cls-11" d="M226.46,239.42a53.49,53.49,0,0,1,26.82,10.32" transform="translate(18.65 -149.4)"/><path class="cls-11" d="M249.24,236.69A79.82,79.82,0,0,0,244,253.8" transform="translate(18.65 -149.4)"/><path class="cls-11" d="M287,235.27a67.12,67.12,0,0,0,14.43,12.41" transform="translate(18.65 -149.4)"/><path class="cls-11" d="M285.68,253.89c2.26-3.53,10.67-18.84,15.33-18.66,6.13.22,3.34,10.93,1.81,13.81" transform="translate(18.65 -149.4)"/><path class="cls-11" d="M222.93,233.65a178.77,178.77,0,0,1,57.64-12.86c9.05-.48,18.46-.2,26.68,3.62a8.26,8.26,0,0,1,4.11,3.34c1.87,3.66-1.59,7.77-5,10.08-10.63,7.19-23.82,10.2-36.63,9.44s-25.25-5.14-36.35-11.6l17.83-.6-8.16-2.59a79.39,79.39,0,0,1,12.89,2.25,24,24,0,0,1-12-4.94l9.82,3.26a16.91,16.91,0,0,1-3.84-4.12A87.17,87.17,0,0,1,261,235.82a49.89,49.89,0,0,1-6.88-10.75,77.85,77.85,0,0,0,12.32,8.78l-5.55-8,9.64,6.48-4.1-5.17a12.29,12.29,0,0,1,6.13,3.33" transform="translate(18.65 -149.4)"/><path class="cls-3" d="M313.57,289.61c-4.42,0-9.25.49-13.51-.34C304.24,288.21,309.28,289,313.57,289.61Z" transform="translate(18.65 -149.4)"/><path class="cls-3" d="M259,300.13a248.27,248.27,0,0,1-63-42.77A455.73,455.73,0,0,0,253.59,301c-19.89-10.63-39.87-21.31-58-34.76-4.46-3.32-8.85-6.85-12.14-11.32A32.61,32.61,0,0,1,179,225.47c-.73,5.52.3,11.1,1.32,16.57l-.13-20.25A313.22,313.22,0,0,0,225.82,212a74.27,74.27,0,0,0-41,8.91,206.35,206.35,0,0,0,59.59-14.65q-17.33,4.55-34.46,9.85l41.23-11.65L233,211.41a56.09,56.09,0,0,0,20.15-5.11l.15,6.77,0,5.64-.82-6.88a60.81,60.81,0,0,1-21.86,24.68L236,228l-24,18.35a60.07,60.07,0,0,1,14.48-20.18,127.17,127.17,0,0,0-20,18.63,460,460,0,0,0,38.25,29.46L219.9,250.42l30.42,20.63-18.55-13.54,23.58,21.21c3.93,3.54,8,7.37,9.39,12.48" transform="translate(18.65 -149.4)"/><path class="cls-3" d="M288.38,297.89l-.69-.69" transform="translate(18.65 -149.4)"/><path class="cls-3" d="M193.45,234.6l11.09-5.21a17.43,17.43,0,0,1-10.17,10.11c2.85-1.29,6.44-2.45,8.86-.48,2.86,2.34,1.35,7.41-1.86,9.23s-7.18,1.4-10.84.93a338.06,338.06,0,0,0,32.66,21.5,154.19,154.19,0,0,1-21.3-16.07L243.29,283a136.55,136.55,0,0,1-47.24-39.3,693.79,693.79,0,0,1,70.79,52L214.69,263l33.4,29.45a89.44,89.44,0,0,1-43.54-28.55,190.89,190.89,0,0,1,50.12,20.93" transform="translate(18.65 -149.4)"/><path class="cls-3" d="M273.24,265.55v.69" transform="translate(18.65 -149.4)"/><path class="cls-3" d="M240.91,297.2a52.52,52.52,0,0,1-13.71-.84l7.48-1.38-3.22-1.12a4.58,4.58,0,0,0,4.29-2.1,245.33,245.33,0,0,1-98-81.5,15.53,15.53,0,0,1-3-5.95c-1.28-7,6.7-12.8,6.55-19.91l89,4.24a17.26,17.26,0,0,1-.54,8.79q-31.1,6-62.5,10.35a58.21,58.21,0,0,1,15,20.7" transform="translate(18.65 -149.4)"/><path class="cls-3" d="M157.78,209.11a115.36,115.36,0,0,0,9.88,20,71.24,71.24,0,0,0-11.35-17.95,207.24,207.24,0,0,0,16.18,31.11,147.83,147.83,0,0,0-19-19.43,94.48,94.48,0,0,0,11.37,22.87c.84,1.24,2.26,2.62,3.61,2,1.19-.59,1.18-2.25,1-3.57q-1.92-14.09-3.89-28.17l9.33,30a166.63,166.63,0,0,1-2.13-21.61,38.7,38.7,0,0,1,2.8,17.64,74.81,74.81,0,0,1,1.7-16.42,37.9,37.9,0,0,1-4.5,21.46,25.88,25.88,0,0,1-1.36-7.08,2.09,2.09,0,0,1-.59,2.24,63.17,63.17,0,0,1-22-29.2l15.47,8.23a27.23,27.23,0,0,1-15.79-13,26.82,26.82,0,0,1,6.14-1.27l-8.81-5.21" transform="translate(18.65 -149.4)"/><path class="cls-3" d="M165.93,187.13a125.6,125.6,0,0,0,1.38,20" transform="translate(18.65 -149.4)"/><path class="cls-3" d="M174.18,205.71l-2.75-8.26c1,3.21,6,3,7,6.18l.13-8.33,2.8,8.41,1.28-8.37a26.4,26.4,0,0,0,2.68,7l1.46-7a19.4,19.4,0,0,1,2.79,8.32l1.33-7.62a6.94,6.94,0,0,0,3.71,3l-28.5-5.86q24.91-1,49.84-.51A93.72,93.72,0,0,1,189,189.74q14,.31,27.89,1.82a41.9,41.9,0,0,1-30.25-1.12" transform="translate(18.65 -149.4)"/><path class="cls-3" d="M283.65,292.19a187.23,187.23,0,0,1,15.94-36.83" transform="translate(18.65 -149.4)"/><path class="cls-3" d="M312.45,229.1l-.14.69,6.49-16.51L304,215.13a6,6,0,0,1-3.4-.22,5.88,5.88,0,0,1-2-2,88.35,88.35,0,0,1-8.62-14.54A217.76,217.76,0,0,1,341.22,185l5,15.87-3.06-7.13a96.39,96.39,0,0,0,5.79,16.8,136.69,136.69,0,0,0-23.23,23.87c-2.54,3.34-5,7-5.22,11.22" transform="translate(18.65 -149.4)"/><path class="cls-3" d="M290.7,291.75c2.33-8.94,8.16-16.49,13.85-23.77l7.62-9.75" transform="translate(18.65 -149.4)"/><path class="cls-3" d="M322.77,209.83h0" transform="translate(18.65 -149.4)"/><path class="cls-3" d="M323,215.26c.11.53-.92.54-1.05,0s.3-1,.71-1.38a39.34,39.34,0,0,1,11.73-7.42A28.07,28.07,0,0,1,321.61,219l-.22-3" transform="translate(18.65 -149.4)"/><path class="cls-3" d="M322,206.35a24.27,24.27,0,0,1,12.22-6.21,33.63,33.63,0,0,1-12.09,9.52,4,4,0,0,1,.62-2.56" transform="translate(18.65 -149.4)"/><path class="cls-3" d="M326.21,194l2.75-.69" transform="translate(18.65 -149.4)"/><path class="cls-3" d="M313.09,201.52a22.25,22.25,0,0,1,7.48-4.61A15.29,15.29,0,0,0,309.92,200a23.28,23.28,0,0,0,12.79-1.7,75.61,75.61,0,0,1-13.6,11.31,155.53,155.53,0,0,1,15.7-9.15,38,38,0,0,1-16.44,3.91,14.29,14.29,0,0,1,8.46-8,81.57,81.57,0,0,1-11.29,6.5" transform="translate(18.65 -149.4)"/><path class="cls-3" d="M316.55,230.45l4-5.87-4.69,7.16a18.33,18.33,0,0,1,3.86-8.57,17,17,0,0,1-1.82,12.09" transform="translate(18.65 -149.4)"/><path class="cls-3" d="M299.38,261.43l-.1-3.14a49.54,49.54,0,0,0-7.8,16.81" transform="translate(18.65 -149.4)"/><path class="cls-3" d="M307.56,295.44l-10.27-2.65a25.88,25.88,0,0,1,17.92-.65A41.83,41.83,0,0,1,293,289.21a38,38,0,0,1,19.2.44,233.3,233.3,0,0,1,51.35-30.81c6.57-2.87,13.83-5.94,17-12.36-17.32-11.07-40.65-4.8-60-11.8a106.11,106.11,0,0,1,3.56-17.2c23.21-1.58,46.35,3.05,69.15,7.65a10.86,10.86,0,0,1,4.82,1.81c1.62,1.33,2.32,3.44,2.94,5.44q3.68,11.77,7.34,23.53a225.34,225.34,0,0,1-123,41.62,4.24,4.24,0,0,1,.33-5" transform="translate(18.65 -149.4)"/><path class="cls-3" d="M352.41,271.46c-.72,0-1.12-.94-.87-1.62a3.29,3.29,0,0,1,1.53-1.46,61.38,61.38,0,0,1,21.11-7.77,51,51,0,0,1-23.61,14.72,18.87,18.87,0,0,1,17-15.12,68.77,68.77,0,0,1-8.5,9.54c-1.67,1.55-4.05,3.12-6.07,2.05" transform="translate(18.65 -149.4)"/><path class="cls-3" d="M388.8,254.62a43,43,0,0,0,13.62-.86l-14.31,1.67c-.7-4.48,3.94-7.79,7.95-9.91a11.56,11.56,0,0,1-15.68-1.14" transform="translate(18.65 -149.4)"/><path class="cls-3" d="M385.29,231.23a36.77,36.77,0,0,1,6.49,10.64l-.16-3.6a8.36,8.36,0,0,1,4.63,8.77c-7.14.89-13.05-5.16-17.68-10.67l10.65,5" transform="translate(18.65 -149.4)"/><path class="cls-3" d="M356.46,226.37a57.45,57.45,0,0,0,17.91,4.72" transform="translate(18.65 -149.4)"/><path class="cls-3" d="M380.55,227.72l-.68.69" transform="translate(18.65 -149.4)"/><path class="cls-3" d="M351,230.51c8,3.06,16.67,3.63,25.21,4.18a144.72,144.72,0,0,1-26.52-3.76,58.58,58.58,0,0,0,20.29,8c-6.47-.66-12.73-2.64-18.93-4.61l-15.61-5a82.1,82.1,0,0,0,32.36,9,174.17,174.17,0,0,0-28.27-9.56,65.57,65.57,0,0,0,15.39,7.35,97.41,97.41,0,0,1-27.8-6,17.54,17.54,0,0,0,6.74,5.06" transform="translate(18.65 -149.4)"/><path class="cls-11" d="M226,274.5c14.47,5.49,29.13,11.06,41.77,20A199.86,199.86,0,0,1,231.59,282a64,64,0,0,1,23.27,10.71" transform="translate(18.65 -149.4)"/><path class="cls-11" d="M164.47,236.36l15.24,11A52.32,52.32,0,0,1,168.85,240l8.64,8.91a62.86,62.86,0,0,1-9.59-7l13.77,12a66.53,66.53,0,0,1-13.22-24.56,36.52,36.52,0,0,1,8.18,10.92l-11.47-8.12,2,3.27a74.85,74.85,0,0,1-22.15-14,162,162,0,0,1,18,9.84,67.6,67.6,0,0,1-15.19-12.71" transform="translate(18.65 -149.4)"/><path class="cls-11" d="M301.24,261.44l-.92.65,3.46-2.37a53,53,0,0,1-6.06,15,24.23,24.23,0,0,1,2-11.17A61.65,61.65,0,0,1,293.1,275l3.41-6a78.22,78.22,0,0,0-4.92,15.3" transform="translate(18.65 -149.4)"/><path class="cls-11" d="M306.68,284.77,346,280l-26.61,12.92c6.08-6.09,15.24-7.49,23.63-9.41a132.32,132.32,0,0,0,47-21.11" transform="translate(18.65 -149.4)"/><path class="cls-11" d="M335.28,232.69c0,1.86,2.35,2.64,4.19,2.91L370,240.11a111,111,0,0,1-31.91-4.22l34.75,5.31-.95-1.31" transform="translate(18.65 -149.4)"/><path class="cls-11" d="M339.74,216.05c1,1,2.74.29,3.93-.51a52,52,0,0,0,8.48-7.11c-3.34-1.62-6.88-3.44-8.62-6.72-.8-1.51-1.77-3.61-3.44-3.24" transform="translate(18.65 -149.4)"/></svg>