<svg id="Livello_1" data-name="Livello 1" xmlns="http://www.w3.org/2000/svg" viewBox="0 0 588.32 415.99"><defs><style>.cls-1,.cls-2,.cls-3,.cls-4,.cls-5,.cls-6,.cls-7{fill:none;}.cls-2,.cls-5,.cls-7{stroke:#000;}.cls-2,.cls-3,.cls-4,.cls-5,.cls-6,.cls-7{stroke-miterlimit:10;}.cls-2,.cls-6{stroke-width:3px;}.cls-3,.cls-6{stroke:#5c809b;}.cls-4{stroke:#f8b03b;}.cls-4,.cls-5{stroke-width:2px;}</style></defs><path class="cls-1" d="M236.52,338.6l.34.84"/><path class="cls-2" d="M158.84,248.71l1.08-7-2.38,19.14,4.12-21.17-3.24,20.53,1.46-23.35a149.79,149.79,0,0,0-2.64,26l.28-9a188.09,188.09,0,0,0,.76,24.78l.08-10.6a26.76,26.76,0,0,0,8.71,13.37l-6-3.93,24.06,18.38a95.7,95.7,0,0,1-18.22-11.27q15.57,8.59,30.74,17.93a273.9,273.9,0,0,1-28-18.75l38.44,37.44a227.28,227.28,0,0,1-18.67-16.7l29.87,17.9a68,68,0,0,1-19-12.49,121,121,0,0,0,30.58,14.63,73.69,73.69,0,0,1-23.67-8.11,271.92,271.92,0,0,0,54.7,20.05,93.56,93.56,0,0,1-22-5.18l24.11,2.43-6.32-2a132.57,132.57,0,0,1,15.79,1.46A47.67,47.67,0,0,0,260,334.52a253.45,253.45,0,0,1,28.89,4.3l-8.17,0c5.18-2,10.47-3.84,15.83-5.37l-2.85,2.81,7.35-3.92-4,3.31,2.68-2.46-6.93,2.22a41.26,41.26,0,0,1,11.65-4l-11.22,2.3,1.88-1.89"/><path class="cls-2" d="M301.55,319.36v-.46"/><path class="cls-2" d="M160.38,239.56a31.53,31.53,0,0,0,3.9-9.65A56.73,56.73,0,0,0,168,247.36a50.26,50.26,0,0,0-3.68-12.83,164.68,164.68,0,0,0,14.32,31.78,80.29,80.29,0,0,0-8.27-15.18,100.45,100.45,0,0,0,16.15,24.74,88.07,88.07,0,0,1-10.13-8.78A106.48,106.48,0,0,0,199.55,288a32.42,32.42,0,0,1-22.35-26.42,137,137,0,0,0,33.27,36.65l-20.09-20,30.23,21.41a96.53,96.53,0,0,0-15.23-10.77q24.52,13.77,50,25.65a59.93,59.93,0,0,1-27.74-17.33A135.81,135.81,0,0,0,259,303.31q-13.71-3.3-27.11-7.73l36.5,4.91L245.6,299l22.6,1a122.3,122.3,0,0,1-16.56-1A178.56,178.56,0,0,0,284,301.36l-8.21-.48A73.09,73.09,0,0,1,297,305l-4.72-3c.89.33,1.21,1.38,1.5,2.28s.87,1.92,1.82,1.92,1.06-1.89.15-1.63l1.75,3.15a14.18,14.18,0,0,0-2.37-5"/><path class="cls-2" d="M302.47,315.67v-.46"/><path class="cls-2" d="M163.87,229c1-2.88,2-5.81,2.8-8.77A34.08,34.08,0,0,1,163,231.07a64.26,64.26,0,0,1,6.13-17.33,19,19,0,0,1-1.12,5,38.73,38.73,0,0,1,5.42-11.18,5.42,5.42,0,0,1,2.11-2,5.65,5.65,0,0,1,2.28-.3l20.19.07L180.3,211c-.84.26-1.9.92-1.57,1.75"/><path class="cls-2" d="M174,255.6l-.46,1.69A36.77,36.77,0,0,1,191,246.43a84.28,84.28,0,0,1-12.16,6.38,50.23,50.23,0,0,1,19.73-10c-5.85,4.36-12,8.86-19.17,10.14,7.35-8.23,18.6-11.54,29.23-14.49L205,239"/><path class="cls-2" d="M182.48,242.25a30.87,30.87,0,0,1,1.82-13.76l0,14.63q1.14-10.81,3.34-21.5.57,9.88.43,19.79l4.4-24,.24,21.12c.81.38,1.42-.8,1.53-1.69L197.57,211l.16,29.51a3.94,3.94,0,0,0,.58-2.09l2.39-28.15,2.58,24,.74-15c.12-2.41-.25-6.26,1.36-7.57,1.58,7.09,1.35,15,2.28,22.32"/><path class="cls-3" d="M196.74,255.19h-.46"/><path class="cls-3" d="M307,311.76a70.72,70.72,0,0,0-4.83,19,81.18,81.18,0,0,1,8.5-28.33L303,329a115.36,115.36,0,0,1,5.27-28.15,36.89,36.89,0,0,1-1.74,11.23,48.36,48.36,0,0,1,4.36-18.89l-3.58,6.32c.55-2.36,1.14-4.81,2.65-6.71s4.22-3.06,6.42-2l-5.22.88,5.05-1-4,.88a86.25,86.25,0,0,1,15.65.77l-9.71.67q10.53-2.43,20.86-5.59a86.87,86.87,0,0,0-18.83,2.78l25.78-9A131.54,131.54,0,0,0,328.29,287l30.14-8.45-12,4,20.22-4.07"/><path class="cls-3" d="M372.19,279.66a11.09,11.09,0,0,0-4.95.53A19.88,19.88,0,0,1,379,282l-4.85-1.91q6.28,4.44,12.21,9.38l-7.72-6.38,9.56,7.8-6.48-5.33c2.39,3.21,5.87,5.49,8.21,8.74s3.1,8.32,0,10.9l.23-4-.92,5.64v6.93l-.49-7.64a56.73,56.73,0,0,0,2.37,10.86A85.2,85.2,0,0,1,390.12,301c.74,8,1.88,16,3.41,23.92a96.93,96.93,0,0,1-2.11-25.25l2.71,16-1.51-6.81c1,4,2.07,8.12,1.66,12.24s-2.56,8.32-6.34,10l3.85-2.31a3.5,3.5,0,0,0-2.57.45l4.7.73a111.45,111.45,0,0,0-19.41-.85l14,.94A91.82,91.82,0,0,0,374,332.33a52.83,52.83,0,0,0,12.86-1,86.22,86.22,0,0,0-18.4,2l11.12-2.89a110.6,110.6,0,0,0-25,5.94l14.54-4.7a226.84,226.84,0,0,0-23,5.41l31.18-5.3c-11.29,1.11-22,5.43-33.27,7.14s-24,.2-31.6-8.25l14.39,6.6-22.47-6.76,23.27,10.56-23.59-9,24.89,8.73-18.29-3.21a297.21,297.21,0,0,0,32.26,7.83l-25.26-6.86a102.79,102.79,0,0,1,3.57-18.48l-2,9a102.7,102.7,0,0,1,.35-13.92,104.64,104.64,0,0,0,2.78,16.4l-.49-18.88,2.56,23.61a69.16,69.16,0,0,1,.65-26.28,6.84,6.84,0,0,1-.85,3.4c.5-4.81,6.33-6.87,11.14-7.41a80.4,80.4,0,0,1,20.56.33L325.27,309a349.89,349.89,0,0,1,41-11.2A222.94,222.94,0,0,1,334,308.51,366.66,366.66,0,0,1,371.38,298L353,303.82l20.06-4.48L383,310.81l-5.91-9.92a42.57,42.57,0,0,1,11.22,10l-5.23-11.1a71.58,71.58,0,0,1,7.34,10.61l-8-14.84a56.81,56.81,0,0,0,7.11,9.37,55.51,55.51,0,0,0-5.56-13.7,111,111,0,0,0,6.11,12.85l-14.42-13a36.19,36.19,0,0,0,7.54,14.61q-6.62-12.08-14.37-23.47a75,75,0,0,0,7,12.14l-3.12-2.19"/><path class="cls-3" d="M336.07,292.15a18.12,18.12,0,0,0,4.2,6.34,2.72,2.72,0,0,0,1.65.95,3.16,3.16,0,0,0,1.74-.63,31.76,31.76,0,0,1,12.8-4.36,2.08,2.08,0,0,0,1.14-.36c.67-.59.27-1.68-.18-2.45-.92-1.57-1.89-3.12-2.89-4.65a3.21,3.21,0,0,0-1.13-1.18c-1.3-.64-2.67.6-3.72,1.6a16.44,16.44,0,0,1-11.56,4.53l21.52-2.16-17.05,6.52,20.66-4.21-28.83,4.35L366.2,289q-12.29.64-24.59.25l21.17-4.16q-9.12,2.37-18.09,5.28a221.48,221.48,0,0,1,24-3.84,87.54,87.54,0,0,1-22,8.9,5.07,5.07,0,0,1,.1-2.81"/><path class="cls-3" d="M397.13,285.2h.46"/><path class="cls-3" d="M320,309.67a4.37,4.37,0,0,1-1.45,1.92c-.23-6.65-.53-13.6-3.8-19.39a79.54,79.54,0,0,0,6.33,22.68,120.6,120.6,0,0,1-8.16-19.75l1.57,22.77a75.61,75.61,0,0,1-5.14-17.74l2.29,21.43a76.07,76.07,0,0,1-4.21-15.74,166.2,166.2,0,0,0,3.85,18.88,137.45,137.45,0,0,1-.34-20.19c.1-1.69.56-3.79,2.21-4.17a4.42,4.42,0,0,1,2.78.71,25.88,25.88,0,0,0,6.41,2.15l-2.77-4.14a71.14,71.14,0,0,1,7.36-1.38"/><path class="cls-4" d="M356,293.51l.47.46"/><path class="cls-4" d="M335.38,327.52a2,2,0,0,1-.25-2.81,3.26,3.26,0,0,1,2.84-1,4.67,4.67,0,1,1-3.2,8.4,5.87,5.87,0,0,1-2.07-5.32,10.73,10.73,0,0,1,2.46-5.35A5.66,5.66,0,0,1,338.6,319a3.83,3.83,0,0,1,3.87,2.46,5.13,5.13,0,0,1-.72,4.69,6.13,6.13,0,0,1-11-4.72,4.5,4.5,0,0,1,1.48-2.64c2.16-1.75,5.47-.38,7.47,1.56,1.69,1.65,3.07,3.89,2.81,6.24-.35,3.22-4.05,5.47-7.2,4.7a7.57,7.57,0,0,1-5.37-7.26,3.85,3.85,0,0,1,.94-2.85,5,5,0,0,1,3.38-1,11.64,11.64,0,0,1,5.47.81c1.66.83,2.94,2.74,2.44,4.53s-2.19,2.61-3.79,3.29c-2.38,1-5.56,1.7-7.22-.29-1.28-1.52-.8-4,.68-5.35a6.75,6.75,0,0,1,5.62-1.28,5.1,5.1,0,0,1,3,1.42,4.14,4.14,0,0,1,.54,4.38,6.68,6.68,0,0,1-3.3,3.16,3.67,3.67,0,0,1-3.61.12c-1-.73-.9-2.76.36-2.91"/><path class="cls-4" d="M354.65,323.06a9.91,9.91,0,0,0,7.1,3.77c-3.13-3.53-9.38-4.26-10.68-8.79a6.3,6.3,0,0,1,2-6.18,9.77,9.77,0,0,1,6.26-2.32c3.5-.12,7.43,1.63,8.3,5a6.88,6.88,0,0,1-2.31,6.59,12.84,12.84,0,0,1-6.68,2.8c-2.12.33-4.58.24-6.05-1.33a6.39,6.39,0,0,1-1.43-3.31,10,10,0,0,1,.06-4.56,7.61,7.61,0,0,1,7.18-5.27,8.76,8.76,0,0,1,7.64,4.87,4.91,4.91,0,0,1,.21,4.58c-.81,1.36-2.47,1.94-4,2.22a11.2,11.2,0,0,1-6.63-.63,6.38,6.38,0,0,1-3.8-5.2,3.94,3.94,0,0,1,.57-2.35c1.55-2.36,5.2-1.65,7.66-.27a6.68,6.68,0,0,1,2.62,2.26,2.73,2.73,0,0,1-.23,3.24,3.58,3.58,0,0,1-2.68.72,7.05,7.05,0,0,1-4-1.22,3.7,3.7,0,0,1-1.49-3.7,7.67,7.67,0,0,1,7.06,1.45l-5.62,1.44a15,15,0,0,1,6.74,1.69c-1.45.67-3.18,2-2.55,3.48a2.93,2.93,0,0,0,2.12,1.38,18.32,18.32,0,0,0,9.3-.06,18.1,18.1,0,0,0-11.42-.71c4.32-1.77,9.42-3.5,13.42-1.1a63.25,63.25,0,0,1-11.17,2,26,26,0,0,1,10.93-.78c1.6.23,3.33.6,4.78-.12,1.88-.91,2.56-3.41,1.94-5.4a9.14,9.14,0,0,0-4-4.66,12.26,12.26,0,0,0-6.95-2.24,7.19,7.19,0,0,0-6.15,3.49,48.44,48.44,0,0,1,7.31-4.41,61.48,61.48,0,0,1-7.13,9.76c1.78-2.45,3.64-5,6.29-6.43s6.34-1.51,8.39.71a2.06,2.06,0,0,1,.67,1.47c0,1-1.13,1.54-2.09,1.79-2.52.67-5.95,0-6.53-2.53a8.85,8.85,0,0,1,8.64,7.32,6.41,6.41,0,0,1-3.37-4.9,4.4,4.4,0,0,1-1.5,4.9"/><path class="cls-4" d="M411.44,272.27h.46"/><path class="cls-2" d="M375.84,170.77a.51.51,0,0,0-.79.35l2.22,1.42"/><path class="cls-2" d="M323.74,308.76a2.06,2.06,0,0,1,1.48-.94l-2.59,13.57a56.13,56.13,0,0,1,2.94-11.16l0,17.29a21.12,21.12,0,0,1,4.1-16.72,4.83,4.83,0,0,1,1.66-1.49,5.58,5.58,0,0,1,2-.37l14.77-.81a1,1,0,0,0-.89-1.18"/><path class="cls-2" d="M354,301.83a60.58,60.58,0,0,1,21.78-4.68,23.91,23.91,0,0,1-10.41,3.31,37.43,37.43,0,0,1,17,5.8,6.15,6.15,0,0,1-4.74-1.49,51.06,51.06,0,0,1,6,10.86,75.84,75.84,0,0,1-5.39-8.73"/><path class="cls-2" d="M323.72,288.43a6.7,6.7,0,0,0-1,3.22l-2.49-.76a136.11,136.11,0,0,0,7.19,15c-2.13-4.05-4.34-8.2-7.81-11.19a10.68,10.68,0,0,0,3.32,6.38q-2-3.39-4-6.72c-.71-1.13-1.76-2.42-3.07-2.16-1,.2-1.59,1.24-2.28,2s-2,1.3-2.67.47c-.48-.63-.22-1.76-.93-2.12a76.58,76.58,0,0,0-7.44,8.15v-1.7"/><path class="cls-2" d="M360.19,230.25l-1.85.93"/><path class="cls-2" d="M374.91,279.78c-.41-.08.17.51.53.29a99.27,99.27,0,0,0,22.45-19c-3.41,2.77-5.46,6.83-7.41,10.77l-5.38,10.85q13.77-16.26,26.47-33.39"/><path class="cls-2" d="M391.64,323.86a140.69,140.69,0,0,0,24.17-21.35,69,69,0,0,0-12.27,15.41q11.32-16.79,21.6-34.24l-8.08,15.85a225.88,225.88,0,0,1,8.37-29.4l-.07,3.84a87.17,87.17,0,0,1,5.1-23,31.67,31.67,0,0,0-1,7.81,42.52,42.52,0,0,1,1.35-15l-.9,8.14a123.77,123.77,0,0,0-1.23-16.54,108.43,108.43,0,0,0,.18,16.32L429,234a148.59,148.59,0,0,1-2,23,87,87,0,0,0-1.94-16.48"/><path class="cls-2" d="M411,210.87l4.94,2.37a13.63,13.63,0,0,1-3.24-2.3c5.2,6.07,14.15,15.06,12.91,23.82-1.74-3.73-2.88-7.88-4.46-11.73l3.18,10.35a12.55,12.55,0,0,0-1.35-7.63"/><path class="cls-5" d="M409,255c6.16-4.55,12.82-9.92,13.84-17.51a.79.79,0,0,0-.16-.75c-.21-.17-.62.08-.46.29"/><path class="cls-5" d="M406.45,259.81c0-3.14-1.84-5.95-3.69-8.48A207.06,207.06,0,0,0,385,230.13a139.12,139.12,0,0,0,18.24,17.92c-6.35-8.4-14-15.71-21.61-23a85,85,0,0,0,19.67,15.48A138.68,138.68,0,0,0,369.54,213l.81-1.26"/><path class="cls-5" d="M413.32,209.43q-14.71-10-28.46-21.35,16.11,11.85,33.08,22.47-15-9.8-29.26-20.75c-4.45-3.42-9.05-7-14.54-8.16a172.91,172.91,0,0,0,20.43,13.8c-11.17-6.55-23.36-13.33-36.24-12"/><path class="cls-5" d="M370.86,211.68a138.17,138.17,0,0,0-30.17-9.39,51,51,0,0,1,23.08,4.53c-10.86,1.63-21.91-4.84-32.61-2.41a133.43,133.43,0,0,1,21.95,1.84c-10.26.39-19.93-5-30.18-5.69a58,58,0,0,1,15.47,3.13l-19.33,3.21a121.26,121.26,0,0,1,4.58-20.82q-2.86,8.17-4.95,16.6a103.81,103.81,0,0,1,.37-15.67,212.32,212.32,0,0,1,39.79,3.35q-15.78-2.25-31.72-3.21c12.86-3,25.75-6,38.85-7.58a218.52,218.52,0,0,1-42.94-.88c6.35-1.43,12.92-1.53,19.43-1.63,9-.12,18.74-.06,26.17,5.09-14.73.71-28.93-6.88-43.67-6.15a141.5,141.5,0,0,1,44.47,17.74"/><path class="cls-5" d="M248.35,194.24a122.66,122.66,0,0,0-17.45.94c10.43-1.23,20.83-4.44,31.31-6.24a333.57,333.57,0,0,0,39.45-9.25c-21.68.84-44,1.86-63.62,11.19a410.84,410.84,0,0,0,56.18-9.38,355.06,355.06,0,0,0-39.68,1.41c-1.55.14-3.4.51-4,2-.82,2.14,1.91,3.85,4.13,4.4a52.61,52.61,0,0,0,49.3-14,134.33,134.33,0,0,0-52.24,8.5l20.12-6.12a229.82,229.82,0,0,0-35.44,7.13,69.27,69.27,0,0,1,15.61-1.14,78,78,0,0,0-28.76,1.5c-4.29,1-1.59,6.65-1,9.66-3.6-4.63,4.2-1.8,6-1.34C235.1,195.17,241.38,194.24,248.35,194.24Z"/><path class="cls-5" d="M222,196.11l-.89-5A216.52,216.52,0,0,1,218.87,214l.11-14.31a87.25,87.25,0,0,0,2.08,28,188.94,188.94,0,0,1,41-1.05,93.94,93.94,0,0,0-21.87,3.07A202.5,202.5,0,0,1,271,224.84l-17.09,2.92c15.23-1.66,31.32-3.66,43.44-13,5.06-3.92,9.41-9.1,15.45-11.2a2.14,2.14,0,0,0,1-.54,2,2,0,0,0,.07-1.79L306,173.58a8.54,8.54,0,0,0-6.56,2.84"/><path class="cls-5" d="M257.35,199.79a7.81,7.81,0,0,1-3.09-6.89c-.52,3,.65,6,2.14,8.66s3.36,5.1,4.44,7.93c2.05,5.4,1.05,11.49,2.36,17.11l1-.9"/><path class="cls-5" d="M258.46,198.44a140.57,140.57,0,0,1,27.76-7l.17,1.43"/><path class="cls-5" d="M265.59,203.6l15.69-6.19c1.93-.77,4-1.54,6.05-1"/><path class="cls-5" d="M266.37,211.61l13.86-7.34a5.2,5.2,0,0,1,2.74-.86c1,.07,2,.91,1.8,1.86"/><path class="cls-5" d="M270.2,218.75a129,129,0,0,1,13.24-10.42,3.43,3.43,0,0,1,2.36-.84c.84.14,1.46,1.32.81,1.88"/><path class="cls-5" d="M274.16,219.42a349.27,349.27,0,0,1,36.27-21.74"/><path class="cls-5" d="M294.09,191a49.58,49.58,0,0,0,7.69,19.08"/><path class="cls-5" d="M301.09,189.62c-1,4.78-1.27,6.46,1.41,10.6"/><path class="cls-5" d="M270.16,213.17a40.73,40.73,0,0,1,1.17-12.49,1.32,1.32,0,0,1,.57-1c.64-.32,1.26.46,1.55,1.12a71.33,71.33,0,0,1,3.65,10.44,39.39,39.39,0,0,1,0-14.28"/><path class="cls-6" d="M312.91,170.7l1.88,30.77-1.78-21a140.82,140.82,0,0,0,2.43,23.8l-.09-21.95a217.57,217.57,0,0,0,2.48,22.35q-.36-11,.1-22a182.23,182.23,0,0,1,1.19,21.15,59.64,59.64,0,0,1-2.39-15.92l.51,20.57a96.92,96.92,0,0,1-11.05,4.2,24.35,24.35,0,0,1,6.32-8.2l-8.71,4.6a25.55,25.55,0,0,1,6.3-3.34,23.68,23.68,0,0,1-10.52,8.77,24.86,24.86,0,0,1,15.24-8.67l-4.34,2.77a10.57,10.57,0,0,1,4.83-1.44,21.58,21.58,0,0,0-3.49,4.07,123.5,123.5,0,0,0,16,.56,126.76,126.76,0,0,0-13.63.88,37.06,37.06,0,0,1,18.84-3,76.78,76.78,0,0,1-21,.09,46.24,46.24,0,0,1,19.48-2.48,127.57,127.57,0,0,0-14.38,4l11.69-2.11"/><path class="cls-6" d="M320.1,175.31a78.88,78.88,0,0,1-1.62,13.27l1.11-14.08a53.89,53.89,0,0,1-1.81,11l-.1-9.58a2.69,2.69,0,0,1-.47,2,5.67,5.67,0,0,0-.54-3.62,9.41,9.41,0,0,0-2.71,2.84l-1.34-4.49a42.66,42.66,0,0,0,1.9,12.29,42.37,42.37,0,0,0-4.23-12.47,19.5,19.5,0,0,0-.15,8.26,47.07,47.07,0,0,0-.5-13.14,1.57,1.57,0,0,0-2.42-1.37,40.38,40.38,0,0,0-14,6.59,47.34,47.34,0,0,1,11.09-6.51q-3.54,3.44-7.38,6.54l9.1-3c-2.27,2-4.71,4-7.67,4.49a15,15,0,0,1,19.27-4.65,16.7,16.7,0,0,1-12.49-1.62c4.06-2.54,9.38-2.31,13.81-.5s8.13,5,11.62,8.27c-6.38-.43-11.76-4.73-16.67-8.84a28.48,28.48,0,0,1,18.48,6.46,41.48,41.48,0,0,1-18.74-4.64l12.35,2.8-9.7,1.12-2.68,4.9-.08-8.55a2.36,2.36,0,0,1,.48-1.77,2.25,2.25,0,0,1,1.29-.46,31.55,31.55,0,0,1,13.48,1.21,12.62,12.62,0,0,0-5.57.16,91.83,91.83,0,0,1,13.9,6.56,25.29,25.29,0,0,1-6.87-3.68l6.91,4.34a3,3,0,0,1-2.79,1.59"/><path class="cls-6" d="M236.3,184.56l-.33-3.12,0,8a16.06,16.06,0,0,1-1.16-5.06c1.65,3-1.38,7.24-4.73,6.68l7.13-2.33a40.75,40.75,0,0,1-2.77-15.32l-2.27,12.1-.52-8.7,1.82,6.56c-1.09-3.93-6-5.7-10-4.77s-7.16,3.78-10.17,6.53L223.69,180l-8.41,5.89,16.52-5.05-14.05,6.48A82.23,82.23,0,0,1,230.82,183a49.26,49.26,0,0,1-17.55,2.37,6.5,6.5,0,0,1,5.15-4.51,45.71,45.71,0,0,1-21.56,12.84l4.51.88-4.52.69a6.58,6.58,0,0,1,4.57,3.86,3.17,3.17,0,0,1-4.27-2.54,6.5,6.5,0,0,1,6.22,4.54l-6.15,3.64a23.46,23.46,0,0,0,11.91-.35,12.25,12.25,0,0,0-1.8-6l.1,12.93a38.45,38.45,0,0,1-2.84-9.68,24.74,24.74,0,0,1,4.69,7.74,85.74,85.74,0,0,0-10-16.64,21.57,21.57,0,0,1,10.31,12.77A16.58,16.58,0,0,1,205,191.12,80.22,80.22,0,0,1,216.29,218l-6.23-16.45L214.9,223q-4.28-9.39-7.66-19.17l3,27.39-2.85-27.75.51,35.36a140.69,140.69,0,0,1,.77-24,97,97,0,0,1,4.24,18.58L211,217.83l1.1,17a43,43,0,0,1-2.87-12.3l-1.39,12.29,6.46,2.36L210.92,210q1.29,14.52,3.79,28.91l-2.46-27.52q2,11.81,3.07,23.74c.16,1.86.28,3.85-.69,5.45s-3.44,2.37-4.71,1l9,1.76-3-11.88,3.52,10.28L217,222.68l-.87,13.11a29.08,29.08,0,0,1,19.14-5.85l-14.14,3.57a171.32,171.32,0,0,0,21-1.44l-19.47-.43a91.13,91.13,0,0,0,24.7-3.2l-26.52-1,31.19-.09a104.41,104.41,0,0,1-22.12,2.92c-4.62.11-10.47-1-11.45-5.55"/><path class="cls-6" d="M212.92,190.11c1.05,4.55,1.83,9.17,2.83,13.73-.22-2.22-.75-4.6-.8-6.74,2.45,5,3.12,11,3.43,16.47C216.44,205.78,214.73,197.93,212.92,190.11Z"/><path class="cls-6" d="M124.58,89.45h.69"/><path class="cls-6" d="M207.7,195.66q1.76,5.75,4,11.36l-3.92-14.71a34.39,34.39,0,0,0,3.14,10.48l-3.66-10.53a1.33,1.33,0,0,1,0-1.15,1.31,1.31,0,0,1,.67-.42,58.16,58.16,0,0,1,13.7-3.3l-14.74,6,12-7.25L206.63,199a125.39,125.39,0,0,1,15-12.34,57.65,57.65,0,0,1-9.29,7,22.83,22.83,0,0,1,5.23-7.09,55.61,55.61,0,0,0-8.42,9.58l-.83-1.44"/><path class="cls-6" d="M101.88,81.2v1.37"/><path class="cls-6" d="M307.42,322l-.84-2.29a7.57,7.57,0,0,1,5.25,4.53,16.12,16.12,0,0,1-6.95-9.63,8.11,8.11,0,0,1,8.13,7.79,9,9,0,0,1-10-6,1,1,0,0,1,1.13-1.52,10,10,0,0,1,7.67,4.78,15.2,15.2,0,0,1,2.07,9,13.12,13.12,0,0,1-10.65-10.38,16.22,16.22,0,0,1,10.23,11,21,21,0,0,1-12.08-14.22,21.18,21.18,0,0,1,10.73,11.6c-1.86.13-3.58-.93-5.05-2.08a32.1,32.1,0,0,1-9.88-13.07,44.11,44.11,0,0,1,15.16,19.72,1.41,1.41,0,0,1,.1,1.11c-.33.65-1.31.42-2,.07A43.68,43.68,0,0,1,293,315.1"/><path class="cls-6" d="M250.59,326.14a90,90,0,0,0-.84-17.36,55.84,55.84,0,0,0-10.17,17.76c.68-4.62,1.91-9.23,2.58-13.8-2.67,3.05-3.25,7.83-4.35,11.64l33.1,6.42a70.68,70.68,0,0,1-14.82-.88,107.35,107.35,0,0,0,24.16,2.82L260.45,326l28.41,6.44A252.7,252.7,0,0,1,261.58,325a157.85,157.85,0,0,0,31.25,4.56c-7.72-.35-19.35-6.4-26.06-10,.83.46,3.75-.7,4.93-.63,2.45.14,5,1.36,7.41,1.93A88.41,88.41,0,0,0,296,323.16q-15.93-3.87-31.56-8.86a72.36,72.36,0,0,0,20.63,3.53,47.44,47.44,0,0,1-11.4-10.12c5.51-.2,9.69-.49,15.18.1q-10.5-.42-21-1.1l19.07-.84a77.34,77.34,0,0,1-26-2.43c7.85-.41,15.74-.82,23.54.05a53.22,53.22,0,0,1-28.62-1,78.22,78.22,0,0,1,6.87,15.69,34.3,34.3,0,0,1-2-13,127.82,127.82,0,0,0,6.25,15.3,81.74,81.74,0,0,1,1.25-13.34c.09-.53.27-1.15.79-1.29s.94.24,1.3.59l8.74,8.45a1.78,1.78,0,0,0,1.25.67c.74,0,1.09-.91,1.28-1.62l2.58-10c2.75,3.67,5.18,7.56,7.6,11.45l-.31-10a129.29,129.29,0,0,1,6.18,12.83,51.94,51.94,0,0,0-2.25-13.83"/><path class="cls-6" d="M297.3,301.65l.94,1.37"/><path class="cls-6" d="M310.05,311.83c2.72.9,5.56,1.87,7.5,4a1.39,1.39,0,0,1,.07,2.18c-2.45,3-6.72,3.76-10.6,3.69-4.1-.08-8.39-.95-11.5-3.63A3.65,3.65,0,0,1,294,315.6c-.07-2,2.46-3,4.46-3.22,7.7-1,16.25-.73,22.2,4.25.64.53,1.29,1.27,1.1,2.08s-.94,1.13-1.65,1.39c-2.72,1-14.07,2.39-16-1-1.45-2.54,2.21-5,4.52-3.75a50.24,50.24,0,0,1-7.4-6.39C304.23,309.79,307.14,310.87,310.05,311.83Z"/><path class="cls-6" d="M255.89,329.4A118.12,118.12,0,0,1,263,301.66a90.8,90.8,0,0,1-21.82-1.81,216.34,216.34,0,0,0-4.67,29.84l20.18,1.87-2.37-27.92a109.92,109.92,0,0,1-4.16,15.54,62.51,62.51,0,0,1-4.75-18l-.73,2.37"/><path class="cls-6" d="M383.6,287.36h-1.38"/><path class="cls-6" d="M388.05,295.76l8,15.43-10.62-19.13q3.93,8.51,8.31,16.8a160.21,160.21,0,0,1-8.61-14.35,99.39,99.39,0,0,0,8.4,14,62.64,62.64,0,0,0-14.89-18.09c-1.62-1.34-3.46-2.66-5.56-2.69a10.33,10.33,0,0,0-5,1.74,151.88,151.88,0,0,1-25.41,11.05,162.09,162.09,0,0,0,20.08,0,96.44,96.44,0,0,0-25.4,2.4l27.65-7.21q-8.49.66-16.93,1.86L384,290.39a4.49,4.49,0,0,1,2.81.06,4.07,4.07,0,0,1,1.64,1.9,25.32,25.32,0,0,1,2.84,13.09"/><path class="cls-6" d="M397.91,306.76a.67.67,0,0,1-.42-.91"/><path class="cls-6" d="M390.2,286.33c.23.72.47,1.44.72,2.15l7.05,20A137.38,137.38,0,0,1,390.51,287l5.22,19.17c-1.44-5.31-.4-11-1.55-16.39S388,279,382.76,280.66a98.57,98.57,0,0,1,18.79,20.48,95.44,95.44,0,0,1-17.69-26.86,96.38,96.38,0,0,0,20.33-8.07Q393.3,275,383.26,284.8a149.69,149.69,0,0,1,24.56-24,90.44,90.44,0,0,1-14.28,19,219.07,219.07,0,0,0,31.64-39.14,157,157,0,0,1-13.88,43.34,68.5,68.5,0,0,1,6.55-29.39q-5.14,17.52-11.09,34.8a71,71,0,0,1,4.86-23.52,129.1,129.1,0,0,1-11.73,28.93,99.9,99.9,0,0,1-1.43-23.1l1.34,29.59a43.14,43.14,0,0,1,2.59-21.42,44.8,44.8,0,0,1-4.65,30.68A95.17,95.17,0,0,0,422,282.25a230.7,230.7,0,0,0-16.89,30.95L429.64,275a109.73,109.73,0,0,1-9.26,24.61A140.57,140.57,0,0,1,430,254.37l-2.08,3.44"/><path class="cls-7" d="M414.54,236.57l2.54-4.3a66.48,66.48,0,0,1-4.92,18,72.05,72.05,0,0,1,9.29-21.47q-3.69,8.53-7.67,17a13.87,13.87,0,0,1,2.74-6.28,80.05,80.05,0,0,0-3.21,10.36"/><path class="cls-7" d="M162.1,240.21c.31,1.57.61,3.13,1,4.69A79.82,79.82,0,0,0,193,290.83c12.84,9.56,28.21,15,43.32,20.26"/><path class="cls-7" d="M184.62,224.47a1,1,0,0,1-.51-1.37l15.62.6A96.92,96.92,0,0,0,182,227.45c5.36-3.94,11.6-6.45,17.78-8.92a89.41,89.41,0,0,1-19.14,3.23c6.45-5.5,15.06-7.56,23.32-9.45l-20.21,2.07a89,89,0,0,1,19.52-5.07,186.63,186.63,0,0,0-23.64,3.16q5.63-3.9,11.59-7.26a131.3,131.3,0,0,0-9.65,26.73l-6-19.92a58.62,58.62,0,0,0,9.67,18.74c-3-6.14-5.95-12.38-7.15-19.09q5.48,5.94,11.53,11.32a13.65,13.65,0,0,0-.86-5.87c-.85-1.81-2.8-3.26-4.76-2.87a6.12,6.12,0,0,0-3.1,2.1,31.77,31.77,0,0,0-7.52,13.87,66,66,0,0,1,.38-10.7l-5.36,11.63a8,8,0,0,0,2.43-1.5"/><path class="cls-7" d="M271,199.61l-.47-.92"/><path class="cls-7" d="M247.52,192.7a1.28,1.28,0,0,1,1.78-1.3q1.81,17.6,5.24,35"/><path class="cls-7" d="M280.18,208.87h.46"/><path class="cls-7" d="M252,191q1.73,7.71,3,15.52c.58,3.5.36,9.47,2.31,12.21,6.86-4.32.09-17.79-1.93-23.27"/><path class="cls-7" d="M275.56,206.12a3,3,0,0,1,2.31.44"/><path class="cls-7" d="M309.26,190.84a3.48,3.48,0,0,1-2.54-.48l3.5-6.77a20,20,0,0,1-4.64,6.82l1-8.17a13.75,13.75,0,0,1-2.86,2.94L306,177.1l-4.14,4.42a16,16,0,0,1,2.49-4.8l-1.92,5.55c-.49,1.45-.66,3.57.8,4a5.72,5.72,0,0,0,2.18-.28c2.27-.3,4.05,2.31,3.82,4.59s-1.78,4.17-3.25,5.92a4.43,4.43,0,0,1,3.4-1.68,26.06,26.06,0,0,1-2.91,6.21"/><path class="cls-7" d="M326.35,194.55h0"/><path class="cls-7" d="M323,199.88a35.7,35.7,0,0,1,10.6-2.73l-9.44.24,8-1.83a25,25,0,0,1-8-1.07l6.7-.8-5.78-2.7a15,15,0,0,1,7.64,1.11,45.82,45.82,0,0,1-7.13-6.28,66.75,66.75,0,0,0,10.78,5.09,34,34,0,0,1-9-5.3,50.29,50.29,0,0,1,16.86.77,126.15,126.15,0,0,1-20.51-3.5A101.1,101.1,0,0,1,356.92,190c-8.17,1.47-16.5-.8-24.49-3.06,7.92,1.52,15.93,3.07,23.3,6.36a56.35,56.35,0,0,1-23.2-.74,125.33,125.33,0,0,0,36.27,9.2"/><path class="cls-7" d="M375.29,205.64h-.46"/><path class="cls-7" d="M359.16,201.44a2.81,2.81,0,0,1-.79-3,115.22,115.22,0,0,1,38.46,30.44c-3.71.67-7.24-1.71-10.09-4.17a75.21,75.21,0,0,1-12.19-13.45q12.58,11.26,26.17,21.34a77.33,77.33,0,0,1-14.31-17.47,89.89,89.89,0,0,1,15.32,17.59c-2-3.92-3.76-7.94-5.35-12l3.74,9"/><path class="cls-7" d="M405.3,247.65a102.88,102.88,0,0,1-2.8-12.73A45.1,45.1,0,0,0,408,248.2a40.45,40.45,0,0,0-2.62-13.89,21.24,21.24,0,0,0,3,9.24l.14-7.3a7.05,7.05,0,0,0,1.49,3.52,23.33,23.33,0,0,0,.44-5.07l2.49,4.65a19.74,19.74,0,0,0-.72-8.12,16.68,16.68,0,0,1-9.18-6.17,9.31,9.31,0,0,0,5.41,4.09,77.15,77.15,0,0,1-14.18-16.71,45.85,45.85,0,0,1,9.61,8.84,30.53,30.53,0,0,1-8.15-9.19l7.14,4.38a49.38,49.38,0,0,1-6.87-10.83,33.12,33.12,0,0,0,6.17,5l-4.42-9.32a13.46,13.46,0,0,1,5.26,5.7"/><path class="cls-7" d="M296.59,313.53c3.26,1.48,10.36,5.61,14,5.14,4.63-.6,4.13-4.62.85-7.61-4.8,4.66,4,11.4,6.23,14.92C311,327.73,302.22,316.09,296.59,313.53Z"/><path class="cls-7" d="M356.36,290.59v-.46"/><path class="cls-7" d="M333.69,291.52l-.41-1.85c2.22-1.17,5-.2,7,1.27,1.17.85,2.33,2.25,1.82,3.61s-2.23,1.66-3.65,1.57c-1.86-.12-4-1-4.32-2.81a2.83,2.83,0,0,1,2.84-3,3.72,3.72,0,0,1,3.32,2.83,5.93,5.93,0,0,1-2.57.25,2,2,0,0,1-1.68-1.74,2.26,2.26,0,0,1,2.8.57,4.75,4.75,0,0,1-1.9-2l0,1.18-1.79.07"/><path class="cls-7" d="M352.69,285.74l4.93,8.49-15.73,1.36c1.35-2.51,1.31-5.51,1.24-8.37a20.84,20.84,0,0,0,8.41,6.17"/><path class="cls-7" d="M360,288.24l.92-.46"/><path class="cls-7" d="M370.27,284.08a76.41,76.41,0,0,0,14.83,14.3L363,297a7.26,7.26,0,0,1-3.77-.94c-1.07-.75-1.65-2.39-.82-3.41"/><path class="cls-7" d="M375.69,285.17a33,33,0,0,1,9.86,8.58"/><path class="cls-5" d="M357.47,321.69l6.81,1.3c.8.15,1.85.18,2.16-.57-2.56-1.11-5.45.71-8.25.59a5.94,5.94,0,0,1-4.57-9.38,3.67,3.67,0,0,0-.92,6.72,7.24,7.24,0,0,0,3.16.75c3.26.28,6.69.52,9.67-.84a1.28,1.28,0,0,0,.49,1.58,3.31,3.31,0,0,0-.54-1.52,18.31,18.31,0,0,0,9.4,2.39,4.27,4.27,0,0,0,2.78-.81c1-.87,1.08-2.36,1.1-3.67a4.17,4.17,0,0,0-.3-2,3.31,3.31,0,0,0-1.42-1.3A8,8,0,0,0,368.1,316a21.88,21.88,0,0,0-3.18-3.81"/><path class="cls-5" d="M362.67,310.75H363"/><path class="cls-5" d="M359.11,316.56a3.14,3.14,0,0,0,4.87,1.36"/><path class="cls-5" d="M332.85,324.62a6.19,6.19,0,0,0,10.91,4,9.8,9.8,0,0,1-6.84-.54l2.67-1"/><path class="cls-7" d="M339,321.22h.61"/><path class="cls-7" d="M258.41,199.54,259.76,223c.34-8.88.63-18-2.41-26.35.46,10.59,1.49,21.24,4.58,31.38-.23-5.37-.47-11.2-1.82-16.38-1,3.68-.86,7.67-1.76,11.4C258.18,215.23,258.86,207.33,258.41,199.54Z"/><path class="cls-7" d="M220.47,219.93a19.36,19.36,0,0,0,5.44,1,6.66,6.66,0,0,0-5.8,1.64,18.72,18.72,0,0,0,7.6.22l-5-.73a14,14,0,0,0,4.51-.53,9.27,9.27,0,0,0-4.21-4,11.07,11.07,0,0,0,2.93.2,4.78,4.78,0,0,0-1.67-1.07l2.78-.54a10.73,10.73,0,0,0-3.66-2.89l3.56-.16-4.13-3.3,5.63.66a30.79,30.79,0,0,0-5.91-5.2,33.34,33.34,0,0,0,8.44,1.14,12.69,12.69,0,0,0-6.42-4.67,17.41,17.41,0,0,0,8.89,1.5,16.06,16.06,0,0,0-8.26-5.08,62.16,62.16,0,0,0,12.26.88,39.17,39.17,0,0,0-10-.93,27.62,27.62,0,0,0,7.19-.78c-1.37-.29-3.35-.19-3.52,1.21a1.75,1.75,0,0,0,1.43,1.75,5.09,5.09,0,0,0,2.44-.2,12.64,12.64,0,0,0-6.23-3.71,45.16,45.16,0,0,0,12,.8A46.64,46.64,0,0,0,227.15,199a43.34,43.34,0,0,0,14.85-.61,27.6,27.6,0,0,0-12.85,2.16,15.08,15.08,0,0,0,9.15,2.18,71.94,71.94,0,0,0-13.94,1.82,13.62,13.62,0,0,0,6.41.1,5.79,5.79,0,0,1-3.29-9.33,9.76,9.76,0,0,1,.92,3,3.38,3.38,0,0,0-.25-1.72,2.26,2.26,0,0,1-.3,1.5"/></svg>