<svg id="Livello_1" data-name="Livello 1" xmlns="http://www.w3.org/2000/svg" viewBox="0 0 588.32 415.99"><defs><style>.cls-1,.cls-10,.cls-11,.cls-2,.cls-3,.cls-4,.cls-5,.cls-6,.cls-7,.cls-8,.cls-9{fill:none;stroke-miterlimit:10;}.cls-1{stroke:#5c809b;}.cls-1,.cls-10,.cls-11,.cls-3{stroke-width:3px;}.cls-2,.cls-3{stroke:#f8b03b;}.cls-4,.cls-5,.cls-6,.cls-7{stroke:#000;}.cls-5{stroke-width:2px;}.cls-6{stroke-width:4px;}.cls-7{stroke-width:0.5px;}.cls-8{stroke:#b08e5b;}.cls-9{stroke:#7b6445;}.cls-10{stroke:#564633;}.cls-11{stroke:#db9734;}</style></defs><path class="cls-1" d="M176.25,139.47h.81"/><path class="cls-1" d="M149.56,129.76v1.62"/><path class="cls-2" d="M189.65,396.18a306.79,306.79,0,0,0-3.51-70.92,407,407,0,0,0,10.13,77.48,530,530,0,0,0-13.81-96.17L199,409.43,178.22,288l20.06,107.9q-7.41-49.26-10.34-99.05l14.37,114.9a533.23,533.23,0,0,0-36-176.1,472.56,472.56,0,0,1,19.4,85l-15.08-99.92A473.41,473.41,0,0,0,182.77,292l-22-92.08,11.86,46.56q-6.74-30.24-16.31-59.76A92.16,92.16,0,0,1,188.59,197l-28.85-15.75a219.48,219.48,0,0,1,44.56,13.52,271.11,271.11,0,0,1-42.7-14.59L193,187l-27-1.4,24,7.12-30.91-10.32a159.24,159.24,0,0,1,51.11,7.85l-47.35-1A192.41,192.41,0,0,0,217,193.38L190.37,192A294.3,294.3,0,0,1,256,187q-27.82,0-55.62,1.76l83.44,1.36-61.48,4.83q55-6.3,109.48-15.81A735.34,735.34,0,0,0,248,177.44q44.46-11.61,89.63-20.19a959.72,959.72,0,0,0-107,17.93q48.13-6.1,95.92-14.69a646.06,646.06,0,0,0-108.78,19c43.91-1.38,88.52-2.89,130.28-16.54l-24.85,2.68a245.36,245.36,0,0,0,55.49-11.18,151.92,151.92,0,0,0-34.83,4.23l73.6-24.39-18.48,7.51,21.25-4.49Q391,144.39,361.4,148.91l38.45-1.8c10.35-2.82,22.31,4.44,24.58,14.93a26.67,26.67,0,0,1-17.05-6.87l15.18,32.93-16.8-46.25,30.45,112.44-23.73-98.85q16.42,59.49,36.88,117.77L422,171.53c14.62,45.23,29.27,90.57,38.78,137.14l-49.13-168.4,38.61,196.65a808.76,808.76,0,0,1-12.67-93l20,107.63-8.2-83.24,17.72,77.49a411.86,411.86,0,0,0-4.39-47.56l12.23,51.3-6.07-6.47a48.37,48.37,0,0,0,9.89,18.67,84.72,84.72,0,0,0-7.35-20l10.53,22.48a170.74,170.74,0,0,1-34.34-1.37l12.89,1.34-18.66-5.51a74.6,74.6,0,0,1,19.35,0,460,460,0,0,1-61.76,10.82l19.37-1.3L372,378.73l35.86-4q-32.55,10.88-65.75,19.6l40.48-22.26-71.27,25.45,32.9-12a349.38,349.38,0,0,1-80.74,17.77l21.77-1.06-48.38,10.62,6.68.33-40.46-4a9.31,9.31,0,0,0-5.26-7.88,95.65,95.65,0,0,1,20.72,6.75l-7.88-5.34a55.86,55.86,0,0,0,16.09,3.43L203.29,393l32.84,5.12-20.78-.61a482,482,0,0,1,56.24,1.58l-26.32,7.47a268.81,268.81,0,0,0,45-7.35,347.19,347.19,0,0,0-40.91,6.89l34-4.4A17.22,17.22,0,0,0,277,387.79"/><path class="cls-2" d="M234.12,355.19l1.21,3.84,3.92-33a343.7,343.7,0,0,1,4.5,57.22,196.31,196.31,0,0,1-9.82-59.1c3.95,20.9,7.9,41.85,9.85,63a303.46,303.46,0,0,1-16.65-63.13q1.74,30.79,5.09,61.47a271.6,271.6,0,0,1-11.9-52.75,310,310,0,0,1,18.12,63.28l-8.57-37.82q6.57,17.11,11.72,34.74"/><path class="cls-2" d="M190.93,321.76q27.39-1.78,54.87-.84A143.42,143.42,0,0,0,189,300.1a318.34,318.34,0,0,0,51.39.52A107.42,107.42,0,0,0,199,294.81a154.78,154.78,0,0,0,33.91-2.41q-20.72-5.67-41.48-11.18a70.74,70.74,0,0,0,22.66-4.36,108.92,108.92,0,0,0-30.41-11.41,140.75,140.75,0,0,0,23.16,2.62,71.77,71.77,0,0,0-26.73-15.26,302.93,302.93,0,0,0,31.72,6.41q-16.65-6.87-32.66-15.2l12.7,2.17a108.59,108.59,0,0,1-21.68-19.54l27.21-.93-30.32-21.46,16.1,6.12"/><path class="cls-2" d="M222.21,216.07l-2.16,3.23"/><path class="cls-2" d="M447.64,198.81h-2.16"/><path class="cls-2" d="M325.73,233.06c29-2.05,54.91-18.25,79.35-34.08,3.81-2.47,7.74-5.06,10.16-8.91s2.87-9.32-.19-12.67a156,156,0,0,1-81.77,49.74l80-34.1a225.32,225.32,0,0,0-65.75,23.45,134.83,134.83,0,0,0,62.83-27.91"/><path class="cls-2" d="M379.68,272.15l-2.56-2.77,22.67-19.32c8-6.86,16.29-13.94,21.27-23.28a122.68,122.68,0,0,1-68.82,41.77,485.53,485.53,0,0,0,66.55-33c-9.47.63-18.37,4.52-27.06,8.35l-47.06,20.74q32.79-10.47,64.67-23.51c-18,5-33.44,16.3-48.44,27.41a221,221,0,0,0,70.77-31.69"/><path class="cls-2" d="M448.62,292.51l-70.74,22.58c19.9-7.65,39.81-15.31,59.46-23.56-21.78,9.15-43.53,18.31-61.84,33.72,11.37-3.46,27.66-8.14,36.69-15.53-11.54-5.68-27.05,6.11-37.79,10C398.49,309.08,423.64,300.84,448.62,292.51Z"/><path class="cls-2" d="M450.87,320.69l-6.47,2.16"/><path class="cls-2" d="M208.19,353.05l-4-4.41c0-1.21,1.6-1.64,2.82-1.7a220.33,220.33,0,0,1,96.53,17.17c-8.92,1.74-18.14.28-27.06-1.52-23.43-4.72-46.32-11.74-69.16-18.75,33.83-1.17,68-2.33,101.29,3.58l-16.25-4.08"/><path class="cls-2" d="M185.63,295A240.89,240.89,0,0,1,287.8,309.91c-26.23-10.53-53.22-21.23-81.48-21.49,26.83-.52,54.47-.91,79.48,8.81a151,151,0,0,1-71.73-11.85"/><path class="cls-2" d="M181.19,243.33c32,4.23,64.62,8.64,93.8,22.47q-38.75-9.74-77.92-17.59,45.08,6.94,89.35,18.11L265.33,265"/><path class="cls-2" d="M171.53,219.22l104.28,19.42c-3.48,2.07-7.91.93-11.78-.26l-70.28-21.75a550.3,550.3,0,0,1,68.72,11.08c4.52,1,9.58,2.53,11.67,6.67"/><path class="cls-2" d="M287.44,181.41a6.18,6.18,0,0,0,.56,4.46"/><path class="cls-2" d="M230.85,172.89a289.33,289.33,0,0,1,49.14,23,761.72,761.72,0,0,1-68.67-37.21l71.95,41.63a364.45,364.45,0,0,1-69.4-28.73A604.47,604.47,0,0,0,273,214.14a718.34,718.34,0,0,1-67.61-25.33l38.52,12.88q-22.5-15.9-45.72-30.74l11.31,6.13-10.33-24.9,8.25,25.16a333.9,333.9,0,0,0-12.44-36,199,199,0,0,0,10.57,30.38l-17.16-51.57a184.1,184.1,0,0,0,6.64,43.82l-22-40.87a287.57,287.57,0,0,0,31.2,57.66,459.55,459.55,0,0,0-28.38-50.85l33.24,53a469.45,469.45,0,0,1-32.72-71q10.8,22.2,23.23,43.55a252.56,252.56,0,0,1-23.91-61.31,111.71,111.71,0,0,0,3.42,22.64,101.59,101.59,0,0,0-10.72-21.69,233.17,233.17,0,0,1,46.9-33.91L170,86.87l44.1-30.38L179.19,69.6a461.83,461.83,0,0,1,76.72-20.17L194.31,60.8q42.34-9.64,85.11-17.24l-60,14.22,66.08-5.93-39.92-2q38.76-3.39,77.68-4.32l-51.7.11a260.81,260.81,0,0,1,59.91,5.26,282.34,282.34,0,0,0,22.44,60.33L309.35,41.77a176.4,176.4,0,0,0,54,57.94,470.83,470.83,0,0,0-58.82-43.52,175.38,175.38,0,0,1,61.15,42.27,90.75,90.75,0,0,1-28.44-20.7l11.48,32.3-9.47-33.17,9.3,43.35-.2-10.06a127.76,127.76,0,0,1-12.87,40.66,87.57,87.57,0,0,1,6.59-37.6,172.52,172.52,0,0,1-4.68,49.4,173.61,173.61,0,0,1,5.91-40.92,279.94,279.94,0,0,1-9.91,48.64,91.19,91.19,0,0,1,5.32-28.69A112.26,112.26,0,0,1,333,166.8a124.13,124.13,0,0,1,9.43-26.46c-6.15,10.75-14,20.62-20.07,31.25,4.14,4.8,13.51,15.17,18.94,18.34,7.88,4.6,11.76,1.33,20.14-3.21a232.16,232.16,0,0,0,50.88-37.33c-24,9-44,24.73-64.55,39.64,11.72-12.88,20.9-20.28,19-38.3a295.27,295.27,0,0,0-13.17-61.54A575.51,575.51,0,0,0,371.8,150L346.25,81.24"/><path class="cls-2" d="M411,188.19l-28.72,12.86c12.18-13.25,28.08-22.4,43.7-31.33a93.53,93.53,0,0,1-44.93-6.49l33,10.66-36.34-17.62c-.68-.32-1.43-.73-1.63-1.46s.71-1.61,1.27-1.11"/><path class="cls-2" d="M346.87,120.28l-5.58-12a371.14,371.14,0,0,0-8.11,45.86,187.46,187.46,0,0,0,10.93-48.35,324.15,324.15,0,0,1-2.4,54.21,421.4,421.4,0,0,1,18.46-58,273.83,273.83,0,0,1-11.08,69.57A238.32,238.32,0,0,1,361,120.08a439.67,439.67,0,0,1-4.33,65.86,552.21,552.21,0,0,0,3.11-91.27c-.29-6-2.57-13.78-8.53-13.6,1.48,17.42,11.62,33,23.35,45.92a180.09,180.09,0,0,0,39.89,32.94l-38.72-22.88A245.67,245.67,0,0,0,413,144.71Q393.6,156,373.62,166.18"/><path class="cls-3" d="M211.51,340.07q15.15,30.06,32.46,59l-24.31-40.14q6,19.88,13.9,39.14l-24.25-38.78a168.44,168.44,0,0,0,10.76,36,216.76,216.76,0,0,0-8.95-27.42L216,397.76a85,85,0,0,1-5.63-33.92"/><path class="cls-3" d="M224.37,338l1.07,1.08"/><path class="cls-3" d="M340.86,119l.16-3.09a401.78,401.78,0,0,1-6.29,46,205.87,205.87,0,0,1,13.48-38.5l-5.3,39.57c2.23-14.51,4.77-29.79,14.08-41.15a238.5,238.5,0,0,1-10,50.89c.86-22.36,4.23-46,18.41-63.29A93.34,93.34,0,0,1,348,160.45"/><path class="cls-3" d="M267.59,210.87c-22.53-9.2-42.26-24-61.71-38.6q29.46,24.43,58.94,48.85l-59-64.27A229.47,229.47,0,0,0,241,198.76q-18.62-19-35.92-39.29a170.85,170.85,0,0,0,44.1,29c-19.67-8.93-42.67-28.51-53.66-47C219.85,164.17,243.55,187.74,267.59,210.87Z"/><path class="cls-3" d="M190.17,101.73a211.75,211.75,0,0,0,8.73,58.43l1.57-76.74,2.35,61.46-4.27-59.42-9.32,41.72-5.8-40.83a386.07,386.07,0,0,0,89.75,1.84,125.46,125.46,0,0,0-71.52,1.11l97.92-17.59-97.2,21.67,71.37-10.9a278.77,278.77,0,0,0-82.22,27.9l62.95-37.11A161.87,161.87,0,0,1,197,70.19a200.29,200.29,0,0,1,47-7.92c11.86-.57,34.93-3.1,45.48,3.27,9.52,5.74,17.62,23.82,23.82,33q14.31,21.18,27.49,43.11Q327.65,107,314.58,72.35l34.17,56.35L320.84,76.37l31.7,47.06"/><path class="cls-3" d="M401.26,199.89h0"/><path class="cls-3" d="M408.7,208.86a467.24,467.24,0,0,1,4.87-60.71,441.26,441.26,0,0,1-14.46,47.14,47.68,47.68,0,0,1,11-26.71,165.28,165.28,0,0,1-9.45,23.17c9-4.86,17.87-10.28,27.12-14.43,1.21,9.43-6.22,3.81-10.22,8C415.55,187.4,408.74,205.91,408.7,208.86Z"/><path class="cls-3" d="M420,228.54c-.88.11.14-1.55.74-.89s.08,1.69-.44,2.41L409,245.8a93.65,93.65,0,0,1,14.92-33.93l-21.56,34.68c11.13-2.79,23.28-5.5,33.72-.73a64.28,64.28,0,0,1-9.48-27.46L413.4,243a30.68,30.68,0,0,1,2.81-17.16l-4.37,19.35"/><path class="cls-3" d="M439.61,271.62a39.93,39.93,0,0,0-12,19.06,77.84,77.84,0,0,1,10.62-25.77,281.1,281.1,0,0,1-21.61,31.81l26.22-3.46a4.84,4.84,0,0,0,3.23-1.29,4.64,4.64,0,0,0,.64-3.37,50.77,50.77,0,0,0-4.66-17.46,163,163,0,0,0-5.29,21.34A49.31,49.31,0,0,1,440,272.29L441,287a2.91,2.91,0,0,0-2-4.07"/><path class="cls-3" d="M410,341.36l42.9-31.64L389.6,335.2q21.78-17.55,44.91-33.35-22.67,17.47-46,34A157.59,157.59,0,0,1,437,298.55a322.28,322.28,0,0,1-42.78,55.66c18.47-13.37,37.65-26.48,59.42-33.28A419.56,419.56,0,0,1,390,361.82a583,583,0,0,1,57.62-29.35c4.47-2,9.09-3.91,14-4.14a90.82,90.82,0,0,1-33.72,30.26,11,11,0,0,1-.62-6.6"/><path class="cls-3" d="M445.48,281.86H433.62"/><path class="cls-3" d="M205.15,111.46l-.61,33.41a6.5,6.5,0,0,0,3.86,7.2l59.08,37.87a135.7,135.7,0,0,1-54.65-35.82,239.47,239.47,0,0,1,84.62,44.12l-84.9-49.78,93.52,50.9A369.91,369.91,0,0,1,225.43,165a380.38,380.38,0,0,1,92.51,27.73l-15.84-1.29"/><path class="cls-3" d="M333.19,156.66l-30.08,40.25a250.94,250.94,0,0,1,46.14-34.07C340.75,177,330.41,190,320.09,203a312,312,0,0,1,46.49-51.06,521.79,521.79,0,0,1-36.46,39.5l22.5-29.37"/><path class="cls-3" d="M372.13,122.23l-5.39,6.47"/><path class="cls-3" d="M270.07,278.66c1.95-11.2,4.5-23.46,13.47-30.44a155.77,155.77,0,0,1-20.15,29,219.44,219.44,0,0,0,43.83,2.41L260,252.48A119,119,0,0,1,306.13,265a325.86,325.86,0,0,1-73.93-14.86,267.8,267.8,0,0,1,65.57,28,235,235,0,0,1-75.43-33.34l54.2,22.4C284.72,270.58,293,274,300,279.44l-76.55-25.5c-2.85-.95-5.85-2-7.76-4.31-2.86-3.46-2.39-8.48-1.76-12.92"/><path class="cls-3" d="M380.65,271.92A127.94,127.94,0,0,0,411,251c-3.51-.41-6.88,1.4-9.84,3.32-9.94,6.48-19.71,5.62-17.86-7.46,1.54-10.88,12.48-22.91,19.82-30.39a300.55,300.55,0,0,1-27.54,23c-1-3.45,1.37-6.89,3.68-9.63a119.9,119.9,0,0,1,20.8-19.4,93.46,93.46,0,0,1-8.75,15.7,38.38,38.38,0,0,1,30.51-11.7"/><path class="cls-3" d="M247,303.69a527.62,527.62,0,0,1,68.58,3.93l-95.45-4.7c31.08,9.38,63.72,12.05,96.08,14.67-26.94,2.39-54-.6-80.92-3.58-3.08-.34-6.23-.71-9-2.1s-5.1-4.07-5.19-7.17"/><path class="cls-3" d="M263.21,344.32l63.67,6.19c-19.52.54-38.91-2.85-58.14-6.23l-40.68-7.15a170.34,170.34,0,0,0,55.77,10.64A217.4,217.4,0,0,1,208,325.29a108.05,108.05,0,0,1,31.81,18.45l-45.57-35.12a123.17,123.17,0,0,0-2.3,31.6l-6.44-.11"/><path class="cls-3" d="M223.39,410.19A267.68,267.68,0,0,0,262.6,408q-30.77-17.49-60.47-36.77a506.07,506.07,0,0,1,53.19,23.52c-9.94-3.86-20.23-10-30.52-12.28,6.65,7.78,15,14.71,20.71,23.22C239.27,408.71,230.46,410.31,223.39,410.19Z"/><path class="cls-3" d="M480.05,306.69a437.25,437.25,0,0,0-18.89,57.89q5.23-37,7.08-74.43l9,32.33c-3.42-29.35-7.07-59.43-20.61-85.69-8.75-17-21.29-31.65-33.72-46.15a485.34,485.34,0,0,1,36.85,86.26,533.36,533.36,0,0,0-40.59-114.29l66.55,146.28a408.86,408.86,0,0,1-55-122,832.31,832.31,0,0,1,40.89,114.15,1557.9,1557.9,0,0,1-53.55-149.6l2.56,23.61"/><path class="cls-4" d="M343.89,391.87c1.33-35-.95-66.83-9.06-101.59-8.62-37-20.4-73.08-30.43-109.66q15.93,54.8,31.85,109.59c3.67,12.64,7.36,25.31,9.74,38.26a197.3,197.3,0,0,1,1.74,60.24l-3.83-29.62,1.25,28.48.22-37.67c-.55,8.56,3.77,16.6,5.58,25s-.33,19.19-8.49,21.85"/><path class="cls-5" d="M344,378.93q.78-29.56-.74-59.13l.69,28.79q-4-24.36-7.91-48.72,4.51,43.19,9,86.36A492.07,492.07,0,0,0,303.75,178.8c16.76,41.84,33.77,84.95,33.84,130"/><path class="cls-5" d="M238.44,153.48a47.4,47.4,0,0,1-4.21-11.21,176.11,176.11,0,0,0,34.85,26.34l-26.42-10.92a449.55,449.55,0,0,0,52.8,13.15l-27.35-2.45,32.69,4.76a148.08,148.08,0,0,1-30.82-10A145,145,0,0,0,300.64,176a204.09,204.09,0,0,0-13.74-26.15l7.68,14.49L230.3,141.65c8.25,6.24,17.22,11.81,27.2,14.56a314.14,314.14,0,0,0-29.58-12.75l5,5c-17.1-5.69-27.79-26-22.79-43.32a74.25,74.25,0,0,1-2.07,20.26,83.57,83.57,0,0,1,.7-15.33l4.77,16.46,4.56-16.49,4.16,24.27A69.42,69.42,0,0,1,224,109.71l8,31L225.16,113a167.45,167.45,0,0,0,8.09,25.4c-1.84-12.66-3.37-26.74,4-37.2l-7.6,38.67a96.41,96.41,0,0,1,10.68-44.8,37.19,37.19,0,0,1-5,21.64c-1.76,3-4.75,6.05-8.14,5.33s-4.95-5.31-3.6-8.59,4.55-5.37,7.76-6.87c13.23-6.18,28.5-5.47,43.08-4.64a506.69,506.69,0,0,0-54.4-2.4A415.25,415.25,0,0,0,265.21,98a112.63,112.63,0,0,0-39.73,31.54A71.23,71.23,0,0,0,241.4,107.4l4.27,32.35c-1.54-14.36-2.76-30.08,5.31-42a256.32,256.32,0,0,1-2.76,43.67c-5.95-16.82,3.84-37.53,20.6-43.61A43.89,43.89,0,0,0,248,137a8,8,0,0,0,1.51,4.92c1.15,1.31,3.5,1.69,4.58.32"/><path class="cls-5" d="M250.24,155.63l46.91-14.06c6.33-1.89,13.11-3.79,19.42-1.85-7.36-.65-18-2.47-25.33-1.31,3-12,8.79-25.09-7.93-25-12.33.09-28.55,8.4-40,12.75a262.57,262.57,0,0,1,54.5-20c7.85-1.93,16.19-3.47,23.91-1.06"/><path class="cls-6" d="M278.4,168.83a153.47,153.47,0,0,1,36.45-11.67"/><path class="cls-6" d="M235.28,113.94a188.35,188.35,0,0,0,29.63-14.72,123.93,123.93,0,0,0-29.59,10.17l17.8-6.74c-6.32,3.47-18.46,7.3-23.12,12.68-5.48,6.31-3.76,8.13-1.74,17.51.56,2.6,2.18,5.91,4.75,5.26l-3.33-12.34a22.8,22.8,0,0,0,5.28,14,65.09,65.09,0,0,1,2.49-19.47l4,17.73a33.37,33.37,0,0,1,3.37-16.84"/><path class="cls-7" d="M274.64,109.91a5.7,5.7,0,0,0-1.78,3.69"/><path class="cls-7" d="M262.09,143.74a100.88,100.88,0,0,1,40.79-8.68q-19.23,2.44-38.34,5.63a155.71,155.71,0,0,1,40.3-15.46,363.12,363.12,0,0,1-41.26,5.83c12-6.13,25.36-8.73,38.57-11.17a121.88,121.88,0,0,1-30.7-1.2q14-4.83,27.62-10.63a61.24,61.24,0,0,0-19-19L317,140.78a96.69,96.69,0,0,1-19.45-42.54c8,2,13.62,9.61,15.63,17.61s1.09,16.4.15,24.6"/><path class="cls-7" d="M271.92,107.13A425.19,425.19,0,0,0,274.17,152a66.55,66.55,0,0,1-28.55-16.78L300,162a239.28,239.28,0,0,1-38.1-36.5,272.64,272.64,0,0,0,30.42,28.33,147,147,0,0,1-31.18-37.24,437.1,437.1,0,0,1,38.83,32.54A261.65,261.65,0,0,1,257.69,110q26,20.46,53.85,38.28a217.67,217.67,0,0,1-34-60.53,266.49,266.49,0,0,1,44,55,154.89,154.89,0,0,1-23.82-49.8,112.39,112.39,0,0,1,20.71,31.74,79.72,79.72,0,0,1-13.37-30.91,115.89,115.89,0,0,1,21.16,38.33,140.89,140.89,0,0,1-12.1-33.31,122.5,122.5,0,0,1,8.24,29.63c.78,5.39,1.17,11.08-.94,16.1a29.46,29.46,0,0,1-6.25,8.65A96.9,96.9,0,0,1,287.87,173a171.8,171.8,0,0,1,32.86-25.25,102.39,102.39,0,0,1-12.23,28.81,34.21,34.21,0,0,1,10.9-21.64,429.06,429.06,0,0,0-32.79,53.44"/><path class="cls-7" d="M440.09,284l12.48-10.3c-27.18,20.53-56.41,41.11-90.21,45.33"/><path class="cls-7" d="M362.52,355.46l56.74-25.3c9.6-4.28,20.39-10,22.5-20.28"/><path class="cls-7" d="M411,212.83V215c-14,16.52-28.73,30.68-48.4,39.68-10,4.58-21,8.39-28,16.93"/><path class="cls-7" d="M389.36,164.28a234.91,234.91,0,0,1-55.87,47.93c-2.18,1.34-4.57,2.7-7.13,2.52s-5.09-2.61-4.37-5.06"/><path class="cls-7" d="M191,222.35q42,19.07,85.37,34.94c5.21,1.91,10.94,3.8,16.2,2,4.6-1.58,7.82-5.67,10.65-9.63"/><path class="cls-7" d="M198.51,306.37c34.6,3.67,69.32,7.35,104.11,6.54,8.18-.19,17.68-1.38,21.92-8.37"/><path class="cls-7" d="M200.74,341.91c34.63,11.32,69.33,22.65,104.86,30.68,18,4.08,39.32,6.5,52.89-6.08"/><path class="cls-7" d="M187.83,280.79q-2.1,27.33-1.67,54.78c.19,11.88,1.1,24.75,8.84,33.77"/><path class="cls-7" d="M317.18,371.47l29.15-17.36-22.21,3.63A46.39,46.39,0,0,0,339.91,349a61.11,61.11,0,0,1-20.42-8.4l12.41-.94c2.78-.22,5.9-.61,7.59-2.82s-.11-6.49-2.77-5.65"/><path class="cls-8" d="M360.32,156.75a3.78,3.78,0,0,1,2.64-2.53,47.43,47.43,0,0,1-7.74,16.58A64.17,64.17,0,0,1,371,156.33a71.31,71.31,0,0,1-19.3,22.1,126.26,126.26,0,0,1,26.94-27.81,121.62,121.62,0,0,1-24.33,30.14c-1.82-3.16-.15-7.12,1.68-10.27a105,105,0,0,1,19.19-24A46.74,46.74,0,0,1,364,169.54a23.82,23.82,0,0,1,11.23-22.44,24,24,0,0,1-2.81,14.39c-.57,1-1.52,2.16-2.68,1.93-.89-.18-1.41-1.09-1.75-1.93a19,19,0,0,1-1.18-10.05,20.69,20.69,0,0,1,13.58,2.27L361,155.21a176.11,176.11,0,0,0,29.23-.12,91.2,91.2,0,0,1-38.05,25.33,92.06,92.06,0,0,1,37.12-25.17,73.84,73.84,0,0,1-26.1,11.66,184.7,184.7,0,0,1,39.41-11.56,60.82,60.82,0,0,1-26.68-.44,91.58,91.58,0,0,1,36.19,5.93"/><path class="cls-8" d="M396.94,195.57l7.55,14"/><path class="cls-8" d="M371.12,234.39l-3.42-17.54q0,11.37-1.08,22.72a140,140,0,0,1,13.61-19.26l1.08,15.17a36.26,36.26,0,0,1,15.87-14.7,41,41,0,0,1-17,19.44,42.84,42.84,0,0,1,27.34-15.75,161.65,161.65,0,0,1-38.93,19,9.71,9.71,0,0,1-4.77.7c-4.11-.76-5.92-6.16-9.95-7.31a7.24,7.24,0,0,0,.67,5.26l-6.69-1.89a5.46,5.46,0,0,1,1.51,4.18,95.66,95.66,0,0,1-10.49-3.64,11.83,11.83,0,0,0,1,5.34l5.26.17"/><path class="cls-8" d="M408.81,238.72l14,16.18"/><path class="cls-8" d="M366.73,257.16a113.46,113.46,0,0,1,21.33,4.46l-38.56-.3,30.62.36a80.1,80.1,0,0,1-28.5,3.91,92.74,92.74,0,0,1,23.65,4.16,78.35,78.35,0,0,1-31.17,3.39"/><path class="cls-8" d="M374.25,314.24a38.46,38.46,0,0,0-5.18-9.37,33.16,33.16,0,0,1-6.37,16.82l-.29-8.2A20,20,0,0,1,356.17,324,46.49,46.49,0,0,1,343,308.57a73.9,73.9,0,0,0,27.06,3.5,23.42,23.42,0,0,0-7-13.55c4.47,6.5,13.67,8.26,21.3,6.25s14.06-7,20.26-11.88a76.61,76.61,0,0,1-27.09,11,101.64,101.64,0,0,1,34-9,62.2,62.2,0,0,1-46,21.05"/><path class="cls-8" d="M388.31,371.39l7.55,1.07"/><path class="cls-8" d="M368.9,367.07l12.8-.88a94.38,94.38,0,0,1-21.25-8A182.11,182.11,0,0,0,387.59,355c5.38-1.06,11.58-3.13,13.17-8.37a47.92,47.92,0,0,1-10.16,11.24,159.6,159.6,0,0,1,34.35-16c-16.78,12.79-36.41,21.21-55.81,29.51a296.71,296.71,0,0,1,47-26.42"/><path class="cls-8" d="M280.29,381.63l13,3.95A65.2,65.2,0,0,1,281,377a86.48,86.48,0,0,1,24.68,5c-15.11,9.34-34.87,4.59-52,9.28a488.13,488.13,0,0,0,58.75,1.8c-18.86,7.2-38.82,11-58.67,14.67-2.76.52-5.66,1-8.35.2s-5.05-3.47-4.54-6.24"/><path class="cls-8" d="M191,316.26l54.23,18.06a163.36,163.36,0,0,0-45.91,9.82,4.8,4.8,0,0,0-2.76,1.89c-1.46,2.74,2.73,4.93,5.83,5.27l50.46,5.46a177.29,177.29,0,0,0-42.88,17.92,115.26,115.26,0,0,0,48.59-17.25"/><path class="cls-8" d="M194.16,301.28l1.08-1.08"/><path class="cls-8" d="M196.35,287.19a236,236,0,0,0,36.49,10,229.59,229.59,0,0,1-31-12.59L230.52,293a103.18,103.18,0,0,1-28.42-10.86l19.31,5.6a74.94,74.94,0,0,1-21.86-9.41l11.63.36a43.66,43.66,0,0,1-17.51-12.58"/><path class="cls-8" d="M180.14,244.11l34,13.12a172.48,172.48,0,0,1-37.86-30.69,98,98,0,0,0,34.24,10.81L182,206.19a123.6,123.6,0,0,0,20.59,7,188,188,0,0,1-23.8-27.08c3.07-.32,6.23-.63,9.21.17s5.8,3,6.44,6"/><path class="cls-8" d="M183.7,177.58a33.33,33.33,0,0,1,32-7.49l-47.32,1.32,30.73.61-42.55,3.27a167.11,167.11,0,0,0,44-3.62,211.71,211.71,0,0,0-37.57,17.58,205.61,205.61,0,0,1,46.21,3,104.24,104.24,0,0,1-36.55-7.65,98,98,0,0,0,25.85-3.18,76.26,76.26,0,0,0-38.73,10.35c-2.18,1.28-4.4,2.77-5.55,5-1.35,2.66-.95,5.84-.46,8.78a272.77,272.77,0,0,0,13.36,50.58L158,195.05a288.75,288.75,0,0,0,21,129.69l-7.27-84.23c-2.28,39.57-4.38,80.4,9,117.7a780.93,780.93,0,0,0-3.95-90.47,429.14,429.14,0,0,0,4.73,63.15L171,263.61l11.17,70.25L154.26,221.24c-1-4.22-2.06-8.81-.32-12.79l-17,6.61a84.66,84.66,0,0,0,25-1.69l-25.4,11.4,22.25-4.72q-27.33,11-55.31,20.36a535.44,535.44,0,0,1,30.86,84.7l-22.17-72a223.09,223.09,0,0,1,17.89,84.89,175.57,175.57,0,0,0,57.09-29.94L147.08,226q6.51,38.72,14.57,77.15L136,238.57,152,309,134.47,250l17.82,70a853.74,853.74,0,0,1-26.49-85,746.08,746.08,0,0,1,37.75,78.21,533.39,533.39,0,0,1-12-73.77A590.4,590.4,0,0,1,172.24,315l-12.78-73.9L166.91,302A487.07,487.07,0,0,0,139,234.28l10.88,71.49-26.13-65.6q9.21,38,21.15,75.15l-26.26-36.69"/><path class="cls-9" d="M148.8,214.78a393.06,393.06,0,0,0-73,31.67,400.54,400.54,0,0,0,50.47-36Q105,222.53,84.9,236.47l35.25-13a345.35,345.35,0,0,0-49.78,26.83q42.13-20,86.08-35.8l-17.23,3.52,6.62-5.6q11.46,40.92,19.52,82.7L151.8,229.72a942.12,942.12,0,0,1,22.62,95.79l-61.67,29.18c-3.43,1.63-7,3.33-9.44,6.2-8.68,10-.17,28.1-9.33,37.69a538.25,538.25,0,0,0-22.31-72.82,106.31,106.31,0,0,0,12.72,54.43,616.79,616.79,0,0,0-17.66-98.82c-1.88-7.11-4.09-14.55-9.4-19.65l19.85-16.54L65.35,255l10-8.83A41.25,41.25,0,0,0,59.74,258.7"/><path class="cls-9" d="M78,254.87c3.58,30.72,7.23,61.75,17.62,90.88a777.23,777.23,0,0,1-9.32-84.32q.27,33.32,3.19,66.55c.49,5.6,1.22,11.62,5,15.78"/><path class="cls-9" d="M108.9,244.23c-1-.17-1.55,1.2-1.42,2.21s.51,2.16-.1,3-2.37-.24-1.55-.86a588.67,588.67,0,0,0,4.44,90.3c-2-27.27-7.12-54.21-12.19-81.08a237.14,237.14,0,0,0,8.39,64q1-32.51-1-65A296.74,296.74,0,0,0,123,322.93q-2.19-40.29-7.9-80.28c5.64,23.85,11.39,48,23.15,69.52q-6.72-39.84-10.16-80.12c7.75,29.67,15.62,59.64,29.89,86.78q-10.57-41.25-18.19-83.19a253.28,253.28,0,0,0,18.69,63.1q-7-28.5-12.25-57.4a357.83,357.83,0,0,1,4.3,43.1,137.55,137.55,0,0,1-17-46.57,296,296,0,0,0-43.75,23.86c10.31-11.05,23.51-18.91,36.51-26.63L81.39,250.44l39.77-20.54A311.2,311.2,0,0,0,77,241.47c19-2.29,37.41-9.91,55.64-3.83"/><path class="cls-9" d="M419.36,143l-9.89-9.28L426,125.48a69.23,69.23,0,0,0-31,7.74,61,61,0,0,0,12.41-6.84,96.8,96.8,0,0,1-41.75,14.27l41.51-16.39-27.92,15.53a290.62,290.62,0,0,1,40.55-13.46c16.3,19,27.62,41.66,38.78,64.07a256.57,256.57,0,0,0-25.34-49.12l33.29,67.86A84.73,84.73,0,0,0,443,221.52q-10.43-41-17.08-82.76a426.18,426.18,0,0,0,26.87,73l-31.07-76.32q12.1,28,26.19,55a289.24,289.24,0,0,1-38.7-58.4,519.07,519.07,0,0,1,41.64,66.34c-14.81-23.66-29.9-48-35.35-75.37a420.5,420.5,0,0,1,38.81,92.71,243,243,0,0,1-21.79-40.66q13.74,17.63,25.86,36.42-7.62-20-13.32-40.64a99.27,99.27,0,0,1,22.11,46.07"/><path class="cls-10" d="M69.55,265.06c-3.67,3.9-11.41,2-12.88-3.14,11.2,23.1,6.28,50.53,11,75.77,3.56,19,12.54,36.45,18.3,54.88Q70.91,337.3,60.57,280.88a293.8,293.8,0,0,1,11.74,60.34,277.44,277.44,0,0,0-17.67-80c4.52,41.17,9.06,82.43,17.62,123,1.12,5.34,2.47,11,6.22,14.92s10.76,5.39,14.61,1.52a96.73,96.73,0,0,1-17.75-40,206,206,0,0,0,11.93,32.73l-11.91-37,4.78,31.78L70.9,354.06q4.32,21.54,10.21,42.72L67.79,350.29l14.34,40.94A164.8,164.8,0,0,1,68.37,290.69c1.4-7.7,3.15-16.37-1.37-22.75a168.73,168.73,0,0,0,10,61.72c1.33,3.67,2.79,7.78,1.2,11.35s-7.89,4.53-9,.78"/><path class="cls-10" d="M111.82,357.42a236.62,236.62,0,0,1,23.25-7.35c13.06-3.4,26.56-5.74,38.72-11.62l-43,.8,42.37-6.66a184,184,0,0,0-33,4.63q18.66-5.36,36.75-12.51-27.66,9.81-54.82,21a300,300,0,0,0,45.17-9.63L142.2,347l36.59-14.07"/><path class="cls-10" d="M466,209.65c-.93.08-.92,1.8,0,1.87"/><path class="cls-10" d="M450.84,238.61l42.3-12.24c-10.12-17-9.75-38-15.2-57a94.74,94.74,0,0,0-19.56-35.92l-27,.78q12.24,35.91,27.58,70.68a200.06,200.06,0,0,0-39.32-85.52C432.27,130,445,140.67,454.66,154s16.06,29.71,14.27,46.06A400.7,400.7,0,0,1,448.27,137l27.39,53.63a311.42,311.42,0,0,0-28.68-51c10.86,30.93,21.8,62.24,24.84,94.88.56,6,.83,12.11-1,17.8s-6.3,10.88-12.17,12.07l-6.81-39.09a123.74,123.74,0,0,0,9.7,33.49l-2.22-36.58a60.88,60.88,0,0,0,9.9,21A434.71,434.71,0,0,0,466.69,193a157.86,157.86,0,0,0,11.44,41.78,79.65,79.65,0,0,0-1-35.06,255,255,0,0,0,5.76,50.39c1.88,8.66,5.17,18.37,13.37,21.72"/><path class="cls-10" d="M447.55,173A73.23,73.23,0,0,0,436,157.64a579.25,579.25,0,0,1,27.9,80.48,307.89,307.89,0,0,0-11.16-52.89q.39,19.59,2.7,39.07c.55,4.62,1.23,9.39,3.71,13.32a5.65,5.65,0,0,1,.91,1.84c.27,1.31-.56,2.57-1.37,3.64A97.77,97.77,0,0,1,437.19,264"/><path class="cls-10" d="M118.83,355.83a171.25,171.25,0,0,0,42.52,41.28,3.46,3.46,0,0,0,2,.8,3.29,3.29,0,0,0,2.09-1.27c3.57-3.8,6.14-8.39,8.68-12.93l12.42-22.21a8.08,8.08,0,0,0,.86-8.12q-2.53-8.73-5.06-17.45a242,242,0,0,1-1.59,28.48l-8.22-36.21.07,36.8a238.24,238.24,0,0,0-20.7-22.39l9.34,28.75-23.87-15.81a130,130,0,0,0,19.39,19.14,107.74,107.74,0,0,1-20.9-16.92A181.35,181.35,0,0,1,161,379.94a40.05,40.05,0,0,1-7.67-29.77A33.79,33.79,0,0,1,159.81,374,155.45,155.45,0,0,1,175.09,353a63.37,63.37,0,0,1-14.57,25.71,42.68,42.68,0,0,1,17.07-27.58,41.5,41.5,0,0,1-16.28,37.59,73.35,73.35,0,0,1,3.51-33.06,40.57,40.57,0,0,1,.18,16.82c-.82,4.06-2.66,8.42-6.51,10-4,1.62-8.62-.57-12-3.36-8.44-7.06-20.23-28.9-.51-25.28,7.87,1.45,26.58,14.12,23.37,23.92-2.47,7.52-35.28,11.18-12.28,19.14C148.56,382.88,135.89,360.43,118.83,355.83Z"/><path class="cls-11" d="M192.71,407.22a76,76,0,0,0-20.34-20c-.87-.58-1.87-1.39-1.7-2.42a2.67,2.67,0,0,1,1-1.43l11.67-11A42.84,42.84,0,0,1,180,385.72,164.78,164.78,0,0,1,185.7,365a197.4,197.4,0,0,1-4.54,23.63,54.11,54.11,0,0,1,1.73-18.78l3.77,20.93-.16-20.83,4.23,19a15.18,15.18,0,0,0-3-8.71,56.42,56.42,0,0,0-.84,18.28,77.78,77.78,0,0,0-10.1-12.42,45.12,45.12,0,0,0,5.79,16.5l-13.48-14.17,9.73,19.9-10.61-21.78"/><path class="cls-11" d="M139.16,195.57h2.15"/><path class="cls-11" d="M155.29,187.92a5,5,0,0,1-5.32-2.36,327.41,327.41,0,0,0-23.36,24.35A153.26,153.26,0,0,1,144.55,192a157.16,157.16,0,0,1-12.89,23.63,90.34,90.34,0,0,1,15-27.37,91.81,91.81,0,0,1-5.76,19.12A55.66,55.66,0,0,1,152.29,186a59.32,59.32,0,0,1-5.93,24.36q4.33-13.86,10-27.25l0,25.82-15.74-12a7,7,0,1,0,14,.9c-.24-4-3.89-7.08-7.76-8s-7.93-.21-11.84.52l30,6.36"/><path class="cls-11" d="M193.09,362.76l1.13-26.52a102,102,0,0,0,22.39,60l-15.84-35.77a217,217,0,0,0,29.41,28.65q-23-43.41-47.68-85.87a150.25,150.25,0,0,0,40.64,39.59l-33.51-59.2a136.9,136.9,0,0,0,29.43,28.89,97.83,97.83,0,0,0-6.59-22"/><path class="cls-11" d="M283.69,325l34.8,7-50.19-6.14a82.27,82.27,0,0,0,42.32,6.45"/><path class="cls-11" d="M309.74,83.36c4,22.65,24.35,39.49,29.63,61.89l-.67-6.85"/></svg>