<svg id="Livello_1" data-name="Livello 1" xmlns="http://www.w3.org/2000/svg" viewBox="0 0 588.32 415.99"><defs><style>.cls-1,.cls-4,.cls-5,.cls-6,.cls-7{fill:none;stroke-miterlimit:10;}.cls-1{stroke:#b08e5b;}.cls-2{fill:#b08e5b;}.cls-3{opacity:0.31;}.cls-4,.cls-5{stroke:#000;}.cls-4{stroke-width:0.5px;}.cls-5{stroke-width:2px;}.cls-6{stroke:#5c809b;}.cls-7{stroke:#92744d;}.cls-8{fill:#836944;}.cls-9{opacity:0.57;}</style></defs><path class="cls-1" d="M319.58,90.06l28.66-12.45L316.92,88.32,351.79,77,324.1,89.13,360.43,79l-13.8,1.25,32.15,2-22.11-5.72a74.35,74.35,0,0,1,45.95,33.07L390.79,92.13l22,51.48L392.9,100.88l17.81,61.32a315.28,315.28,0,0,0-16.58-49.72,281.55,281.55,0,0,0,19.06,52.64l-15-39.12a411.66,411.66,0,0,0,19.93,49.64,29.06,29.06,0,0,0-2.47-12,349.22,349.22,0,0,0,22.89,64.55l-17.42-52a257.26,257.26,0,0,0,22.51,70.3,341.94,341.94,0,0,0-15.07-41.06,392.86,392.86,0,0,0,12.76,65.27l-13.36-56q1,37.08,4.49,74l-1.12-19c1.55,10.32-6.9,19.59-16.07,24.59s-19.69,7.58-28,13.91a171.92,171.92,0,0,0,40.55-5.69,68.19,68.19,0,0,0-21.48,6.75l21.2-18.76a178.23,178.23,0,0,1-40,24.77l18.11-2H355.79l20.75,2.69A132.31,132.31,0,0,0,336,306.76l54.41,5.36-46.32-1.07,17.6,6.64a117.64,117.64,0,0,1-46.47-17.47l22.3,11.52a195,195,0,0,0-27.25-41L323,298.46l-21.5-28.67,22.58,27.14a274.76,274.76,0,0,1-25.18-47.55l12.7,40.14a81.9,81.9,0,0,1-3-65.46,104,104,0,0,1-.21,30.61,195.44,195.44,0,0,1,4.34-53.49,255.55,255.55,0,0,1-6.5,40.87l4.74-54.28-7.83,47.66,5.62-79.88a696.65,696.65,0,0,1-2.51,79.26A780.06,780.06,0,0,1,315,142.12l-2.22,61.35q6.23-51.66,9.31-103.64l-1.36,64-.11-65.77,2.9,43.65-6.84-33,11.42,19.09-10.59-27.59,7.58-3.56c.23,1.43-2.63.59-2.23-.8s2.1-1.82,3.49-2.24,3-1.57,2.53-2.95l-20,17.51,21.46-26.43a85.57,85.57,0,0,1-8.6,16.69,116.85,116.85,0,0,1,15.5-22.79,214.55,214.55,0,0,1-27.43,42.58"/><path class="cls-1" d="M317.88,262.22a26.14,26.14,0,0,1-11.17-22.28A77.12,77.12,0,0,0,326,292.88a134.86,134.86,0,0,0-15.1-33.71,55.35,55.35,0,0,0,30,30.84A44.22,44.22,0,0,0,324,278.37q19.53,8.2,39.81,14.47a86.94,86.94,0,0,1-19.28-2.37l28.36,3.44a59,59,0,0,0-17.49,1,182.2,182.2,0,0,1,42.51-11.14,65.86,65.86,0,0,0-22.61,3.51,177,177,0,0,0,38.83-5.75,214.55,214.55,0,0,0-30.94,9.15A126.17,126.17,0,0,0,410.44,285L384,298.68l49.68-43.76a133.78,133.78,0,0,0-16.65,20.78,249.83,249.83,0,0,0,18-31.11l-9.61,16,4.67-44.79"/><path class="cls-1" d="M425.78,198.44l-1.09-1.08"/><path class="cls-1" d="M306.57,237.86a95.52,95.52,0,0,0,24.21,36.07q-9.39-21.08-19.51-41.8a94.82,94.82,0,0,0,17.39,34.45q-7.4-24.76-14.81-49.55,9.09,19.78,19.88,38.72L322.4,205.87a222.7,222.7,0,0,0,15.94,47,124.78,124.78,0,0,0-16.75-45.74,80.21,80.21,0,0,0,22.86,51.34A36.27,36.27,0,0,0,323.4,239a61,61,0,0,0,28.83,31.25A62.16,62.16,0,0,0,327.11,267a57.41,57.41,0,0,0,36.19-1.47"/><path class="cls-1" d="M321.29,193.19a235.65,235.65,0,0,0,19.26,42.73c-7.91-19-15.95-38.6-15.62-59.14l23.81,56.73a377.38,377.38,0,0,0-21.58-65.44,112,112,0,0,0,28.15,42.17,182.45,182.45,0,0,1-14.44-55.1"/><path class="cls-2" d="M369.44,158.68c3.21,0,3.22-5,0-5s-3.23,5,0,5Z"/><g class="cls-3"><path class="cls-2" d="M372.7,190.88l-4.37-59.47a2.56,2.56,0,0,0-2.5-2.5,2.51,2.51,0,0,0-2.5,2.5q2.67,43.53,6.35,87c.59,7,.55,14.66,5.14,20.43,1.45,1.83,4.16.18,4.26-1.76,1.34-25.76-3.48-51.36-9.86-76.2-1.8-7-3.73-14-5.69-21a2.51,2.51,0,0,0-4.91.67,400.15,400.15,0,0,0,5.1,70.16q1.59,9.87,3.69,19.66c.55,2.56,4.08,2.18,4.82,0,3-9,.84-18.73-.54-27.82l-4.43-29.19-2.53-16.67a2.51,2.51,0,0,0-3.07-1.75,2.57,2.57,0,0,0-1.75,3.08l4.32,28.44c1.4,9.27,3.11,18.54,4.14,27.86.56,4.95.65,9.95-1,14.72h4.82a392.67,392.67,0,0,1-8.44-68.74q-.33-9.87-.17-19.75l-4.91.66c6.84,24.31,13.42,49,15.16,74.26a176.41,176.41,0,0,1,.21,21.57l4.27-1.77c-1.7-2.14-2.36-4.95-2.78-7.59-.48-3-.62-6.05-.87-9.07q-.9-10.52-1.73-21.05-1.67-21.18-3.11-42.38-.8-11.91-1.53-23.81h-5l4.37,59.47a2.56,2.56,0,0,0,2.5,2.5,2.52,2.52,0,0,0,2.5-2.5Z"/></g><g class="cls-3"><path class="cls-2" d="M373.43,167.7l5.07,34,2.54,17c.74,4.93,1.3,9.93,2.48,14.78,1.22,5,3.31,9.91,7,13.6,1.42,1.4,4.51.48,4.27-1.76a399.83,399.83,0,0,0-14.37-71.88q-3-10-6.51-19.88a2.51,2.51,0,0,0-4.83,1.33c5.19,23.7,10.42,47.54,19.29,70.19,2.52,6.44,5.32,12.78,8.46,18.94a2.47,2.47,0,0,0,3.12,1,2.52,2.52,0,0,0,1.45-2.94Q394,204.61,383,168q-3.11-10.35-6.48-20.6L372,149.27c9.45,20.18,12.69,42.59,21.62,63a94.22,94.22,0,0,0,8.89,16.1c1.54,2.21,5.42.94,4.57-1.93a399.86,399.86,0,0,0-28.77-71q-4.41-8.43-9.21-16.64c-1.38-2.35-2.75-5.24-5.31-6.52a5.19,5.19,0,0,0-7.13,2.62c-1.26,2.78-1.25,6.18-1.61,9.16-.43,3.43-.83,6.87-1.22,10.3q-1.12,10.07-2.06,20.14-2.13,23.12-3.19,46.31h5q-2-39.74-1.94-79.56,0-11.19.2-22.38h-5q2.31,37.15,1.29,74.42-.29,10.42-.84,20.83h5l-7.36-73.61-2.09-20.89-4.91.66a179.46,179.46,0,0,0,17.46,39.36c1.65,2.76,6,.24,4.32-2.53a173.74,173.74,0,0,1-17-38.16,2.5,2.5,0,0,0-4.91.67l7.37,73.61,2.08,20.89a2.5,2.5,0,0,0,5,0q2-37.19.58-74.43-.37-10.41-1-20.82c-.2-3.19-5-3.25-5,0q-.63,39.79.78,79.58.39,11.19,1,22.36a2.5,2.5,0,0,0,5,0q1.79-39,6.59-77.73c.18-1.45.31-2.93.56-4.37a6.93,6.93,0,0,1,.34-1.43s.22-.57.18-.41c0-.17.29-.24.1-.18s-.17-.22.21.06a5.64,5.64,0,0,1,.95.88,26.12,26.12,0,0,1,2.16,3.5q4.51,7.71,8.68,15.62c5.59,10.61,10.72,21.49,15.3,32.58a395.67,395.67,0,0,1,13.61,38.43l4.57-1.93C394,207.5,390,185.13,383.14,164.3a157.19,157.19,0,0,0-6.87-17.55c-1.2-2.56-5.45-.76-4.57,1.92q11.94,36.32,20.42,73.64,2.38,10.53,4.49,21.12l4.56-1.92c-10.9-21.41-17.37-44.7-22.78-68-1.54-6.63-3-13.28-4.45-19.93l-4.83,1.33a395.13,395.13,0,0,1,18,70.36q1.61,10,2.67,20.07l4.27-1.77c-3-3-4.62-6.94-5.65-11-1.17-4.64-1.73-9.44-2.43-14.17l-5-33.27-2.8-18.73a2.51,2.51,0,0,0-3.07-1.75,2.56,2.56,0,0,0-1.75,3.08Z"/></g><g class="cls-3"><path class="cls-2" d="M369.67,226.64a24.46,24.46,0,0,0,20.71,11.29l-1.26-4.66a59.56,59.56,0,0,1-40.57,3.86A56.62,56.62,0,0,1,337.4,233l-2.53,4.32c16.47,7.74,35.08,6,52.25,11.11a46.29,46.29,0,0,1,13.16,6.11l1.26-4.66a295.92,295.92,0,0,1-32.06,1.6q-7.89,0-15.79-.5a85.41,85.41,0,0,1-13.36-1.32c-3.66-.8-7.3-2.23-8.95-5.81a2.53,2.53,0,0,0-3.43-.9,2.56,2.56,0,0,0-.89,3.42c3.78,8.18,14.44,8.76,22.19,9.32a296.38,296.38,0,0,0,33.32.56q9.51-.38,19-1.37a2.52,2.52,0,0,0,1.26-4.65c-15.06-10.32-34.09-9.28-51.28-12.79A62.3,62.3,0,0,1,337.4,233a2.57,2.57,0,0,0-3.42.9,2.52,2.52,0,0,0,.89,3.42,65,65,0,0,0,44.58,4.76,62.93,62.93,0,0,0,12.19-4.47c2.29-1.11,1.11-4.69-1.26-4.66A19.35,19.35,0,0,1,374,224.12c-1.72-2.7-6.05-.2-4.32,2.52Z"/></g><path class="cls-1" d="M316.35,119.35a105.15,105.15,0,0,0-16.48-21.24l11.83,9.19-9.69-7A116.1,116.1,0,0,0,269.91,113a107.36,107.36,0,0,0,26.54-4l-13.89,6.75,14.95-9.43c-13.51-1.41-25.68,8.3-34.1,19s-15.09,23.09-26.05,31.12l33.77-32.95A409.42,409.42,0,0,1,213,175.71q24.88-23.57,51.37-45.37A374.78,374.78,0,0,1,216.89,173a246.1,246.1,0,0,1,42.29-43.28,688.8,688.8,0,0,1-88.91,72.34l18.48-18.28a355.35,355.35,0,0,1-22,30.87l3.32-10.27-2.31,33.13,1.28-34.71.12,48.16-7.07-37.71a103.53,103.53,0,0,0,7.57,51.35,43.63,43.63,0,0,0-7-14.85,261.52,261.52,0,0,0,30.24,29.76l-25.51-23.79,32.94,37.09a216.81,216.81,0,0,0-19.59-19.7,229.69,229.69,0,0,0,30.15,14.54,39.6,39.6,0,0,0-19.26-10,96,96,0,0,0,38.8,7.46A104.11,104.11,0,0,0,200,287.78a147.69,147.69,0,0,0,57.14-17.66,69.65,69.65,0,0,0-35.27,13.41,458.12,458.12,0,0,0,48.59-29.77L244.8,269.44l32.29-28.69-29.71,27.79,52.26-55-33.88,27.92,33.56-40L268.7,236.76l31-35-30.86,37.45,34-40.08-26.82,32.52,18-21.32a106.7,106.7,0,0,1-12.34,20.43,359.06,359.06,0,0,1,29.7-39.2A678.27,678.27,0,0,1,222.57,271l18.61-9.59a227.14,227.14,0,0,1-76.09,35.84l38.85-1.05a140.78,140.78,0,0,0-41.87,2.2,492.28,492.28,0,0,0-17.37-54.75,140,140,0,0,0,7.75,26.53L150,239.2a107.63,107.63,0,0,0,22.71,44.29,34.18,34.18,0,0,0-12.64-8.43,111.89,111.89,0,0,0,44.38,11.24l-44.5.08a105.57,105.57,0,0,1-.59-79.76l1.52,74.57a167.36,167.36,0,0,1-7.6-64.41c.24-3,2.08-7,4.9-6"/><path class="cls-1" d="M169.71,237.79c-9.49-9.22-9.16-25.46-2-36.58s19.57-17.82,32.16-21.87,25.8-5.94,38.39-10l-26.87,3.5a322.2,322.2,0,0,1,42.94-27.49l-19.26,18.24,40.07-37.53-24.91,24.38,38.22-42.76C296,99.3,306.43,90.08,317,94l-11.21-2.87,11.48,3.09-8.32.22A64.56,64.56,0,0,1,305.12,130"/><path class="cls-1" d="M181,260.09a263.21,263.21,0,0,0,66.89,15.39A61.92,61.92,0,0,0,227.41,278q26.19-16.78,52.92-32.72l-41,29.71,52-46.06-25,25.73,35.21-43.9-20.58,31.11a96.86,96.86,0,0,1,27.14-30.33c-12.16,15.89-33.16,22.25-47.63,36.07"/><path class="cls-1" d="M191.81,242.77a257.87,257.87,0,0,0,28.55,18.1,96.79,96.79,0,0,0-25.22-7.32,108.29,108.29,0,0,0,55.21-.31c-20.68-1.85-41.26,3.38-61.36,8.58l74.17-28.09c-21,1.42-38.82,16.82-59.64,20.11l63.94-40.76c-9.2,3.63-17.48,9.19-25.67,14.73q-22,14.85-43.75,29.94,27.18-25.11,56.68-47.52c6.32-4.81,13.69-9.77,21.52-8.48"/><path class="cls-1" d="M301.12,112.8Q280.34,137.39,258,160.61a196.22,196.22,0,0,1,51.85-46.8,260.89,260.89,0,0,1-26,33.35,68.86,68.86,0,0,1,21.48-21.56,107.8,107.8,0,0,1-14.18,28.16L284.81,140a46.86,46.86,0,0,0,16,19.8,3.77,3.77,0,0,0-.76-3.59"/><g class="cls-3"><path class="cls-2" d="M305.33,143.19l-4.34,2,3.76,2.16a64.31,64.31,0,0,1,2.36-21.56l-4.82-1.33Q297.75,145.16,294,166l4.82,1.33a274.39,274.39,0,0,1,11.88-48.92l-4.92-.66q-2.87,24.17-6.21,48.27a2.59,2.59,0,0,0,1.75,3.07,2.51,2.51,0,0,0,3.07-1.74l9.88-50.51-4.91-.67-4.81,56c-.24,2.79,4.34,3.42,4.91.66L321,116.6l-4.91-.66c2,16.88-.91,33.74-5.43,50-1.31,4.7-2.75,9.36-4.26,14l4.91.67A251.78,251.78,0,0,1,317,130.06c.68-3.12-4-4.46-4.82-1.33q-6,24.12-13.85,47.74-2.25,6.79-4.66,13.53l4.91.66a261.5,261.5,0,0,1,6.77-57l-4.82-1.32-6.93,49.88-2,14.33a2.58,2.58,0,0,0,1.74,3.07,2.53,2.53,0,0,0,3.08-1.75l13.05-71.12,3.69-20.11a2.57,2.57,0,0,0-1.75-3.08,2.53,2.53,0,0,0-3.07,1.75,470.28,470.28,0,0,1-16,56.47l4.91.67a457.65,457.65,0,0,1,8.55-56.7,2.5,2.5,0,0,0-4.82-1.33l-22.53,57.21,4.82,1.33a311.69,311.69,0,0,1,14.73-56.71c1-2.71-3.17-4.32-4.57-1.93L266.06,151l4.31,2.53a224.62,224.62,0,0,1,26.15-43.47c1.71-2.23-2.15-5.24-3.93-3l-34.22,42.54,3.92,3a425.18,425.18,0,0,1,34-43l-3.53-3.54q-17,20.28-35.37,39.39l3.53,3.53a259.17,259.17,0,0,1,39.86-39.19q6.15-4.86,12.6-9.31l-3.67-2.83-12.26,50.1-3.5,14.27c-.77,3.13,3.94,4.44,4.82,1.33L307.09,134c1.31-4.63,2.55-9.3,4-13.9,1.17-3.81,2.64-7.61,5.44-10.53l-4.17-2.43a441.78,441.78,0,0,0-12.09,57.26q-1.19,8.32-2.07,16.69a2.51,2.51,0,0,0,2.5,2.5,2.56,2.56,0,0,0,2.5-2.5A436.67,436.67,0,0,1,313,124.28q1.92-8,4.15-15.85A2.52,2.52,0,0,0,313,106c-3.13,3.25-5,7.34-6.36,11.58-1.52,4.64-2.73,9.4-4.06,14.1l-8.6,30.43,4.82,1.33L311,113.34l3.49-14.28c.49-2-1.79-4.12-3.67-2.82A262.32,262.32,0,0,0,268,133.39q-5.47,5.91-10.57,12.14a2.56,2.56,0,0,0,0,3.53,2.51,2.51,0,0,0,3.53,0q18.33-19.09,35.37-39.38a2.57,2.57,0,0,0,0-3.54,2.52,2.52,0,0,0-3.53,0,435.67,435.67,0,0,0-34.77,44c-1.6,2.31,2.14,5.25,3.92,3l34.23-42.53-3.93-3A224.8,224.8,0,0,0,266.06,151a2.58,2.58,0,0,0,.89,3.42,2.52,2.52,0,0,0,3.42-.89l27.44-46.76-4.57-1.93a311.69,311.69,0,0,0-14.73,56.71,2.5,2.5,0,0,0,4.82,1.33l22.53-57.21L301,104.38a469.35,469.35,0,0,0-8.73,58,2.48,2.48,0,0,0,2.17,2.45,2.51,2.51,0,0,0,2.74-1.79,470.28,470.28,0,0,0,16-56.47l-4.82-1.33-13.05,71.12-3.69,20.12,4.82,1.32L303.38,148l2-14.33a2.59,2.59,0,0,0-1.75-3.07,2.51,2.51,0,0,0-3.07,1.75,267.32,267.32,0,0,0-6.95,58.36c0,2.94,4,3.24,4.92.67q8.34-23.42,14.89-47.42,1.89-6.9,3.61-13.85l-4.82-1.33a258.43,258.43,0,0,0-5.89,51.86c0,2.89,4.05,3.3,4.91.66,5.34-16.38,9.9-33.28,10.47-50.6a99,99,0,0,0-.6-14.71,2.53,2.53,0,0,0-2.17-2.46,2.47,2.47,0,0,0-2.74,1.79l-11.57,56.28,4.91.67,4.81-56c.24-2.79-4.37-3.43-4.91-.66L299.54,166l4.82,1.33q3.43-24.78,6.39-49.6a2.47,2.47,0,0,0-2.16-2.46,2.54,2.54,0,0,0-2.75,1.79A275.23,275.23,0,0,0,294,166a2.58,2.58,0,0,0,1.74,3.07,2.52,2.52,0,0,0,3.08-1.74q3.76-20.86,8.32-41.58c.69-3.13-3.93-4.44-4.82-1.33a68.85,68.85,0,0,0-2.54,22.89,2.54,2.54,0,0,0,3.77,2.15l4.34-2a2.52,2.52,0,0,0,.89-3.42,2.55,2.55,0,0,0-3.42-.9Z"/></g><path class="cls-2" d="M274.18,171.59l17-31.6c1.52-2.83-2.79-5.36-4.32-2.52l-17,31.59c-1.53,2.84,2.79,5.36,4.31,2.53Z"/><path class="cls-4" d="M364,241.76c2.7.34,2.7,5.25,0,5.59l.24-2.63c2.52-1,5.28,2.7,3.56,4.81-1.95,2.39-6.33.19-6.7-2.87s1.84-5.85,4.23-7.8a16.28,16.28,0,0,1,.46,9.45A7.63,7.63,0,0,1,367,237.18a17.24,17.24,0,0,1-.9,10,69.26,69.26,0,0,1,3.55-21.89A49.42,49.42,0,0,1,365.19,244a69.1,69.1,0,0,1,3.14-23,66.72,66.72,0,0,1-4.28,16.31,63,63,0,0,1,3.15-20.21,240.36,240.36,0,0,1-1,24.88,45.26,45.26,0,0,1,4.82-22.4A198.53,198.53,0,0,1,359.52,258"/><path class="cls-5" d="M362.83,238.47l3.68-7.16a50,50,0,0,1-4.72,13.42A48.69,48.69,0,0,1,363,230.14l0,11.35a45.09,45.09,0,0,1,3-19.13,37.33,37.33,0,0,1-1.72,18.06l-.21-3"/><path class="cls-5" d="M311.17,182.42a408.63,408.63,0,0,0,34.6,38.73Q325.4,203,304,186.12l46.6,34.75c-19-15.53-38.09-31.19-53.75-50.06a43.68,43.68,0,0,1,24.1,19.75c-5.21-1.51-8.73-6.63-9.92-11.92s-.46-10.8.27-16.17a33.76,33.76,0,0,1-4.5,12.19l-.39-5.25a309.44,309.44,0,0,1,45,53.13,202.71,202.71,0,0,0-32.25-38.93c9,8.43,17.87,16.61,27.24,24.57C338.4,211,320.91,186.35,311.17,182.42Z"/><path class="cls-5" d="M421.45,179a9.19,9.19,0,0,1,6.37,1,482.31,482.31,0,0,0-55.21,45.65L416,187.2q-20.64,17.49-42.24,33.8a373.15,373.15,0,0,0,43-41.3l-38,30.74a197.14,197.14,0,0,1,43.44-41.16,229.88,229.88,0,0,1-38.7,38.86c-5.17,4.08-14.86,13.89-21.49,13.38-6.83-.52-16.64-11.46-20.73-16.31a111.6,111.6,0,0,1,18.29,14.86,39.13,39.13,0,0,1-12.93-1"/><path class="cls-5" d="M302.47,165.06a54.29,54.29,0,0,1,42-15.19l0,3"/><path class="cls-5" d="M311.17,182.43A151.58,151.58,0,0,1,342,158.79"/><path class="cls-5" d="M425.92,179c.81-5.29-2.64-10.19-5.91-14.43-7.6-9.88-15.8-20.2-27.43-24.66.95,0-2.43,4.36-1.47,4.38l-5.5-6c8.43,1.54,12.5,11,15.15,19.14l6.6,20.25a1.85,1.85,0,0,1,0,1.67c-.35.47-1.35.16-1.14-.38"/><path class="cls-5" d="M336.82,152.85l4.76-6.34c4.63,4,3.14,12.81-2.54,15.05a26.85,26.85,0,0,1,5.2-7.58,31.05,31.05,0,0,0-9.16-1.61,108.32,108.32,0,0,0,2.81,15.77"/><path class="cls-5" d="M386.77,134.51l46.59-8.66"/><path class="cls-5" d="M206.91,237.45v-8.83l0,5.72a8.19,8.19,0,0,0-1.36-6.42l-1.43,13.87-1.59-19.86,2.41,20.65-1.1-21.07,1.08,12.67"/><path class="cls-5" d="M289.26,238.53l6.76-6.18c-2.44,4.62-8.6,5.49-13.83,5.55A173.41,173.41,0,0,1,205,220.74c-1.61.86.09-1.17-.1-3a388.92,388.92,0,0,0,57.11,7,173.73,173.73,0,0,1-38.61-10.41,380.88,380.88,0,0,0,63.33,14.72l-50.39-3.51q34.15-2.25,68.21-5.6a192.43,192.43,0,0,0-56.92,11,110.27,110.27,0,0,0,48.83-9.5q-24.57,5.61-49.45,9.69a306.76,306.76,0,0,1,45.31-16.69,133,133,0,0,1-26.63,18.84l4-2.6"/><path class="cls-5" d="M283.84,208.19H286"/><path class="cls-5" d="M293.14,195.07l-6.57,25.09A66.26,66.26,0,0,0,298,193.42a153.44,153.44,0,0,1,.94,24.34,122,122,0,0,0-1-24.61,94.32,94.32,0,0,1-5.13,33.56"/><path class="cls-5" d="M195.48,206.75a382.75,382.75,0,0,1,17.61-42.29c-6.5,15.21-11.8,30.9-17.09,46.57-6.08-19.82-.07-42.85,14.92-57.17a19.93,19.93,0,0,1-9.16,18.52c-.49.3.81-12.46,1.56-14,3.06-6.27,5.77-6.66,11.28-8.62,14.15-5.05,32.33-5.34,47.21-7.86a75.37,75.37,0,0,0-25.2,8,171.21,171.21,0,0,0,23-4.56c-14.9,4-26.59,2-37.7,14.57C210.39,172.92,202,190.82,195.48,206.75Z"/><path class="cls-5" d="M197.79,163.82A280.75,280.75,0,0,0,183.65,219c-.46,3,0,7.23,3,7.58q4.4-18.21,8.78-36.4a74.38,74.38,0,0,0,.19,31.92l-.58-16.67,11.41,14.5a73.2,73.2,0,0,1,6.22-68.71q-2.49,18.11-3.35,36.38c-.32,6.85-.44,13.92,2,20.32s8.19,12,15,12.34"/><path class="cls-5" d="M206,220.1a123.23,123.23,0,0,1,12.34-58.76"/><path class="cls-1" d="M379.29,201.67a185.52,185.52,0,0,1-3.44-39"/><path class="cls-1" d="M328.16,274.35a3.3,3.3,0,0,0-3.36-1.29,62,62,0,0,0,20.51,18.47,62.25,62.25,0,0,0-21.7-19.86c7.41,5.67,15.62,11.61,24.95,11.41l-17-20.46a63.67,63.67,0,0,0,30.19,20.58,125.45,125.45,0,0,0-17.26-19.71"/><path class="cls-1" d="M269.89,179l16.57-21.1a224.66,224.66,0,0,0-26.33,27.88,25.88,25.88,0,0,1,7.73-19.6A87.16,87.16,0,0,1,245,189.71l25.36-1.27-11.31-9.39a89.64,89.64,0,0,0,17.3,8.72l-2.47-27.55c1.31,2.88,2.69,5.87,5.12,7.89s6.24,2.77,8.74.83a10.36,10.36,0,0,0,2.75-4L307.77,129a320.74,320.74,0,0,1-8,43.8,156.51,156.51,0,0,1,12.34-53.18L310,161.34A141.28,141.28,0,0,1,313.65,118,57.7,57.7,0,0,0,327,146.56"/><path class="cls-1" d="M339.1,121.51l2.46-17.71-10.29,34a410.59,410.59,0,0,0,10.48-41.44,58,58,0,0,0,16.6,23.18L340.54,107c-2-1.44-4.22-3.07-4.87-5.47a115.16,115.16,0,0,1,24.24-12.92,277.13,277.13,0,0,1-22.42,33.65,76.16,76.16,0,0,1,21.57-32.4,23.65,23.65,0,0,1,0,12.44,31.59,31.59,0,0,1-.36-20.83"/><path class="cls-6" d="M255.83,141.32a9.09,9.09,0,0,1,4.34-4.81,6.31,6.31,0,0,1,6.29.43c2.84,2.08,2.86,6.64.74,9.44s-5.75,4.07-9.25,4.41a10.1,10.1,0,0,0,7.84-9c.08-1.31-.26-2.87-1.48-3.39a24.66,24.66,0,0,0,.42,3.82,5.48,5.48,0,0,1-.65,3.72,2.53,2.53,0,0,1-3.35.87l2.78-4.74a5.57,5.57,0,0,0,1-2.7,1.91,1.91,0,0,0-1.71-2,9.91,9.91,0,0,0,3.56,7.2,45.51,45.51,0,0,1-5.8-8.31,1.54,1.54,0,0,0,.79,1.89,4.44,4.44,0,0,0,2.2.37,16.87,16.87,0,0,0-8.39.8,6.56,6.56,0,0,0,4.35-2.29,9.79,9.79,0,0,1-3.48,4,18.25,18.25,0,0,1,5.37-3.24,6.81,6.81,0,0,1,6.05.59c2.23,1.59,2.79,4.89,1.73,7.41a10.35,10.35,0,0,1-6,5.31c-2.72,1.05-6.19,1.13-8.15-1a14.89,14.89,0,0,1,4.66,1.82l-5.19-3.14,3.35,1.7-2.59-3A32.72,32.72,0,0,0,264.7,154"/><path class="cls-6" d="M291.06,190.86h-.36c1.13,1.24.62,2.68,2.07,3.54l-2.13-2.12a7.24,7.24,0,0,0-.48,2.25c-1.33-2.82-2.12-6.54.07-8.76,1.32-1.34,3.34-1.68,5.22-1.83,2.3-.18,4.82-.13,6.63,1.31,2,1.6,2.53,4.58,1.75,7a13,13,0,0,1-4.63,6,20.46,20.46,0,0,0,.61-6,6.92,6.92,0,0,0-2.71-5.16,4.25,4.25,0,0,0-5.48.49l5.84.66a11.77,11.77,0,0,0-5.68,4.27,13.46,13.46,0,0,1,2.69-5.2,2.38,2.38,0,0,1-.78,3.49,3.41,3.41,0,0,1-3.81-.65,5.1,5.1,0,0,1-.68-6.23,7.16,7.16,0,0,1,5.69-3.2,9.26,9.26,0,0,1,9.47,8.12,1.35,1.35,0,0,1-.16.93c-.44.6-1.39.23-1.93-.27a7.07,7.07,0,0,1-1.89-7.26,22,22,0,0,1,4.05,10.38,46.38,46.38,0,0,1-3.73-6.58l.39,6.26a30.38,30.38,0,0,1-3.84-4.48,31.16,31.16,0,0,0,0,8.41"/><path class="cls-6" d="M342.71,144.63l.36-1.09"/><path class="cls-6" d="M347,138.13c-2.87,1.25-3.47,2-2.72,4.48,1.31,4.24,4.83,6.19,4.58,11.44a11.59,11.59,0,0,1-3.61,8.17,5.13,5.13,0,0,1-3.55,1.45,2.72,2.72,0,0,1-2.61-2.44"/><path class="cls-6" d="M384.09,142.64a17,17,0,0,1-5.23-3,5.68,5.68,0,0,1-1.83-5.47c.74-2.52,3.57-3.73,6.13-4.35a39.18,39.18,0,0,1,10.06-1.08c1.21,0,2.73.39,2.92,1.58l-6-1.9a21.57,21.57,0,0,0-5.81-1.26,7.24,7.24,0,0,0-5.45,2,7.34,7.34,0,0,0-1.8,4.61,11.52,11.52,0,0,0,13.87,12.07l-10.81-15,3.9,5.79a22.5,22.5,0,0,1-.61-6l4.91,6.12,1.37-6.08a14.71,14.71,0,0,1,2.66,6.47l1.71-6.58a42.51,42.51,0,0,1,.89,8.64l.66-5.26a11,11,0,0,1,.59,4.69c2.47-10.52-6.12-15.12-12.86-7.34-7,8-2.3,18.75,9.34,15.1C390,144.88,386.94,143.83,384.09,142.64Z"/><path class="cls-6" d="M349.28,160.32a12.57,12.57,0,0,1-7.76,5.81,51.51,51.51,0,0,0,6.15-14c.59-2.17,1-4.6-.11-6.55-1.45-2.58-4.84-3.2-7.8-3.42-4-.29-8.29-.3-11.63,1.91a7.24,7.24,0,0,0,6,2.94c-1.42-1.79-.72-4.6.95-6.16s4-2.15,6.27-2.53,4.64-.52,6.36.87a6.41,6.41,0,0,1,2,3.61c1.37,5.85-1.54,12.05-6,16.1,3.88-3.54,5.55-24.3-4.2-18.42,3.33,1.14,7.13.65,9.71,3.56C352.92,148.23,351.94,155.92,349.28,160.32Z"/><path class="cls-7" d="M314.18,109.05a239.58,239.58,0,0,0-2.3,25.79,144.76,144.76,0,0,1-2.17-17.61q-1.5,7.56-2.47,15.21a79.81,79.81,0,0,1,1.33-22.72,17.6,17.6,0,0,1-3.23,7.61,7.63,7.63,0,0,1-2.45-5.52c4.95-.4,9.33,2.93,13.16,6.08a55.91,55.91,0,0,1-9.44-14.7l7,6.6a7.71,7.71,0,0,0,2.92,2,5.17,5.17,0,0,0,5.16-1.91,15.23,15.23,0,0,0,2.52-5.2"/><path class="cls-7" d="M314.18,254.78l-5.35-7.34a89.17,89.17,0,0,0,23.88,26.15,145.26,145.26,0,0,1-20.34-24A152.29,152.29,0,0,0,324.73,273q-6.69-10.44-13.91-20.5A123.58,123.58,0,0,0,317,275.26l-6.8-17.5a41.46,41.46,0,0,0,9.14,18.95q-3.63-16.05-8.63-31.74a44.67,44.67,0,0,0,7.78,12.53,353.75,353.75,0,0,1-12.72-36.25l3.46,14.56a90.48,90.48,0,0,1,2.32-20.87,256.92,256.92,0,0,0,1.36,34c-.18-12.69.23-25.4,1.24-38a221.29,221.29,0,0,0,2.64,35.43,130.55,130.55,0,0,1,5-31.6"/><path class="cls-7" d="M420.16,271.46q-6.84,10-14.27,19.61a88.33,88.33,0,0,0,19.26-17.45l-10,11.13a160.08,160.08,0,0,0,10.74-27.38l-6.11,20.17a83.14,83.14,0,0,1,8.42-24.64,66.5,66.5,0,0,1-3,23.45,131.52,131.52,0,0,1,4.41-27.94q-1.67,14.13-4.44,28.1A349.1,349.1,0,0,1,431,233.57l-2,33c.1-10.27.2-20.63,2.31-30.68a439.44,439.44,0,0,1-12.58,48.67c-.29-6.55-.54-13.36,2-19.4a56.11,56.11,0,0,1-21.85,24.21,56.21,56.21,0,0,1,22.9,3.91L413.37,280a41.93,41.93,0,0,0,10.55,7.07,126.4,126.4,0,0,0-.45-19.84l3.38,8.9a15.62,15.62,0,0,1,1-6.39c-7.44,9.7-16.69,17.84-25.88,25.92a206.57,206.57,0,0,1,22.81-18.83,78.9,78.9,0,0,1-14.06,13.57c-6.27,4.71-8.38.18-3.94-4.88C411,280.68,415.7,276.14,420.16,271.46Z"/><path class="cls-7" d="M165.73,226.07l.64,26c-.28-11.22-.57-22.5.92-33.63l.06,22.22a89.12,89.12,0,0,1-1.72-15.19l-1.69,20.59c-2-8.39-2.39-17.08-2.76-25.7q-1.8,13.36-2.91,26.81a90.75,90.75,0,0,1,2.12-32.91,339.46,339.46,0,0,1-1.77,35.5c.07-16.23,5.53-31.88,10.92-47.19l-.46.75"/><g class="cls-3"><path class="cls-8" d="M295.29,148.62c-2.05-3.12-4.68-6.86-4.19-10.8a20.16,20.16,0,0,1,2-5.55l2.92-6.53a2.57,2.57,0,0,0-.9-3.42,2.53,2.53,0,0,0-3.42.9q-7.08,12.22-13.48,24.82c-1.45,2.85,2.67,5.31,4.32,2.52q7-11.84,13.39-24c1.5-2.84-2.72-5.33-4.32-2.52q-3.83,6.75-7.81,13.42c-1.65,2.77,2.67,5.28,4.32,2.52q4-6.66,7.81-13.42L291.61,124q-6.41,12.17-13.39,24l4.32,2.52Q288.93,138,296,125.74l-4.32-2.52-3.2,7.18a23,23,0,0,0-2.4,7.42c-.43,4.89,2.29,9.4,4.87,13.32,1.76,2.68,6.09.17,4.32-2.52Z"/></g><g class="cls-3"><path class="cls-8" d="M292.14,118.27l1.25,2.75c.68,1.5,2.88,1.54,3.93.51A63.68,63.68,0,0,0,303,115l-4.57-.59c1.09,5.84-.61,12.06-1.82,17.76q-1.92,9-4.46,17.89c-.89,3.13,3.78,4.34,4.83,1.33,3.36-9.65,5.84-19.57,8.31-29.48l-4.83-1.33c-1.62,11-4.64,21.61-7.68,32.23l4.82,1.33c3.07-11.17,4.89-22.62,6.68-34.05a2.53,2.53,0,0,0-1.44-3,2.5,2.5,0,0,0-3.12,1L293.46,130c-1.79,3.39-3.45,7-6.12,9.83l4.18,2.43q3.71-15.18,8.86-29.94a2.5,2.5,0,1,0-4.82-1.33,158.16,158.16,0,0,1-13.62,26.45l4.57,1.92a57.46,57.46,0,0,1,10.09-18.85l-3,.39.19.14-.9-.89,0-1.46.9-.89-.19.12c-2.68,1.76-.18,6.09,2.52,4.32,2.22-1.46,2-4.13.05-5.65a2.48,2.48,0,0,0-3,.39,63.77,63.77,0,0,0-11.38,21.05c-.87,2.78,3.09,4.26,4.57,1.93a165.42,165.42,0,0,0,14.12-27.64L295.56,111Q290.4,125.76,286.7,141c-.57,2.35,2.4,4.3,4.18,2.43,2.87-3,4.74-6.74,6.67-10.4l6.52-12.32-4.57-1.93c-1.79,11.43-3.61,22.88-6.68,34.05-.85,3.11,3.94,4.42,4.82,1.33,3-10.62,6.06-21.28,7.69-32.23a2.59,2.59,0,0,0-1.75-3.07,2.53,2.53,0,0,0-3.08,1.74c-2.46,9.91-4.94,19.83-8.31,29.48l4.83,1.33q2.66-9.33,4.65-18.84c1.33-6.38,2.84-13,1.62-19.47a2.46,2.46,0,0,0-2.08-1.79,2.6,2.6,0,0,0-2.49,1.19,55.21,55.21,0,0,1-4.94,5.54l3.93.51-1.25-2.75a2.52,2.52,0,0,0-3.42-.9,2.57,2.57,0,0,0-.9,3.42Z"/></g><g class="cls-3"><path class="cls-8" d="M166.77,229.8a99.26,99.26,0,0,0,1.72,20.5c.46,2.43,4.32,2.35,4.82,0,3.05-14.05-.17-28.82,4-42.68l-4.91-.66-1.32,28.51a2.53,2.53,0,0,0,1.83,2.41,2.6,2.6,0,0,0,2.82-1.15c3.57-4.79,4.06-11.09,5.31-16.75A73.23,73.23,0,0,1,187,202.39l-4.57-1.93-4.39,30a2.59,2.59,0,0,0,1.75,3.08,2.54,2.54,0,0,0,3.07-1.75A178.28,178.28,0,0,1,194,203.39c1.43-2.87-2.88-5.41-4.31-2.52A184.32,184.32,0,0,0,178,230.5l4.82,1.33,4.39-30a2.54,2.54,0,0,0-1.45-2.95,2.49,2.49,0,0,0-3.12,1,76.93,76.93,0,0,0-6.23,17.9c-1.25,5.47-1.55,11.8-5,16.44l4.66,1.26L177.38,207c.14-2.88-4.12-3.31-4.91-.67-4.17,13.92-.93,28.62-4,42.69h4.82a92.78,92.78,0,0,1-1.54-19.18c.07-3.22-4.93-3.22-5,0Z"/></g><g class="cls-3"><path class="cls-8" d="M218.68,183.69a6.5,6.5,0,0,0,4.35,4.83,2.53,2.53,0,0,0,2.82-1.15Q233,176,239.19,164.11l-4.57-1.93L222.37,194c-.88,2.3,2.62,4.32,4.18,2.44,4.68-5.68,7.56-12.38,10.63-19,2.93-6.32,6.15-12.64,11.65-17.11l-4.18-2.43q-4.71,16.19-11,31.84a2.47,2.47,0,0,0,.9,2.63,2.59,2.59,0,0,0,2.77.2c3.48-1.48,5.87-4.54,8.22-7.36l8.4-10.05,16.95-20.31-3.92-3L251,173l4.31,2.52a404.35,404.35,0,0,1,27.09-34.9c2.09-2.41-1.29-5.9-3.53-3.54l-2.31,2.43c-2.21,2.33,1.32,5.87,3.54,3.53l2.3-2.42-3.53-3.54A413.34,413.34,0,0,0,251,173a2.52,2.52,0,0,0,.89,3.42,2.57,2.57,0,0,0,3.42-.9l16-21.21c1.7-2.25-2.11-5.21-3.92-3l-16.64,19.92-8.24,9.87c-2.23,2.67-4.38,5.73-7.68,7.14l3.67,2.82q6.3-15.64,11-31.85a2.56,2.56,0,0,0-1.15-2.82,2.6,2.6,0,0,0-3,.39c-11.46,9.31-13.2,25.09-22.29,36.11l4.18,2.43,12.25-31.79c1-2.64-3.27-4.42-4.56-1.93q-6.19,11.91-13.35,23.27l2.82-1.15a1.54,1.54,0,0,1-.85-1.34,2.5,2.5,0,0,0-4.82,1.33Z"/></g><g class="cls-3"><path class="cls-8" d="M339.74,124.74l1.84,4.06c.86,1.91,4.2,1.45,4.57-.6q1.25-6.88,2.05-13.85l-4.91.67c3.45,11.38,2.36,23.88,8.24,34.55,1.28,2.32,4.45,1.05,4.66-1.27,1.15-13.05-2.74-26.42.67-39.28H352c3.93,9.75,4.3,20.65,9.63,29.88,1.29,2.24,4.51,1.13,4.65-1.27.82-13.42-3.18-26.9-.92-40.26h-4.82a126.9,126.9,0,0,0,8.19,25l3.42-3.42a22.36,22.36,0,0,0-25.36.55,2.58,2.58,0,0,0-.9,3.42,2.53,2.53,0,0,0,3.42.9,17.52,17.52,0,0,1,20.32-.55,2.52,2.52,0,0,0,3-.39,2.63,2.63,0,0,0,.39-3A120.44,120.44,0,0,1,365.39,96c-.5-2.33-4.41-2.44-4.82,0-2.35,13.88,1.59,27.68.74,41.59l4.66-1.26c-5.08-8.8-5.36-19.36-9.11-28.68a2.6,2.6,0,0,0-2.42-1.83,2.54,2.54,0,0,0-2.41,1.83c-3.54,13.38.36,27.07-.84,40.61l4.66-1.26c-5.61-10.17-4.44-22.46-7.74-33.35a2.49,2.49,0,0,0-2.74-1.79,2.55,2.55,0,0,0-2.17,2.45q-.74,6.3-1.87,12.52l4.57-.6-1.84-4.06a2.52,2.52,0,0,0-3.42-.9,2.57,2.57,0,0,0-.9,3.43Z"/></g><g class="cls-3"><path class="cls-8" d="M329.46,142.9l-4.11,30.17,4.91.66q.3-21.21,1.82-42.39h-5c0,13.39-.73,27,1.45,40.29.46,2.83,4.9,2.08,4.91-.67l.07-20.65,0-10.2c0-3.23-.24-6.59.69-9.72h-4.82l6,25.56,3,12.54c.84,3.6,1.27,7.82,4.59,10,2.69,1.79,5.19-2.54,2.53-4.32-.93-.62-1.15-2.19-1.39-3.2-.47-1.92-.91-3.85-1.37-5.78l-2.84-12.06-5.7-24.12c-.58-2.47-4.14-2.29-4.82,0-1,3.26-.86,6.69-.87,10.06l0,10.69L328.44,171l4.91-.66a124.28,124.28,0,0,1-1.3-19.37c0-6.53,0-13.06,0-19.59,0-3.25-4.78-3.18-5,0q-1.53,21.16-1.82,42.39a2.51,2.51,0,0,0,2.17,2.46,2.47,2.47,0,0,0,2.74-1.79l4.11-30.17a2.58,2.58,0,0,0-1.75-3.07c-1.16-.33-2.89.39-3.07,1.74Z"/></g><g class="cls-3"><path class="cls-8" d="M311.37,225.63l8.92,10.73a2.51,2.51,0,0,0,3,.39,2.63,2.63,0,0,0,1.15-2.82A230.89,230.89,0,0,0,315.91,196c-1-3.06-5.62-1.81-4.83,1.32,3.33,13.14,7,26.68,16.12,37.12,1.61,1.85,5-.1,4.18-2.43q-6.47-18.22-14.17-36l-4.32,2.52c7.72,11,15.58,22.25,26.1,30.82a2.5,2.5,0,0,0,3.54-3.54,149,149,0,0,1-18.91-27.14l-3.92,3C331.06,214,342.53,226.16,356,236.16c2.26,1.68,5.23-2.13,3-3.92a382.48,382.48,0,0,0-33.33-24.4,2.5,2.5,0,0,0-3.22.64,2.57,2.57,0,0,0,.19,3.29c6.89,8.88,15.52,16.13,24.11,23.29l3-3.92a140.58,140.58,0,0,1-30.46-22,2.52,2.52,0,0,0-3.92.5c-3.09,5.65-2.26,12.15-.84,18.16a171.92,171.92,0,0,0,5.88,19.52c1.09,3,5.63,1.84,4.82-1.33a273.39,273.39,0,0,1-7.3-40.95h-5c2,15.34,4.06,30.82,10.59,45,1,2.3,4.72,1.1,4.66-1.26a105.9,105.9,0,0,0-4.71-28.59,2.5,2.5,0,0,0-4.91.67,68.22,68.22,0,0,0,15.7,36.57l3.54-3.54a38.88,38.88,0,0,0-21-12.26,2.52,2.52,0,0,0-3.16,2.41,31.55,31.55,0,0,0,20.61,29.46c2,.71,4.1-1.93,2.83-3.67l-21.7-29.57a2.58,2.58,0,0,0-3.42-.9,2.51,2.51,0,0,0-.9,3.42l21.7,29.58,2.82-3.68a26.44,26.44,0,0,1-16.94-24.64l-3.17,2.41a34.36,34.36,0,0,1,18.81,11,2.54,2.54,0,0,0,3.54,0,2.56,2.56,0,0,0,0-3.54,62.26,62.26,0,0,1-14.24-33l-4.91.66a100.89,100.89,0,0,1,4.53,27.26l4.65-1.26c-6.12-13.32-8.05-28.09-9.9-42.48a2.59,2.59,0,0,0-2.5-2.5,2.51,2.51,0,0,0-2.5,2.5,281.87,281.87,0,0,0,7.48,42.28l4.82-1.33a177.46,177.46,0,0,1-5.56-18.19c-1.23-5-2.6-10.84,0-15.63l-3.92.5a145.34,145.34,0,0,0,31.46,22.75,2.52,2.52,0,0,0,3.23-.65,2.48,2.48,0,0,0-.2-3.28c-8.58-7.17-17.21-14.42-24.1-23.3l-3,3.93a373.13,373.13,0,0,1,32.32,23.61l3-3.92c-13.07-9.74-24.2-21.76-35.26-33.65-2-2.13-5.25.58-3.92,3A154.3,154.3,0,0,0,339,229.39l3.54-3.54c-10.21-8.31-17.84-19.1-25.32-29.8a2.5,2.5,0,0,0-4.32,2.52q7.42,17.15,13.66,34.78l4.18-2.44c-8.48-9.72-11.73-22.69-14.82-34.9l-4.83,1.32a231.26,231.26,0,0,1,8.57,37.93l4.17-2.43-8.92-10.74a2.51,2.51,0,0,0-3.53,0,2.55,2.55,0,0,0,0,3.54Z"/></g><g class="cls-3"><path class="cls-8" d="M418.62,246.93a177.42,177.42,0,0,0,6.43-23.19c.82-4,1.49-8,2-12a71.21,71.21,0,0,0,1-10.91,17.35,17.35,0,0,0-3.7-11c-1.42-1.71-4.29-.27-4.26,1.77a189.9,189.9,0,0,1-7.54,55.11q-2.22,7.63-5.07,15.05a2.48,2.48,0,0,0,1.45,2.95,2.53,2.53,0,0,0,3.12-1c12.76-18.68,17.3-42,15.63-64.29a130.75,130.75,0,0,0-2.87-19.08c-.62-2.73-5-2.16-4.91.67.92,23.46,8.61,47.44,2.19,70.73a48.84,48.84,0,0,1-7.5,15.85l4.57,1.92c3.48-22.6,5.22-45.85.65-68.43a110.57,110.57,0,0,0-5.42-18.51,2.58,2.58,0,0,0-3.08-1.74,2.53,2.53,0,0,0-1.75,3.07,136.24,136.24,0,0,1,5.79,32.09,138.84,138.84,0,0,1,0,16.32,61.44,61.44,0,0,1-2,13.28c-1.23,4.24-3.32,8.49-6.9,11.23l3,.4c-1.83-2.27-1.28-5.69-.65-8.29.9-3.76,2.27-7.43,3.46-11.11q3.88-12.11,7.79-24.22c.62-1.93-1.9-4.16-3.67-2.82a93.17,93.17,0,0,0-12.2,11l4.18,2.43a111.43,111.43,0,0,1,8.77-20.58,2.52,2.52,0,0,0-3.42-3.42l-10.93,6.09c-2.81,1.57-.29,5.89,2.52,4.32l10.93-6.09L412.8,201a119.33,119.33,0,0,0-9.27,21.77,2.52,2.52,0,0,0,4.18,2.43,86.82,86.82,0,0,1,11.18-10.16l-3.67-2.83-8.4,26.1c-2.26,7-6.23,15.79-.92,22.38a2.48,2.48,0,0,0,3,.39c7.82-6,10.22-15.71,11.09-25.08a141.73,141.73,0,0,0-5.64-53.49l-4.83,1.33c8.18,20.84,9.1,43.5,7.11,65.56-.57,6.27-1.37,12.51-2.33,18.72a2.51,2.51,0,0,0,4.57,1.93c14.16-19.53,11-45,8.1-67.4-.94-7.21-1.83-14.43-2.11-21.7l-4.91.66c4.76,21,4.24,43.57-3.78,63.7a81.9,81.9,0,0,1-8.48,15.82l4.57,1.93a194.33,194.33,0,0,0,12.29-55.4c.4-5.35.55-10.72.5-16.09l-4.27,1.76c2.41,2.91,2.39,7.12,2.15,10.68a130,130,0,0,1-1.79,13.47,178,178,0,0,1-7.37,28.11,2.5,2.5,0,1,0,4.82,1.33Z"/></g><g class="cls-3"><path class="cls-8" d="M404.59,216.83a99.77,99.77,0,0,0,8.78,12.81c1.6,2,4.86-.17,4.18-2.43a176.72,176.72,0,0,0-6.2-17.18L406.78,212a21.22,21.22,0,0,0,5,5.1c2.46,1.82,5.49.73,5.75-2.44a54,54,0,0,0-.24-7.73c-.19-2.82-.51-5.63-.89-8.43l-3.08,3.07c2.3.7,4.6,1.46,6.91,2.11,2.13.59,4.4.32,5.5-1.82.95-1.85.56-4.45.27-6.43a21.36,21.36,0,0,0-2.16-6.53c-1.26-2.48-5.65-.72-4.57,1.92a26.72,26.72,0,0,0,6.44,9.53c2.34,2.2,5.89-1.33,3.54-3.53a20.9,20.9,0,0,1-5.15-7.32l-4.57,1.92a16.71,16.71,0,0,1,1.54,4.68c.17,1,.52,3.13,0,3.76l.9-.9c-.11.09.62.16.09,0l-.76-.21L419,198l-4.38-1.34c-2-.62-3.31,1.31-3.07,3.08.34,2.51.58,5.05.74,7.58.08,1.3.15,2.6.18,3.9,0,.65,0,1.3.05,2v1c-.06.68.14.41.61-.81l1.26-.34c.76,0-.11-.29-.41-.54a13.43,13.43,0,0,1-1-.95,14.75,14.75,0,0,1-1.82-2.12,2.51,2.51,0,0,0-3.12-1,2.47,2.47,0,0,0-1.45,3,173.27,173.27,0,0,1,6.21,17.18l4.17-2.44a92.65,92.65,0,0,1-8-11.8c-1.6-2.79-5.92-.27-4.31,2.53Z"/></g><path class="cls-2" d="M377.51,285.46l-29.09-10.62a2.51,2.51,0,0,0-3.08,3.07c1.23,3.18,3.72,5.25,6.36,7.26a48.45,48.45,0,0,0,7.83,4.9,53.2,53.2,0,0,0,18.1,5.35c6.59.73,13.5.3,19.06-3.67,5.39-3.85,9.79-9.27,13.72-14.54,4.31-5.78,9.42-12.78,7.82-20.39a2.52,2.52,0,0,0-3.67-1.5c-3.46,2-5.75,5.19-8.05,8.34a72.09,72.09,0,0,1-7,8.16A73.22,73.22,0,0,1,381.91,285a71.66,71.66,0,0,1-11.3,4.83l1.33,4.82a118.77,118.77,0,0,0,15.46-6.1,53.29,53.29,0,0,0,12.66-9.08A92,92,0,0,0,409.93,268c3.12-4.16,6.11-8.43,8.88-12.82a60.22,60.22,0,0,0,7.59-16.42c.44-1.66-1.24-3.84-3.08-3.08-3.46,1.45-6.13,3.85-8.74,6.5s-5.37,5.3-8.21,7.79a134.54,134.54,0,0,1-18.21,13.36,39,39,0,0,1-11.38,5.12c-3.13.73-1.81,5.55,1.33,4.82,7.35-1.71,14-6.24,20-10.54A141.71,141.71,0,0,0,415.81,248c2.68-2.64,5.28-6.05,8.84-7.53l-3.07-3.08c-2.6,9.71-8.75,18.15-14.58,26.18-5.52,7.59-11.83,14.89-20.11,19.54-5.14,2.88-10.73,4.78-16.28,6.67-3,1-1.75,5.83,1.33,4.82a77.91,77.91,0,0,0,36.81-25.67c2.53-3.22,4.68-7.21,8.34-9.29l-3.68-1.49c.55,2.59-.32,5.24-1.48,7.55a57.82,57.82,0,0,1-4.77,7.52,73,73,0,0,1-11.66,13.16,17.09,17.09,0,0,1-6.95,3.73,27.85,27.85,0,0,1-8.4.52,46.18,46.18,0,0,1-15.81-3.8,49.3,49.3,0,0,1-8.07-4.49,39,39,0,0,1-3.48-2.66,8.64,8.64,0,0,1-2.63-3.1l-3.07,3.08,29.09,10.62a2.52,2.52,0,0,0,3.08-1.74,2.57,2.57,0,0,0-1.75-3.08Z"/><path class="cls-2" d="M345.88,274.5c14.58-.78,32.29,3,43.49-9.11a2.53,2.53,0,0,0-1.77-4.27l-11.34.29-5.42.15a17.92,17.92,0,0,1-2.43,0c-.23,0-.6-.32-.44-.05-1.63-2.77-6-.25-4.31,2.53,2.09,3.54,7.21,2.5,10.63,2.41l13.31-.35-1.77-4.27c-10,10.83-26.93,6.95-39.95,7.65-3.2.17-3.22,5.17,0,5Z"/><g class="cls-9"><path class="cls-2" d="M380.92,277.49l20.89-38.7-3.93.5c.73.8.39,2.24.18,3.19-.42,1.88-1,3.73-1.52,5.58q-1.6,5.55-3.48,11-3.76,11-8.57,21.52-2.81,6.09-5.93,12l4.32,2.52c7-15.08,14.2-30.13,21.89-44.88a39.37,39.37,0,0,1,6.88-10.09l-4.27-1.77a214.73,214.73,0,0,1-13,51l4.82,1.33a119.24,119.24,0,0,1,10.25-34.4,2.58,2.58,0,0,0-.9-3.43,2.53,2.53,0,0,0-3.42.9,123.35,123.35,0,0,0-10.75,35.6,2.5,2.5,0,0,0,4.82,1.33,220.06,220.06,0,0,0,13.22-52.31c.29-2.25-2.86-3.15-4.26-1.76-5.52,5.44-8.64,12.93-12.06,19.74q-5.78,11.52-11.33,23.14-3.12,6.54-6.17,13.1a2.57,2.57,0,0,0,.9,3.42,2.53,2.53,0,0,0,3.42-.9,243.34,243.34,0,0,0,18.8-46.88c1.14-4,3-9-.26-12.51a2.52,2.52,0,0,0-3.93.5L376.6,275c-1.53,2.83,2.79,5.36,4.32,2.52Z"/></g><g class="cls-9"><path class="cls-2" d="M361.08,274.71c6.86-1.12,13.55,2.72,20.45,2a15,15,0,0,0,9.43-4.48,31.69,31.69,0,0,0,5.4-8.53,123.76,123.76,0,0,1,10.43-17.61c4-5.63,8.12-11.13,11.64-17,4-6.68,6.95-13.85,7.84-21.62a2.5,2.5,0,0,0-1.83-2.41,2.6,2.6,0,0,0-2.82,1.15l-16.17,21.57,4.57,1.92A86.13,86.13,0,0,1,422.07,201a2.53,2.53,0,0,0-.9-3.42,2.56,2.56,0,0,0-3.42.9L397.49,225c-1.33,1.74.88,4.32,2.83,3.67a14.62,14.62,0,0,0,9.94-13.2c.12-2.66-3.34-3.16-4.66-1.26L394,230.86a2.5,2.5,0,0,0,4.32,2.52l11.57-16.7-4.66-1.26A9.45,9.45,0,0,1,399,223.8l2.82,3.67L422.07,201l-4.32-2.52a90.1,90.1,0,0,0-12.55,29.86c-.64,2.9,2.9,4.15,4.57,1.93l16.16-21.57-4.66-1.26c-1.49,12.91-9.94,23.69-17.23,33.93a123.25,123.25,0,0,0-10.56,16.82c-2.54,5.15-4.85,12-11.17,13.39-3.47.75-7.18-.24-10.58-.93-4-.8-7.93-1.42-12-.76A2.51,2.51,0,0,0,358,273a2.55,2.55,0,0,0,3.07,1.75Z"/></g><g class="cls-9"><path class="cls-2" d="M394.27,237.84a37.43,37.43,0,0,1,.56,11.9l2.5-2.5-3.2-.37c-1.64-.19-2.82,1.74-2.41,3.16a50.88,50.88,0,0,1,2,11.87,20.55,20.55,0,0,1-.13,5.11,6.53,6.53,0,0,1-.39,1s.36-.12.38-.07c-.08-.17-.68-.47-.81-.55-5.94-3.86-13.26,1.1-14.94,7.19-1.22,4.42-.27,9.05.72,13.4l4.82-1.33c-.63-2.32-1.35-5.45-.41-7.53,1.14-2.52,4.69-1.74,7.07-1.56,3.52.26,7-.47,9-3.6s1.64-6.75,1.47-10.18c-.09-1.61-.25-3.74.84-5.09a3.07,3.07,0,0,1,1.45-1c.52-.16.64-.14,1.21.28a2.46,2.46,0,0,0,2.78-.19,2.58,2.58,0,0,0,.9-2.63l-2.6-15-2.41,3.16a64.77,64.77,0,0,1,13.64,2.78c2.81.9,4.19-3,1.92-4.57a86.92,86.92,0,0,0-15.57-8.19l.6,4.57a3.6,3.6,0,0,1,3-.2v-4.82a17.91,17.91,0,0,1-9.83.76v4.82a61.57,61.57,0,0,0,26.8-17c1-1.06,1-3.25-.51-3.93a101.91,101.91,0,0,0-23.16-7l.6,4.57a110,110,0,0,0,20.62-18.82,2.57,2.57,0,0,0,0-3.54,2.53,2.53,0,0,0-3.54,0,104.86,104.86,0,0,1-19.6,18c-1.57,1.1-1.72,4.16.59,4.57a96.79,96.79,0,0,1,22,6.54l-.51-3.93a56.4,56.4,0,0,1-24.59,15.7c-2.21.69-2.53,4.28,0,4.82a22.89,22.89,0,0,0,12.49-.76,2.52,2.52,0,0,0,0-4.82,8.57,8.57,0,0,0-6.89.71c-2.07,1.13-1.26,3.81.6,4.57a80.31,80.31,0,0,1,14.37,7.68l1.92-4.57a70.42,70.42,0,0,0-15-3c-1.76-.15-2.66,1.72-2.41,3.17l2.6,15,3.67-2.82c-3.28-2.44-7.95-.28-9.79,2.93-2.26,3.93-.54,8.23-1.16,12.4-.19,1.3-.66,2.78-2,3.33s-3.21.28-4.69.15c-3.85-.33-7.91.08-10.1,3.73-2.09,3.5-1.32,8.07-.3,11.78.86,3.12,5.54,1.81,4.82-1.33-.8-3.53-1.73-7.37-.66-10.95a6.71,6.71,0,0,1,4.9-4.64c1.34-.22,2,.26,3.15,1a4.7,4.7,0,0,0,5.17.15c3.08-2,2.9-6.45,2.81-9.62a56,56,0,0,0-2.17-13.91l-2.41,3.17,3.2.37c1.44.16,2.37-1.29,2.5-2.5a41.71,41.71,0,0,0-.74-13.23c-.67-3.15-5.49-1.81-4.82,1.33Z"/></g><g class="cls-9"><path class="cls-2" d="M177,217.18A25.06,25.06,0,0,0,180.19,228c1.16,2.06,3.79,1.26,4.57-.6a144.39,144.39,0,0,0,8.37-27.21l-4.91-.66a49.56,49.56,0,0,1-11.33,26.14,2.56,2.56,0,0,0,0,3.53,2.52,2.52,0,0,0,3.54,0,55.42,55.42,0,0,0,12.79-29.67c.32-2.79-4.35-3.42-4.91-.67A144.39,144.39,0,0,1,179.94,226l4.57-.6a19.16,19.16,0,0,1-2.5-8.24,2.56,2.56,0,0,0-2.5-2.5,2.53,2.53,0,0,0-2.5,2.5Z"/></g><g class="cls-9"><path class="cls-2" d="M178.39,256.12a20.68,20.68,0,0,1-6.18-16.24,2.5,2.5,0,0,0-5,0,25.7,25.7,0,0,0,7.64,19.77c2.31,2.25,5.85-1.28,3.54-3.53Z"/></g><g class="cls-9"><path class="cls-2" d="M177,233.69l.58,8.2,4.27-1.77L177.45,235a6.11,6.11,0,0,0-2.86-2.29,3.88,3.88,0,0,0-4.08,1.7,16.07,16.07,0,0,0-3,12.29,2.52,2.52,0,0,0,3.08,1.74,2.58,2.58,0,0,0,1.75-3.07c.09.61,0,0,0-.14s0-.4-.05-.61c0-.4,0-.8,0-1.21,0-.2,0-.4,0-.6s.08-.64,0-.27.06-.3.07-.37.07-.33.11-.49c.09-.4.2-.79.32-1.17.07-.19.13-.39.21-.58s.32-.67.05-.15a18.31,18.31,0,0,1,1.14-2,2,2,0,0,1,.29-.41c-.51.52.07-.07.09-.07a.83.83,0,0,1-.37.22,1.46,1.46,0,0,1-1,0,.92.92,0,0,1-.39-.21c-.16-.13-.15-.12,0,0,.57.67,1.16,1.33,1.74,2l3.7,4.28a2.52,2.52,0,0,0,4.27-1.77l-.58-8.2a2.5,2.5,0,0,0-5,0Z"/></g></svg>