<svg id="Livello_1" data-name="Livello 1" xmlns="http://www.w3.org/2000/svg" viewBox="0 0 302.93 347.82"><defs><style>.cls-1{fill:#5c809b;}.cls-10,.cls-11,.cls-12,.cls-2,.cls-3,.cls-4,.cls-5,.cls-6,.cls-7,.cls-8{fill:none;}.cls-3,.cls-4,.cls-5,.cls-6,.cls-7,.cls-8{stroke:#000;}.cls-10,.cls-11,.cls-12,.cls-3,.cls-4,.cls-5,.cls-6,.cls-7,.cls-8{stroke-miterlimit:10;}.cls-3{stroke-width:2px;}.cls-5{stroke-width:0.5px;}.cls-6,.cls-7,.cls-8{stroke-width:3px;}.cls-7{opacity:0.51;}.cls-8{opacity:0.6;}.cls-9{fill:#f8b03b;}.cls-10,.cls-11{stroke:#f8b03b;}.cls-10{opacity:0.89;}.cls-12{stroke:#5c809b;}</style></defs><path class="cls-1" d="M190.69,583.42H179.24" transform="translate(-142.64 -235.61)"/><path class="cls-2" d="M142.64,400.14l.51,1.27" transform="translate(-142.64 -235.61)"/><path class="cls-2" d="M164.43,388.45a85.18,85.18,0,0,1,.92-18.19" transform="translate(-142.64 -235.61)"/><path class="cls-3" d="M205.56,294.3a736.2,736.2,0,0,0-6.26,120.19c-3.34-25.39-2.54-51.08-.57-76.54,1-12.8,2.3-25.57,3.53-38.35.44-4.66-.32-12,2.59-15.65,3.09-3.9,9.9-4.38,14.4-4.55A132.87,132.87,0,0,1,243,280.63l-14,1.89a216.56,216.56,0,0,0,33.49-1.16,79.91,79.91,0,0,0-28.94-4.13l41,2.57c.62,0,1.36.16,1.58.73s-.88,1.12-.95.51l8.55-7.72-3.77,4.2a147.17,147.17,0,0,1,8.28-12.71l-5.49,6.9c4.94-9.82,18.15-14.46,28.14-9.89A59.18,59.18,0,0,0,295,260.55q18.31,1.15,36.68.92a181.59,181.59,0,0,1-28.36,1.27l23.75-1.33c6.52-.36,13.29-.68,19.31,1.84s11,8.78,9.84,15.2q-2.46-5-4.91-10.05c3.27,3.06,3.34,8.68,6.95,11.34a12,12,0,0,0,4.52,1.78,82.13,82.13,0,0,0,19.76,2.13,62.67,62.67,0,0,0-17.42-2.57,165.4,165.4,0,0,0,29.08,1.46l-21.48,4.13a300.49,300.49,0,0,1,51.33,2c-14.09,3.77-29,.19-43.11-3.38q14.76-.06,29.47,1.33l-35-3.61A156.38,156.38,0,0,1,405,285.76q-19.12,1.07-38.29.76a207.61,207.61,0,0,1,29.07-1.44,224.6,224.6,0,0,1-22.59,1.6c-4.24.08-8.57,0-12.62-1.23-8.72-2.73-14.72-10.53-20.14-17.89a144.48,144.48,0,0,1,14.26,13.84,170.57,170.57,0,0,0-14.42-10.83q8.51,6.46,16.35,13.73L346.23,266l10.67,12.41A123.29,123.29,0,0,0,346,263.61l1.58,6.76q-14.83.56-29.67.53c-9.35,0-19.29-.4-27-5.65a2.55,2.55,0,0,1,1.38-3.71A50.34,50.34,0,0,1,279,287.71a58.71,58.71,0,0,0,8.64-11.88,16.35,16.35,0,0,1-3.95,5.9,57.51,57.51,0,0,1,5.37-16.5l-8.41,19.49L286.2,270l-12,16.4a122.5,122.5,0,0,1,9.33-16.66l-6.62,11.39,3.15-3.37c-6,11.39-20.84,14.88-33.65,13.77s-25.36-5.52-38.2-4.78a264.21,264.21,0,0,0,42.5,3.48l-43.39,5.41q17.7-6.66,35.92-11.83l-35.18,2.07A317.26,317.26,0,0,1,240,284.11a104.39,104.39,0,0,1-27.49,4c-2.38,0-5.25-.31-6.28-2.46a77.33,77.33,0,0,1,45.68-2.06l1.14,3.52c-5.4,1.44-10.87,2.89-16.45,2.94s-11.4-1.43-15.52-5.2a55.46,55.46,0,0,1,44.16-1.2,59.51,59.51,0,0,1-35,4,59.31,59.31,0,0,1,35.4-.91,20.94,20.94,0,0,1-20.3.27,113.41,113.41,0,0,1,34.46-5.74,54.21,54.21,0,0,1-24.15,8.3l21-.74a14.65,14.65,0,0,0,5.59-.94,7.43,7.43,0,0,0,4.18-7.28q-9.39,4.74-18.49,10A64.62,64.62,0,0,1,284,280" transform="translate(-142.64 -235.61)"/><path class="cls-3" d="M430.19,294.31a447.22,447.22,0,0,1-7.41,45l4.83-53.18Q429,331,429.1,375.87a242.38,242.38,0,0,1,.3-38c.62,19.4,1.21,39-2.93,58a59.69,59.69,0,0,1-.22-23.89,184.34,184.34,0,0,1-3.75,37.85,11.2,11.2,0,0,1-7.09-1.8,12.52,12.52,0,0,0,10.92-6.37,31,31,0,0,1-30,11.28" transform="translate(-142.64 -235.61)"/><path class="cls-3" d="M199.92,413.66a24.87,24.87,0,0,1-7.12-5.74,24.45,24.45,0,0,0,12.65,5.76l-7,.55c8.56-1.14,17.23.74,25.86.58s18.16-3.1,22.22-10.72l36.36,3.51a15.23,15.23,0,0,1,5.84,1.36" transform="translate(-142.64 -235.61)"/><path class="cls-3" d="M379.51,380.82c-1.62-6.44-5.51-12-9.35-17.45Q359.69,348.63,349,334.08c-2.68-3.63-5.55-7.4-9.65-9.29-6.58-3-14.24-.37-21,2.28-12.61,5-25.66,10.21-35.24,20.16,4.25.14,12.52-8.45,16.44-10.94l15.36-9.76" transform="translate(-142.64 -235.61)"/><path class="cls-3" d="M373.91,412.22c7.92-16,9.22-35.37,2.81-52.07s-20.63-30.36-37.78-35.42-36.86-1.1-50.27,10.73a54.72,54.72,0,0,0-17.91,37.86,62.44,62.44,0,0,0,12.58,40.23,44.39,44.39,0,0,0,8.85,9.15c9.18,6.89,21.2,8.65,32.67,8.87,5.85.12,11.78-.12,17.37-1.81,10.13-3.07,18.2-10.58,25.89-17.85,3.6-3.41,7.25-6.87,9.94-11a31.81,31.81,0,0,0-.5-34.4" transform="translate(-142.64 -235.61)"/><path class="cls-3" d="M381.14,412.66l-4.34.55a88.81,88.81,0,0,1,18.93.74c-7,1-14.07-1.25-20.8-3.49q11.71,1.74,23.23,4.55" transform="translate(-142.64 -235.61)"/><path class="cls-4" d="M246,403.34a118,118,0,0,0,1.09-33l-.87,25.31L245,356.1c-.25-7.92-.49-16,1.35-23.66l-5.07,10.41,4.26-13.48-5.86,11.29a94.38,94.38,0,0,1,4.56-13.92,82.44,82.44,0,0,0-8.26,12.42l6.63-7.81L232.5,345.22a20,20,0,0,0,8.68-7.29,71.12,71.12,0,0,1-8.7,13.23,40.3,40.3,0,0,0,9.29-9.37,82.06,82.06,0,0,1-5,15,42.76,42.76,0,0,1,5.42-12.17L236.45,360l6-10.45a73.45,73.45,0,0,1-11.93,18.28q6.22-6.37,11.82-13.32a133.35,133.35,0,0,1-8,15.27l8.93-14-6.81,17.68,6.91-9.85a112.19,112.19,0,0,1-6.16,16.54l7-10.72L236,388.25a76.42,76.42,0,0,1,8.83-12.94L237,391.55l7.59-10.31-5.94,14.88a56.5,56.5,0,0,1,7.09-10.06l-6.42,16.79,6.34-10.56a74.79,74.79,0,0,1-4.9,13.7,57.22,57.22,0,0,1,5.46-7.5,27.54,27.54,0,0,1-14.69,10.4l7.34-.16-6.84.58a20.05,20.05,0,0,0,9.3-3.1,51.43,51.43,0,0,1-10.53,1.65,29.29,29.29,0,0,0,12.73-10.92,21.09,21.09,0,0,0-8.22,5.45L242,390.1a46,46,0,0,1-10.07,8.53A28.24,28.24,0,0,0,242.22,381a49.16,49.16,0,0,1-5.92,8.85,35.35,35.35,0,0,0,6.4-14.34L236,384.93a53,53,0,0,0,6.8-22.12,27.76,27.76,0,0,1-9.46,15.74,39.07,39.07,0,0,0,10.71-24,42.4,42.4,0,0,1-8.41,9.94l6.47-13.19a36.41,36.41,0,0,1-10.52,6.25,21.78,21.78,0,0,1,8.72-4.73L231.67,356l6.39-8.8a3.27,3.27,0,0,0-3.12-.44" transform="translate(-142.64 -235.61)"/><path class="cls-4" d="M267.67,235.61v1.46" transform="translate(-142.64 -235.61)"/><path class="cls-4" d="M204.45,408.74l0-12.44a31.93,31.93,0,0,0-1.92,11.07q.9-10.08,2.5-20.1-.85,13.41-.44,26.85A113.68,113.68,0,0,1,208,385.6q1.42,12.73,2.51,25.52l.8-34.66" transform="translate(-142.64 -235.61)"/><path class="cls-4" d="M241.26,388.2h.49" transform="translate(-142.64 -235.61)"/><path class="cls-4" d="M258.3,401.32c-.26.15-.56-.24-.45-.52a1.12,1.12,0,0,1,.69-.52,39.26,39.26,0,0,1,14.66-2.63A52,52,0,0,1,258,400.44c5,.07,9.92.4,14.85,1a23.93,23.93,0,0,1-15.06-4.3A30.18,30.18,0,0,1,270.12,395a17.9,17.9,0,0,0-6.2-3.4l6.87-.11-5.06-15a86.88,86.88,0,0,0-3.79,23.24q2.83-13.83,4.65-27.84-3.09,9.72-5.77,19.58l4.9-15.51" transform="translate(-142.64 -235.61)"/><path class="cls-4" d="M276.06,384.76,279,396.39l-1.64-17.45c-2.41,9,2.53,18.39,8.8,25.28a65.94,65.94,0,0,0,28.69,18.35c6.31,2,13.18,3,19.54,1.15,2.78-.82,5.4-2.19,8.24-2.78s5.95-.39,8.74-1.36c3-1,5.42-3.35,7.64-5.66a157.46,157.46,0,0,0,11.54-13.46c3.5-4.59,6.87-9.71,7.2-15.47.3-5.31-2-10.38-4.27-15.19-4-8.55-8.09-17.18-13.88-24.65S346,331.39,336.84,329.06a54.7,54.7,0,0,0-12.32-1.32c-5.14-.1-10.42.07-15.18,2-5.3,2.15-9.49,6.3-13.43,10.45-8.38,8.83-16,16-18.38,28.18a73.19,73.19,0,0,0,2.6,37.53" transform="translate(-142.64 -235.61)"/><path class="cls-4" d="M324.75,395.29c-4.67,2.41-10.69,1.21-14.74-2.14s-6.3-8.52-7.06-13.72a18.36,18.36,0,0,1,1.32-10.87c1.88-3.71,5.45-6.31,9.21-8.12a37.27,37.27,0,0,1,14.69-3.66,16.23,16.23,0,0,1,7.26,1.07c4.29,1.91,6.75,6.39,8.71,10.65,2.49,5.4,4.7,11.72,2.21,17.11-2.05,4.44-6.75,7-11.31,8.71a67.88,67.88,0,0,1-12,3.37c-3.21.58-6.7.9-9.6-.6-4.58-2.36-5.95-8.17-6.61-13.29" transform="translate(-142.64 -235.61)"/><path class="cls-4" d="M325.49,391.09a12.25,12.25,0,0,1-13.42-18.74c3.13-4.55,8.89-6.46,14.36-7.26a12.47,12.47,0,0,1,6.62.35,10.1,10.1,0,0,1,3.48,2.61,18.16,18.16,0,0,1,4.47,9.08,10.05,10.05,0,0,1,0,4.16c-1.18,4.66-6.57,6.73-11.3,7.53a61.69,61.69,0,0,1-12.8.83,9.28,9.28,0,0,1-4.46-1c-2.84-1.67-3.35-5.49-3.54-8.78" transform="translate(-142.64 -235.61)"/><path class="cls-4" d="M337.82,339.21l-.51.51" transform="translate(-142.64 -235.61)"/><path class="cls-4" d="M286.75,368.15h-2C285.61,366.85,285.93,369.46,286.75,368.15Z" transform="translate(-142.64 -235.61)"/><path class="cls-4" d="M287.31,361.84a6.6,6.6,0,0,1,1,2.18,1.46,1.46,0,0,1,.52-.11c-.8-1.23-1.72-.6-2.55-1.07C287.46,361.54,286.16,363.14,287.31,361.84Z" transform="translate(-142.64 -235.61)"/><path class="cls-4" d="M293.1,354.44l3.91-.51c.57-1.22,2.61-4.85,3.18-6.07a3.67,3.67,0,0,0,.79,3.61" transform="translate(-142.64 -235.61)"/><path class="cls-4" d="M298.51,291.28a176.26,176.26,0,0,0,29.59,6.62l-27.28-5.24,33,.25q-15.78-2.48-31.66-4.13a152.79,152.79,0,0,0,39.78,1.62,112.36,112.36,0,0,0-22.75,2.73,56,56,0,0,0,19.37-1.85l-25.43,6.14,21.63,2.74q-9.27.76-18.47,2.18a85.83,85.83,0,0,0,21.11,1.2l-22.94,2.84a64.6,64.6,0,0,0,17.92,3.09,49.87,49.87,0,0,1-17.18,1.94l12.72,0a122.49,122.49,0,0,1-12.28,2.49" transform="translate(-142.64 -235.61)"/><path class="cls-4" d="M365.49,339.2q-2.6-18.58-5.64-37.11a114.12,114.12,0,0,0,1.71,26,129.08,129.08,0,0,0-3.77-22.68,99.59,99.59,0,0,0,2,14.8,108.89,108.89,0,0,0-6.34-13.75q-.39,6.49-.27,13a23.93,23.93,0,0,1-3.92-9.55,101.2,101.2,0,0,0,.63,12.31A29.07,29.07,0,0,1,347.34,312a92.17,92.17,0,0,1,12.25,8.71,75.38,75.38,0,0,1-18.83-3.53l19.58,1.45c-4.08-.3-13.53-14.83-15.39-18.21C368.81,297.33,364.52,323.24,365.49,339.2Z" transform="translate(-142.64 -235.61)"/><path class="cls-4" d="M400.22,305.06v1.47" transform="translate(-142.64 -235.61)"/><path class="cls-4" d="M400.22,316.31l.13-2.45c.33-.36.92.29.67.71a1.22,1.22,0,0,1-1.3.36,4.2,4.2,0,0,1-2.86-2.09" transform="translate(-142.64 -235.61)"/><path class="cls-4" d="M400.85,342c-.33,0,0-.65.29-.52s.37.54.39.88q.71,16.55,1.42,33.08l0-12.25c0-8.86.05-17.78,1.73-26.47l-1.21,39.6-5.25-30.16v28c0,1,.37,2.42,1.38,2.32a91.55,91.55,0,0,0-.59-27.5l-2.61,28.09L396,355l2.36,4.31" transform="translate(-142.64 -235.61)"/><path class="cls-4" d="M232,318.23a118.69,118.69,0,0,1,23.13,1.68,64.73,64.73,0,0,1-14.79-6.23,78.83,78.83,0,0,0,18.06,1.7A142.61,142.61,0,0,1,241,310.79a138.69,138.69,0,0,0,19.81,2.12l-21.08-4.5a90.82,90.82,0,0,0,19.9,1,181.05,181.05,0,0,1-19.9-.46,106.21,106.21,0,0,0,20,.94l-13.34.29a7.36,7.36,0,0,0-4.23,1c-1.19.86-1.67,2.83-.56,3.78" transform="translate(-142.64 -235.61)"/><path class="cls-4" d="M217.78,298.7l-.06-3a75.92,75.92,0,0,0,6.71,13.17q-5.62-4.76-11.5-9.2a32.32,32.32,0,0,0,9,13.76,26,26,0,0,0-9.53-11.3c11.64,5.45,25.37,2,38.09,3.91l-28.34,11.21" transform="translate(-142.64 -235.61)"/><path class="cls-4" d="M198.71,292.83H193.9a2,2,0,0,1-1.3-.31,1.69,1.69,0,0,1-.34-1.62,7.13,7.13,0,0,1,6.73-5.43,9.67,9.67,0,0,1,7.93,4.18c1.32,1.83,2.08,4.37,1,6.33-1.23,2.15-4.08,2.67-6.56,2.76a11.81,11.81,0,0,1-5.22-.7,4.76,4.76,0,0,1-3-4.05c0-2.79,3-4.49,5.57-5.57" transform="translate(-142.64 -235.61)"/><path class="cls-5" d="M303.86,297.72l-.06-3L295.05,322q1.56-8.32,2.51-16.76a150.21,150.21,0,0,0-2.32,17.42c2.47-6.15,1.13-13.84,5.4-18.9a103.21,103.21,0,0,1,1.56,13.12l4.85-13.29a7.76,7.76,0,0,1,.05,4.58,10.19,10.19,0,0,0-.28,4.61c.41,1.5,1.89,2.84,3.4,2.49" transform="translate(-142.64 -235.61)"/><path class="cls-5" d="M293.57,377.8a31.85,31.85,0,0,1,8.33-.31" transform="translate(-142.64 -235.61)"/><path class="cls-5" d="M294.58,368.19a12.79,12.79,0,0,1,5.4.35" transform="translate(-142.64 -235.61)"/><path class="cls-5" d="M295.07,362.75a11.81,11.81,0,0,0,5.37,1.56" transform="translate(-142.64 -235.61)"/><path class="cls-5" d="M300.93,357.88a19,19,0,0,0,2.45,5.87" transform="translate(-142.64 -235.61)"/><path class="cls-5" d="M309.24,354v8.31" transform="translate(-142.64 -235.61)"/><path class="cls-5" d="M315.11,352.5v6.36" transform="translate(-142.64 -235.61)"/><path class="cls-5" d="M321.47,350.54v6.85" transform="translate(-142.64 -235.61)"/><path class="cls-5" d="M331.74,351l-1.95,5.87" transform="translate(-142.64 -235.61)"/><path class="cls-5" d="M339.09,353.48l-1.94,6.36" transform="translate(-142.64 -235.61)"/><path class="cls-5" d="M346.93,359.38a9.77,9.77,0,0,0-3.11,3.81" transform="translate(-142.64 -235.61)"/><path class="cls-5" d="M349.85,364.27a12.09,12.09,0,0,0-5.41,3.37" transform="translate(-142.64 -235.61)"/><path class="cls-5" d="M347.88,374,345,373" transform="translate(-142.64 -235.61)"/><path class="cls-5" d="M348.86,380.87l-1.47-2.94" transform="translate(-142.64 -235.61)"/><path class="cls-5" d="M346.91,393.58l-2-4.89" transform="translate(-142.64 -235.61)"/><path class="cls-5" d="M342.4,402.9a16.79,16.79,0,0,0-3.08-7" transform="translate(-142.64 -235.61)"/><path class="cls-5" d="M327.4,404.38l-2.94,4.89" transform="translate(-142.64 -235.61)"/><path class="cls-5" d="M317.53,400.42a17.63,17.63,0,0,1-3.84,4.95" transform="translate(-142.64 -235.61)"/><path class="cls-5" d="M307.8,401l3.42-2.45a15.13,15.13,0,0,0-6.13-3.52C305.15,396.2,309,400.88,307.8,401Z" transform="translate(-142.64 -235.61)"/><path class="cls-5" d="M303.86,391.14l-4.4,2.44c-1.08.61-2.28-1.95-3.42-1.46" transform="translate(-142.64 -235.61)"/><path class="cls-5" d="M350.34,378l4.89-1" transform="translate(-142.64 -235.61)"/><path class="cls-5" d="M345.88,371a10.61,10.61,0,0,1,6.88-.81" transform="translate(-142.64 -235.61)"/><path class="cls-5" d="M366.47,392.61c-6.42,6.55-12.91,13.05-19.27,19.66-3.84,4-11.15,7.05-13.85,11.42" transform="translate(-142.64 -235.61)"/><path class="cls-5" d="M330.28,419l-1.1-2.62,1.49,6.36.09-7.82,2.31,7.11a34.62,34.62,0,0,1,1.12-8.35,22.63,22.63,0,0,0,3.29,5.75l.23-6.22a18.33,18.33,0,0,0,5.87,6.65,20.09,20.09,0,0,0-4.06-8.58,14.65,14.65,0,0,0,7.93,5.8L339.19,407a21.36,21.36,0,0,0,15.25,8.24,26.45,26.45,0,0,0-6.55-8.75,22.13,22.13,0,0,0,9.89,5.55A13.58,13.58,0,0,0,347,408.46,29.24,29.24,0,0,0,362.19,397l-10.25,9.84a123.39,123.39,0,0,1,9-15.3,33.66,33.66,0,0,0-6.33,8.48,90.36,90.36,0,0,1,4.7-15.43l-7,25.69a179.12,179.12,0,0,1,12.91-18.51l-5.51,16a98.46,98.46,0,0,1,13.72-21.57,53.82,53.82,0,0,1-5,11.54,39.9,39.9,0,0,1,2.86-9.56" transform="translate(-142.64 -235.61)"/><path class="cls-5" d="M344.9,344l-2.28,1.26" transform="translate(-142.64 -235.61)"/><path class="cls-5" d="M392.65,403.88l-2.2,4.83c1.76.18,3.33-1.33,3.84-3a11.6,11.6,0,0,0-.07-5.24,2.43,2.43,0,0,0-1.26,2.84l2.85.08c-.61,1.56.15,3.27-.46,4.83a15.16,15.16,0,0,1,4.88.44l-.09-8.91C397.79,400.88,392.12,401.32,392.65,403.88Z" transform="translate(-142.64 -235.61)"/><path class="cls-5" d="M404.31,405.36a4.41,4.41,0,0,0,2,4.46l1.69-3.88a4.79,4.79,0,0,1-2.47-3" transform="translate(-142.64 -235.61)"/><path class="cls-5" d="M413.91,405.83a7.19,7.19,0,0,1,3.92.45" transform="translate(-142.64 -235.61)"/><path class="cls-5" d="M377.55,374.44c.22-16.87-4.6-34.38-16.18-46.64,9.74,9.08,18.44,20.47,19.73,33.73-3.46-4.76-7.63-9.78-10.21-15.08-1-2-2.64-8.62,2.44-5.46,2.9,1.8,3.4,13.54,3.72,16.67A144.51,144.51,0,0,1,377.55,374.44Z" transform="translate(-142.64 -235.61)"/><path class="cls-5" d="M347.39,340.8c4.21.65,7.68,3.62,10.48,6.82a50.32,50.32,0,0,1,11.15,22,49.13,49.13,0,0,1-12.09-23.1c6.84,6.43,11.89,14.49,16.86,22.44a74.69,74.69,0,0,1-11.71-23.43,93.56,93.56,0,0,1,14,18.19,26.38,26.38,0,0,0-1.58-5.72,122.6,122.6,0,0,1,7.64,16.54" transform="translate(-142.64 -235.61)"/><path class="cls-5" d="M380.16,337.34v.49" transform="translate(-142.64 -235.61)"/><path class="cls-5" d="M285.25,332.05c-3-.8-5.88,1.69-8,4a161.84,161.84,0,0,0-10.6,13.05,90,90,0,0,1,21.26-21.32q-5.6,6.87-10.67,14.14c-2.73,3.91-5.4,8.05-6.19,12.75-.12.69-.05,1.61.62,1.8s1.28-.75,1.49-1.52a47.18,47.18,0,0,1,10.61-19,123.7,123.7,0,0,0-15.09,18.89,169.84,169.84,0,0,1,18.08-20.74q-9.48,12.44-18.68,25.09l.66-3.28" transform="translate(-142.64 -235.61)"/><path class="cls-5" d="M253.87,347.52c-1.26,1.72-1.44,4-1.55,6.11a254.89,254.89,0,0,0,.19,29.77V342.16q-.24,20.16.35,40.32c0,1.23.2,2.68,1.27,3.28q.69-11.08,1.37-22.19c.09-1.52.25-3.19,1.34-4.25q.34,15.45-.84,30.87A122.88,122.88,0,0,1,258.57,371l.52,18.88a68.25,68.25,0,0,0,1.26-15.56,113.87,113.87,0,0,1-5.07,20.33A93.49,93.49,0,0,1,254,378l-3.44,13.36a47.87,47.87,0,0,1,3.23-16.86,62.58,62.58,0,0,1,.53,23.15,160.09,160.09,0,0,1,3.23-33.48c.23-1.16.79-2.58,2-2.6l2.15,19.17,2.64-24.19c1.05,10.08-.24,20.24-1.54,30.3A31.47,31.47,0,0,0,264.22,375" transform="translate(-142.64 -235.61)"/><path class="cls-5" d="M249.58,245.88l-.49,1" transform="translate(-142.64 -235.61)"/><path class="cls-5" d="M264.25,348.22l9.59-.49a65.84,65.84,0,0,0-16.39,5.8l13-3-12.55,11.95q5-7.29,10.7-14.11a55.69,55.69,0,0,1-6.33,13.86,23.62,23.62,0,0,1,2.26-10.78,48.62,48.62,0,0,1-.71,13.24,60,60,0,0,1,7-16.33,29.6,29.6,0,0,1-1.95,13.37" transform="translate(-142.64 -235.61)"/><path class="cls-5" d="M276,341.74l-.49-2" transform="translate(-142.64 -235.61)"/><path class="cls-5" d="M286.26,321.69l1-4.32-5.8,16.24L289,312l-7.75,22.3a204.29,204.29,0,0,0,10.94-24.46l-14.18,27q6.28-11.28,12.51-22.61c2.35-4.28,4.73-8.67,5.47-13.49a96.47,96.47,0,0,0-14.58,23.7,111.91,111.91,0,0,0,12.17-19.34l-11.32,25.26c8.35-6.34,12-18.49,21.84-22.11,2.71,7.11-2.12,16.07-9.54,17.72a49.59,49.59,0,0,1,28.57-9,30,30,0,0,1-20.52,3.24c7.88-2.55,16.31-2.73,24.59-2.88a23.12,23.12,0,0,1-10.56-5,73.73,73.73,0,0,1,20.08,4.56l-19-.24a99,99,0,0,0,19.54,4.21,142.68,142.68,0,0,0-29.5,1" transform="translate(-142.64 -235.61)"/><path class="cls-5" d="M382.12,306.53,377,305.47l16.71,1.79a64,64,0,0,1-24.91-7.21,308,308,0,0,0,34.74,2.48l-21.31-5.36a138,138,0,0,1,21,3.34" transform="translate(-142.64 -235.61)"/><path class="cls-5" d="M408.53,300.66l0-1.67q1.27,18.75,1,37.58a317.73,317.73,0,0,1,4.3-34.24,175.41,175.41,0,0,1,1.1,38.66q-.53-15.23-1-30.45c.15,13.53.31,27.08-.79,40.57-3.37-14.93-6.78-30-12.94-44a129.4,129.4,0,0,1-3,29.69q-3.2-12.52-5.35-25.27a51.65,51.65,0,0,0-.23,30.28" transform="translate(-142.64 -235.61)"/><path class="cls-5" d="M382.36,322.48c-3.27-4.88-6.67-10.16-6.6-16a155.57,155.57,0,0,1,9.58,36c.2,1.41.68,3.16,2.09,3.38" transform="translate(-142.64 -235.61)"/><path class="cls-5" d="M391,335.89l.49-1" transform="translate(-142.64 -235.61)"/><path class="cls-5" d="M219.74,382.8c.73.31,1.28-.71,1.41-1.49a67.29,67.29,0,0,0,.94-11.43,118.43,118.43,0,0,0,8,21.59A40.35,40.35,0,0,0,238.87,372c-3.29,7.65-6.69,15.45-12.3,21.6l6.05-16.69c1.33-3.67,2.68-7.41,2.81-11.31a49.87,49.87,0,0,0-17.5,12.11c2.95-2.62,6-5.12,9.15-7.49,1.11-.84,2.74-1.66,3.76-.72-4.34,5.82-7.42,12.76-9.88,19.54-1.81,5,1.6,14.22,3,5.93q2.94-16.92,5.87-33.83L225.64,392c-.24,1.73-.34,3.81,1,4.89a268.36,268.36,0,0,0,5.28-30l.51,1.83" transform="translate(-142.64 -235.61)"/><path class="cls-5" d="M214.4,360.4A122.46,122.46,0,0,1,238,351.89a74.7,74.7,0,0,1-17.9,14.7,89.41,89.41,0,0,0,9.26-8l-13,14.48" transform="translate(-142.64 -235.61)"/><path class="cls-5" d="M215.45,336.8a10.76,10.76,0,0,0-3.11-4.78q4.2,10.46,9.33,20.5" transform="translate(-142.64 -235.61)"/><path class="cls-5" d="M205.93,351.06q3.25,13.38,5.37,27l4.44-31.75-3.18,29.22,5.95-29.66a65.16,65.16,0,0,1,2.3,12,34.65,34.65,0,0,1-2.88-8.46,2,2,0,0,1,2.58-2.75,109.6,109.6,0,0,1,13.77,1.51,208,208,0,0,0-20.46-8.72" transform="translate(-142.64 -235.61)"/><path class="cls-6" d="M238.13,346.54c2.8,14.07-.17,28.72,1.84,42.92" transform="translate(-142.64 -235.61)"/><path class="cls-6" d="M244.68,336.85h.49" transform="translate(-142.64 -235.61)"/><path class="cls-6" d="M291.32,351.72c-4.57,5-9.23,10.31-10.93,16.86-2.36,9.13,1.47,18.6,5.25,27.24,1.57,3.61,3.18,7.28,5.71,10.3s6.14,5.37,10.07,5.46" transform="translate(-142.64 -235.61)"/><path class="cls-6" d="M292.62,395.82c-1.68-.13-2.52-2.07-2.89-3.72-2-8.91-.77-18.2.48-27.26a87.34,87.34,0,0,0-2,32.6,66.4,66.4,0,0,1,4-40.9,42.19,42.19,0,0,0-7.11,32.19c-.64-8-1.28-16-.2-24A50.12,50.12,0,0,0,298.7,408.2l-8.56-8.95A57.63,57.63,0,0,0,305.81,414L299,411.11a36.54,36.54,0,0,1,10.14,2.64l-8.67-2.6a33.32,33.32,0,0,1,11.65,5.93" transform="translate(-142.64 -235.61)"/><path class="cls-6" d="M350.06,378a11.54,11.54,0,0,1-3,9.93,18,18,0,0,1-9.31,5.09c4.83-1.93,7.94-6.8,9.31-11.82,1.26-4.57.94-10.27-2.95-13a16.24,16.24,0,0,1-4.58,25.8,29.19,29.19,0,0,0,12.1-26.22,57.21,57.21,0,0,1-.06,12.48,19.18,19.18,0,0,1-5.27,11.09c-.33.32-.84.63-1.2.35s.43-.89.43-.43" transform="translate(-142.64 -235.61)"/><path class="cls-6" d="M367.94,384.29v1" transform="translate(-142.64 -235.61)"/><path class="cls-6" d="M333.74,336.9A17.34,17.34,0,0,1,320.53,340a30.33,30.33,0,0,1,23.89,7.36L320.56,339a33.48,33.48,0,0,1,27.35,3.79l-20.75-7.21a51.14,51.14,0,0,1,32.52,31.05" transform="translate(-142.64 -235.61)"/><path class="cls-6" d="M371.36,377.93h.49" transform="translate(-142.64 -235.61)"/><path class="cls-6" d="M378.21,320.71l0-7.15a211.73,211.73,0,0,1-1.53,24.66l0-27.29-.59,25.36L374.26,315c-.24,10.29-.48,20.71,2,30.71a138.94,138.94,0,0,1,1.7-22c2.13,12.2,2.4,24.65,2.66,37-.64-13.54-1.27-27.24,1.39-40.53a113.66,113.66,0,0,1,.78,49.42" transform="translate(-142.64 -235.61)"/><path class="cls-6" d="M418.19,268.32a17.44,17.44,0,0,0-1.31,4.46" transform="translate(-142.64 -235.61)"/><path class="cls-6" d="M370.35,326.61l-7.24-7.87a29.71,29.71,0,0,0,6.9,12.49,113.81,113.81,0,0,1-4.77-14.16l2.31,13.78a130.45,130.45,0,0,1-.95-21.55,102.93,102.93,0,0,1,7.78,18.05,90.62,90.62,0,0,1-5.56-11.05,121.08,121.08,0,0,1,17.76,9.23,54.2,54.2,0,0,0-10.27-10.69l11.19,3.9" transform="translate(-142.64 -235.61)"/><path class="cls-6" d="M416.85,244.9l-2.45,1" transform="translate(-142.64 -235.61)"/><path class="cls-6" d="M257.94,330.05a26.82,26.82,0,0,1-11.1,2.51l17.3-7a99.53,99.53,0,0,0-15.54-3.42,63.69,63.69,0,0,1,15.16-1c-6.1-2.39-3,3.68-4.25,6.13-2.27,4.36-11.7,1.77-16.32,1.67C246.61,329.64,254.68,331.57,257.94,330.05Z" transform="translate(-142.64 -235.61)"/><path class="cls-6" d="M309.65,300.25c-.16-.68.8-1,1.5-1,7.31-.16,14.67-.32,21.92.66q-15-3.73-30.27-6,16.27,2.22,32.28,6l-30.63,1.06c4.93.8,10,.17,14.95,0s10.22.25,14.48,2.84" transform="translate(-142.64 -235.61)"/><path class="cls-6" d="M308.15,312.81l3.78-6.16A50.92,50.92,0,0,0,292.48,317q10.22-3.63,20.24-7.73c-9.93,2.57-18.33,9.45-28.28,12a112.93,112.93,0,0,1,14-11.06c-6,2.76-9.85,8.59-13.39,14.14a78.52,78.52,0,0,0,7.11-8.13A69.25,69.25,0,0,1,281.88,331a101.55,101.55,0,0,1,10.26-13.73" transform="translate(-142.64 -235.61)"/><path class="cls-7" d="M298.44,351a38.16,38.16,0,0,1,13.3-7.06c-8.07,8.65-16.18,17.38-22.42,27.42a56.9,56.9,0,0,0,14.35-14.76c-11.48,7.9-16.38,24.13-11.18,37.07" transform="translate(-142.64 -235.61)"/><path class="cls-6" d="M278.42,334.32c-6.18.93-10.14,6.88-13.31,12.27a109.81,109.81,0,0,1,40.36-22.89c-6.32,1.65-12.87,3.42-17.9,7.58" transform="translate(-142.64 -235.61)"/><path class="cls-8" d="M314.23,357.7c5.54-2.06,11.16-4.13,17-4.58s12.17.95,16.44,5" transform="translate(-142.64 -235.61)"/><path class="cls-6" d="M319.48,351.91c9.36-2.52,19.56-4.69,28.53-1a3.7,3.7,0,0,1,2.2,1.76c.35.9-.35,2.18-1.3,2" transform="translate(-142.64 -235.61)"/><path class="cls-6" d="M353.32,351.49l9.62,18.2-9-10.17c-1.61-1.82-3.28-3.79-3.63-6.19a41.44,41.44,0,0,1,14.74,16.44c.29.58,0,1.67-.51,1.28" transform="translate(-142.64 -235.61)"/><path class="cls-6" d="M323.92,383.31l-1.78-.28,12.9-5.72a34.26,34.26,0,0,1-16.58,2.62,28.75,28.75,0,0,0,14.7,3.19c-.08,1.19-1.55,1.68-2.74,1.77a21.27,21.27,0,0,1-16.1-5.68c-1.42-1.35-.49-4.24-.46-6.2,0-.23.41.13.17.16" transform="translate(-142.64 -235.61)"/><path class="cls-1" d="M348.18,356.91l-.25-1" transform="translate(-142.64 -235.61)"/><path class="cls-1" d="M308.28,357.89a26.71,26.71,0,0,0-6.4,26.69c1.86-6.71,3.81-13.59,8-19.17a38,38,0,0,0-2.37,17l2.66-11.17.36,6.09c.07,1.29.92,3.06,2.06,2.47" transform="translate(-142.64 -235.61)"/><path class="cls-2" d="M314.74,364.37a22.22,22.22,0,0,0-6,23.36" transform="translate(-142.64 -235.61)"/><path class="cls-9" d="M159.83,379.16h-.25" transform="translate(-142.64 -235.61)"/><path class="cls-10" d="M407.34,408.23l-.5.51" transform="translate(-142.64 -235.61)"/><path class="cls-11" d="M316.67,377.67c-.29,0-.1-.56.19-.51s.43.38.5.66a7.44,7.44,0,0,1,.08,3.15,7.89,7.89,0,0,1-2.51-2.69c-.69-1.23-.67-3.29.71-3.54s2.09,2,1.07,3-2.67.89-4,.49a3.42,3.42,0,0,1-1.53-.8,2.35,2.35,0,0,1,.21-3.2,3.38,3.38,0,0,1,3.34-.59,4.6,4.6,0,0,1,2.13,6.73,4.78,4.78,0,0,1-7.13.33,2.74,2.74,0,0,1-.76-2.51,3.27,3.27,0,0,1,2.18-1.89,9.65,9.65,0,0,1,8.54,1.07,2.11,2.11,0,0,1,1,1.15,2,2,0,0,1-.81,1.79c-1.95,1.71-4.84,1.77-7.42,1.42-1.29-.17-2.83-.66-3.12-1.93a2.34,2.34,0,0,1,1.43-2.45,6.78,6.78,0,0,1,3-.45h3.34c.81,0,1.87.22,2,1a1.47,1.47,0,0,1-.78,1.23,5,5,0,0,1-6.58-1.22" transform="translate(-142.64 -235.61)"/><path class="cls-12" d="M216.23,286.87a9.36,9.36,0,0,1,4.16-2.37,4.14,4.14,0,0,1,4.29,1.53c1.34,2.08-.29,5-2.54,6a4.18,4.18,0,0,1-2.42.43,3.52,3.52,0,0,1-2.7-3.32,5.09,5.09,0,0,1,2-4,4.89,4.89,0,0,1,4.64-1,3.28,3.28,0,0,1,2.06,4c-.77,2-3.48,2.36-5.66,2.31a2.37,2.37,0,0,1-2.07-.78,2.42,2.42,0,0,1-.17-1.44l.44-4.7" transform="translate(-142.64 -235.61)"/><path class="cls-12" d="M221.21,271.31v.49" transform="translate(-142.64 -235.61)"/><path class="cls-12" d="M391.34,312.81c.37,0,.07-.68-.26-.53s-.35.62-.32,1c1.05,13.05,2.3,26.16,1.4,39.23q-2.27-19.67-2.78-39.46-.15,17,1.15,33.92c1.12-1.05,1.34-2.73,1.46-4.27,1-12.95-.07-26.06,1.91-38.9,2.29,3.1,3.18,7,3.91,10.79a193.51,193.51,0,0,1,3,23.25" transform="translate(-142.64 -235.61)"/><path class="cls-12" d="M397.73,282.15l13.14,6.67c1.84.93,3.86,2.06,4.47,4" transform="translate(-142.64 -235.61)"/><path class="cls-12" d="M428.44,292.44a8.63,8.63,0,0,1,10.31,4.6,9.5,9.5,0,0,1-3,11.08,10.62,10.62,0,0,1-11.67.34c1.8-2.27,5.14-2.57,7.46-4.29a7.09,7.09,0,0,0-3.05-12.68c-.24,2.35,1.49,4.42,3.25,6s3.76,3.16,4.39,5.44a1.13,1.13,0,0,1,0,.92,1.31,1.31,0,0,1-.76.45,33.27,33.27,0,0,1-6.93,1.32,2,2,0,0,1-1.23-.16c-1.11-.7,0-2.38,1-3.17" transform="translate(-142.64 -235.61)"/><path class="cls-12" d="M445.21,265.44l-.49.49" transform="translate(-142.64 -235.61)"/><path class="cls-12" d="M301.44,354.47a26.58,26.58,0,0,0-.84,36.18c-2.82-6.31-5-13.1-4.67-20s3.33-13.95,9.08-17.78a61.88,61.88,0,0,0-3.61,19.47c0,2.3.08,4.78,1.5,6.6.56.72,1.66,1.3,2.34.68a2,2,0,0,0,.48-1.27l2-16.46,1.35,18.55" transform="translate(-142.64 -235.61)"/><path class="cls-12" d="M311.72,370.6a8.07,8.07,0,0,1,1.15-3.79,1.25,1.25,0,0,1,.69-.65c.64-.15,1.09.6,1.29,1.23a75.84,75.84,0,0,1,2.94,11.79l-1.1-8.13a42.24,42.24,0,0,1,5.18,4.36,3.26,3.26,0,0,1-3.3-2.85,7.48,7.48,0,0,1,8.22,6.34,2.34,2.34,0,0,1-2.33-1.87,6.61,6.61,0,0,1-5.4-.63" transform="translate(-142.64 -235.61)"/></svg>