<svg id="Livello_1" data-name="Livello 1" xmlns="http://www.w3.org/2000/svg" viewBox="0 0 843.49 630.2"><defs><style>.cls-1,.cls-2,.cls-3,.cls-4,.cls-5,.cls-6,.cls-7,.cls-8,.cls-9{fill:none;stroke-miterlimit:10;}.cls-1,.cls-3,.cls-4{stroke:#5c809b;}.cls-2{stroke:#49697c;}.cls-2,.cls-3,.cls-7{stroke-width:2px;}.cls-4{stroke-width:0.75px;}.cls-5,.cls-6,.cls-7,.cls-8,.cls-9{stroke:#000;}.cls-6{stroke-width:4px;}.cls-8{stroke-width:5px;}.cls-9{stroke-width:3px;}</style></defs><path class="cls-1" d="M-18.43,443.72l1.38.69" transform="translate(18.65 -62.59)"/><path class="cls-2" d="M770.85,150l-2.07,2.75" transform="translate(18.65 -62.59)"/><path class="cls-3" d="M597.24,458.17l2.07,4.81" transform="translate(18.65 -62.59)"/><path class="cls-4" d="M818.52,692.43a13.49,13.49,0,0,1,6.25-.37" transform="translate(18.65 -62.59)"/><path class="cls-5" d="M237.3,148.49a684.93,684.93,0,0,1,169.28,49.45c3.34,1.46,6.8,3.05,9.06,5.91,3.74,4.7,3.21,11.4,2.29,17.35-4.18,27.19-12.42,53.58-20.63,79.84q-30.49,97.56-61,195.12c-3.07,9.84-7,20.72-16.32,25.17-11.54,5.52-24.71-1.61-36.8-5.81-26.25-9.12-55.92-4.24-81.9-14.13a91,91,0,0,1,35.14,5.35l-34.09-8.59a243.16,243.16,0,0,1,69.72,16.14c-25.41-2.67-49.56-12.07-73.35-21.38l-56.46-22.09c-2.41-.94-4.9-1.94-6.61-3.87-3.51-4-2.44-10-1.17-15.16l18-72.35Q177.58,278.1,203,176.85c8.64-34.17,35.64-30.12,62.83-22.23C256.33,152.66,246.82,150.54,237.3,148.49Z" transform="translate(18.65 -62.59)"/><path class="cls-5" d="M325.05,525.3a33.88,33.88,0,0,1-10.65-4.47,97.73,97.73,0,0,0,31.45-8.51,60,60,0,0,0-22.9,7.81l38.54-11.8-29.58,9.92a138.44,138.44,0,0,1,31.34-12.51,72.21,72.21,0,0,0-17.76,5.76,74.31,74.31,0,0,0,13.72-5.27" transform="translate(18.65 -62.59)"/><path class="cls-5" d="M374.18,480.11c-.87,4.54,4.06,9.12,8.52,7.92s6.43-7.63,3.4-11.13-9.67-2.44-11.49,1.81l-13.74,32.2,37.49-95.51c13.08-33.33,26.3-67.2,29.76-102.85q-6.66,22.23-13.31,44.44l14-40.91a230,230,0,0,1-21.88,60.28,953.82,953.82,0,0,0,37.52-128.87l-15.24,57.15q12.84-34.47,22.65-70l-17.14,58.47,18.22-75a225.4,225.4,0,0,1-9.24,41.85q8.81-30.92,19.17-61.36a127.46,127.46,0,0,1-7.22,31.7,110.67,110.67,0,0,0,11.06-48.05l-3.39,19.86-4.82-11.8a58,58,0,0,0,1.42,18.48A91.51,91.51,0,0,0,452,189" transform="translate(18.65 -62.59)"/><path class="cls-5" d="M219.65,148.24l11.91-6.45c-1.51.16-1.58,1.43-.09,1.73s2.85-.82,3.95-1.86a23.05,23.05,0,0,0-17.34,10.05A294.69,294.69,0,0,1,255,130.59a113.33,113.33,0,0,0-20.4,12c8.46-5.54,17-11.14,26.64-14.33s20.48-3.75,29.57.69l-16-3a321.35,321.35,0,0,1,43.58,9.56,78.53,78.53,0,0,1-22.58-5q23.83,5.44,47.43,11.84l-24.34-7,36.88,14.67-16.29-5.94A428.25,428.25,0,0,1,397.32,161l-22.46-5.61q25.65,7,50.89,15.37l-7.83-1.17c9.47-.17,19.2-.3,28.08,3s16.84,10.85,17.74,20.27L451.6,176l8.11,31.45" transform="translate(18.65 -62.59)"/><path class="cls-5" d="M480.91,357.24l.93-1.83" transform="translate(18.65 -62.59)"/><path class="cls-5" d="M372.24,497a130.65,130.65,0,0,0,15.84-29.5l-14.78,28,14-34.32-13.88,26,15.95-39" transform="translate(18.65 -62.59)"/><path class="cls-5" d="M366.62,506.24,360.14,511a819.59,819.59,0,0,0,63.11-161.68" transform="translate(18.65 -62.59)"/><path class="cls-5" d="M422,220.93l-1.64,4.6a14.85,14.85,0,0,1,1.34-4.51,6.21,6.21,0,0,1-.64,3.47,4.5,4.5,0,0,1,.43-1.72,1.8,1.8,0,0,1-.05,1.73,7.45,7.45,0,0,1,12.1-5.09l-8.44.35,9.63-3.24a58,58,0,0,1-8.91,2.29l11.67-4.33a42.32,42.32,0,0,0-5.47,2.74,58.4,58.4,0,0,1,18-6.5,9,9,0,0,1-.17,5.93l-.13-3.57c.25,2.56.32,5.56-1.65,7.2a8,8,0,0,1-3.38,1.37l-22.62,5.27a.79.79,0,0,1-.66,0c-.21-.18-.17-.52-.1-.79l.72-2.92a11.47,11.47,0,0,0-1.26,4,3.83,3.83,0,0,0,1.69,3.61A5.16,5.16,0,0,0,420.2,228q6.85.13,13.71-.14a18.57,18.57,0,0,0-10.05.45,57.38,57.38,0,0,0,14-2.18,82.67,82.67,0,0,0-16.28,3.17q10.26-2.59,20.3-5.92a48.64,48.64,0,0,0-11.35,4.4q7.5-2.61,15.16-4.73-6.45,2.66-12.71,5.73a93.88,93.88,0,0,1,12.81-5.79l-15.08,5.12q8.55-3.66,17.36-6.64-6.42,3-12.58,6.44a55.66,55.66,0,0,1,11.42-5.38q-4,2.11-8.16,3.85a60.56,60.56,0,0,1,8.85-4.07" transform="translate(18.65 -62.59)"/><path class="cls-5" d="M424.15,259.15v-.31" transform="translate(18.65 -62.59)"/><path class="cls-5" d="M419.18,258.82l1.7-6.94a67.93,67.93,0,0,1-3.58,12.35,118.21,118.21,0,0,1,3.6-13.84l-4.79,12.35a57.27,57.27,0,0,1,3-12.38L415,261.53l3.52-11.85,13.79-2.54a85.89,85.89,0,0,0-9,2c5.39-1.08,10.74-2.42,16-4a52.28,52.28,0,0,0-4.63,15.46,96.85,96.85,0,0,1,4-15.06l-3.3,16c1.37-6,2.76-12.06,5.41-17.61L437.14,260c.93-5.15,2.88-9.24,4.81-14-.94,4.9-2.11,9.77-3.52,14.56a76.24,76.24,0,0,1,2-14.89c-1,4.11-2.15,8.19-3.46,12.21q.52-6,1.61-11.92a26,26,0,0,1-2,14.93q-10.65,1.08-21.26,2.48,9.58-1.24,19.25-1.65L419,264.65l10.86-1.35c1.14-.14,2.58-.57,2.69-1.72" transform="translate(18.65 -62.59)"/><path class="cls-5" d="M425.07,255.21l6.64-.42a51.75,51.75,0,0,0-6.24,1.68l6.53-.74a35.54,35.54,0,0,0-7,1.86l5.59-1.07c-2.54.59-5.07,1.27-7.56,2l6.54-1.33c-2.19.41-4.37.86-6.53,1.37a22.84,22.84,0,0,1,5.94-.66,32,32,0,0,0-6.63.32" transform="translate(18.65 -62.59)"/><path class="cls-5" d="M473.06,240.8h-.61" transform="translate(18.65 -62.59)"/><path class="cls-5" d="M424.45,252.25l5.72-.22-4.43.74c2.82-.43,5.63-1,8.42-1.6l-8.42,1.24a21.37,21.37,0,0,1,5.89-1.46L425.12,253l11.55-.78" transform="translate(18.65 -62.59)"/><path class="cls-5" d="M461.45,243.86l-.62.31" transform="translate(18.65 -62.59)"/><path class="cls-5" d="M293.61,515.2a19.41,19.41,0,0,0,26.74-16.55q-5.4,8.4-11.28,16.47c5.93-13.82,11.9-27.73,20.06-40.37L315.6,505.3a193,193,0,0,1,17-40c-.09,2.85-1.23,5.56-2.35,8.19l-12.62,29.67,8.25-20.34c2.15-5.3,4.35-10.68,7.86-15.21a236.89,236.89,0,0,1-21,41.84" transform="translate(18.65 -62.59)"/><path class="cls-5" d="M170.54,473.08l-.69-.69" transform="translate(18.65 -62.59)"/><path class="cls-5" d="M143.81,465.46l-1-1.45a18.47,18.47,0,0,0,9.58,7.22l-8.5-3.73a26.74,26.74,0,0,1,8.91.73A41.63,41.63,0,0,1,145.17,447l2.3,12.46a180.07,180.07,0,0,1,6.22-29.6,85,85,0,0,1-.9,23.57l.57-16.89a50.09,50.09,0,0,1-1.75,18.75" transform="translate(18.65 -62.59)"/><path class="cls-5" d="M308.81,147l-4.56,4.92,15.2-6.78a12.2,12.2,0,0,1,3.95-1.24,11.32,11.32,0,0,1,4.7,1c20.32,7.47,38.39,21.23,59.68,25.19-2.79,4.19-8.44,5.65-13.42,4.94s-9.5-3.18-14-5.41a182,182,0,0,0-52.15-16.74A70.89,70.89,0,0,1,334,154.74l-17.47-6.24,24,6.82A132.87,132.87,0,0,1,317.92,149a118.41,118.41,0,0,1,49.56,18.24c-12.35,1.05-24.27-4.2-35.55-9.33a121.4,121.4,0,0,1,47.5,15.35,230.2,230.2,0,0,1-36.81-16.73A273.59,273.59,0,0,1,375,170.88c5.19,2.71,10.78,6.23,12.08,11.93" transform="translate(18.65 -62.59)"/><path class="cls-6" d="M154,460.15a20.76,20.76,0,0,1,10.24,7.15c-2.85.58-5.77-1.23-7.33-3.69s-2-5.43-2.34-8.32a113.63,113.63,0,0,1,.29-27.52,239.94,239.94,0,0,0-1.49,33.58,714.61,714.61,0,0,1,3.53-87.65,341.75,341.75,0,0,0-2.16,42.91A269.81,269.81,0,0,1,167.09,372" transform="translate(18.65 -62.59)"/><path class="cls-6" d="M254.47,493.07a53.13,53.13,0,0,1,35.91,6.72c-9.83-.18-19.68.07-29.49.77A143.48,143.48,0,0,1,298,508.43a87.37,87.37,0,0,1-28.27-3.28l38.63,6.14a98.79,98.79,0,0,1-32.44-11.56,123.52,123.52,0,0,1,28.5.9,70.68,70.68,0,0,0-19.57,1.42,84.17,84.17,0,0,0,23-4.2A64.77,64.77,0,0,1,286,492.49l24.3-2.63a64.89,64.89,0,0,1-15.09-3.05q12.27-1,24.59-1.44a38.41,38.41,0,0,1,6.83-24q-8,14.91-17.35,29a219.71,219.71,0,0,1,18.55-40.7q-9.72,18.36-17.58,37.61a209.46,209.46,0,0,1,17.18-32.34q-6,19.21-13.86,37.83l.07-3.18" transform="translate(18.65 -62.59)"/><path class="cls-6" d="M216.28,260a567.12,567.12,0,0,0-36.64,122.61l28-89.5c3.94-12.61,7.91-25.35,9-38.52a927.12,927.12,0,0,0-41.14,130.32c8.53-50.15,23.72-98.89,38.87-147.46-18.93,39.06-31.72,80.76-44.24,122.32-2.73,9-5.47,18.39-4.23,27.74,14.55-59.63,29.28-119.76,55.84-175.1-21.28,58.38-42.81,118-44.44,180.14,13.68-61.8,27.57-123.85,50.44-182.86-14.82,58.78-39.58,116.18-40,176.81l7-36.35c9.35-48.47,18.78-97.24,36.54-143.3-16.52,52.16-33.08,104.44-44.13,158-1.92,9.31-3.68,18.83-2.48,28.26,1.95-.11,2.95-2.36,3.51-4.24Q203.76,336.43,219.35,284L188.64,385.25c-.93,3.07-1.83,6.54-.31,9.36,2.85-3.26,4.37-7.45,5.83-11.53l20.6-57.54L200.24,385.9,217.83,344a216.88,216.88,0,0,1-10.07,48.42" transform="translate(18.65 -62.59)"/><path class="cls-6" d="M317.11,153.71l39.17,10.47" transform="translate(18.65 -62.59)"/><path class="cls-7" d="M245.7,192.47c-12.81,43.57-25.64,87.22-34.39,131.78a917.51,917.51,0,0,1,25.4-97.34Q224,274.05,214.92,322.05l5.17-21c6.24-25.29,12.6-50.89,25.11-73.73-4.73,21-9.45,42-13.5,63.1-2.2,11.49-4.2,23.32-2,34.83" transform="translate(18.65 -62.59)"/><path class="cls-7" d="M259.3,145.45a128.18,128.18,0,0,1,35.84,8.91,88.75,88.75,0,0,1-29.68-3.86,129.35,129.35,0,0,1,34.38.6,86.4,86.4,0,0,1-24.55-12.64l27,7.46a218.74,218.74,0,0,1-30.57-10l29.42,6.37a217.3,217.3,0,0,1-21.75-7.79c4.28.32,8.62.66,12.65,2.13s7.79,4.23,9.46,8.18" transform="translate(18.65 -62.59)"/><path class="cls-7" d="M412.79,182.84c.72-1.92,3.56-1.37,5.4-.48l10.86,5.28a28.25,28.25,0,0,1-14.86-8.33,320.74,320.74,0,0,1,32.92,11" transform="translate(18.65 -62.59)"/><path class="cls-7" d="M182.26,408.42,190.37,365c.53-2.83,1-5.94-.44-8.42q-11.37,37.47-19.75,75.76l15.09-76.71q-9,27.06-15.51,54.86c-1.39,6-2.7,12.17-1.47,18.17,3.44-1,4.93-4.93,6-8.36L188,373.57l-17.49,56.54c2.36-1.81,3.5-4.76,4.54-7.55l17.46-47a441,441,0,0,1-20.36,58.39c6.18-19.24,12.45-38.68,22.88-56l-14,55.69c10.86-17.79,12.24-40.4,24.37-57.36-1.11,20.9-14,39.55-16.72,60.31l9.54-26.76c3.33-9.34,6.72-18.8,12.3-27-4.21,21.72-16.53,41.48-18.85,63.48,2.31-16.85,5-34.53,15.29-48a150.24,150.24,0,0,0-11.75,46.56" transform="translate(18.65 -62.59)"/><path class="cls-7" d="M244.17,461.48a115.36,115.36,0,0,1,40.51-.83,404.32,404.32,0,0,1-46.56,7.46l45.76,11.09a54.75,54.75,0,0,1-41.8-4.62A46.7,46.7,0,0,1,266,478.15c-23.7-.78-44.7-16-60-34.15,23.21,18.54,53.66,24.68,82.84,30.25a43.35,43.35,0,0,1-11.3-32.45L279.89,472c1.64.43,2.87-1.43,3.53-3l13.86-32.51-6.8,24.12a53.26,53.26,0,0,1,14.88-26,154.33,154.33,0,0,1-7.56,31c4.58-10.42,9.4-21.17,17.87-28.78q-5.94,22.77-11,45.76" transform="translate(18.65 -62.59)"/><path class="cls-7" d="M410.86,347.29q-23,61.48-51.08,120.89c3.79-15.07,9.37-29.62,14.93-44.13q16-41.71,32-83.45L356.76,472.19a355.1,355.1,0,0,1,43-118.69" transform="translate(18.65 -62.59)"/><path class="cls-7" d="M319.27,524.41a522.73,522.73,0,0,0,39.31-100.1" transform="translate(18.65 -62.59)"/><path class="cls-8" d="M336.68,258.62c-7.14-13.29-19.79-23.28-34-28.27s-29.94-5.19-44.62-1.72c-22.48,5.31-42.39,18.77-64.89,24-12.22,2.84-24.89,3.17-37.42,2.58-10.84-.51-21.88-1.75-31.73-6.32-19.09-8.85-31.1-30-31.29-51s10.43-41.41,26.26-55.27a32.18,32.18,0,0,1,8.29-5.62c3.95-1.7,8.31-2.06,12.57-2.63a120.84,120.84,0,0,0,36-10.73l-1.17,7.56" transform="translate(18.65 -62.59)"/><path class="cls-8" d="M172.85,117.42a84.72,84.72,0,0,1,15.35,7.69q-10-4.74-20.4-8.82a92.48,92.48,0,0,1,15.51,4.89l-12.59-3.78,11.38,6.11-14.82-7.39a55.48,55.48,0,0,0,9.22,6.67l-6.32-5.16,3.44,3.33-3.68-3.29a6.82,6.82,0,0,0,.56,4.36,8.9,8.9,0,0,0-.93-6.21" transform="translate(18.65 -62.59)"/><path class="cls-8" d="M166.41,109.18l-.68-.68" transform="translate(18.65 -62.59)"/><path class="cls-8" d="M158.15,107.75c1.29.66.68.6,2,1.28a2.47,2.47,0,0,1-2.36,0c2.27-3.21,8.84-4.35,12.16-7.93l-4.73,8.56,10.18-9.4a107.75,107.75,0,0,1-7,10.81l20-22c.61-.67,2.2-.85,1.92,0" transform="translate(18.65 -62.59)"/><path class="cls-8" d="M187.16,128.05A47.75,47.75,0,0,1,202,114.14a43.42,43.42,0,0,0-13.25,10.41l18.64-13.9q-6,3.91-11.85,8.09l12.32-7.53a6.93,6.93,0,0,0,2.88-2.63c.57-1.19.19-2.93-1.08-3.31" transform="translate(18.65 -62.59)"/><path class="cls-8" d="M188.36,112.31l10.22-2.09a17.12,17.12,0,0,0-6-1,9.41,9.41,0,0,0,4.59,2.63A11,11,0,0,1,187,107.4l9.5-1c-4.9-1.9-11.09-7.38-2.72-8.81,4.17-.71,9.71,3.92,13.63,5q-9.15-2.5-18.1-5.7a45.13,45.13,0,0,0,16.14,5.94,181.6,181.6,0,0,0-17-10.54,71.26,71.26,0,0,1,18.77,7.09,115.33,115.33,0,0,0-17.21-5.52l24.45,10.21c-1.44,3.22-4.47,5.38-7.4,7.34q-8.13,5.42-16.6,10.31a19.32,19.32,0,0,1-6.15-7.77l7.93,6.54a51.85,51.85,0,0,1-16.66-5.53l15.42,5.82c-4.4-5-9-9.81-13.17-15,9,4.7,6.29-1.23,10.36-5.71l.27-.28" transform="translate(18.65 -62.59)"/><path class="cls-8" d="M172.93,115.14A54.94,54.94,0,0,1,179,100.55l-1.54,1.14" transform="translate(18.65 -62.59)"/><path class="cls-9" d="M165.2,106.85l-13.61,5.47q13,8,25.68,16.61a81.45,81.45,0,0,1-19.56-10.87L175,128a86,86,0,0,1-13.41-8.3A127.62,127.62,0,0,1,180,130.52c-.32-4.46-.69-9.09-2.92-13s-6.91-6.72-11.17-5.37a28.77,28.77,0,0,0,11.59,12.17l-4.1-12.11a31,31,0,0,1,10.27,9.33c-2.25-6.43-4.53-13-4.24-19.85a31.8,31.8,0,0,0,6.19,8.91" transform="translate(18.65 -62.59)"/><path class="cls-9" d="M211.48,89.34,216.32,105l-6.59-16.2a6.67,6.67,0,0,0,.72,3.2" transform="translate(18.65 -62.59)"/><path class="cls-9" d="M185,84.44a3.18,3.18,0,0,0-2.18-1.5l1.05,10.4" transform="translate(18.65 -62.59)"/><path class="cls-9" d="M181.58,75.93a168.81,168.81,0,0,1,32.93,7.29" transform="translate(18.65 -62.59)"/><path class="cls-9" d="M147.19,106.45c5.4-10.22,15.29-17.12,24.35-24.29a25.51,25.51,0,0,0,6.35-6.47" transform="translate(18.65 -62.59)"/><path class="cls-9" d="M175.9,76.22a188.26,188.26,0,0,0,11.87,27.45" transform="translate(18.65 -62.59)"/><path class="cls-9" d="M168,91.91a4.41,4.41,0,0,1,3.13-3.27L159.91,99.79l9.46-14.42a65.6,65.6,0,0,0-6.91,10.83" transform="translate(18.65 -62.59)"/><path class="cls-9" d="M192.55,82.36l.11,5.41a22,22,0,0,1,9.22,1.37,7.25,7.25,0,0,0-4-6,5.33,5.33,0,0,0-6.61,2" transform="translate(18.65 -62.59)"/><path class="cls-9" d="M336.39,251a4.28,4.28,0,0,1-5.77,1.51,170,170,0,0,0,10.61,20.89L332.74,256l5.68,10-4.29-12.78L341,271.36a28.89,28.89,0,0,0-4.5-12.43c2.83,6.57,5.71,13.42,5.44,20.57-.23,6.2-2.82,12-5.36,17.68L321,331.85c-.13.29-.34.64-.67.63s-.32-.67,0-.55" transform="translate(18.65 -62.59)"/><path class="cls-9" d="M312.57,328.08q-3.17,9.74-7.06,19.22c-1.15,2.8-2.35,5.59-3.59,8.35l11.94,1.91a1.56,1.56,0,0,0,1.24-.16,1.51,1.51,0,0,0,.41-.78c1.44-4.88,4.88-10.51,4.87-15.68C320.37,337.54,312.53,328.2,312.57,328.08Z" transform="translate(18.65 -62.59)"/><path class="cls-9" d="M317.06,327.94c-.79,0-.65,1.36,0,1.74s1.6.32,2.22.82c.8.65.74,1.87.6,2.9-.47,3.44-.95,6.87-1.42,10.3" transform="translate(18.65 -62.59)"/><path class="cls-9" d="M305.43,360.1a2.28,2.28,0,0,0-2.7,1.22,6.67,6.67,0,0,0-.54,3.17l8.65-2.3a7,7,0,0,0-1.69-3.28c-.77,1.14-1.67,2.39-3,2.65s-2.91-1.33-2.1-2.44l-.14,3.62a6.32,6.32,0,0,1,4.28-3" transform="translate(18.65 -62.59)"/><path class="cls-9" d="M311.57,346.5a3.14,3.14,0,0,1,2.2-1.77,71.6,71.6,0,0,0-4.4,9.79,7.44,7.44,0,0,1,2.64-5" transform="translate(18.65 -62.59)"/><path class="cls-9" d="M374.79,154.85l-8.69-24.24,4.58,23.68-6.09-25.52,4.27,18.1L362.5,119.7l24.89-1.59a76.52,76.52,0,0,0-21,1.82,12.32,12.32,0,0,1,2.23-4.55c-1,.25-.7-.18-1.74.07a196.35,196.35,0,0,0,21.57-6.7l-15.73,8.37q13.49-6,27.51-10.6l-16.22,7.66q24.49-8.73,49.71-15.18A216.53,216.53,0,0,0,449,152.93q-5.81-19-11.62-38.08l22.35,65.71a331.69,331.69,0,0,0-12.3-37.65l10.94,30.41" transform="translate(18.65 -62.59)"/><path class="cls-9" d="M460.07,209.68l7.7,14.33a116.7,116.7,0,0,0-5.08-16.55,79.13,79.13,0,0,0,4.38,14.34l-5.27-15.4a76.89,76.89,0,0,0,6.74,13.3,63.92,63.92,0,0,0-3.39-7.95c-.92,4.91,1,10.37-1.43,14.76-2.22,4.08-7.3,5.62-11.92,6.07a45.56,45.56,0,0,1,6.94-13.84,22.48,22.48,0,0,1-1,8.27,13.34,13.34,0,0,1,1.71-8.15,10.1,10.1,0,0,1,.92,5.21c-.32,1.76-2,3.4-3.72,3" transform="translate(18.65 -62.59)"/><path class="cls-9" d="M414.06,129.82v.69" transform="translate(18.65 -62.59)"/><path class="cls-9" d="M441.45,133.31a260.39,260.39,0,0,1,10,33.61l-16-23.54L447,175.8q-17.89-6.74-35.36-14.54l19.14,4L427,153.09a15.47,15.47,0,0,1,.83,8.87,128.4,128.4,0,0,1-13.07-31.89,110.44,110.44,0,0,1,4.69,28.47,108.74,108.74,0,0,1-8.94-25.43,107.88,107.88,0,0,1,.35,22.51,66.17,66.17,0,0,1-8.54-24.2,174.19,174.19,0,0,1,1.31,21.78,55.79,55.79,0,0,1-6.8-21.09A110.59,110.59,0,0,1,397.2,152L391,134.42,390.31,150a58.57,58.57,0,0,1-4.5-20.07,117.92,117.92,0,0,1,1.26,15.48L383.8,127.7l11.79,28.17-4.79-.65a81.84,81.84,0,0,1,16.08,3.67A31.85,31.85,0,0,1,395.27,155l13.94,3.73-10.1-2.47a123.39,123.39,0,0,1,25.24,8.52,23.14,23.14,0,0,1-10.54-12.39,111.21,111.21,0,0,1,15.87,8.36,143.07,143.07,0,0,1-8.88-18.31L441.13,165l-17.51-53.7a349.36,349.36,0,0,0,10.22,45.16l-9.73-27.15q3.63,14.47,5.95,29.24a250.28,250.28,0,0,1-8.6-34.1,293.32,293.32,0,0,1,5.87,31.27L417.88,123c-.23,0,1.22,1.29,1,1.29" transform="translate(18.65 -62.59)"/><path class="cls-9" d="M435.61,133.15l6.23,28.67q-3.76-24.67-7.52-49.35.63,16.19,2.75,32.26a133.65,133.65,0,0,1-3.18-28" transform="translate(18.65 -62.59)"/><path class="cls-9" d="M371.56,113.06a145.4,145.4,0,0,1-3.73-14.68l15.49-5.3-12.23,8.44c.86-3,3.59-5.28,6.56-6.37A30.32,30.32,0,0,1,387,93.8l16.08-.62a116.82,116.82,0,0,0-19.6-1.2,195.43,195.43,0,0,1,37.44-6.22,96,96,0,0,0,.51,15q-16.73,1.39-33.33,4a19.92,19.92,0,0,0,5.6-8l-9,9.8c-1.2,1.32-3.09,2.73-4.56,1.73a37,37,0,0,1,17.9-8.59l-20.35,4.18a77.12,77.12,0,0,1,27.36-9.28l-30.27,9a136.24,136.24,0,0,1,41-14.45,200.66,200.66,0,0,0-26.56,9q13-3.08,25.72-7.35l-10.65,10.07a98.32,98.32,0,0,0,13.73-3.5L397.54,101a126.83,126.83,0,0,1,18-8.47c-7.49,2.84-51.38,6.74-44,18.84a23.38,23.38,0,0,0-2-7A29,29,0,0,0,371.56,113.06Z" transform="translate(18.65 -62.59)"/><path class="cls-5" d="M373.38,107.14l.6,3.68a1.89,1.89,0,0,0,.48,1.17,1.93,1.93,0,0,0,1.62.2l13.86-2.49" transform="translate(18.65 -62.59)"/><path class="cls-5" d="M372.63,83.34l6.5,13.26-6.35-13c-1.31-2.68-2.64-5.55-2.24-8.5s3.36-5.72,6.17-4.76c1.48.42,2.24,2,2.82,3.44L388,94.65" transform="translate(18.65 -62.59)"/><path class="cls-5" d="M400.9,83.08l2.17,4.53-5.3-12.7c-1.31-3.13-2.52-7.06-.33-9.65,1.82-2.16,5.36-2.17,7.72-.63s3.71,4.25,4.5,7c1.5,5.14,1.38,10.78,3.88,15.51" transform="translate(18.65 -62.59)"/><path class="cls-5" d="M412.68,97.49H412" transform="translate(18.65 -62.59)"/><path class="cls-5" d="M384.48,88.55a9.21,9.21,0,0,1-2.8-3.92l.71,5.29L377,85.68a6.94,6.94,0,0,0,1.33,4.7,2.47,2.47,0,0,1-2.12-2.95l3.16,3.3-1.17-4.29a.81.81,0,0,1,1.41.06" transform="translate(18.65 -62.59)"/><path class="cls-5" d="M399.61,76.17v.68c-.52.3-1.07.53-1.59.83a32,32,0,0,0,11.57-2.81,4.46,4.46,0,0,0-3.25,8.26A11.87,11.87,0,0,0,404,77.62a15.94,15.94,0,0,0,2.54,7.25l-.06-5.78C406.42,80.21,399.61,75,399.61,76.17Z" transform="translate(18.65 -62.59)"/><path class="cls-5" d="M403.72,75.49l3.82,8.86a12.3,12.3,0,0,0-2.33-6.72,19.41,19.41,0,0,0,4.14,7.43l-4.41-12,7.16,13.16a189.37,189.37,0,0,0-9.19-20A36.8,36.8,0,0,1,408.63,78l-5.49-13.29a24.18,24.18,0,0,1,7,17" transform="translate(18.65 -62.59)"/><path class="cls-5" d="M371.41,81.71a35.11,35.11,0,0,1,10.33.58" transform="translate(18.65 -62.59)"/><path class="cls-5" d="M373.17,72.87a148.81,148.81,0,0,1,9.26,25.3" transform="translate(18.65 -62.59)"/><path class="cls-6" d="M389.3,191.73a73.19,73.19,0,0,1,23,17.54l-5.46-9.83,7.25,7.83-3.32-3.75c4.79,4.68,5.09,12.43,3.13,18.84s-5.77,12.07-8.32,18.27c-3.09,7.5-4.28,15.61-6.05,23.53C394.46,286.77,384.68,308,375,329" transform="translate(18.65 -62.59)"/><path class="cls-6" d="M365.25,396.64c7.23-9.87,12.19-21.17,17.1-32.37,19-43.46,38.35-88,41.22-135.4q-21.94,59.26-40.84,119.61a369.48,369.48,0,0,1,33-97.43" transform="translate(18.65 -62.59)"/></svg>