<svg id="Livello_1" data-name="Livello 1" xmlns="http://www.w3.org/2000/svg" viewBox="0 0 589.45 450.5"><defs><style>.cls-1,.cls-2,.cls-3,.cls-4,.cls-5,.cls-6,.cls-7,.cls-8,.cls-9{fill:none;stroke-miterlimit:10;}.cls-1{stroke:#5c809b;}.cls-2,.cls-5,.cls-6,.cls-7,.cls-8,.cls-9{stroke:#b08e5b;}.cls-2,.cls-3{stroke-width:2px;}.cls-3,.cls-4{stroke:#000;}.cls-5{opacity:0.89;}.cls-7,.cls-8,.cls-9{stroke-width:4px;}.cls-7{opacity:0.28;}.cls-10,.cls-8{opacity:0.31;}.cls-11{fill:#b08e5b;}.cls-12{opacity:0.56;}</style></defs><path class="cls-1" d="M606.23,626.2l-.64-.64" transform="translate(-17.14 -176.05)"/><path class="cls-2" d="M109.06,224.87l16.7-24.07a114.83,114.83,0,0,0-23.28,43.91,159,159,0,0,0,7.87-22.16,137.49,137.49,0,0,0,.37,66.28,149.59,149.59,0,0,1-4.35-33.37,153,153,0,0,0,21.84,62.39,110.88,110.88,0,0,1-22.39-60.58c-.63-11.1.47-22.43,4.54-32.77,1.57-4,12.26-17.17,11-19.68C116.43,210.68,112.62,218.08,109.06,224.87Z" transform="translate(-17.14 -176.05)"/><path class="cls-2" d="M123.17,197.73a6.11,6.11,0,0,1,.41,6.15,35.2,35.2,0,0,1,6.9-8.92,23.06,23.06,0,0,0-5.92,4.42l11.8-11.5a87.71,87.71,0,0,0-11.92,12.22,110.49,110.49,0,0,1,14.42-13.86c-.88-.07,1-1,.14-1.06A81,81,0,0,0,162.55,188a87.74,87.74,0,0,1-25.11-3.46,100.09,100.09,0,0,1,27.76,2.68l-17.68,0a378.9,378.9,0,0,1,49.29-1.05l-18.18-1.06c19.23,3,38.82,3.06,58,5.84-.1.53-.05,1.19-.13,1.7,7.18-1.31,14.24-3.14,21.63-3.71l-15,6.74a211.64,211.64,0,0,1,28.05-8.81,219.54,219.54,0,0,1-30.42,7.68A126.57,126.57,0,0,1,280,190.37l-26.68,1.76a226.19,226.19,0,0,1,58.29-4,102.32,102.32,0,0,0-30.1,1.16c17.37,0,34.65-2.13,51.88-4.27l-13.49,1.25a176.35,176.35,0,0,1,31.5-3.35c7.62-.13,23.43-1.69,29.3,2.85,2.73,2.11-2.4,3.33,4.81,2.7a102.68,102.68,0,0,1,15.29-.41A90.19,90.19,0,0,1,430.5,195a81.92,81.92,0,0,1-23.27-3.63,168.68,168.68,0,0,1,37.48,4,373,373,0,0,0-62.8-4.49c24.69-13,56.82-10.42,79.1,6.4-8.41-3.64-17.59-5.17-26.73-5.84,16.43.38,33,.78,49,4.63l-49.21-7.31c-13.6-2-27.74-4-40.86.08,18.62-4.51,38.2-9,56.7-4,9.91,2.67,18.91,7.94,28.64,11.19,4.88,1.63,10,2.77,14.49,5.26s8.44,6.74,8.91,11.86l-7.58-11.67,9.2,16.07a76.44,76.44,0,0,0-8-14.41,32.94,32.94,0,0,0,4.11,9.2,15.2,15.2,0,0,0-2.8-6.72,44.24,44.24,0,0,0,4.7,9.47L499,209.19a191.57,191.57,0,0,1,11.94,21.06,40.64,40.64,0,0,1-7-13.84,150.64,150.64,0,0,1,11.49,19,24.75,24.75,0,0,0-4.16-8.36,47.1,47.1,0,0,0,7.34,16.68,14.08,14.08,0,0,0-4.78-6.75,44.54,44.54,0,0,0,5,12.64A15.79,15.79,0,0,0,516.8,243l-1,17.19-.51-11.68a39.8,39.8,0,0,0,3.4,13.39l-5.14-30.73,3.77,35.93a83.13,83.13,0,0,1-1.51-13.8,90.85,90.85,0,0,1-3.11,19.11l-.08-5.56L511.7,282a40.88,40.88,0,0,1-.48-9.11v6.22l.14-2.49-1.51,9.06.11-2.78a111.81,111.81,0,0,1-8.81,13.75l5.18-5.33L487,305.9l14.64-10.73-23.63,22.29,12.14-11-19.77,17.69,15.28-14.49-18.19,17L478.08,316q-10,7.56-20.6,14.32l7.31-6.94a43.12,43.12,0,0,1-17.63,2.77l7.4-1.08q-14.22,2.94-28.67,4.45" transform="translate(-17.14 -176.05)"/><path class="cls-2" d="M130.58,306.83l-5.87,2.32,15.86,1.41L122.51,316q11.2-2.32,22.19-5.57l-22.37,5.1a15.18,15.18,0,0,1,7.66-1.82A28.63,28.63,0,0,0,112.54,319l4.06-.22c0,.79-1.52.3-1.38-.48s1-1.16,1.77-1.41l14.53-4.68-17.31,6.49a107.08,107.08,0,0,1,27.21-10.32,17.3,17.3,0,0,0-11.65,4.58,163.58,163.58,0,0,0,35.06-10.75l-13.52,4.74a203.68,203.68,0,0,1,38.75-5.75,59.32,59.32,0,0,1-14.17,1.69,36.61,36.61,0,0,0,13.7,1.11,226.19,226.19,0,0,1,27.12-2.69A108.8,108.8,0,0,0,200,301q21.74-.35,43.45,1l-5.17-.27L255.84,307l-7.14-3.63a99.21,99.21,0,0,0,17.23.75l-5.89-.35c-.41,0-.91,0-1.12.34s.41.87.57.49c10.67-2.38,22.9-3.72,33.77-4.75l-3.13.17a144.4,144.4,0,0,1,36.54,2.21l-9.79-1.14A122.43,122.43,0,0,1,351,302.79a13,13,0,0,1-8-.57A97,97,0,0,0,363.82,307c4.33.49,8.86.66,12.88-1,9.32-3.86,13.62-16.49,23.55-18.21l-1.4,6.24,15.59.54-18.28-2.46a75,75,0,0,1,26,11.88,110.12,110.12,0,0,0-16.39-11.45,269.12,269.12,0,0,0,31.47,14.78,49.22,49.22,0,0,0-18.74-6.88l33.67,8.5a168.31,168.31,0,0,1-24.34-2.17,201.8,201.8,0,0,0,37,9.18l-30.24-4.35,37.21,5.84A143.52,143.52,0,0,1,439.64,319a254.77,254.77,0,0,0,26.59,4.47,294.72,294.72,0,0,1-42.56-18.22c10.54,2.86,20.36,8,30.92,10.79s22.65,2.94,31.49-3.48c.88-.64,2.22.81,1.52,1.64s-2.36-.26-1.87-1.23" transform="translate(-17.14 -176.05)"/><path class="cls-2" d="M114.19,322.78a4.42,4.42,0,0,0-4.58-1.16A17,17,0,0,0,110,332l-2-6.61c2.49,6.67,10,10.09,17,11.3s14.36.94,21,3.46l-13.2-2.23a104.53,104.53,0,0,0,29.71-3.52,18,18,0,0,0-10,2.66,215.57,215.57,0,0,1,48.25-7.92L183.42,331A130.35,130.35,0,0,1,251,328.42l-4.33-.06,20.64,1.89a85.09,85.09,0,0,1-18.3-2.79q22.5,5.67,45.43,9.28l-14.32-4.93a154.32,154.32,0,0,0,83.19,2.87c5.53-1.35,11.15-3,16.8-2.39,4.3.48,8.32,2.27,12.44,3.56,13.33,4.14,27.64,2.94,41.54,1.7,18.38-1.63,37.42-3.47,53.41-12.66L479,333.71a233.3,233.3,0,0,0,24.91-29.87,107.82,107.82,0,0,0-17.21,18.88Q498.08,307,507.9,290.17a118.67,118.67,0,0,1-11.19,18.66,117.42,117.42,0,0,1,10.33-21,62.39,62.39,0,0,1-8.58,14.95,13.66,13.66,0,0,1,7.26-6.05" transform="translate(-17.14 -176.05)"/><path class="cls-2" d="M499.54,215.49a84,84,0,0,0-3.42-8.94l3.55,2.16L489,203.79c.11-.53,1,0,.79.53s-.93.51-1.47.48l-16.28-1,5.64,4a85.91,85.91,0,0,0-21.93-1.72,13.88,13.88,0,0,0-5.42,1.09A13.34,13.34,0,0,0,446,211.1a58.93,58.93,0,0,0-8.45,14.41,38.28,38.28,0,0,1,9.22-12.37,83.8,83.8,0,0,0-19.93,42.74,8.25,8.25,0,0,1,1.49-6.41q-1.74,9.57-2.82,19.25a11.83,11.83,0,0,0,.31,5.65,12.07,12.07,0,0,0,2.82,3.74l19.28,19.6-13.3-8.63L467.88,307l-17-5.83,32.89,13.61a240,240,0,0,1-36.94-20,304.36,304.36,0,0,1,29.57,13.38,276,276,0,0,0-33-22.4,302.52,302.52,0,0,0,41.48,19.68,125.24,125.24,0,0,0-35.24-14.08,196.23,196.23,0,0,0,36.65,12.09q-21.1-7.43-42.57-13.79a283,283,0,0,1,40.4,14.77q-12.4-4.4-25.08-7.93c1,3.41,4.83,5,8.23,6a140.94,140.94,0,0,0,22.43,4.66,52.8,52.8,0,0,0-19.49-1.89,84.05,84.05,0,0,0,19.46,2.5,89.21,89.21,0,0,1-15.76-2.34,24.1,24.1,0,0,1,9.36,5.05A20.3,20.3,0,0,1,472.21,312a39.29,39.29,0,0,0,10.14-2.32l-3.46-.16a51.23,51.23,0,0,1,15.36-5.45c-.29.47,1.18-1.41.89-.94" transform="translate(-17.14 -176.05)"/><path class="cls-2" d="M447.46,288.55a34,34,0,0,0-9,.35A59.39,59.39,0,0,0,452.9,295a60.5,60.5,0,0,1-15.46-5.95q6.78,3.36,13.33,7.17a20.42,20.42,0,0,1-6.32-1,6.92,6.92,0,0,1-4.34-4.42" transform="translate(-17.14 -176.05)"/><path class="cls-2" d="M466.69,284l19.12,6.4-17-6.56c6.91.87,13.86,1.49,20.81,1.87A63.26,63.26,0,0,1,471,283.91l18.69,7.2-12.78.21,14.06.3-9-2.56,10.31-.5a23.5,23.5,0,0,0-10.21-1.42l6.67.6-3.06,2.63a147.35,147.35,0,0,0,22-2.4,13.08,13.08,0,0,0-5.63.9,22,22,0,0,0,11.22-3.41l-24.45,4.68c-2.77.53-5.63,1.06-8.37.43-5.74-1.31-9.29-7.16-14.66-9.57A25.2,25.2,0,0,1,470,268.37a17.19,17.19,0,0,1-3.34,7.36,22.35,22.35,0,0,1,4.95-13.47,35.44,35.44,0,0,1-5.39,9.1,44.35,44.35,0,0,1,7.46-17.53,18.06,18.06,0,0,0,4.59,13.61A17.54,17.54,0,0,0,491.47,273c.33-1-.48-2-1.28-2.74a24.35,24.35,0,0,0-13.15-6c7.22,4.11,15.82,4.82,24.1,5.43a125.83,125.83,0,0,1-27-.56c10.61,3.11,22,1,33,2.46q-12,1-24.12,1a65.11,65.11,0,0,0,25.86-.82c-8-.35-15.26-5-23.24-5.73l24.8.16a59.4,59.4,0,0,1-23,5.41,40.43,40.43,0,0,0,16.47-5.86c.91-.57,2-1.2,3-.77.38-1.61-1.94-3.55-2-5.2a7.16,7.16,0,0,1-1,4.33,42.74,42.74,0,0,1,4.09-9.44,33.65,33.65,0,0,1-3,7.35" transform="translate(-17.14 -176.05)"/><path class="cls-2" d="M475.89,251.79a30.56,30.56,0,0,1,7.69-8.14A61.14,61.14,0,0,1,474,254.78a36.72,36.72,0,0,1,6-12.3,4.51,4.51,0,0,1,2.11-1.81,4.6,4.6,0,0,1,2,0,106.83,106.83,0,0,1,25.07,6.31c.85.33,1.88,1.15,1.4,1.93l-18.86-6.5a63.39,63.39,0,0,0,14,.43,5.43,5.43,0,0,1,2.05.07c2.29.68,2.59,3.76,2.44,6.15" transform="translate(-17.14 -176.05)"/><path class="cls-2" d="M481.78,260.92c-.38.6-1.26.5-2,.46s-1.66.34-1.53,1.05a1.26,1.26,0,0,0,.51.7c4.5,4,9.82,8.18,15.77,7.41a152.24,152.24,0,0,1-17.17-9.1c8.87,1.95,17.95,3.91,26.95,2.71a73.14,73.14,0,0,1-20.42-4.3c4.33-.58,8.68.57,12.89,1.71a16,16,0,0,1,4.88,1.92,5.38,5.38,0,0,1,2.55,4.36" transform="translate(-17.14 -176.05)"/><path class="cls-2" d="M485.87,228.3a81.19,81.19,0,0,0-12.33,19.21,151.77,151.77,0,0,1,10.74-19.88l-13.43,18.43a71.53,71.53,0,0,0,6-11.08,8.21,8.21,0,0,1-1.92,2.57" transform="translate(-17.14 -176.05)"/><path class="cls-2" d="M463.12,283c-6.56-5.66-9.74-14.57-9.79-23.23s2.74-17.14,6.52-24.93a98,98,0,0,1-6.5,17.72,73,73,0,0,1,12.52-24.38l-9.58,14c3.86-6.49,8.38-13.51,15.64-15.59,10-2.86,19.74,4.89,30,6.47a227.86,227.86,0,0,1-22.65-3.7l37.25,4.87-28.69-1.35a113.74,113.74,0,0,1,17,2.71" transform="translate(-17.14 -176.05)"/><path class="cls-2" d="M471.39,240.56c-.26.05-.05-.47.18-.33s.18.47.11.72q-3.1,11.31-6.24,22.62c1.35-4.55,2.57-9.15,3.65-13.77l-4.35,10.78c-.61,1.52-1.12,3.52.13,4.58" transform="translate(-17.14 -176.05)"/><path class="cls-2" d="M451.6,298.11l-4.9-.09,15.69,6.24a70,70,0,0,1-17.72-9.62c-3.07-2.29-6.13-5.14-6.8-8.92" transform="translate(-17.14 -176.05)"/><path class="cls-2" d="M432.73,263.86c0,.45-.74-.21-.35-.43s.83.16,1.12.5a121.85,121.85,0,0,0,15.22,15L431.66,269a36.53,36.53,0,0,0,13.79,12.79,65,65,0,0,1-12.93-10.56,32.86,32.86,0,0,0,7.71,6.59,1.87,1.87,0,0,1-1.44-1.26" transform="translate(-17.14 -176.05)"/><path class="cls-2" d="M441.05,310.5l5.5,2.29" transform="translate(-17.14 -176.05)"/><path class="cls-2" d="M194.8,305.52A9.52,9.52,0,0,1,200,306l-8.8,4a34.51,34.51,0,0,0,9.13.55,13.14,13.14,0,0,1-5.49,3.2" transform="translate(-17.14 -176.05)"/><path class="cls-3" d="M226.7,215.35a151.36,151.36,0,0,1,13-17.59q-6.94,10.5-14.86,20.33l14.72-20.83q-11.1,15-21.5,30.4l8.48-11.46-11.2,24.11a37,37,0,0,1,8.27-22.43,63.1,63.1,0,0,0-10.79,34.29A36.7,36.7,0,0,1,219.92,229a119.28,119.28,0,0,0-6.2,54.38,260.88,260.88,0,0,0,.44-31A90.08,90.08,0,0,0,226.88,301c-3.16-8-6.21-16.18-7.74-24.67a105.91,105.91,0,0,0,16.73,41.27l-5.75-15.32a80,80,0,0,0,8.37,26.88,92.6,92.6,0,0,0-13.88-4.43,11.34,11.34,0,0,0,6-.93,11.42,11.42,0,0,0-4.56.63,7.82,7.82,0,0,0,3.43.33l-11.87,0a36.74,36.74,0,0,0,8.76.46l-11.59.88a3.5,3.5,0,0,1-2.6-.48,3.56,3.56,0,0,1-.9-1.78L204.08,298a143.22,143.22,0,0,0,11.34,27.83l-14.67-34.6q4.09,12.24,9.31,24.07a189.21,189.21,0,0,1-12.72-45.62,233.69,233.69,0,0,0,6.83,34.68,160.07,160.07,0,0,1-6.61-49.27,198,198,0,0,0,1.68,33,236.89,236.89,0,0,1-3-56L196,272.62A91.2,91.2,0,0,1,201,222l-6.09,14.77a130.75,130.75,0,0,1,19.58-37.55,282,282,0,0,1-14.67,28.91,179.45,179.45,0,0,1,18.67-27.16c.34-.37.53.72,0,.66s-.66-.71-.65-1.21c.08-4.88,4.1-9.16,8.82-10.39s9.86.21,13.87,3l-14.3-3.17c5,1.12,16.7-.08,15.09,7.33C240,203.35,230.71,210.63,226.7,215.35Z" transform="translate(-17.14 -176.05)"/><path class="cls-3" d="M204.24,280.73a274.94,274.94,0,0,0,15,43.29l-13.45-48.63c4.11,12.73,8.22,25.47,13.36,37.81q-6-12.85-11.38-26a247,247,0,0,0,12.5,32.66c.87,1.87,2.3,4,4.35,3.78q-7-21.3-14.39-42.48l7.52,20.46c1.92,5.21,3.95,10.6,7.91,14.48q-4.41-17.44-10.12-34.52A186,186,0,0,0,229.89,321L214.23,282.1q7.19,18.48,12.77,37.53c-9.13-10.59-15.39-23.29-21.55-35.83q5.75,19.13,13.15,37.71c-7.29-13.72-14.68-27.7-17.62-43l9,18.76q-3.48-19-5.18-38.28c2.5,13.15,5,26.42,10.22,38.76l-5.54-39c2.68,13.18,5.36,26.39,9.24,39.26q-5.07-20.55-11.91-40.61l-.15,25.84A49.93,49.93,0,0,1,196,264.46a132.51,132.51,0,0,1,10.92,28.72A64.87,64.87,0,0,1,202.08,272" transform="translate(-17.14 -176.05)"/><path class="cls-3" d="M218.08,223.76l-9.59,13.86A55.38,55.38,0,0,1,223.05,215a120.59,120.59,0,0,1-12.26,22.58c.51-8.37,3.36-16.4,6.18-24.31l-9.78,16.44a44.68,44.68,0,0,1,6.89-20.54A51.7,51.7,0,0,1,206,225.59a33.51,33.51,0,0,1,13.84-19.74c-2,5.9-6.7,10.42-11.22,14.7a53.61,53.61,0,0,0,17.08-2.78l-9.3-1.49,4.93-1.14c1-.24,2.31-1,1.82-1.95" transform="translate(-17.14 -176.05)"/><path class="cls-3" d="M374.1,183.92l-.65.08L385,185l-12.89,1.95a78.72,78.72,0,0,0,19.32,5.5c-4.73-1.23-9.42-2.69-14-4.35,6.05-.18,12.12-.08,18.16.29a36.8,36.8,0,0,1-24-5.69l9.77,4.1-13.8-4.14a2.52,2.52,0,0,0-3.17.73c-9.72,9-14.2,25.11-14.13,38a71.77,71.77,0,0,1,5.24-24.87,295.94,295.94,0,0,1-9.61,41.64,136.86,136.86,0,0,1,5-26l-6.58,14.57a32.34,32.34,0,0,0-2.84,8.15,31.89,31.89,0,0,0-.08,7.11l1.74,28.15a87.36,87.36,0,0,1-3.31-28.81,220.92,220.92,0,0,0,5.63,35.78,61.84,61.84,0,0,0-.92-13.72,166.6,166.6,0,0,1-3.67,28.31l-.36-4.49c-2.58,11.52,4.44,22.77,11.13,32.5L339.75,305.4a109.2,109.2,0,0,0,17.94,29.11L351.06,322l6.51,11.93,14.78-1-15.7.54a78.23,78.23,0,0,1,22.66.46,89.59,89.59,0,0,1-21.83,2.27,119.38,119.38,0,0,1,20.73-2.3l-16.13-.47A72.06,72.06,0,0,1,382,335.67a65.2,65.2,0,0,1-9.93-26.9l7.48,21.35a238.78,238.78,0,0,1-12.41-27.49,97.76,97.76,0,0,0,3.95,17.31,101.15,101.15,0,0,0-13-21.92,67.46,67.46,0,0,0,9.58,12.71c-1.63,0-9-13.2-10-15.51-2.07-4.87-1.37-10.3-1.43-15.46A79.15,79.15,0,0,0,359,311.41l-9.32-21.88a138.41,138.41,0,0,0,13.39,31.38,151.7,151.7,0,0,1-12.12-15.68q6,12.6,12.68,24.85-8.25-11.47-15.53-23.62a60.05,60.05,0,0,0,15.68,24.84,148.8,148.8,0,0,0-7.6-28.66,161.72,161.72,0,0,0,14.32,26.3A132.79,132.79,0,0,0,359,295.33a254.91,254.91,0,0,0,15.15,30.36,136.8,136.8,0,0,0-27.5-37.34,27,27,0,0,0,10.47,15.95,251.55,251.55,0,0,1-5.27-33c1.41,7.74,1.31,15.67,1.2,23.54A94.68,94.68,0,0,1,356.58,262a49,49,0,0,1,.63,22.17,84.6,84.6,0,0,1,2-32.81,43.7,43.7,0,0,1-4.83,16.32l0-9.41" transform="translate(-17.14 -176.05)"/><path class="cls-3" d="M366.3,216.94l.86-2.49A200,200,0,0,0,351.24,241l7.5-17.29" transform="translate(-17.14 -176.05)"/><path class="cls-3" d="M385.65,196.55a150.75,150.75,0,0,0-19.46,64.77c.48-23.83,8.78-46.73,17-69.12-5.73,25.13-19.92,48.13-22.54,73.76a131.07,131.07,0,0,1,13.45-53.42c-9.34,24.54-16.43,51.55-9.34,76.83a160,160,0,0,0-1.51-25,75.69,75.69,0,0,0,.31,32l-.8-6" transform="translate(-17.14 -176.05)"/><path class="cls-4" d="M367,198.68a204.4,204.4,0,0,0-10.27,80.57,106.4,106.4,0,0,0,5.39-31.3A68.4,68.4,0,0,1,358,283.22l-4.06-42.17a95.58,95.58,0,0,0-.29,45.88" transform="translate(-17.14 -176.05)"/><path class="cls-4" d="M198,255.46l0-2.43a136.82,136.82,0,0,0,2.83,24.55c.16.75.84,1.73,1.45,1.26a239.35,239.35,0,0,0-.1-28.22l1.62,19.21a9.76,9.76,0,0,0,1.39,5.06c.6-10.49-.67-21-1.93-31.4a91.62,91.62,0,0,0,1.46,25.17L209.94,241a16,16,0,0,1,1.87-5.73,229.59,229.59,0,0,1-3,33.93l.17-2.7" transform="translate(-17.14 -176.05)"/><path class="cls-4" d="M222.66,206.36a22.87,22.87,0,0,1,6.06-8.51,48.71,48.71,0,0,1-6.79,8.88q4.92-5.65,9.36-11.7A111.12,111.12,0,0,0,215.43,217" transform="translate(-17.14 -176.05)"/><path class="cls-4" d="M230.05,309.15a23.2,23.2,0,0,0-4.16-5.25l3,21.63a81.65,81.65,0,0,1-3.21-9.38,25.08,25.08,0,0,0,4.38,7.66c.23-1.23,2-1.56,3-.86a5.76,5.76,0,0,1,1.87,3.16,12.72,12.72,0,0,1-8.61-4.72,1.41,1.41,0,0,1-.43-1.2c.13-.5.72-.72,1.23-.84a25.2,25.2,0,0,1,7-.62l-4.95.93" transform="translate(-17.14 -176.05)"/><path class="cls-4" d="M354.32,274.77a4.45,4.45,0,0,0-3.76-1.51l-.62,38.94q-4-14.38-9.08-28.45a71.58,71.58,0,0,0,2.33,20.81c.45,1.68,1.08,3.52,2.6,4.37,1.72-5.65,1.91-11.65,3.16-17.43s3.86-11.69,8.91-14.75c.92-.56,2.07-1.59,1.44-2.47l-4.83,2.19a2,2,0,0,1-1.48.24c-.64-.24-.83-1-.93-1.72l-1.38-9.44" transform="translate(-17.14 -176.05)"/><path class="cls-5" d="M370,227a27.11,27.11,0,0,1-9.91,1.86c-.8-2.05,0-4.33.86-6.36l8.32-20.41a90.28,90.28,0,0,0-9.88,17.26c2.52-2.25,4.26-5.21,6-8.12L373,198.12a18.51,18.51,0,0,1-2.49,7.75,26.47,26.47,0,0,1,4.07-10.37,14.58,14.58,0,0,1-9.68,1.38c3.76-1.33,7.58-2.5,11.45-3.48,1.45-.37,3.28-.59,4.18.61" transform="translate(-17.14 -176.05)"/><path class="cls-6" d="M113.13,327.91a3.12,3.12,0,0,1-3,1.5c11-.46,21.2-5.49,31.68-8.86,20.22-6.5,41.83-6.87,63.08-7.17" transform="translate(-17.14 -176.05)"/><path class="cls-6" d="M233.37,314c15.4,4.61,31.87,1,47.9-.29,8.83-.68,17.69-.62,26.54-.55l26.39.18c2.61,0,5.35.07,7.64,1.32" transform="translate(-17.14 -176.05)"/><path class="cls-6" d="M373.64,317c5.23-.19,10.15-2.5,14.64-5.18a82.81,82.81,0,0,0,19.48-16.19" transform="translate(-17.14 -176.05)"/><path class="cls-6" d="M146.64,344.88a62.58,62.58,0,0,1,13.52-15.23c3.43-2.78,7.21-5.26,9.77-8.84,1.53-2.14,3-4.89,5.61-5.11" transform="translate(-17.14 -176.05)"/><path class="cls-6" d="M248.52,324.85a55.18,55.18,0,0,0,13.34-10.19l.82,1.78" transform="translate(-17.14 -176.05)"/><path class="cls-6" d="M301.17,338.59c5.64-6,13.93-8.66,21.57-11.8s15.59-7.69,18.52-15.42" transform="translate(-17.14 -176.05)"/><path class="cls-6" d="M287.61,313.48c10.83,8.09,25.2,9.66,37,16.19,3,1.67,5.87,3.67,9,5a44.57,44.57,0,0,0,8.41,2.46" transform="translate(-17.14 -176.05)"/><path class="cls-6" d="M540.63,176.63c.18-.25.63.2.37.38" transform="translate(-17.14 -176.05)"/><path class="cls-6" d="M387.94,333.16a117.38,117.38,0,0,0,38.71-29.3" transform="translate(-17.14 -176.05)"/><path class="cls-6" d="M389.12,309.81a275,275,0,0,0,58.76,21.82c4.11,1,8.49,1.91,12.5.57" transform="translate(-17.14 -176.05)"/><path class="cls-6" d="M478.2,316.46V316" transform="translate(-17.14 -176.05)"/><path class="cls-6" d="M478.2,324.71a19.77,19.77,0,0,1,4.61-8.15,32.24,32.24,0,0,1-9.88,18.38,36.06,36.06,0,0,1,8.43-17.56c-2.46,4.74-7.65,7.57-12.91,8.51s-10.65.24-15.95-.45a35.09,35.09,0,0,1,12.62-5.38,44.59,44.59,0,0,1-22.28,4.2l19.66-2.12c.6,2.25-2.14,3.86-4.39,4.47a67,67,0,0,1-23.53,2.09,20.36,20.36,0,0,1,8.87-10.6A21.6,21.6,0,0,1,437,329.77c-.95.89-2.27,1.74-3.46,1.24a3.51,3.51,0,0,1-1.64-2.25,30.34,30.34,0,0,1-1.7-11.49A47.44,47.44,0,0,1,418.39,333c-.54-3.23,1.69-6.41,4.53-8s6.2-2,9.45-2.37a22.69,22.69,0,0,1-22.68,7.71,62.25,62.25,0,0,1,28.16-7.59" transform="translate(-17.14 -176.05)"/><path class="cls-6" d="M452.45,303.59c-11-3-22.06-10.72-32.28-15.82a34.48,34.48,0,0,0,9.47,5.35c-1.3-.94-2.82-1.86-4.24-2.7A79.8,79.8,0,0,0,452.45,303.59Z" transform="translate(-17.14 -176.05)"/><path class="cls-6" d="M463.15,234.58a58.26,58.26,0,0,0,12.46,15,47.45,47.45,0,0,0-7.16-8.7,3.26,3.26,0,0,0-2.07-1.15c-1.25,0-2.05,1.29-2.53,2.43a38.81,38.81,0,0,0-3.1,14.64,64.63,64.63,0,0,1,2-11.79,149.22,149.22,0,0,1-5.71,21.79c1.21-17.41,16.21-31.67,32.13-37" transform="translate(-17.14 -176.05)"/><path class="cls-6" d="M510.31,239.85l-1.83-.92" transform="translate(-17.14 -176.05)"/><path class="cls-6" d="M458.92,209.62c5.88,4.11,12,8.32,19,9.62a44.18,44.18,0,0,1,6.71,1.29c3.8,1.35,6.6,4.55,9.22,7.61" transform="translate(-17.14 -176.05)"/><path class="cls-6" d="M456,231a22.19,22.19,0,0,0-2.87,7" transform="translate(-17.14 -176.05)"/><path class="cls-6" d="M446.33,246.56a63.23,63.23,0,0,1-15.06,12.74c2.44-9,10-15.58,17.22-21.54,9.34-7.76,18.74-15.54,29.2-21.71A227.59,227.59,0,0,1,499,205.42" transform="translate(-17.14 -176.05)"/><path class="cls-6" d="M440.22,253.66c-2.44,7.5,6.51,23.11,11.87,27.92,7.33,6.58,16.27,12.08,26.11,12.5" transform="translate(-17.14 -176.05)"/><path class="cls-6" d="M466.78,274.74a4.1,4.1,0,0,0,.78,4.06,9.65,9.65,0,0,0,3.53,2.47,33.54,33.54,0,0,0,22.66,2" transform="translate(-17.14 -176.05)"/><path class="cls-6" d="M370.74,299.78a8.57,8.57,0,0,1-3.34-3.23,82.58,82.58,0,0,1,21.75,5.58l.08-2.18" transform="translate(-17.14 -176.05)"/><path class="cls-6" d="M340.77,281.65l-28.55-17.4c-5.85-3.56-11.71-7.13-17.18-11.25a105.33,105.33,0,0,1-31.42-38.28" transform="translate(-17.14 -176.05)"/><path class="cls-6" d="M249.31,196.77a4,4,0,0,0-2.33-2.6l6.37,13.44" transform="translate(-17.14 -176.05)"/><path class="cls-6" d="M216.31,264.64,215.7,267c8.23-12.39,19.46-22.49,31.2-31.63a322.19,322.19,0,0,1,74.17-43.22" transform="translate(-17.14 -176.05)"/><path class="cls-6" d="M330.89,186.68a6.2,6.2,0,0,0-1.94-4.09c2.9,6.88,7.21,13.07,10.62,19.71s6,14.09,5,21.49" transform="translate(-17.14 -176.05)"/><path class="cls-6" d="M239.79,302.75c9.76-9,21.55-15.39,31.81-23.77,6.52-5.33,12.39-11.41,18.83-16.84a122.58,122.58,0,0,1,58-26.93" transform="translate(-17.14 -176.05)"/><path class="cls-6" d="M221.15,282.51a171.42,171.42,0,0,1,35.23,23.19L255,302.63" transform="translate(-17.14 -176.05)"/><path class="cls-6" d="M19.2,398.1l-1.18.82,3.49,2.37" transform="translate(-17.14 -176.05)"/><path class="cls-6" d="M191,266.09l-18.17-17c-8.31-7.8-16.93-16.05-20.55-26.86" transform="translate(-17.14 -176.05)"/><path class="cls-6" d="M113.27,255.53l-5.07,8.62c-.55-6.34,4.16-11.82,8.75-16.23,5.17-5,10.6-9.67,16.11-14.26,4.61-3.85,11.62-7.67,15.21-12.47,3.4-4.55.87-10.35,1-15.71a47.5,47.5,0,0,1,4.83-20.13" transform="translate(-17.14 -176.05)"/><path class="cls-6" d="M148.48,221.06c4.17-7.58,12.62-11.64,20.71-14.74,17.09-6.55,34.92-10.94,52.7-15.32" transform="translate(-17.14 -176.05)"/><path class="cls-6" d="M109.06,278.82A161.9,161.9,0,0,0,162,309.94a2.61,2.61,0,0,0-.18-2.55" transform="translate(-17.14 -176.05)"/><path class="cls-6" d="M137,309.13a3.33,3.33,0,0,1,.84,3.05c6.21-12.55,17-22.38,29-29.6s25.26-12.05,38.46-16.71" transform="translate(-17.14 -176.05)"/><path class="cls-6" d="M171.49,289.77a32.5,32.5,0,0,0,12.62,8.53l-3.28-12a67.88,67.88,0,0,0,8.27,10.1,52.57,52.57,0,0,0-1.65-10,24.18,24.18,0,0,1,5.49,7.21c.46.92.83,2.12.16,2.91a2.71,2.71,0,0,1-1.92.7,23,23,0,0,1-14.46-3.87c-.4-.27-.84-.64-.78-1.12s.41-.67.74-.88a40.49,40.49,0,0,1,18.13-6.15c-9.12,9.57-24.21,9.75-35.88,16a73,73,0,0,1,13-6.93A65.49,65.49,0,0,0,138.36,300c1.86-3.94,5.62-6.58,9.22-9a60.52,60.52,0,0,0-16.51-.77,23.61,23.61,0,0,0,14.24-2.52" transform="translate(-17.14 -176.05)"/><path class="cls-6" d="M93.43,198.14l-.91,3.21" transform="translate(-17.14 -176.05)"/><path class="cls-6" d="M373.23,230.77c24.3-13.9,49.24-28,76.82-32.85l-2.58.22" transform="translate(-17.14 -176.05)"/><path class="cls-6" d="M438.31,192.63l-1.39,27.05a18.07,18.07,0,0,0,.34,5.92,6.17,6.17,0,0,0,3.72,4.34" transform="translate(-17.14 -176.05)"/><path class="cls-6" d="M365.67,287.28l50.66-30.9c5.9-3.6,11.8-7.2,17.9-10.44" transform="translate(-17.14 -176.05)"/><path class="cls-6" d="M420.36,295.85c-4.6-1.32-7.86-5.31-10.75-9.13q-15.09-19.89-28.34-41.1c-6-9.64-11.85-19.75-13.67-31" transform="translate(-17.14 -176.05)"/><path class="cls-7" d="M238.81,295.34c13.15.33,26.32,0,39.43-1" transform="translate(-17.14 -176.05)"/><path class="cls-8" d="M284.21,290.19l17.35-.49c-12.65,1.23-25.76,2.42-37.77-1.74a52.94,52.94,0,0,1,28.76-.82,112.9,112.9,0,0,1-39.41-2.37,51.15,51.15,0,0,1,20.28.93,91.81,91.81,0,0,1-31,3.22c-1.84-.12-3.8-.35-5.2-1.55-2.11-1.81-2.58-5.49-5.26-6.2l.32,15.1-5.72-10.07a8.41,8.41,0,0,0,.71,5.27l34,.75c15.37.34,30.87.67,46-2.13,7.5-1.39,14.84-3.53,22.36-4.71l-1.79,1.73" transform="translate(-17.14 -176.05)"/><path class="cls-9" d="M375.19,285.37c0-3.42,2.68-6.39,5.83-7.74s6.67-1.41,10.1-1.45" transform="translate(-17.14 -176.05)"/><path class="cls-9" d="M292.88,284a4.69,4.69,0,0,0-5.47,1.71" transform="translate(-17.14 -176.05)"/><path class="cls-9" d="M279.62,290.78H281" transform="translate(-17.14 -176.05)"/><g class="cls-10"><path class="cls-11" d="M377.81,284.15a10.86,10.86,0,0,0-1.27-7.82c-1-1.67-4.25-1.64-4.57.6a23.34,23.34,0,0,0,2.6,14.66,2.53,2.53,0,0,0,3.93.5A145.74,145.74,0,0,1,397.81,277a2.5,2.5,0,0,0-2.52-4.32,32.42,32.42,0,0,1-17.65,3.22l2.41,1.83c-.31-1.38,2.8-2.56,3.92-2.92a26.27,26.27,0,0,1,8.16-1.24c5.77,0,11.42,1.29,17,2.63v-4.83a97.44,97.44,0,0,1-15.39,3.41l1.33,4.82a23.07,23.07,0,0,1,19.86,1.84v-4.31a22.59,22.59,0,0,1-25.14,1.07l-1.26,4.66a44.41,44.41,0,0,1,28.34,12.28l3-3.92c-7.71-4.94-15.81-10.15-20.4-18.34l-3.42,3.42c13.18,8.12,26.62,16.31,41.51,20.94a81,81,0,0,0,12.81,2.89,2.6,2.6,0,0,0,3.08-1.75,2.53,2.53,0,0,0-1.75-3.07,59.24,59.24,0,0,1-38.07-27.94c-2.68-4.66-4.74-9.67-8-14a2.6,2.6,0,0,0-2.82-1.15,2.51,2.51,0,0,0-1.84,2.41,28.32,28.32,0,0,1-.16,7.91,30.13,30.13,0,0,1-1,4,13.12,13.12,0,0,1-.63,1.77c-.27.14-1.19-.83-1.47-1.17a17.11,17.11,0,0,1-1.79-3L391.6,256a2.53,2.53,0,0,0-4.57.59l-2.34,7.56,2.41-1.84c-2.38.21-1.94-3.72-1.86-5.16.16-2.85-4.18-3.35-4.91-.67l-3.21,11.79c-.85,3.1,4,4.43,4.82,1.33l3.21-11.79-4.91-.66c-.14,2.35-.13,4.85,1.12,6.94a6.31,6.31,0,0,0,5.74,3.22,2.6,2.6,0,0,0,2.41-1.83l2.34-7.56-4.57.6c1.79,3.31,3.48,6.71,5.38,10,1.51,2.57,4.26,5.41,7.55,4.68,3.51-.78,4.52-4.92,5.19-8a32.66,32.66,0,0,0,.61-10.57l-4.65,1.26c3,4,5,8.53,7.35,12.86a62.48,62.48,0,0,0,7.52,10.8,64,64,0,0,0,20.3,15.66,63.24,63.24,0,0,0,13.87,4.91l1.33-4.82c-15.12-2.12-28.9-8.91-41.94-16.55-3.76-2.21-7.48-4.49-11.19-6.78-2.18-1.34-4.62,1.29-3.42,3.42,5,9,13.76,14.74,22.2,20.14,2.39,1.53,5.07-2,3-3.93a49.74,49.74,0,0,0-31.88-13.75c-2.58-.13-3.27,3.4-1.26,4.66a27.47,27.47,0,0,0,30.18-1.08,2.53,2.53,0,0,0,0-4.31,27.86,27.86,0,0,0-23.71-2.35,2.5,2.5,0,0,0,1.33,4.82,98.54,98.54,0,0,0,15.39-3.4c2.27-.7,2.49-4.23,0-4.83-6.82-1.62-13.9-3.26-20.95-2.69-5.42.44-16,2.78-14.28,10.38a2.56,2.56,0,0,0,2.41,1.84,37.26,37.26,0,0,0,20.17-3.9l-2.52-4.32A153.65,153.65,0,0,0,375,288.56l3.93.5a17.58,17.58,0,0,1-2.09-10.8l-4.57.59a5.65,5.65,0,0,1,.76,4,2.56,2.56,0,0,0,1.75,3.07,2.52,2.52,0,0,0,3.07-1.74Z" transform="translate(-17.14 -176.05)"/></g><path class="cls-11" d="M402.88,276.89a2.22,2.22,0,0,0-.45.57,2.84,2.84,0,0,0-.14.32,3,3,0,0,0-.14.34,2.56,2.56,0,0,0-.09.73c0,.11.06.45,0,.35s0,.24,0,.35v.06c.05.14.19.47.25.61l0,0a.08.08,0,0,0,0,0,2.32,2.32,0,0,0,.21.26,2.47,2.47,0,0,0,.21.27l.06.07.27.21.27.2,0,0a4.09,4.09,0,0,0,.68.29h.08l.67.09a1.93,1.93,0,0,0,.42-.05,2,2,0,0,0,.43-.07,3.84,3.84,0,0,0,.68-.3,4.35,4.35,0,0,0,.6-.46l.07-.08a6.65,6.65,0,0,0,.46-.59,2.92,2.92,0,0,0,.25-.54c.08-.19.16-.37.22-.56a1.9,1.9,0,0,0,.05-1,1.86,1.86,0,0,0-.3-.93,1.8,1.8,0,0,0-.64-.7,1.94,1.94,0,0,0-.85-.45l-.67-.09a2.53,2.53,0,0,0-1.26.34l-.5.39a2.55,2.55,0,0,0-.65,1.11l-.09.26.25-.6a1.87,1.87,0,0,1-.17.31l.39-.51a.86.86,0,0,1-.13.14l.5-.39-.14.08.6-.25-.1,0,.67-.09H405l.66.09-.11,0,.6.25L406,277l.5.39-.09-.1.39.51-.06-.1.25.6a.24.24,0,0,1,0-.09l.09.67v-.07l-.09.67a.14.14,0,0,1,0-.06l-.26.6,0,0-.39.5s0,0,0,0a1.85,1.85,0,0,0,.52-.81,2.23,2.23,0,0,0,0-1.93,1.82,1.82,0,0,0-.52-.8l-.5-.39a2.43,2.43,0,0,0-1.26-.34l-.67.09a2.5,2.5,0,0,0-1.1.64Z" transform="translate(-17.14 -176.05)"/><g class="cls-10"><path class="cls-11" d="M130.66,301.89c-5.46-10.32-7-22.1-8.47-33.52h-5a62.45,62.45,0,0,0,12,29.59l3.42-3.42c-9.43-4.37-11.31-15.66-12.8-24.84l-4.57,1.93c5.83,11.14,12.38,23,23.88,29.17a2.51,2.51,0,0,0,3-3.92,236.51,236.51,0,0,1-15.86-21c-1.77-2.65-6-.22-4.31,2.52A116.2,116.2,0,0,0,136.9,297.3c1.7,1.75,4.94,0,4.18-2.44l-7.52-23.52L129,273.27A133,133,0,0,0,141.11,294c1.52,2.13,4.33,1.2,4.65-1.27a52.76,52.76,0,0,0-.52-16.82l-4.17,2.43c2.19,2.8,3,6.49,4.61,9.63a21,21,0,0,0,7.11,7.86c6,4.05,13.27,5.2,20.16,6.86a36.91,36.91,0,0,1,11.72,4.56,2.5,2.5,0,1,0,2.53-4.32c-10.95-7.89-22.48-16.39-27.94-29.19L155,276.22q6.08,8.34,12.89,16.11c1.77,2,4.63-.18,4.18-2.44l-2.69-13.34-4.82,1.33a27.41,27.41,0,0,0,9.4,14c1.65,1.27,4.24.58,4.27-1.77,0-1.21-.14-3.13.89-4,.81-.69,1.18.24,1.62,1,2.1,3.42,4.08,6.92,6.12,10.38,1.17,2,5,1.31,4.66-1.26l-2-16.77-4.65,1.26,6.63,12.44c1.51,2.84,5.83.32,4.32-2.52l-6.64-12.45c-1.1-2.07-4.95-1.25-4.66,1.27l2,16.77,4.66-1.26-4.34-7.35c-1.22-2.08-2.36-4.76-4.53-6a5.63,5.63,0,0,0-6.74,1.05c-2,2-2.3,4.87-2.34,7.54l4.27-1.77a23,23,0,0,1-8.12-11.77c-.91-3.11-5.46-1.81-4.82,1.33l2.69,13.34,4.17-2.43q-6.39-7.28-12.11-15.1a2.5,2.5,0,0,0-4.31,2.53c5.78,13.56,18.13,22.63,29.72,31l2.53-4.32c-6.42-4.17-14-5.12-21.29-7-6.15-1.6-12.61-4.2-15.73-10.12-1.94-3.69-3-7.66-5.58-11a2.52,2.52,0,0,0-3-.39,2.62,2.62,0,0,0-1.15,2.83,48.79,48.79,0,0,1,.34,15.49l4.66-1.26a133.22,133.22,0,0,1-12.11-20.67c-1.2-2.57-5.42-.76-4.57,1.92l7.51,23.52,4.18-2.43a110.35,110.35,0,0,1-14.1-17.9L122,278.38a245.33,245.33,0,0,0,16.63,22l3-3.92c-10.72-5.75-16.65-17-22.08-27.38a2.5,2.5,0,0,0-3.12-1A2.55,2.55,0,0,0,115,271c1.7,10.48,4.43,22.88,15.09,27.82a2.58,2.58,0,0,0,3-.39,2.49,2.49,0,0,0,.39-3,57.77,57.77,0,0,1-11.35-27.06,2.58,2.58,0,0,0-2.5-2.5,2.51,2.51,0,0,0-2.5,2.5c1.57,12.34,3.25,24.89,9.15,36,1.5,2.85,5.82.32,4.32-2.52Z" transform="translate(-17.14 -176.05)"/></g><g class="cls-10"><path class="cls-11" d="M231,283.43c-6.5-5.66-8.65-15.66-4.65-23.39l-4.57-.6c3.71,10.14,7.51,20.48,14.08,29.17a2.54,2.54,0,0,0,3.12,1,2.51,2.51,0,0,0,1.45-2.95l-6.62-25.82L229,262.19a103.83,103.83,0,0,0,9,17.6c3,4.62,6.91,10.34,13.11,10.08a2.52,2.52,0,0,0,2.41-3.16l-7.31-22.46-4.57,1.93,8.93,17c2.41,4.58,4.84,10.14,10.66,10.72a2.5,2.5,0,0,0,2.41-3.16q-3.84-12.72-7.69-25.44l-4.57,1.92c7.22,9.84,15,19.95,26.71,24.52a2.52,2.52,0,0,0,3.08-3.08,255.63,255.63,0,0,0-15.44-32.08,2.55,2.55,0,0,0-3.42-.9,2.57,2.57,0,0,0-.9,3.43A71.27,71.27,0,0,0,278.17,282a2.52,2.52,0,0,0,4.18-2.43l-4.17-16.08-4.56,1.93a102.15,102.15,0,0,0,25.29,25.88,2.51,2.51,0,0,0,3.67-1.49,21,21,0,0,0-2-15.26l-3.92,3A105.55,105.55,0,0,0,317,292a2.52,2.52,0,0,0,3.76-2.16,24.39,24.39,0,0,0-3.34-11.53l-3.93,3,9.66,12.33a2.52,2.52,0,0,0,3.54,0,5.43,5.43,0,0,0,.64-6.4,2.53,2.53,0,0,0-3.93-.51c-2.05,2.09-5,2.29-7.69,1.45a9.86,9.86,0,0,1-6.2-6.31,18.56,18.56,0,0,1-.29-10.82c.09-.33.24-1.15.63-1.2s1,.6,1.26.81a37,37,0,0,1,4.39,5,129.14,129.14,0,0,1,9,12.77,2.53,2.53,0,0,0,4.66-1.27l1.66-16.13-4.27,1.76a17.75,17.75,0,0,1,4.29,8.06c.75,3.13,5.58,1.81,4.82-1.32a22.75,22.75,0,0,0-5.58-10.27c-1.61-1.73-4.06-.25-4.26,1.77l-1.66,16.13,4.66-1.26a141.7,141.7,0,0,0-10.26-14.31c-1.68-2.06-3.37-4.48-5.72-5.83a5.41,5.41,0,0,0-7.37,1.41c-1.39,2-1.66,4.79-1.85,7.14a22.72,22.72,0,0,0,.64,7.57,15.45,15.45,0,0,0,8.84,10.62c4.61,1.9,10.2,1.38,13.8-2.27l-3.93-.51c.08.14.17.3.14.34h3.54L317,277.77a2.5,2.5,0,0,0-3.93,3,19.11,19.11,0,0,1,2.66,9l3.77-2.15A100.23,100.23,0,0,1,300.22,274a2.51,2.51,0,0,0-3.92,3,15.73,15.73,0,0,1,1.46,11.41l3.67-1.5a95.24,95.24,0,0,1-23.5-24.09c-1.55-2.29-5.3-.92-4.57,1.93l4.17,16.08,4.18-2.43a67.68,67.68,0,0,1-16-21.82l-4.32,2.53A246.67,246.67,0,0,1,276.33,290l3.07-3.08c-10.36-4-17.38-13.56-23.73-22.21a2.51,2.51,0,0,0-4.57,1.93q3.85,12.72,7.7,25.44l2.41-3.17c-1.61-.16-2.8-1.9-3.58-3.14-1.37-2.19-2.48-4.57-3.68-6.85l-8-15.29c-1.3-2.49-5.45-.78-4.57,1.93L248.68,288l2.41-3.16c-4.54.19-7.49-5.49-9.53-8.76a98,98,0,0,1-7.75-15.25,2.58,2.58,0,0,0-3.08-1.74,2.53,2.53,0,0,0-1.74,3.07L235.61,288l4.57-1.93c-6.33-8.36-10-18.21-13.58-28-.69-1.88-3.51-2.66-4.57-.6-5,9.62-2.8,22.28,5.43,29.45a2.56,2.56,0,0,0,3.54,0,2.54,2.54,0,0,0,0-3.54Z" transform="translate(-17.14 -176.05)"/></g><g class="cls-10"><path class="cls-11" d="M373.66,285.6c.26,0,.35.52.31.15,0,.11-.23-.38-.18-.29a5.9,5.9,0,0,1-.43-1.22c-.36-1.25-.69-2.51-1-3.78a57.46,57.46,0,0,1-1.47-7.7c-.55-5-.32-10.11,1.92-14.66l-4.65-1.26q1.08,11.61,1.21,23.28l4.91-.66-.53-1.73c-.93-3.07-5.76-1.76-4.82,1.33l.53,1.73c.81,2.65,4.94,2.22,4.91-.67q-.14-11.65-1.21-23.28a2.61,2.61,0,0,0-1.84-2.41,2.52,2.52,0,0,0-2.82,1.15c-3,6-3.28,12.59-2.36,19.14a75.4,75.4,0,0,0,2,9.39c.76,2.81,1.89,6.64,5.52,6.49,3.2-.13,3.22-5.13,0-5Z" transform="translate(-17.14 -176.05)"/></g><g class="cls-10"><path class="cls-11" d="M338.12,200.12l15.37-7.72-3-3.93c-6,7.65-12,15.31-19,22.14l3.54,3.54,17.21-21.52-3.92-3c-5,7.9-10.25,15.75-17.12,22.19l3.93,3a101.34,101.34,0,0,1,15.1-20.7l-4.18-2.43-5.35,17.2c-.88,2.81-1.78,5.61-2.62,8.44a20.54,20.54,0,0,0-.94,9,2.51,2.51,0,0,0,2.41,1.84,2.58,2.58,0,0,0,2.41-1.84l8.69-24.08-4.82-1.33-4.64,21.89c-.47,2.24,2.44,4.48,4.18,2.43l7.09-8.37a2.55,2.55,0,0,0,0-3.53,2.5,2.5,0,0,0-3.53,0l-7.1,8.37,4.18,2.43,4.64-21.89a2.5,2.5,0,0,0-4.82-1.33L337.15,225H342c-.37-2.52.55-5.12,1.29-7.49.85-2.75,1.71-5.5,2.56-8.25L350.88,193a2.52,2.52,0,0,0-4.18-2.44,106.82,106.82,0,0,0-15.88,21.72,2.51,2.51,0,0,0,3.93,3c7.16-6.72,12.64-15,17.89-23.2,1.5-2.35-2.13-5.28-3.92-3L331.5,210.61a2.59,2.59,0,0,0,0,3.54,2.55,2.55,0,0,0,3.54,0c6.94-6.83,13-14.49,19-22.15,1.7-2.18-.36-5.27-3-3.92l-15.37,7.73c-2.88,1.44-.35,5.76,2.52,4.31Z" transform="translate(-17.14 -176.05)"/></g><g class="cls-10"><path class="cls-11" d="M397.45,206.8l2.62-4-4.57-1.93a148.83,148.83,0,0,0-6.35,19.42c-.8,3.16,3.74,4.33,4.82,1.33a64,64,0,0,1,16.23-24.65,2.5,2.5,0,0,0-3.53-3.53l-9.44,7.53a2.52,2.52,0,0,0-.39,3,2.62,2.62,0,0,0,2.82,1.14,89.75,89.75,0,0,1,43.67,5l1.33-4.82a87.88,87.88,0,0,1-26.14-11.57l-1.26,4.66,36.07,4.74c2.77.36,3.46-4.5.67-4.91l-18.23-2.72v4.82a37.86,37.86,0,0,1,18.49-1,40.84,40.84,0,0,1,4.47,1.18c.76.25,1.53.52,2.28.82a2.69,2.69,0,0,0,.67.31c.1,0-.29-1.26,0-1.06.09,0-.74.54-.84.58a9.29,9.29,0,0,1-1.95.42,15.65,15.65,0,0,1-4.83-.1l1.11,4.18a23.56,23.56,0,0,1,4.87-4.09c2.77-1.73.36-5.66-2.52-4.31-12.65,5.91-25.22,12.67-35.33,22.46a70.09,70.09,0,0,0-7.94,9.19c-1.68,2.31,2,5.08,3.92,3a130.59,130.59,0,0,1,30.49-24.12L445,205a16.28,16.28,0,0,1-5.52,7.39,2.5,2.5,0,0,0,2.53,4.32,59,59,0,0,1,30.18-4.91,2.51,2.51,0,0,0,2.5-2.5,2.55,2.55,0,0,0-2.5-2.5,64,64,0,0,0-32.71,5.59l2.53,4.32a22.37,22.37,0,0,0,7.81-10.38c.79-2.12-1.9-3.83-3.67-2.82a135.1,135.1,0,0,0-31.5,24.91l3.92,3c10.21-14.08,26.06-22.66,41.48-29.87l-2.52-4.31a28.35,28.35,0,0,0-5.89,4.86c-1.16,1.27-.85,3.83,1.1,4.18,3.91.69,9.53.93,12.52-2.2a4.2,4.2,0,0,0,.24-5.73c-1.39-1.52-3.79-2.14-5.68-2.75a42.92,42.92,0,0,0-25.41-.14c-2.16.66-2.6,4.44,0,4.82L452.67,203l.66-4.91-36.07-4.74a2.5,2.5,0,0,0-2.41,1.84,2.55,2.55,0,0,0,1.15,2.82,92.41,92.41,0,0,0,27.33,12.07c3.17.82,4.29-3.71,1.33-4.82a94.92,94.92,0,0,0-46.33-5l2.44,4.18,9.43-7.53-3.53-3.53a69.26,69.26,0,0,0-17.52,26.85l4.82,1.33a148.83,148.83,0,0,1,6.35-19.42,2.48,2.48,0,0,0-1.45-2.95,2.51,2.51,0,0,0-3.12,1l-2.62,4.05c-1.75,2.71,2.57,5.22,4.32,2.52Z" transform="translate(-17.14 -176.05)"/></g><g class="cls-10"><path class="cls-11" d="M472.19,268.74c-.28.25-.31.31-.09.17s.17-.11-.19,0c0-.21.81.35,0-.12a2.49,2.49,0,0,0-3.22.64,2.46,2.46,0,0,0,.19,3.28,59.46,59.46,0,0,0,31.58,12.61,2.48,2.48,0,0,0,2.46-2.17,2.55,2.55,0,0,0-1.79-2.74l-19-7.05a2.52,2.52,0,0,0-3.08,1.74,2.57,2.57,0,0,0,1.75,3.08L495.34,284c2.61,1.05,4.51-3.41,1.93-4.57a83,83,0,0,1-10.34-5.47c-1.62-1-3.21-2.07-4.75-3.2a7.47,7.47,0,0,1-2.93-3.15l-1.75,3.07c4.72-1.79,9.73-.33,14.61-.58,4.54-.23,9-1.66,11.66-5.52a2.5,2.5,0,0,0-4.32-2.53c-1.94,2.78-6,3.14-9.1,3.08-4.76-.1-9.58-1-14.17.73a2.54,2.54,0,0,0-1.75,3.08c1.44,4,5.38,6.38,8.82,8.6a83.75,83.75,0,0,0,11.49,6.21l1.93-4.57-14.45-5.77-1.33,4.82,19,7.05.66-4.91a53.49,53.49,0,0,1-28-11.14l-3,3.92a5,5,0,0,0,6.29-.83c2.17-2.37-1.36-5.91-3.54-3.54Z" transform="translate(-17.14 -176.05)"/></g><g class="cls-10"><path class="cls-11" d="M248.09,211.26l15.58-5a2.5,2.5,0,0,0-1.33-4.83,43.06,43.06,0,0,0-13.4,4.48c-2.57,1.35-.76,5.22,1.93,4.57a199.45,199.45,0,0,1,35.46-5.28l-.66-4.91a31.18,31.18,0,0,1-16,1.74v4.82c16.21-5.5,33.53-.39,50.17-1.75a2.56,2.56,0,0,0,2.5-2.5,2.53,2.53,0,0,0-2.5-2.5A82.42,82.42,0,0,1,279,189.66l-.6,4.57c8.4-2.29,17.11-1.09,25.52.51,8.81,1.68,17.65,3.81,26.68,3.64,3.23,0,3.21-4.84,0-5l-22-1.07.66,4.91a214.16,214.16,0,0,1,29-4.68,2.57,2.57,0,0,0,2.5-2.5,2.52,2.52,0,0,0-2.5-2.5A224,224,0,0,0,308,192.4c-2.84.66-2.06,4.78.67,4.91l22,1.07v-5c-18,.33-35.56-8.87-53.52-4a2.53,2.53,0,0,0-.6,4.57,87.7,87.7,0,0,0,43.35,11.16v-5c-17.12,1.4-34.79-3.74-51.5,1.93-2.1.72-2.63,4.4,0,4.82A36.15,36.15,0,0,0,287,205.15a2.52,2.52,0,0,0,1.79-2.74,2.49,2.49,0,0,0-2.46-2.17,208.74,208.74,0,0,0-36.79,5.45l1.93,4.57a39.06,39.06,0,0,1,12.2-4l-1.33-4.83-15.58,5c-3,1-1.74,5.8,1.33,4.82Z" transform="translate(-17.14 -176.05)"/></g><g class="cls-10"><path class="cls-11" d="M211.82,194.32a2.77,2.77,0,0,0,4.86-.14,2.9,2.9,0,0,0-2.31-4.38c-2.2-.14-3.32,1.66-4.27,3.35l-3,5.37L194.9,220l4.57,1.93a125.61,125.61,0,0,1,14.6-28l-4.32-2.52a259.69,259.69,0,0,1-16.22,24.55l3.93-.5c-.27-.21-.18-.24-.19,0a4.15,4.15,0,0,1,.12-1,19.16,19.16,0,0,1,1.31-3l3.53-7.39,7.05-14.79a2.51,2.51,0,0,0-3.93-3l-14.64,13.17,4.18,2.43a58.61,58.61,0,0,1,11.69-21.4l-3.93-3a104.62,104.62,0,0,1-14.11,19.34l3.93,3L201,184.81c1.61-2.8-2.62-5.26-4.31-2.52a81.74,81.74,0,0,1-6,8.51c-1.13,1.37-2.29,2.71-3.5,4-.55.59-1.12,1.18-1.69,1.76a6.86,6.86,0,0,1-1.79,1.61l1.27-.34c1,1.76,1.43,2.18,1.37,1.24,0,.19,0,.13.08-.18-.12.22-.06.1.18-.37l.45-.88,1.8-3.53,3.62-7.06c1.08-2.08-1.2-4.88-3.42-3.42a48,48,0,0,1-18.67,7.3l1.93,4.57,11.72-7.7c2.49-1.63.81-5-1.93-4.56A165.26,165.26,0,0,0,152,190.59l2.43,4.18c3-2.68,7-4.06,10.73-5.41l-1.33-4.82a67.21,67.21,0,0,1-13.77,3.36c-1.34.18-2.07,1.9-1.75,3.07a2.57,2.57,0,0,0,3.08,1.75,67.21,67.21,0,0,0,13.77-3.36,2.56,2.56,0,0,0,1.75-3.07,2.53,2.53,0,0,0-3.08-1.75c-4.62,1.65-9.19,3.41-12.94,6.69-1.85,1.63.11,5,2.44,4.18a166.09,166.09,0,0,1,30.06-7.34l-1.92-4.57-11.73,7.69a2.51,2.51,0,0,0,1.93,4.57,51.42,51.42,0,0,0,19.87-7.8l-3.42-3.42q-2.9,5.61-5.77,11.25c-.74,1.46-1.38,3.06-.86,4.72a3.41,3.41,0,0,0,5,1.85,21.49,21.49,0,0,0,4-3.85c1.27-1.35,2.48-2.74,3.65-4.17a89.71,89.71,0,0,0,6.81-9.53l-4.31-2.52-8.55,14.92c-1.38,2.42,2,5.17,3.93,3A110.51,110.51,0,0,0,207,179.89c1.36-2.38-2-5.24-3.93-3a64.6,64.6,0,0,0-13,23.61c-.75,2.51,2.4,4,4.18,2.44l14.64-13.17-3.93-3-8.12,17c-1.27,2.68-2.68,5.34-3.81,8.08-.95,2.3-1.31,5.41.89,7.14a2.56,2.56,0,0,0,3.93-.5,258.56,258.56,0,0,0,16.22-24.56c1.64-2.82-2.51-5.14-4.32-2.52a130.56,130.56,0,0,0-15.1,29.22c-1,2.69,3.19,4.35,4.57,1.92l8.14-14.38,4-7.09,1.95-3.43,1.09-1.93c.17-.29.32-.58.49-.86q.1-.19.21-.36c.28-.4,0-.29-.74.34l-1.26-.34.16.1-.9-.9.07.16-.34-1.27.43-1.12,1.1-.65-.13.05h1.33l-.11,0,1.5,1.14-.08-.15c-1.47-2.86-5.79-.33-4.32,2.53Z" transform="translate(-17.14 -176.05)"/></g><g class="cls-10"><path class="cls-11" d="M302.34,320a9.44,9.44,0,0,1-5.46-.93v4.32a9.72,9.72,0,0,1,4.94-1.2c2.08-.06,4.17,0,6.24.07,4.13.15,8.26.47,12.36,1s8.05,1.18,12,2q3,.64,6,1.42c1.08.27,2.15.56,3.22.87a6.3,6.3,0,0,0,1.07.32c.34,0,.35.44.08-.22l1.75-3.08c-5.06,1.26-10.69-.44-15.59-1.73a104.84,104.84,0,0,1-15.11-5.19v4.31a24.41,24.41,0,0,1,16.39-2.39,2.58,2.58,0,0,0,3.08-1.75,2.53,2.53,0,0,0-1.75-3.08,29.94,29.94,0,0,0-20.24,2.91c-1.53.81-1.74,3.56,0,4.31a113,113,0,0,0,16.76,5.82c5.7,1.47,11.93,3.07,17.78,1.61a2.5,2.5,0,0,0,1.75-3.07c-.87-2.14-2.52-3-4.64-3.59q-3.43-1-6.92-1.78c-4.71-1.09-9.47-1.92-14.27-2.54s-9.48-1-14.24-1.16c-4.39-.14-9.33-.56-13.24,1.82-1.51.92-1.74,3.46,0,4.32a15.46,15.46,0,0,0,9.32,1.43,2.51,2.51,0,0,0,1.74-3.08,2.55,2.55,0,0,0-3.07-1.74Z" transform="translate(-17.14 -176.05)"/></g><g class="cls-10"><path class="cls-11" d="M458.48,181.38c3.22,0,3.22-5,0-5s-3.22,5,0,5Z" transform="translate(-17.14 -176.05)"/></g><g class="cls-10"><path class="cls-11" d="M443.48,301.9c-1.74,2-4.77,1.26-7,.38-3.56-1.41-6.76-3.49-10.73-3.38-2.34.06-3.08,2.61-1.77,4.27,2.15,2.71,5.2,4.51,8.24,6.06,3.58,1.82,7.18,3.59,10.78,5.38s7.49,3.71,11.22,5.6c.89.45.74.76.83-.8l.07-1.21.09-.07c-.08-.1.49.25-.07,0-.35-.16-1.52-.36-2.14-.54q-2.79-.81-5.52-1.76a110.41,110.41,0,0,1-12-5l-1.93,4.56a77.63,77.63,0,0,1,18.74,8.9l1.26-4.65c-7.94.51-15.64-1.39-23.28-3.32L429,321.14q17.31,3.19,34.32,7.79L464,324c-15.28-1-29.37-7.82-42.95-14.38L418.48,314q12.27,5.22,24,11.49a2.5,2.5,0,0,0,2.52-4.32q-12.48-7.89-24.52-16.45L418,309a194.77,194.77,0,0,0,24.14,10.49c2.76,1,4.23-3.11,1.93-4.57l-27.67-17.59-2.53,4.31a78.56,78.56,0,0,0,28.29,9.81,2.58,2.58,0,0,0,3.07-1.74,2.51,2.51,0,0,0-1.74-3.08,74.91,74.91,0,0,1-27.09-9.3c-2.8-1.62-5.23,2.59-2.53,4.31l27.68,17.59,1.92-4.56a184.5,184.5,0,0,1-23-10A2.5,2.5,0,0,0,418,309q12,8.55,24.52,16.45l2.52-4.32q-11.76-6.27-24.05-11.49a2.58,2.58,0,0,0-3.42.9,2.53,2.53,0,0,0,.9,3.42c14.42,7,29.24,14,45.47,15.06,2.85.19,3.34-4.18.66-4.91q-17-4.59-34.32-7.79a2.56,2.56,0,0,0-3.07,1.74,2.53,2.53,0,0,0,1.74,3.08c8,2,16.26,4,24.61,3.5a2.52,2.52,0,0,0,1.26-4.66,82.46,82.46,0,0,0-19.93-9.41c-2.66-.84-4.5,3.33-1.93,4.57a121.66,121.66,0,0,0,12.77,5.34q3.18,1.11,6.4,2c1.9.54,3.95,1,5.74-.13a3.5,3.5,0,0,0,.16-5.7c-1.66-1.37-4-2.15-5.89-3.1l-13-6.48c-4.08-2-8.72-3.81-11.63-7.48l-1.76,4.27c3.94-.11,7.23,2.71,10.92,3.7s7.72.74,10.31-2.16c2.14-2.4-1.39-5.94-3.53-3.54Z" transform="translate(-17.14 -176.05)"/></g><g class="cls-10"><path class="cls-11" d="M440.1,327.79l-21-1.53v5q15.21.74,30.35,2.39l-.66-4.91c-8.88,1.46-18,.81-26.89.22v5a85.85,85.85,0,0,0,22.9-2.81c2.66-.7,2.21-5.11-.66-4.91a78.37,78.37,0,0,1-22.5-1.63l-.66,4.91,29.35-1.63c2.73-.15,3.49-4.15.66-4.91l-21.82-5.85-.66,4.91a115.34,115.34,0,0,0,34.1-2.63c2.82-.65,2.09-4.82-.66-4.91A350,350,0,0,1,422.9,311l-.67,4.91q23.86-1.71,47.8-2l-.66-4.91a68.73,68.73,0,0,0-14.78,4.83c-1.91.86-1.45,4.2.6,4.57a41.32,41.32,0,0,0,31.75-7.24,2.59,2.59,0,0,0,.9-3.42,2.53,2.53,0,0,0-3.42-.9,121.13,121.13,0,0,0-15.63,11l3.54,3.53q6.6-8.13,13.94-15.61l-4.18-2.43a22.09,22.09,0,0,1-5.65,10c-1.7,1.74,0,4.92,2.43,4.18l7.34-2.24c3.07-.94,1.76-5.77-1.33-4.82l-7.33,2.24,2.43,4.17a27.39,27.39,0,0,0,6.94-12.18,2.52,2.52,0,0,0-4.18-2.43q-7.33,7.47-13.95,15.61a2.5,2.5,0,0,0,3.54,3.53,112.49,112.49,0,0,1,14.61-10.17l-2.52-4.32a36.47,36.47,0,0,1-27.9,6.74l.59,4.57a63.64,63.64,0,0,1,13.59-4.33c2.79-.56,2.11-4.94-.67-4.91q-23.92.29-47.8,2a2.51,2.51,0,0,0-2.45,2.16,2.47,2.47,0,0,0,1.79,2.75A359.46,359.46,0,0,0,462,319.5l-.67-4.91A110.71,110.71,0,0,1,428.52,317c-2.85-.21-3.34,4.19-.67,4.91l21.82,5.85.67-4.91L421,324.52c-2.68.15-3.55,4.27-.67,4.91a83.34,83.34,0,0,0,23.83,1.81l-.67-4.91A80.43,80.43,0,0,1,421.91,329c-3.24,0-3.18,4.78,0,5,9.43.63,18.85,1.14,28.22-.4a2.47,2.47,0,0,0,1.79-2.74,2.54,2.54,0,0,0-2.46-2.17q-15.13-1.65-30.35-2.39a2.5,2.5,0,0,0,0,5l21,1.53a2.5,2.5,0,0,0,0-5Z" transform="translate(-17.14 -176.05)"/></g><g class="cls-12"><path class="cls-11" d="M230.23,295.37a39.7,39.7,0,0,0-2.4-11.56l-4.57,1.92,6.24,13.4,4.32-2.52q-4-8.08-7.25-16.5L222,282c6.13,9.73,13.51,20.19,25.93,21.44,2.66.27,3.12-3.41,1.26-4.66a80.25,80.25,0,0,0-14-7.39l-1.33,4.82a72,72,0,0,0,24.07,4c2.33,0,3.61-3.58,1.27-4.66l-11.85-5.45a2.57,2.57,0,0,0-3.42.89,2.52,2.52,0,0,0,.9,3.42l11.84,5.46,1.26-4.66a68,68,0,0,1-22.74-3.79,2.5,2.5,0,1,0-1.33,4.82,74,74,0,0,1,12.79,6.89l1.27-4.66c-10.33-1-16.61-11-21.61-19a2.5,2.5,0,0,0-3.12-1,2.48,2.48,0,0,0-1.45,2.95q3.48,9,7.75,17.69a2.52,2.52,0,0,0,3.42.9,2.57,2.57,0,0,0,.9-3.42l-6.24-13.4c-1.18-2.54-5.56-.73-4.57,1.93a35.2,35.2,0,0,1,2.22,10.23c.19,3.19,5.2,3.22,5,0Z" transform="translate(-17.14 -176.05)"/></g><g class="cls-12"><path class="cls-11" d="M244.25,285.8a23.35,23.35,0,0,1-5.43-6.79l-3.92,3a66.86,66.86,0,0,0,16.29,12.32c2.89,1.56,5.08-2.45,2.52-4.32a57.27,57.27,0,0,1-9.37-8.64l-3.54,3.54a77.49,77.49,0,0,0,27,14.73c3.11.95,4.34-3.77,1.33-4.82l-14.42-5.07-1.33,4.82q20.91,4,42.12,6.28c2.78.3,3.42-4.39.66-4.91l-32.45-6.1-.67,4.91a287.06,287.06,0,0,0,52.44.32v-5a222.52,222.52,0,0,1-34.73.56l.66,4.91a262.29,262.29,0,0,1,47.43-8.46,2.5,2.5,0,0,0,0-5,41.51,41.51,0,0,1-21.3-8l-1.92,4.57a66,66,0,0,1,20.6,12.95c1.53,1.41,4.35.49,4.27-1.77L330,274.73l-4.91.67a59.34,59.34,0,0,1,3.25,10.5c.54,2.57,4.08,2.18,4.82,0a80,80,0,0,0,3.22-13l-4.91-.66a53.68,53.68,0,0,1-4.11,16.72l4.91.67q1.46-12.35,3.54-24.59c.65-3.79,1.26-7.61,2.1-11.37.72-3.2,1.68-6.5,3.82-9l-4.27-1.77a277.79,277.79,0,0,1-3.66,28.44,2.57,2.57,0,0,0,1.74,3.07,2.52,2.52,0,0,0,3.08-1.75,291.72,291.72,0,0,0,3.84-29.76c.16-2.09-2.9-3.4-4.27-1.77-5.1,6.08-5.83,14.62-7.12,22.15q-2.25,13.14-3.8,26.4a2.46,2.46,0,0,0,2.16,2.45,2.57,2.57,0,0,0,2.75-1.79,57.58,57.58,0,0,0,4.29-18.05c.2-2.78-4.47-3.46-4.92-.67a79,79,0,0,1-3.21,13h4.82a59.34,59.34,0,0,0-3.25-10.5,2.53,2.53,0,0,0-2.74-1.79,2.5,2.5,0,0,0-2.17,2.45l.51,15.17,4.27-1.76A72.47,72.47,0,0,0,307,273.9a2.47,2.47,0,0,0-2.95,1.45,2.53,2.53,0,0,0,1,3.12,46.29,46.29,0,0,0,23.82,8.64v-5a270.62,270.62,0,0,0-48.76,8.64c-2.8.77-2.09,4.74.67,4.91a222.52,222.52,0,0,0,34.73-.56,2.57,2.57,0,0,0,2.5-2.5,2.51,2.51,0,0,0-2.5-2.5,287.06,287.06,0,0,1-52.44-.32c-2.78-.27-3.43,4.4-.66,4.92l32.45,6.09.67-4.91q-20.52-2.17-40.79-6.1a2.5,2.5,0,0,0-1.33,4.82l14.42,5.07,1.33-4.82a71.38,71.38,0,0,1-24.8-13.45,2.5,2.5,0,0,0-3.54,3.54,63.2,63.2,0,0,0,10.39,9.42l2.52-4.32a62.56,62.56,0,0,1-15.28-11.53c-2-2.08-5.24.56-3.93,3a27.42,27.42,0,0,0,6.21,7.79,2.55,2.55,0,0,0,3.54,0,2.52,2.52,0,0,0,0-3.53Z" transform="translate(-17.14 -176.05)"/></g><g class="cls-12"><path class="cls-11" d="M371.33,264.2a146.27,146.27,0,0,0-1.12,15.65,67.48,67.48,0,0,0,.07,7.66c.2,2.13,1.54,4.78,4.09,4.47a2.61,2.61,0,0,0,2.41-1.84,111.41,111.41,0,0,0,3-16.63l-4.91.66,4.26,14.63c.9,3.08,5.73,1.77,4.82-1.33l-4.26-14.62a2.51,2.51,0,0,0-2.74-1.8,2.56,2.56,0,0,0-2.17,2.46,104.23,104.23,0,0,1-2.79,15.3l2.41-1.83c.3.17.6.33.91.48.07,0,.07,0,0-.15a5.3,5.3,0,0,0,0-1.09c0-1,0-2-.05-2.94,0-2.12,0-4.25.11-6.37q.24-6.37,1-12.71a2.51,2.51,0,0,0-2.5-2.5,2.56,2.56,0,0,0-2.5,2.5Z" transform="translate(-17.14 -176.05)"/></g><g class="cls-12"><path class="cls-11" d="M333,324.13a11.5,11.5,0,0,1-3.91-1.58,2.49,2.49,0,0,0-3.23.64,2.55,2.55,0,0,0,.2,3.28,77.27,77.27,0,0,0,11.69,10.81l2.44-4.18-15.45-4.59c-5-1.5-10.07-3.22-15.29-3.93a2.5,2.5,0,0,0-1.32,4.82,75.14,75.14,0,0,0,24.54,4.83c2.4.06,3.51-3.55,1.26-4.66a137.18,137.18,0,0,1-32.32-22.13l-2.44,4.18q22.31,8.53,43.88,18.8a2.57,2.57,0,0,0,3.42-.89,2.53,2.53,0,0,0-.9-3.43q-22.14-10.52-45.07-19.3c-2.36-.91-4.19,2.55-2.43,4.17a141.4,141.4,0,0,0,33.34,22.91l1.26-4.65a71,71,0,0,1-23.22-4.65l-1.32,4.82c5.21.72,10.25,2.43,15.28,3.93l15.45,4.59c2.26.68,4.43-2.57,2.43-4.17-4.15-3.33-8.3-6.69-11.69-10.81l-3,3.92a15.48,15.48,0,0,0,5.1,2.09,2.58,2.58,0,0,0,3.08-1.75,2.52,2.52,0,0,0-1.75-3.07Z" transform="translate(-17.14 -176.05)"/></g><g class="cls-12"><path class="cls-11" d="M308.06,306.58a2.4,2.4,0,0,1-1.47-1l-1.1,4.18c3.65-.85,7.43-.23,11.08.31q6,.88,12,1.79c8,1.21,15.93,2.49,23.85,4a2.58,2.58,0,0,0,3.08-1.75,2.52,2.52,0,0,0-1.75-3.07c-8.25-1.53-16.53-2.85-24.83-4.11q-6.08-.93-12.18-1.82c-4.19-.61-8.36-1.1-12.54-.13a2.52,2.52,0,0,0-1.1,4.18,7.37,7.37,0,0,0,5,2.42,2.51,2.51,0,0,0,2.5-2.5,2.56,2.56,0,0,0-2.5-2.5Z" transform="translate(-17.14 -176.05)"/></g><g class="cls-12"><path class="cls-11" d="M394.25,317.51l20.37,10.63a2.55,2.55,0,0,0,3.42-.89,2.51,2.51,0,0,0-.9-3.42l-20.37-10.64a2.5,2.5,0,1,0-2.52,4.32Z" transform="translate(-17.14 -176.05)"/></g><g class="cls-12"><path class="cls-11" d="M247.63,313c-6,.23-11.67-1.65-17.27-3.48a2.52,2.52,0,0,0-3.08,1.74,2.56,2.56,0,0,0,1.75,3.08c6,2,12.2,3.91,18.6,3.66a2.5,2.5,0,0,0,0-5Z" transform="translate(-17.14 -176.05)"/></g><g class="cls-12"><path class="cls-11" d="M202.89,323.06l-6.24-4.58-2.52,4.32,12.06,7.65,2.52-4.32L199.19,322l-.59,4.57c5.17-.82,10.24-1.9,14.39-5.3,1.54-1.26.53-3.65-1.1-4.18a87.33,87.33,0,0,0-18.73-3.73l.66,4.92,6.9-2.57c2.18-.8,2.57-4.18,0-4.82a51.12,51.12,0,0,0-15.44-1.44l.67,4.91a43.23,43.23,0,0,0,16.5-6.82,2.51,2.51,0,0,0-1.92-4.57l-10.37,2.43,2.43,4.18,1.21-1.42a2.57,2.57,0,0,0,0-3.54,2.54,2.54,0,0,0-3.54,0l-1.2,1.43a2.52,2.52,0,0,0,2.43,4.18l10.37-2.44-1.93-4.57a39.74,39.74,0,0,1-15.31,6.32c-2.76.51-2.15,5.08.66,4.91a46.6,46.6,0,0,1,14.12,1.26v-4.82l-6.91,2.56a2.51,2.51,0,0,0,.67,4.91,80.73,80.73,0,0,1,17.4,3.55l-1.1-4.17c-3.36,2.74-8.05,3.35-12.19,4-2,.32-2.52,3.73-.6,4.57l9.52,4.15a2.57,2.57,0,0,0,3.42-.9,2.54,2.54,0,0,0-.9-3.42l-12.06-7.65a2.52,2.52,0,0,0-3.42.9,2.57,2.57,0,0,0,.9,3.42l6.23,4.58a2.52,2.52,0,0,0,3.42-.9,2.55,2.55,0,0,0-.89-3.42Z" transform="translate(-17.14 -176.05)"/></g><g class="cls-12"><path class="cls-11" d="M237.37,320.51c0-.12-.05-.24-.08-.36-.12-.46,0,.35,0,0s0-.47,0-.71l0-.45c0-.38.05.05,0,.13a3.08,3.08,0,0,0,.15-.71,7.24,7.24,0,0,1,.25-.79c0-.06.16-.45,0-.12s0-.06.07-.12a9.7,9.7,0,0,1,.85-1.42c0-.05.28-.38.08-.12s.06-.06.1-.11c.18-.21.36-.42.55-.62.37-.39.75-.75,1.14-1.11.81-.73,1.67-1.41,2.53-2.08a2.5,2.5,0,0,0,.74-1.77,2.58,2.58,0,0,0-.74-1.77,2.52,2.52,0,0,0-1.76-.73,2.92,2.92,0,0,0-1.77.73,23.88,23.88,0,0,0-5.4,5.36,10.23,10.23,0,0,0-1.55,8.05,2.5,2.5,0,1,0,4.82-1.32Z" transform="translate(-17.14 -176.05)"/></g><g class="cls-12"><path class="cls-11" d="M197.26,254.74l-4.78-8.49c-1.26-2.24-4.55-1.14-4.66,1.26-.29,6.77,1.66,13.32,3.67,19.7l4.18-2.43a76.29,76.29,0,0,1-8-8.86,2.56,2.56,0,0,0-2.5-1.19,2.44,2.44,0,0,0-2.07,1.79,6.52,6.52,0,0,0,.89,5.09l2.82-3.67a16,16,0,0,1-4.76-2.62l-2.43,4.18c6.89,1.53,13-4.49,13-11.22a16.28,16.28,0,0,0-3.81-10.07c-.25-.31-.51-.62-.78-.92s-.45-.76-.38,0,.28,0,.49-.41l.72-1.26c.86-1.49,1.75-3,2.75-4.38a23.28,23.28,0,0,1,1.64-2.07c.32-.36.65-.71,1-1,.19-.18.91-.65,1-.89a16.51,16.51,0,0,0-1.63-.92c-.06.11.13.59.15.71a8.08,8.08,0,0,1,.05,1.3,7.54,7.54,0,0,1-.57,2.77l4.66,1.26-.17-1.63a2.57,2.57,0,0,0-2.5-2.5,2.51,2.51,0,0,0-2.5,2.5l.17,1.63a2.61,2.61,0,0,0,1.84,2.41,2.5,2.5,0,0,0,2.82-1.15,13.36,13.36,0,0,0,1.22-6.38c-.17-2.09-.73-4.47-3.09-5s-4.12,1.45-5.52,2.93a33.93,33.93,0,0,0-3.54,4.56c-1.06,1.61-2,3.29-3,5a4.59,4.59,0,0,0,.62,5.85c2.19,2.45,4,5.83,3.23,9.22-.63,2.82-3.46,5.58-6.52,4.9-2.22-.49-4.51,2.49-2.43,4.18a22.65,22.65,0,0,0,7,3.91,2.52,2.52,0,0,0,2.82-3.67,1.54,1.54,0,0,1-.38-1.24l-4.57.59a84,84,0,0,0,8.78,9.88c1.74,1.66,5,0,4.18-2.44-1.88-6-3.76-12-3.49-18.37l-4.66,1.26,4.78,8.5c1.57,2.8,5.89.28,4.32-2.53Z" transform="translate(-17.14 -176.05)"/></g><g class="cls-12"><path class="cls-11" d="M224.24,243.76a67.46,67.46,0,0,1,13.51-17.16c1.71-1.56.26-4.12-1.77-4.26-2.71-.2-4.84,1.52-6.84,3.1s-4,3.27-5.94,5a140.19,140.19,0,0,0-11,10.94c-2.2,2.43,1.06,5.54,3.53,3.53a213.11,213.11,0,0,1,20.87-15c.46-.29.91-.62,1.39-.87,0,0,.59-.32.55-.25s-1.26-1.64-1.3-1.62a2.27,2.27,0,0,0-.25.52c-.22.47-.45.92-.69,1.38a41.26,41.26,0,0,1-2.82,4.57,40.75,40.75,0,0,1-17.19,13.84l3.76,2.16c.16-2.48,2.27-4.39,4-5.89a13.9,13.9,0,0,1,3.19-2.24c.86-.38,1.16-.6,1.38.33a41.17,41.17,0,0,1,.78,9.91,56.67,56.67,0,0,1-1,10.4c-.6,3.12,3.92,4.45,4.83,1.33.33-1.17.74-2.81,1.78-3.58.7-.52,1.54,0,2.2.63a18.86,18.86,0,0,1,2.86,4.25,63.91,63.91,0,0,1,2.86,5.74,2.52,2.52,0,0,0,3.42.89,2.56,2.56,0,0,0,.89-3.42,64.13,64.13,0,0,0-3.78-7.32c-1.24-2.06-2.74-4.25-5-5.32a6.19,6.19,0,0,0-6.89.92,12.17,12.17,0,0,0-3.19,5.88l4.83,1.33a65.13,65.13,0,0,0,1.19-13.86,63.37,63.37,0,0,0-.55-6.6c-.28-2.15-.56-4.37-2.42-5.79-3.57-2.72-7.82.44-10.61,2.74-3,2.51-5.54,5.6-5.81,9.67-.13,2.09,2.18,2.85,3.77,2.16a45.86,45.86,0,0,0,19.53-16.42,39.83,39.83,0,0,0,3.12-5.51,4.9,4.9,0,0,0,.57-3.64,3.55,3.55,0,0,0-3.24-2.43c-2.29-.12-4.27,1.49-6.1,2.66-2.22,1.43-4.42,2.89-6.59,4.4q-7.17,5-13.91,10.48l3.53,3.53a140.94,140.94,0,0,1,10-10q2.53-2.3,5.18-4.47c1.34-1.1,3.21-3.21,5.08-3.07l-1.76-4.27a71.79,71.79,0,0,0-14.3,18.17c-1.56,2.82,2.76,5.34,4.32,2.52Z" transform="translate(-17.14 -176.05)"/></g><g class="cls-12"><path class="cls-11" d="M342.92,222.73a27.7,27.7,0,0,1-.64-9.77,2.46,2.46,0,0,0-2.16-2.45,2.56,2.56,0,0,0-2.75,1.79,110.43,110.43,0,0,0-6.3,22.64c-.28,1.65,1.11,3.86,3.07,3.08a11.07,11.07,0,0,0,4.95-3.78,2.51,2.51,0,0,0-.9-3.42,2.56,2.56,0,0,0-3.42.9,5,5,0,0,1-1.95,1.48l3.07,3.07a110.46,110.46,0,0,1,6.31-22.64l-4.92-.67a32.17,32.17,0,0,0,.81,11.1c.78,3.12,5.61,1.79,4.83-1.33Z" transform="translate(-17.14 -176.05)"/></g><g class="cls-12"><path class="cls-11" d="M391.75,230.51l-.35.1c-.27.09.5,0,.22,0-.12,0-.24,0-.37,0-.43,0,.44.11.16,0a1.38,1.38,0,0,0-.29-.08c-.28-.07.5.27.13,0a1.65,1.65,0,0,0-.25-.15c.28.24.35.29.21.17l-.16-.15.39,3c.49-.85,1-1.67,1.55-2.48.26-.39.53-.78.8-1.16l.42-.57.21-.28c.12-.15.38-.34,0,0a9.5,9.5,0,0,0,.89-1.1c.3-.36.61-.72.92-1.07.67-.75,1.36-1.47,2.08-2.17a2.53,2.53,0,0,0,0-3.54,2.55,2.55,0,0,0-3.54,0,47,47,0,0,0-7.64,9.83,2.55,2.55,0,0,0,.39,3,5.59,5.59,0,0,0,5.57,1.37,2.5,2.5,0,1,0-1.33-4.82Z" transform="translate(-17.14 -176.05)"/></g></svg>