<svg id="Livello_1" data-name="Livello 1" xmlns="http://www.w3.org/2000/svg" viewBox="0 0 872 308.48"><defs><style>.cls-1{fill:#5d809b;}.cls-2{fill:#fbb03b;}.cls-2,.cls-3{opacity:0.89;}.cls-3{fill:#b08e5b;}.cls-4{fill:#fff;}.cls-5{font-size:243.48px;font-family:BodoniMT-Bold, Bodoni MT;font-weight:700;}</style></defs><path class="cls-1" d="M425.1,375.55q-9.21,0-14.29-3.86a19.88,19.88,0,0,1-7.07-10.38,50.07,50.07,0,0,1-2-14.56V316.14a53,53,0,0,1,2-15.31,18.51,18.51,0,0,1,7.07-10.11q5.07-3.59,14.29-3.59,8.13,0,12.89,3a16.71,16.71,0,0,1,6.85,8.56,38,38,0,0,1,2.09,13.38v6.85H435.48v-6.1a66.74,66.74,0,0,0-.48-8.51,9.27,9.27,0,0,0-2.63-5.73q-2.13-2-7.17-2t-7.49,2.2a10.65,10.65,0,0,0-3,6.2,54.85,54.85,0,0,0-.7,9.37v34.36A39.77,39.77,0,0,0,415,359a9,9,0,0,0,3.54,5.4A12,12,0,0,0,425.2,366q4.92,0,7.07-2.19a10.53,10.53,0,0,0,2.67-6.05,65.66,65.66,0,0,0,.54-9v-6.43h11.45v6.43a45.81,45.81,0,0,1-1.93,14,17.77,17.77,0,0,1-6.63,9.42Q433.66,375.55,425.1,375.55Z" transform="translate(-82 -173.52)"/><path class="cls-1" d="M474.55,375.44q-6.85,0-10.81-2.78a15,15,0,0,1-5.62-7.92,39.41,39.41,0,0,1-1.66-12.1v-18a39.41,39.41,0,0,1,1.66-12.1,15,15,0,0,1,5.62-7.92q4-2.77,10.81-2.78t10.76,2.78a15.13,15.13,0,0,1,5.56,7.92,39.41,39.41,0,0,1,1.66,12.1v18a39.41,39.41,0,0,1-1.66,12.1,15.13,15.13,0,0,1-5.56,7.92Q481.4,375.43,474.55,375.44Zm0-8.46q3.31,0,4.65-1.92a10.29,10.29,0,0,0,1.61-5.09c.18-2.1.27-4.3.27-6.58V334q0-3.54-.27-6.64a10.57,10.57,0,0,0-1.61-5.09q-1.33-2-4.65-2c-2.21,0-3.79.66-4.71,2a10.27,10.27,0,0,0-1.66,5.09q-.27,3.11-.27,6.64v19.37c0,2.28.09,4.48.27,6.58a10,10,0,0,0,1.66,5.09C470.76,366.34,472.34,367,474.55,367Z" transform="translate(-82 -173.52)"/><path class="cls-1" d="M503.34,374.58V312.71h11.45v8.78q3.44-5.67,6.85-7.6a13.94,13.94,0,0,1,6.85-1.93h.81a6.62,6.62,0,0,1,1,.11V324.7a18.29,18.29,0,0,0-2.94-.91,15.26,15.26,0,0,0-3.37-.37,9.76,9.76,0,0,0-4.87,1.23,13.12,13.12,0,0,0-4.34,4.76v45.17Z" transform="translate(-82 -173.52)"/><path class="cls-1" d="M537.38,394.92V312.71h11.45v4.93a19.74,19.74,0,0,1,4.93-4.07,13.19,13.19,0,0,1,6.85-1.71,11.14,11.14,0,0,1,7.65,2.51,15.41,15.41,0,0,1,4.23,6.32,32.74,32.74,0,0,1,1.82,7.71,64.16,64.16,0,0,1,.43,6.69v15a57.08,57.08,0,0,1-1.29,12.36,19.56,19.56,0,0,1-4.65,9.42q-3.37,3.6-9.48,3.59a10.56,10.56,0,0,1-5.88-1.66,25.09,25.09,0,0,1-4.61-3.8v24.94Zm19.69-28.47a4.57,4.57,0,0,0,4.29-2.2,14.22,14.22,0,0,0,1.6-5.94c.22-2.49.32-5.24.32-8.24v-15a54.06,54.06,0,0,0-.43-7.12,11.16,11.16,0,0,0-1.82-5.19,5,5,0,0,0-4.38-1.93,9.88,9.88,0,0,0-4.28,1,15.54,15.54,0,0,0-3.54,2.25v39.61a16.66,16.66,0,0,0,3.64,2A12.57,12.57,0,0,0,557.07,366.45Z" transform="translate(-82 -173.52)"/><path class="cls-1" d="M602.14,375.44q-6.85,0-10.81-2.78a15,15,0,0,1-5.62-7.92,39.41,39.41,0,0,1-1.66-12.1v-18a39.41,39.41,0,0,1,1.66-12.1,15,15,0,0,1,5.62-7.92q4-2.77,10.81-2.78t10.76,2.78a15.13,15.13,0,0,1,5.56,7.92,39.41,39.41,0,0,1,1.66,12.1v18a39.41,39.41,0,0,1-1.66,12.1,15.13,15.13,0,0,1-5.56,7.92Q609,375.43,602.14,375.44Zm0-8.46q3.32,0,4.65-1.92A10.29,10.29,0,0,0,608.4,360c.18-2.1.27-4.3.27-6.58V334q0-3.54-.27-6.64a10.57,10.57,0,0,0-1.61-5.09q-1.34-2-4.65-2t-4.71,2a10.27,10.27,0,0,0-1.66,5.09q-.27,3.11-.27,6.64v19.37c0,2.28.09,4.48.27,6.58a10,10,0,0,0,1.66,5.09Q598.83,367,602.14,367Z" transform="translate(-82 -173.52)"/><path class="cls-2" d="M631.36,303.51v-12h11.45v12Zm0,71.07V312.71h11.45v61.87Z" transform="translate(-82 -173.52)"/><path class="cls-2" d="M655.12,374.58V312.71h11.45v6.11a33.67,33.67,0,0,1,6.85-4.93,17.09,17.09,0,0,1,8.25-2,7.9,7.9,0,0,1,5.72,1.92,10.57,10.57,0,0,1,2.79,4.82,22.13,22.13,0,0,1,.8,5.89v50.09H679.53V327.81a11.18,11.18,0,0,0-1-5.14c-.64-1.21-2-1.82-4-1.82a8.45,8.45,0,0,0-4,1.12,24.58,24.58,0,0,0-4,2.73v49.88Z" transform="translate(-82 -173.52)"/><path d="M753.69,364.16h-.31q-6.61,11.38-18.62,11.38-11.46,0-20.81-10.07a33.84,33.84,0,0,1-9.35-23.82,31.79,31.79,0,0,1,8.56-22.24q8.55-9.35,19.85-9.35,13.75,0,20.37,13.53h.31V311a168,168,0,0,0,18.22,1h9v4.06H769.13v95.63H780v4.53H740.81v-4.53h12.88Zm0-20.68q0-9.63-1.47-14.6a26.61,26.61,0,0,0-6.12-10.11q-4.67-5.13-12.46-5.13a10.18,10.18,0,0,0-6.8,2.55q-3,2.54-3.7,8a175.68,175.68,0,0,0-.71,19.26q0,17.41,2.78,22.95a9.57,9.57,0,0,0,9.23,5.53,18.54,18.54,0,0,0,11.46-3.86,16.6,16.6,0,0,0,6.44-9.19Q753.69,353.59,753.69,343.48Z" transform="translate(-82 -173.52)"/><path class="cls-3" d="M799.31,365.92a8,8,0,0,1-5.68-1.92,10.29,10.29,0,0,1-2.83-4.82,21.73,21.73,0,0,1-.8-5.89V303.2h11.45v46.67a11.55,11.55,0,0,0,1,5.19c.64,1.25,2,1.87,4,1.87a8.48,8.48,0,0,0,4-1.12,24.09,24.09,0,0,0,4-2.73V303.2h11.45v61.87H814.4V359a30.54,30.54,0,0,1-6.8,4.92A17.24,17.24,0,0,1,799.31,365.92Z" transform="translate(-82 -173.52)"/><path class="cls-3" d="M854.54,352.84q-6.85,0-10.81-2.78a15,15,0,0,1-5.62-7.92,39.41,39.41,0,0,1-1.66-12.1v-18a39.41,39.41,0,0,1,1.66-12.1,15,15,0,0,1,5.62-7.92q4-2.78,10.81-2.78T865.29,292a15.09,15.09,0,0,1,5.57,7.92,39.41,39.41,0,0,1,1.66,12.1v18a39.41,39.41,0,0,1-1.66,12.1,15.09,15.09,0,0,1-5.57,7.92Q861.39,352.85,854.54,352.84Zm0-8.45c2.21,0,3.76-.65,4.65-1.93a10.29,10.29,0,0,0,1.61-5.09q.27-3.15.27-6.58V311.42q0-3.54-.27-6.64a10.49,10.49,0,0,0-1.61-5.08q-1.34-2-4.65-2t-4.71,2a10.2,10.2,0,0,0-1.66,5.08q-.27,3.11-.27,6.64v19.37q0,3.43.27,6.58a10,10,0,0,0,1.66,5.09C850.76,343.74,852.33,344.39,854.54,344.39Z" transform="translate(-82 -173.52)"/><path class="cls-3" d="M899.49,348.08a14.64,14.64,0,0,1-7.76-1.81,10.52,10.52,0,0,1-4.28-5.14,20.88,20.88,0,0,1-1.34-7.82V293h-6.53v-7.6h6.53V267.27h11.46v18.09h9.95V293h-9.95v39.6q0,3.65,1.17,5.2t4.5,1.55c.57,0,1.23,0,2-.11l2.19-.21v8.45q-2.13.33-4,.48C902.24,348,900.92,348.08,899.49,348.08Z" transform="translate(-82 -173.52)"/><path class="cls-3" d="M929.49,370.68a10.34,10.34,0,0,1-6.42-2.09,14.57,14.57,0,0,1-4.39-5.35,15.4,15.4,0,0,1-1.61-6.9A22.08,22.08,0,0,1,919,346.6a19.36,19.36,0,0,1,5.3-6.69,36.71,36.71,0,0,1,7.81-4.77q4.44-2,9.37-4V326.8a37.81,37.81,0,0,0-.43-6.21,6.42,6.42,0,0,0-1.77-3.7,5.79,5.79,0,0,0-4-1.23,6.25,6.25,0,0,0-3.8,1.07,6,6,0,0,0-2.09,3,15.17,15.17,0,0,0-.64,4.66v3.11l-11.35-.43q.21-10.28,4.71-15.15T936,307.1q9.19,0,13.06,5t3.85,14.56V355c0,1.92.05,3.78.16,5.56s.25,3.45.43,5,.34,3,.48,4.34H943.51c-.21-1.14-.48-2.59-.8-4.34s-.56-3.33-.7-4.76a16.36,16.36,0,0,1-4.12,6.79Q934.85,370.69,929.49,370.68Zm4.49-9.85a5.91,5.91,0,0,0,3.22-1,15,15,0,0,0,2.67-2.19,11.88,11.88,0,0,0,1.61-2V338.14q-2.68,1.5-5,3a27.82,27.82,0,0,0-4.13,3.16,12.89,12.89,0,0,0-2.78,3.74,12.39,12.39,0,0,0,.38,10.65A4.53,4.53,0,0,0,934,360.83Z" transform="translate(-82 -173.52)"/><path class="cls-4" d="M289.45,297.14q-8.59.11-13.61-3.33a18.76,18.76,0,0,1-7.18-9.86,49.52,49.52,0,0,1-2.26-15.15l-.28-22.58A49.4,49.4,0,0,1,268,231,18.81,18.81,0,0,1,275,221q4.94-3.56,13.53-3.66T302,220.66a19,19,0,0,1,7.1,9.86,49.53,49.53,0,0,1,2.27,15.16l.27,22.57a49.72,49.72,0,0,1-1.89,15.2,18.94,18.94,0,0,1-6.87,10Q298.05,297,289.45,297.14Zm-.13-10.62c2.78,0,4.71-.86,5.82-2.49a13,13,0,0,0,1.93-6.4q.29-4,.24-8.27L297,245c0-2.95-.18-5.73-.43-8.32a13.45,13.45,0,0,0-2.09-6.36c-1.15-1.64-3.1-2.45-5.88-2.41s-4.74.88-5.88,2.55a12.8,12.8,0,0,0-2,6.41q-.29,3.9-.23,8.33l.29,24.32c0,2.87.18,5.62.44,8.26a12.53,12.53,0,0,0,2.16,6.36Q285.15,286.58,289.32,286.52Z" transform="translate(-82 -173.52)"/><circle class="cls-1" cx="144.5" cy="163.98" r="144.5"/><text class="cls-5" transform="translate(65.05 201.48)">q</text><path d="M267,307.09q-7.23.07-11.45-2.8a15.8,15.8,0,0,1-6-8.29,41.72,41.72,0,0,1-1.91-12.74l-.23-19a42.07,42.07,0,0,1,1.6-12.79,15.76,15.76,0,0,1,5.83-8.43q4.14-3,11.37-3.08t11.39,2.8a15.94,15.94,0,0,1,6,8.29,41.75,41.75,0,0,1,1.9,12.75l.23,19A41.78,41.78,0,0,1,284,295.58a15.9,15.9,0,0,1-5.78,8.43Q274.18,307,267,307.09Z" transform="translate(-82 -173.52)"/><path class="cls-4" d="M261,437.67V322h9.34V437.67Z" transform="translate(-82 -173.52)"/><path class="cls-4" d="M264,378.55l4.14,14.31-13.67,3.95-4.14-14.31Zm-24.5-84.84,21.33,73.85-13.67,3.95-21.33-73.85Z" transform="translate(-82 -173.52)"/></svg>